<svg width="44" height="44" viewBox="0 0 44 44" fill="none" xmlns="http://www.w3.org/2000/svg">
<path d="M39.2857 6.28571H29.8571V4.71429C29.8571 3.46398 29.3605 2.26488 28.4764 1.38078C27.5923 0.496682 26.3932 0 25.1429 0H18.8571C17.6068 0 16.4077 0.496682 15.5236 1.38078C14.6395 2.26488 14.1429 3.46398 14.1429 4.71429V6.28571H4.71429C3.46398 6.28571 2.26488 6.7824 1.38078 7.6665C0.496682 8.5506 0 9.74969 0 11V39.2857C0 40.536 0.496682 41.7351 1.38078 42.6192C2.26488 43.5033 3.46398 44 4.71429 44H39.2857C40.536 44 41.7351 43.5033 42.6192 42.6192C43.5033 41.7351 44 40.536 44 39.2857V11C44 9.74969 43.5033 8.5506 42.6192 7.6665C41.7351 6.7824 40.536 6.28571 39.2857 6.28571ZM17.2857 4.71429C17.2857 4.29752 17.4513 3.89782 17.746 3.60312C18.0407 3.30842 18.4404 3.14286 18.8571 3.14286H25.1429C25.5596 3.14286 25.9593 3.30842 26.254 3.60312C26.5487 3.89782 26.7143 4.29752 26.7143 4.71429V6.28571H17.2857V4.71429ZM4.43143 10.0414C4.57943 9.84915 4.76995 9.69376 4.98806 9.58743C5.20617 9.48111 5.44593 9.42673 5.68857 9.42857H38.3114C38.5541 9.42673 38.7938 9.48111 39.0119 9.58743C39.23 9.69376 39.4206 9.84915 39.5686 10.0414C39.7152 10.2334 39.8156 10.4567 39.8619 10.6938C39.9082 10.9309 39.8993 11.1755 39.8357 11.4086L36.8343 22.4086C36.7422 22.7514 36.5368 23.0529 36.2514 23.2641C35.9661 23.4753 35.6176 23.5836 35.2629 23.5714H28.2857V22C28.2857 21.5832 28.1202 21.1835 27.8255 20.8888C27.5308 20.5941 27.1311 20.4286 26.7143 20.4286H17.2857C16.8689 20.4286 16.4692 20.5941 16.1745 20.8888C15.8798 21.1835 15.7143 21.5832 15.7143 22V23.5714H8.69C8.33523 23.5836 7.9868 23.4753 7.70145 23.2641C7.4161 23.0529 7.21066 22.7514 7.11857 22.4086L4.11714 11.4086C4.06005 11.1719 4.05872 10.9252 4.11327 10.688C4.16781 10.4507 4.27672 10.2294 4.43143 10.0414ZM25.1429 23.5714V26.7143H18.8571V23.5714H25.1429ZM40.8571 39.2857C40.8571 39.7025 40.6916 40.1022 40.3969 40.3969C40.1022 40.6916 39.7025 40.8571 39.2857 40.8571H4.71429C4.29752 40.8571 3.89782 40.6916 3.60312 40.3969C3.30842 40.1022 3.14286 39.7025 3.14286 39.2857V19.5957L4.13286 23.2414C4.40556 24.2405 4.99963 25.1219 5.8233 25.7496C6.64698 26.3773 7.65442 26.7163 8.69 26.7143H15.7143V28.2857C15.7143 28.7025 15.8798 29.1022 16.1745 29.3969C16.4692 29.6916 16.8689 29.8571 17.2857 29.8571H26.7143C27.1311 29.8571 27.5308 29.6916 27.8255 29.3969C28.1202 29.1022 28.2857 28.7025 28.2857 28.2857V26.7143H35.31C36.3456 26.7163 37.353 26.3773 38.1767 25.7496C39.0004 25.1219 39.5944 24.2405 39.8671 23.2414L40.8571 19.5957V39.2857Z" fill="#00C8A3"/>
</svg>
