<svg width="44" height="44" viewBox="0 0 44 44" fill="none" xmlns="http://www.w3.org/2000/svg">
<path d="M21.5443 0.45574C21.3975 0.310098 21.2233 0.194873 21.0319 0.116671C20.8404 0.0384699 20.6354 -0.00116942 20.4286 2.62653e-05H4.71429C3.46398 2.62653e-05 2.26488 0.496708 1.38078 1.38081C0.496682 2.26491 0 3.464 0 4.71431V39.2857C0 40.536 0.496682 41.7351 1.38078 42.6192C2.26488 43.5033 3.46398 44 4.71429 44H28.2857C29.536 44 30.7351 43.5033 31.6192 42.6192C32.5033 41.7351 33 40.536 33 39.2857V12.5714C33.0012 12.3646 32.9616 12.1596 32.8834 11.9682C32.8052 11.7767 32.6899 11.6026 32.5443 11.4557L21.5443 0.45574ZM22 5.35859L27.6414 11H23.5714C23.1547 11 22.755 10.8345 22.4603 10.5398C22.1656 10.2451 22 9.84536 22 9.42859V5.35859ZM29.8571 39.2857C29.8571 39.7025 29.6916 40.1022 29.3969 40.3969C29.1022 40.6916 28.7025 40.8571 28.2857 40.8571H4.71429C4.29752 40.8571 3.89782 40.6916 3.60312 40.3969C3.30842 40.1022 3.14286 39.7025 3.14286 39.2857V4.71431C3.14286 4.29754 3.30842 3.89784 3.60312 3.60314C3.89782 3.30844 4.29752 3.14288 4.71429 3.14288H18.8571V9.42859C18.8571 10.6789 19.3538 11.878 20.2379 12.7621C21.122 13.6462 22.3211 14.1429 23.5714 14.1429H29.8571V39.2857Z" fill="#00C8A3"/>
<path d="M9.42857 22H20.4286C20.8453 22 21.245 21.8345 21.5397 21.5398C21.8344 21.2451 22 20.8454 22 20.4286C22 20.0118 21.8344 19.6121 21.5397 19.3174C21.245 19.0227 20.8453 18.8572 20.4286 18.8572H9.42857C9.0118 18.8572 8.6121 19.0227 8.3174 19.3174C8.0227 19.6121 7.85714 20.0118 7.85714 20.4286C7.85714 20.8454 8.0227 21.2451 8.3174 21.5398C8.6121 21.8345 9.0118 22 9.42857 22Z" fill="#00C8A3"/>
<path d="M9.42857 25.1429C9.0118 25.1429 8.6121 25.3084 8.3174 25.6031C8.0227 25.8978 7.85714 26.2975 7.85714 26.7143C7.85714 27.1311 8.0227 27.5308 8.3174 27.8255C8.6121 28.1202 9.0118 28.2857 9.42857 28.2857H23.5714C23.9882 28.2857 24.3879 28.1202 24.6826 27.8255C24.9773 27.5308 25.1429 27.1311 25.1429 26.7143C25.1429 26.2975 24.9773 25.8978 24.6826 25.6031C24.3879 25.3084 23.9882 25.1429 23.5714 25.1429H9.42857Z" fill="#00C8A3"/>
<path d="M22 31.4286H9.42857C9.0118 31.4286 8.6121 31.5941 8.3174 31.8888C8.0227 32.1835 7.85714 32.5832 7.85714 33C7.85714 33.4168 8.0227 33.8165 8.3174 34.1112C8.6121 34.4059 9.0118 34.5714 9.42857 34.5714H22C22.4168 34.5714 22.8165 34.4059 23.1112 34.1112C23.4059 33.8165 23.5714 33.4168 23.5714 33C23.5714 32.5832 23.4059 32.1835 23.1112 31.8888C22.8165 31.5941 22.4168 31.4286 22 31.4286Z" fill="#00C8A3"/>
<path d="M40.0714 4.71431C39.0295 4.71431 38.0303 5.12821 37.2935 5.86496C36.5568 6.60171 36.1429 7.60096 36.1429 8.64288V37.7143C36.1443 37.9603 36.2035 38.2025 36.3157 38.4214L38.6729 43.1357C38.8047 43.3931 39.0051 43.6091 39.2518 43.76C39.4986 43.9108 39.7822 43.9906 40.0714 43.9906C40.3606 43.9906 40.6442 43.9108 40.891 43.76C41.1378 43.6091 41.3381 43.3931 41.47 43.1357L43.8271 38.4214C43.9393 38.2025 43.9985 37.9603 44 37.7143V8.64288C44 7.60096 43.5861 6.60171 42.8493 5.86496C42.1126 5.12821 41.1133 4.71431 40.0714 4.71431ZM39.2857 8.64288C39.2857 8.43449 39.3685 8.23464 39.5158 8.08729C39.6632 7.93994 39.863 7.85716 40.0714 7.85716C40.2798 7.85716 40.4797 7.93994 40.627 8.08729C40.7744 8.23464 40.8571 8.43449 40.8571 8.64288V11H39.2857V8.64288ZM40.8571 37.3371L40.0714 38.9086L39.2857 37.3371V14.1429H40.8571V37.3371Z" fill="#00C8A3"/>
</svg>
