<svg width="44" height="44" viewBox="0 0 44 44" fill="none" xmlns="http://www.w3.org/2000/svg">
<path d="M16.5 3.14286L16.5 40.8571L13.3571 40.8571L13.3571 14.1429C13.3571 13.3093 13.026 12.5099 12.4366 11.9205C11.8472 11.3311 11.0478 11 10.2143 11L5.5 11C4.66646 11 3.86706 11.3311 3.27766 11.9205C2.68826 12.5099 2.35714 13.3093 2.35714 14.1429L2.35714 40.8571L1.57143 40.8571C1.15466 40.8571 0.754961 41.0227 0.460261 41.3174C0.165561 41.6121 -8.69069e-08 42.0118 -6.86893e-08 42.4286C-5.04718e-08 42.8453 0.165561 43.245 0.460261 43.5397C0.754961 43.8344 1.15466 44 1.57143 44L42.4286 44C42.8453 44 43.245 43.8344 43.5397 43.5397C43.8344 43.245 44 42.8453 44 42.4286C44 42.0118 43.8344 41.6121 43.5397 41.3174C43.245 41.0227 42.8453 40.8571 42.4286 40.8571L41.6429 40.8571L41.6429 25.1429C41.6429 24.3093 41.3117 23.5099 40.7223 22.9205C40.1329 22.3311 39.3335 22 38.5 22L33.7857 22C32.9522 22 32.1528 22.3311 31.5634 22.9205C30.974 23.5099 30.6429 24.3093 30.6429 25.1429L30.6429 40.8571L27.5 40.8571L27.5 3.14286C27.5 2.30932 27.1689 1.50992 26.5795 0.920523C25.9901 0.331126 25.1907 2.71358e-06 24.3571 2.75001e-06L19.6429 2.95608e-06C18.8093 2.99252e-06 18.0099 0.331126 17.4205 0.920524C16.8311 1.50993 16.5 2.30932 16.5 3.14286ZM5.5 14.1429L10.2143 14.1429L10.2143 40.8571L5.5 40.8571L5.5 14.1429ZM33.7857 25.1429L38.5 25.1429L38.5 40.8571L33.7857 40.8571L33.7857 25.1429ZM24.3571 40.8571L19.6429 40.8571L19.6429 3.14286L24.3571 3.14286L24.3571 40.8571Z" fill="#00C8A3"/>
</svg>
