<svg width="44" height="44" viewBox="0 0 44 44" fill="none" xmlns="http://www.w3.org/2000/svg">
<path d="M9.42857 9.43971H15.7143C16.1311 9.43971 16.5308 9.27436 16.8255 8.98005C17.1202 8.68573 17.2857 8.28656 17.2857 7.87034C17.2857 7.45412 17.1202 7.05494 16.8255 6.76063C16.5308 6.46632 16.1311 6.30097 15.7143 6.30097H12.9957C15.79 4.09975 19.2952 2.99755 22.8482 3.20288C26.4012 3.4082 29.7557 4.90681 32.2771 7.41522C32.5698 7.70515 32.9649 7.86861 33.3771 7.87034C33.597 7.88228 33.817 7.84794 34.0227 7.76954C34.2285 7.69113 34.4154 7.57042 34.5714 7.41522C34.7187 7.26933 34.8356 7.09576 34.9154 6.90451C34.9952 6.71327 35.0363 6.50815 35.0363 6.30097C35.0363 6.0938 34.9952 5.88867 34.9154 5.69743C34.8356 5.50619 34.7187 5.33261 34.5714 5.18672C31.4939 2.10784 27.3873 0.270902 23.038 0.0276618C18.6888 -0.215578 14.4025 1.15198 11 3.86845V1.59287C11 1.17665 10.8344 0.777472 10.5397 0.483159C10.245 0.188845 9.84534 0.0235018 9.42857 0.0235018C9.0118 0.0235018 8.6121 0.188845 8.3174 0.483159C8.0227 0.777472 7.85714 1.17665 7.85714 1.59287V7.87034C7.85714 8.28656 8.0227 8.68573 8.3174 8.98005C8.6121 9.27436 9.0118 9.43971 9.42857 9.43971Z" fill="#00C8A3"/>
<path d="M33.3771 34.5496H27.0914C26.6747 34.5496 26.275 34.7149 25.9803 35.0092C25.6856 35.3036 25.52 35.7027 25.52 36.1189C25.52 36.5352 25.6856 36.9343 25.9803 37.2287C26.275 37.523 26.6747 37.6883 27.0914 37.6883H29.8571C27.0642 39.8928 23.5583 40.9971 20.0043 40.7917C16.4504 40.5863 13.0954 39.0856 10.5757 36.5741C10.4292 36.4277 10.2553 36.3117 10.0638 36.2325C9.87239 36.1533 9.66721 36.1125 9.46 36.1125C9.04153 36.1125 8.64019 36.2786 8.34429 36.5741C8.19777 36.7204 8.08154 36.8941 8.00225 37.0853C7.92295 37.2765 7.88214 37.4814 7.88214 37.6883C7.88214 38.1062 8.04838 38.507 8.34429 38.8026C11.4183 41.8877 15.5258 43.729 19.8771 43.9724C24.2283 44.2157 28.516 42.844 31.9157 40.1208V42.3964C31.9157 42.8126 32.0813 43.2118 32.376 43.5061C32.6707 43.8004 33.0704 43.9658 33.4871 43.9658C33.9039 43.9658 34.3036 43.8004 34.5983 43.5061C34.893 43.2118 35.0586 42.8126 35.0586 42.3964V36.1189C35.0591 35.9033 35.0151 35.6898 34.9294 35.4919C34.8436 35.2939 34.7179 35.1158 34.5601 34.9685C34.4023 34.8213 34.2159 34.7081 34.0123 34.636C33.8088 34.5639 33.5926 34.5345 33.3771 34.5496Z" fill="#00C8A3"/>
<path d="M15.7143 27.2206C15.6011 26.0574 15.2038 24.9397 14.5572 23.9656C13.9106 22.9915 13.0345 22.1907 12.0057 21.6337C12.8734 20.6489 13.3537 19.383 13.3571 18.0712C13.3571 16.6144 12.7777 15.2173 11.7462 14.1872C10.7148 13.1571 9.31583 12.5784 7.85714 12.5784C6.39845 12.5784 4.99951 13.1571 3.96806 14.1872C2.93661 15.2173 2.35714 16.6144 2.35714 18.0712C2.36062 19.383 2.84085 20.6489 3.70857 21.6337C2.6798 22.1907 1.80367 22.9915 1.15706 23.9656C0.510456 24.9397 0.113145 26.0574 0 27.2206C0 31.4108 5.70429 31.4108 7.85714 31.4108C10.01 31.4108 15.7143 31.4108 15.7143 27.2206ZM5.5 18.0712C5.5 17.6056 5.63824 17.1505 5.89725 16.7634C6.15626 16.3763 6.52439 16.0745 6.9551 15.8964C7.38581 15.7182 7.85976 15.6716 8.317 15.7624C8.77424 15.8532 9.19424 16.0774 9.52389 16.4067C9.85355 16.7359 10.078 17.1553 10.169 17.612C10.2599 18.0686 10.2133 18.5419 10.0349 18.9721C9.85645 19.4022 9.55433 19.7699 9.1667 20.0285C8.77907 20.2872 8.32334 20.4253 7.85714 20.4253C7.23199 20.4253 6.63244 20.1773 6.19039 19.7358C5.74834 19.2943 5.5 18.6956 5.5 18.0712ZM3.14286 27.2206C3.42086 26.1805 4.03224 25.26 4.88356 24.5997C5.73488 23.9393 6.77929 23.5756 7.85714 23.564C8.935 23.5756 9.97941 23.9393 10.8307 24.5997C11.682 25.26 12.2934 26.1805 12.5714 27.2206C12.5714 27.4717 12.2257 28.2721 7.85714 28.2721C3.48857 28.2721 3.14286 27.4717 3.14286 27.2206Z" fill="#00C8A3"/>
<path d="M40.2914 21.6337C41.1592 20.6489 41.6394 19.383 41.6429 18.0712C41.6429 16.6144 41.0634 15.2173 40.0319 14.1872C39.0005 13.1571 37.6015 12.5784 36.1429 12.5784C34.6842 12.5784 33.2852 13.1571 32.2538 14.1872C31.2223 15.2173 30.6429 16.6144 30.6429 18.0712C30.6463 19.383 31.1266 20.6489 31.9943 21.6337C30.9655 22.1907 30.0894 22.9915 29.4428 23.9656C28.7962 24.9397 28.3989 26.0574 28.2857 27.2206C28.2857 31.4108 33.99 31.4108 36.1429 31.4108C38.2957 31.4108 44 31.4108 44 27.2206C43.8869 26.0574 43.4895 24.9397 42.8429 23.9656C42.1963 22.9915 41.3202 22.1907 40.2914 21.6337ZM33.7857 18.0712C33.7857 17.6056 33.924 17.1505 34.183 16.7634C34.442 16.3763 34.8101 16.0745 35.2408 15.8964C35.6715 15.7182 36.1455 15.6716 36.6027 15.7624C37.06 15.8532 37.48 16.0774 37.8096 16.4067C38.1393 16.7359 38.3638 17.1553 38.4547 17.612C38.5457 18.0686 38.499 18.5419 38.3206 18.9721C38.1422 19.4022 37.84 19.7699 37.4524 20.0285C37.0648 20.2872 36.6091 20.4253 36.1429 20.4253C35.5177 20.4253 34.9182 20.1773 34.4761 19.7358C34.0341 19.2943 33.7857 18.6956 33.7857 18.0712ZM36.1429 28.2721C31.7743 28.2721 31.4286 27.4717 31.4286 27.2206C31.7002 26.1785 32.3105 25.2558 33.1636 24.5972C34.0167 23.9386 35.0646 23.5813 36.1429 23.5813C37.2212 23.5813 38.269 23.9386 39.1221 24.5972C39.9753 25.2558 40.5855 26.1785 40.8571 27.2206C40.8571 27.4717 40.5114 28.2721 36.1429 28.2721Z" fill="#00C8A3"/>
</svg>
