<svg width="44" height="44" viewBox="0 0 44 44" fill="none" xmlns="http://www.w3.org/2000/svg">
<path fill-rule="evenodd" clip-rule="evenodd" d="M15.125 17.9297C18.4221 17.9297 20.6385 20.1681 20.6387 23.501C20.6387 25.4284 20.0695 26.4594 19.6543 27.2129C19.426 27.6252 19.3119 27.8447 19.2803 28.1191L19.8496 28.3916C21.0857 28.9474 23.3886 29.9838 23.3887 33.7207C23.3887 35.0188 22.4207 36.0361 21.1846 36.0361H9.08691C7.85376 36.0359 6.8877 35.0187 6.8877 33.7207C6.88773 29.9841 9.18062 28.9493 10.4141 28.3936L10.9805 28.1201C10.9488 27.8444 10.8346 27.6259 10.6064 27.2109C10.1926 26.4588 9.62598 25.4273 9.62598 23.501C9.62616 20.1681 11.8361 17.9297 15.125 17.9297ZM15.125 20.7158C14.0979 20.7158 12.3762 21.0778 12.376 23.501C12.376 24.7044 12.6692 25.2384 13.0088 25.8555C13.3333 26.4474 13.7393 27.1832 13.7393 28.2891C13.739 29.9421 12.3581 30.5647 11.5332 30.9365C10.5296 31.3905 9.77901 31.7291 9.65527 33.25H20.6191C20.4954 31.7305 19.7425 31.3915 18.7334 30.9375C17.9057 30.5642 16.5207 29.9421 16.5205 28.2891C16.5205 27.1817 16.928 26.4459 17.2539 25.8525C17.5949 25.2356 17.8887 24.7015 17.8887 23.501C17.8885 21.0778 16.1576 20.7158 15.125 20.7158Z" fill="#00C8A3"/>
<path d="M35.75 29.0713C36.5102 29.0713 37.1248 29.6938 37.125 30.4639C37.125 31.2341 36.5104 31.8574 35.75 31.8574H27.5C26.7396 31.8574 26.125 31.2341 26.125 30.4639C26.1252 29.6938 26.7398 29.0713 27.5 29.0713H35.75Z" fill="#00C8A3"/>
<path d="M35.75 22.1074C36.5104 22.1074 37.125 22.7311 37.125 23.5C37.125 24.2689 36.5104 24.8926 35.75 24.8926H27.5C26.7396 24.8926 26.125 24.2689 26.125 23.5C26.125 22.7311 26.7396 22.1074 27.5 22.1074H35.75Z" fill="#00C8A3"/>
<path fill-rule="evenodd" clip-rule="evenodd" d="M24.0566 2C25.1965 2 26.125 2.93907 26.125 4.09375V7.57129H39.874C42.148 7.57151 43.9998 9.44612 44 11.751V37.8213C44 40.1251 42.1493 42 39.875 42H4.125C1.85075 42 0 40.1251 0 37.8213V11.751C0.000223283 9.44612 1.85067 7.57151 4.12598 7.57129H17.875V4.09375C17.875 2.93915 18.8016 2.00012 19.9414 2H24.0566ZM4.12598 10.3574C3.3673 10.3576 2.75022 10.9824 2.75 11.751V37.8213C2.75 38.5901 3.36737 39.2139 4.125 39.2139H39.875C40.634 39.2139 41.25 38.5901 41.25 37.8213V11.751C41.2498 11.0305 40.7075 10.436 40.0146 10.3643L39.874 10.3574H26.125V12.4404C26.125 13.5965 25.1965 14.5361 24.0566 14.5361H19.9414C18.8017 14.536 17.8751 13.5969 17.875 12.4424V10.3574H4.12598ZM20.625 11.75H23.375V4.78613H20.625V11.75Z" fill="#00C8A3"/>
</svg>
