<svg width="44" height="44" viewBox="0 0 44 44" fill="none" xmlns="http://www.w3.org/2000/svg">
<path d="M40.8571 31.4286H39.2857V25.1429C39.2857 23.8925 38.789 22.6935 37.9049 21.8094C37.0208 20.9253 35.8217 20.4286 34.5714 20.4286H23.5714V12.5714H25.1429C25.9764 12.5714 26.7758 12.2403 27.3652 11.6509C27.9546 11.0615 28.2857 10.2621 28.2857 9.42857V3.14286C28.2857 2.30932 27.9546 1.50992 27.3652 0.920521C26.7758 0.331121 25.9764 0 25.1429 0H18.8571C18.0236 0 17.2242 0.331121 16.6348 0.920521C16.0454 1.50992 15.7143 2.30932 15.7143 3.14286V9.42857C15.7143 10.2621 16.0454 11.0615 16.6348 11.6509C17.2242 12.2403 18.0236 12.5714 18.8571 12.5714H20.4286V20.4286H9.42857C8.17826 20.4286 6.97917 20.9253 6.09507 21.8094C5.21097 22.6935 4.71429 23.8925 4.71429 25.1429V31.4286H3.14286C2.30932 31.4286 1.50992 31.7597 0.920521 32.3491C0.331121 32.9385 0 33.7379 0 34.5714V40.8571C0 41.6907 0.331121 42.4901 0.920521 43.0795C1.50992 43.6689 2.30932 44 3.14286 44H9.42857C10.2621 44 11.0615 43.6689 11.6509 43.0795C12.2403 42.4901 12.5714 41.6907 12.5714 40.8571V34.5714C12.5714 33.7379 12.2403 32.9385 11.6509 32.3491C11.0615 31.7597 10.2621 31.4286 9.42857 31.4286H7.85714V25.1429C7.85714 24.7261 8.0227 24.3264 8.3174 24.0317C8.6121 23.737 9.0118 23.5714 9.42857 23.5714H20.4286V31.4286H18.8571C18.0236 31.4286 17.2242 31.7597 16.6348 32.3491C16.0454 32.9385 15.7143 33.7379 15.7143 34.5714V40.8571C15.7143 41.6907 16.0454 42.4901 16.6348 43.0795C17.2242 43.6689 18.0236 44 18.8571 44H25.1429C25.9764 44 26.7758 43.6689 27.3652 43.0795C27.9546 42.4901 28.2857 41.6907 28.2857 40.8571V34.5714C28.2857 33.7379 27.9546 32.9385 27.3652 32.3491C26.7758 31.7597 25.9764 31.4286 25.1429 31.4286H23.5714V23.5714H34.5714C34.9882 23.5714 35.3879 23.737 35.6826 24.0317C35.9773 24.3264 36.1429 24.7261 36.1429 25.1429V31.4286H34.5714C33.7379 31.4286 32.9385 31.7597 32.3491 32.3491C31.7597 32.9385 31.4286 33.7379 31.4286 34.5714V40.8571C31.4286 41.6907 31.7597 42.4901 32.3491 43.0795C32.9385 43.6689 33.7379 44 34.5714 44H40.8571C41.6907 44 42.4901 43.6689 43.0795 43.0795C43.6689 42.4901 44 41.6907 44 40.8571V34.5714C44 33.7379 43.6689 32.9385 43.0795 32.3491C42.4901 31.7597 41.6907 31.4286 40.8571 31.4286ZM18.8571 3.14286H25.1429V9.42857H18.8571V3.14286ZM9.42857 40.8571H3.14286V34.5714H9.42857V40.8571ZM25.1429 40.8571H18.8571V34.5714H25.1429V40.8571ZM34.5714 40.8571V34.5714H40.8571V40.8571H34.5714Z" fill="#00C8A3"/>
</svg>
