<svg width="45" height="45" viewBox="0 0 45 45" fill="none" xmlns="http://www.w3.org/2000/svg">
<g id="Frame 20">
<path id="Vector" d="M11.2056 32.173C10.4076 32.1471 9.77434 31.4916 9.77434 30.6918C9.77434 29.8937 10.4076 29.2383 11.2056 29.2105C12.0036 29.2383 12.6368 29.8937 12.6368 30.6918C12.6368 31.4916 12.0036 32.1471 11.2056 32.173ZM22.0261 29.2105C21.2281 29.2383 20.5967 29.8937 20.5967 30.6918C20.5967 31.4916 21.2281 32.1471 22.0261 32.173C22.8242 32.1471 23.4574 31.4916 23.4574 30.6918C23.4574 29.8937 22.8242 29.2383 22.0261 29.2105ZM16.6159 29.2105C15.8178 29.2383 15.1846 29.8937 15.1846 30.6918C15.1846 31.4916 15.8178 32.1471 16.6159 32.173C17.4139 32.1471 18.0471 31.4916 18.0471 30.6918C18.0471 29.8937 17.4139 29.2383 16.6159 29.2105ZM34.1521 12.4389C33.3541 12.4666 32.7208 13.1221 32.7208 13.9201C32.7208 14.7181 33.3541 15.3736 34.1521 15.4014C34.9501 15.3736 35.5833 14.7181 35.5833 13.9201C35.5833 13.1221 34.9501 12.4666 34.1521 12.4389ZM23.3315 12.4389C22.5335 12.4666 21.9003 13.1221 21.9003 13.9201C21.9003 14.7181 22.5335 15.3736 23.3315 15.4014C24.1296 15.3736 24.7628 14.7181 24.7628 13.9201C24.7628 13.1221 24.1296 12.4666 23.3315 12.4389ZM28.7418 12.4389C27.9438 12.4666 27.3106 13.1221 27.3106 13.9201C27.3106 14.7181 27.9438 15.3736 28.7418 15.4014C29.5398 15.3736 30.1731 14.7181 30.1731 13.9201C30.1731 13.1221 29.5398 12.4666 28.7418 12.4389ZM40.453 20.8581L40.9844 24.4965C41.0529 24.9612 40.8974 25.4297 40.5641 25.7611C40.2308 26.0925 39.7587 26.2462 39.2939 26.174L35.6556 25.6167H35.6574C33.8595 26.6943 31.8302 27.3275 29.7381 27.4645C32.8969 39.061 19.8006 48.4927 9.69864 42.3975L6.05659 42.9548V42.953C5.58999 43.0252 5.11967 42.8715 4.7864 42.5401C4.45312 42.2068 4.29571 41.7365 4.36609 41.2718L4.91044 37.6223C-0.34057 29.4808 5.89916 17.6085 15.5219 17.1496C13.213 9.1916 20.4454 -0.177546 28.7831 0.328215C38.9131 0.0171506 45.9065 12.3044 40.4536 20.8582L40.453 20.8581ZM26.5235 27.0164C25.831 25.1278 24.6145 23.4743 23.0166 22.2503C21.4169 21.0283 19.5042 20.2858 17.4987 20.1117C9.01646 19.1026 2.79706 29.5065 7.68546 36.4629C8.23724 37.1332 7.62806 38.9644 7.59288 39.7217C8.35574 39.6828 10.1592 39.07 10.8257 39.6088C19.2227 45.1134 30.2472 36.6074 26.5235 27.0164ZM38.0441 8.89331C31.673 -2.60695 14.9052 5.1513 18.6195 17.2457C22.9818 17.9104 26.7553 20.6359 28.7608 24.5648C30.8105 24.5741 32.8139 23.9704 34.5175 22.8336C34.8231 22.6299 35.1952 22.5485 35.5581 22.6059L37.7633 22.9428C37.73 22.1893 37.1264 20.3525 37.68 19.6989V19.697C38.7391 18.1083 39.3335 16.2549 39.3983 14.3479C39.4631 12.4389 38.9946 10.5503 38.0448 8.89306L38.0441 8.89331Z" fill="#F4FD19"/>
</g>
</svg>
