<svg width="44" height="44" viewBox="0 0 44 44" fill="none" xmlns="http://www.w3.org/2000/svg">
<path d="M36.5148 23.6843L26.998 21.2543V19.1469C28.4224 17.8708 29.3234 16.0134 29.3234 13.9525V8.67673C30.7129 7.87158 31.6489 6.36873 31.6489 4.65082V1.16271C31.6489 0.520312 31.1285 0 30.4861 0H20.0222C17.4584 0 15.3713 2.08707 15.3713 4.65082V13.9525C15.3713 16.0133 16.2724 17.8679 17.6967 19.1469V21.2543L8.17997 23.6843C6.27894 24.318 5 26.0911 5 28.0968V42.8373C5 43.4797 5.52031 44 6.16271 44H38.5324C39.1748 44 39.6951 43.4797 39.6951 42.8373V28.0968C39.6951 26.0911 38.4187 24.318 36.5148 23.6843ZM18.4317 23.4634L20.5826 26.3295L18.5392 27.3527L17.8038 23.6756L18.4316 23.4663L18.4317 23.4634ZM26.2622 23.4634L26.89 23.6727L26.1546 27.3497L24.1111 26.3265L26.2621 23.4604L26.2622 23.4634ZM26.9976 13.9556C26.9976 16.5194 24.9105 18.6064 22.3467 18.6064C19.7801 18.6064 17.6959 16.5194 17.6959 13.9556V9.30479H26.9976V13.9556ZM17.6959 4.65396C17.6959 3.37205 18.7394 2.32855 20.0213 2.32855H29.323V4.65396C29.323 5.93588 28.2795 6.97938 26.9976 6.97938H17.6959V4.65396ZM22.3467 20.9319C23.1607 20.9319 23.9454 20.7894 24.6722 20.5307V21.705L22.3467 24.8037L20.0213 21.705V20.5307C20.748 20.7894 21.5328 20.9319 22.3467 20.9319ZM37.3693 41.6745H7.32495V28.0971C7.32495 27.0942 7.96444 26.2077 8.91494 25.8909L15.5772 24.4142L16.5539 29.2976C16.6237 29.6522 16.8562 29.9545 17.1818 30.1144C17.5073 30.2743 17.8881 30.2743 18.2107 30.1086L22.3413 28.0448L26.4718 30.1086C26.6346 30.19 26.8148 30.2307 26.9921 30.2307C27.1723 30.2307 27.3409 30.19 27.5037 30.1144C27.8293 29.9546 28.0618 29.6552 28.1316 29.2976L29.1082 24.4142L35.7705 25.8909C36.721 26.2077 37.3605 27.0943 37.3605 28.0971V41.6745H37.3693Z" fill="#F4FD19"/>
</svg>
