<svg width="44" height="44" viewBox="0 0 44 44" fill="none" xmlns="http://www.w3.org/2000/svg">
<path d="M16.0299 15.0862C15.9318 15.39 16.0115 15.7186 16.241 15.9421L19.346 18.9674L18.613 23.241C18.56 23.5528 18.6898 23.8735 18.9456 24.0578C19.0888 24.1624 19.2568 24.2164 19.4343 24.2164C19.5686 24.2164 19.7029 24.1837 19.8233 24.1223L23.6609 22.1031L27.5004 24.1232C27.7849 24.267 28.1224 24.2412 28.3771 24.0578C28.6314 23.8725 28.7622 23.5523 28.7102 23.242L27.9772 18.9669L31.0822 15.9416C31.3102 15.7166 31.3905 15.389 31.2913 15.0847C31.1922 14.7819 30.9335 14.5643 30.6193 14.5182L26.3288 13.8943L24.4092 10.0052C24.2665 9.7187 23.98 9.54127 23.6614 9.54127C23.3422 9.54127 23.0552 9.7192 22.9135 10.0062L20.9935 13.8938L16.7029 14.5177C16.3872 14.5648 16.13 14.7824 16.0299 15.0862ZM26.4968 18.0792C26.2985 18.271 26.2103 18.5481 26.2584 18.8182L26.7788 21.8578L24.0484 20.4215C23.929 20.3595 23.7947 20.3268 23.6614 20.3268C23.5261 20.3268 23.3917 20.3595 23.2718 20.4215L20.5434 21.8578L21.0638 18.8192C21.1109 18.5481 21.0212 18.272 20.825 18.0802L18.617 15.9278L21.667 15.4837C21.9381 15.4455 22.173 15.2745 22.2964 15.0272L23.6604 12.2617L25.0243 15.0272C25.1462 15.2745 25.3831 15.4455 25.6537 15.4827L28.7042 15.9273L26.4968 18.0792Z" fill="#F4FD19"/>
<path d="M3.76877 16.7246L5.20902 19.4059C5.35473 19.677 5.63624 19.8455 5.94402 19.8455H5.97177C6.28698 19.8356 6.57444 19.6428 6.70479 19.3538L7.95671 16.5809L10.9527 16.0387C11.2669 15.9812 11.5167 15.7552 11.6054 15.4479C11.6931 15.1451 11.5985 14.8125 11.365 14.6014L9.11397 12.552L9.52434 9.5372C9.56745 9.22 9.43017 8.91173 9.16402 8.73182C8.90531 8.55588 8.55293 8.54399 8.28431 8.7001L5.6407 10.2083L2.90045 8.88645C2.62092 8.74818 2.26953 8.78634 2.02321 8.97963C1.77193 9.17589 1.65547 9.4921 1.7199 9.80582L2.33694 12.7859L0.232061 14.9855C0.0115121 15.2169 -0.0583696 15.5475 0.0506656 15.8484C0.15871 16.1432 0.430802 16.3569 0.743535 16.3906L3.76877 16.7246ZM3.6974 11.1232L5.31112 11.9013C5.55446 12.0163 5.85332 12.0103 6.08725 11.8735L7.64298 10.9859L7.40112 12.7607C7.36395 13.0328 7.46308 13.3058 7.66677 13.4917L8.99205 14.697L7.22815 15.0162C6.95804 15.0653 6.72907 15.2432 6.61607 15.494L5.87909 17.127L5.03209 15.548C4.90372 15.3086 4.66335 15.1461 4.38828 15.1143L2.60754 14.9171L3.84608 13.6235C4.0364 13.4263 4.11619 13.1468 4.06118 12.8766L3.6974 11.1232Z" fill="#F4FD19"/>
<path d="M30.8061 11.2041C32.4719 11.2041 33.8289 9.84954 33.8289 8.18329C33.8289 6.51703 32.4724 5.16153 30.8061 5.16153C29.1399 5.16153 27.7854 6.51703 27.7854 8.18329C27.7854 9.84954 29.1399 11.2041 30.8061 11.2041ZM30.8061 6.83125C31.5515 6.83125 32.1587 7.43838 32.1587 8.18378C32.1587 8.92968 31.5515 9.53532 30.8061 9.53532C30.0617 9.53532 29.4556 8.92968 29.4556 8.18378C29.4556 7.43788 30.0617 6.83125 30.8061 6.83125Z" fill="#F4FD19"/>
<path d="M12.5951 28.1866C10.9293 28.1866 9.57432 29.5411 9.57432 31.2074C9.57432 32.8737 10.9293 34.2282 12.5951 34.2282C14.2613 34.2282 15.6164 32.8737 15.6164 31.2074C15.6164 29.5411 14.2613 28.1866 12.5951 28.1866ZM12.5951 32.5589C11.8497 32.5589 11.2431 31.9528 11.2431 31.2074C11.2431 30.462 11.8497 29.8549 12.5951 29.8549C13.3405 29.8549 13.9471 30.462 13.9471 31.2074C13.9471 31.9528 13.341 32.5589 12.5951 32.5589Z" fill="#F4FD19"/>
<path d="M11.6154 6.97547C11.6442 6.98786 11.6754 6.99679 11.7384 7.01264C11.7726 7.02404 11.8172 7.0404 11.8727 7.04536L11.9525 7.04882C13.3699 7.04882 14.5237 8.20262 14.5237 9.62007C14.5237 10.0795 14.8969 10.4542 15.3578 10.4542C15.8173 10.4542 16.1919 10.0795 16.1919 9.62007C16.1919 8.20262 17.3462 7.04882 18.7647 7.04882C19.2241 7.04882 19.5988 6.67414 19.5988 6.21421C19.5988 5.75329 19.2246 5.3791 18.7647 5.3791C17.3591 5.3791 16.2058 4.23423 16.1939 2.82867C16.191 2.37221 15.8153 2 15.3568 2C14.8994 2 14.5257 2.37221 14.5217 2.82867C14.5113 4.23423 13.358 5.3791 11.9277 5.3791C11.4668 5.3791 11.0926 5.75329 11.0926 6.2157C11.0926 6.5433 11.2987 6.84166 11.6154 6.97547ZM14.4727 6.21272C14.8097 5.96194 15.1085 5.66358 15.3578 5.32756C15.6071 5.66358 15.906 5.96293 16.243 6.21272C15.907 6.46251 15.6071 6.76087 15.3578 7.0969C15.1085 6.76087 14.8097 6.46202 14.4727 6.21272Z" fill="#F4FD19"/>
<path d="M36.0097 10.364C36.0489 10.3818 36.083 10.3908 36.1386 10.4051C36.1718 10.417 36.2218 10.4344 36.2763 10.4373L36.3551 10.4413C37.7721 10.4413 38.9254 11.5946 38.9254 13.0121C38.9254 13.473 39.2991 13.8477 39.7585 13.8477C40.2195 13.8477 40.5951 13.473 40.5951 13.0121C40.5951 11.5951 41.7479 10.4413 43.1659 10.4413C43.6258 10.4413 44 10.0671 44 9.6062C44 9.14627 43.6258 8.77208 43.1659 8.77208C41.7598 8.77208 40.607 7.62721 40.5951 6.22115C40.5917 5.76419 40.2165 5.39347 39.7585 5.39347C39.3021 5.39347 38.9289 5.76419 38.9254 6.22115C38.914 7.62572 37.7617 8.77009 36.3284 8.77109C35.8689 8.77109 35.4943 9.14577 35.4943 9.60818C35.4943 9.93578 35.7014 10.2346 36.0097 10.364ZM38.8763 9.60521C39.2114 9.35442 39.5097 9.05606 39.7595 8.71905C40.0098 9.05606 40.3082 9.35542 40.6432 9.60521C40.3082 9.85351 40.0098 10.1524 39.7595 10.4894C39.5097 10.1534 39.2114 9.8545 38.8763 9.60521Z" fill="#F4FD19"/>
<path d="M23.6609 26.9903C23.2009 26.9903 22.8257 27.3645 22.8257 27.8254V41.8497C22.8257 42.3096 23.2009 42.6828 23.6609 42.6828C24.1203 42.6828 24.496 42.3096 24.496 41.8497V27.8254C24.496 27.3645 24.1208 26.9903 23.6609 26.9903Z" fill="#F4FD19"/>
<path d="M37.895 18.3259C38.0601 18.1763 38.1572 17.9706 38.1681 17.7475C38.1795 17.526 38.1027 17.3124 37.9535 17.1464C37.6566 16.8198 37.1055 16.7895 36.7749 17.0864C29.6683 23.4996 25.5924 28.158 25.5924 37.7229C25.5924 38.78 25.6434 40.8575 25.7416 41.928C25.7842 42.3592 26.142 42.6828 26.5737 42.6828L26.6525 42.6798C26.874 42.6585 27.0753 42.553 27.217 42.3805C27.3588 42.2085 27.4262 41.9924 27.4058 41.7714C27.3112 40.7574 27.2631 38.7314 27.2631 37.7234C27.2626 28.6283 31.1388 24.4215 37.895 18.3259Z" fill="#F4FD19"/>
<path d="M11.5419 19.1816C11.2123 18.8848 10.6592 18.913 10.3633 19.2416C10.2136 19.4076 10.1373 19.6212 10.1487 19.8443C10.1601 20.0668 10.2572 20.2715 10.4233 20.4212C17.1785 26.5177 20.0061 28.6283 20.0061 37.7229C20.0061 38.7409 19.959 40.7668 19.8643 41.7699C19.843 41.9919 19.9099 42.2085 20.0507 42.38C20.1939 42.553 20.3942 42.6585 20.6117 42.6789L20.695 42.6828C21.1282 42.6828 21.484 42.3577 21.5256 41.927C21.6248 40.8669 21.6748 38.7899 21.6748 37.7229C21.6753 28.1575 18.6475 25.5949 11.5419 19.1816Z" fill="#F4FD19"/>
<path d="M35.0757 28.1866C33.4099 28.1866 32.0549 29.5411 32.0549 31.2074C32.0549 32.8737 33.4099 34.2282 35.0757 34.2282C36.7419 34.2282 38.0969 32.8737 38.0969 31.2074C38.0969 29.5411 36.7419 28.1866 35.0757 28.1866ZM35.0757 32.5589C34.3303 32.5589 33.7236 31.9528 33.7236 31.2074C33.7236 30.462 34.3303 29.8549 35.0757 29.8549C35.8211 29.8549 36.4277 30.462 36.4277 31.2074C36.4277 31.9528 35.8216 32.5589 35.0757 32.5589Z" fill="#F4FD19"/>
</svg>
