<svg width="44" height="44" viewBox="0 0 44 44" fill="none" xmlns="http://www.w3.org/2000/svg">
<path d="M5.88336 44H37.5647C38.051 44 38.4446 43.6065 38.4446 43.1201C38.4446 42.6338 38.051 42.2402 37.5647 42.2402H35.8049V37.8408C35.8049 35.6987 34.2642 33.9148 32.2353 33.5249L32.0868 31.2194C31.6413 26.3243 29.1557 21.8654 25.2447 18.9139V16.7197H27.1158C27.2699 17.323 27.5855 17.8743 28.0366 18.3272C29.3675 19.6582 31.6823 19.6582 33.0115 18.3272C33.6779 17.6627 34.0436 16.7791 34.0436 15.8398C34.0436 15.7674 34.0344 15.6969 34.0177 15.6263C33.4051 13.1723 32.3507 10.8928 30.888 8.85269L28.9389 6.12208L30.474 3.6105C30.7191 3.20955 30.6058 2.68608 30.2179 2.42248C29.0725 1.64656 27.8251 1.04698 26.5071 0.638587C25.1409 0.215356 23.7264 0 22.3045 0C19.9767 0 17.7454 0.532758 15.6758 1.58155C15.4474 1.69664 15.2822 1.90454 15.2191 2.15142L14.8757 3.5195H13.1066C12.8894 3.5195 12.6815 3.59932 12.52 3.74226C9.42004 6.51183 7.64152 10.4917 7.64152 14.6593V19.3594C7.64152 19.6211 7.75847 19.868 7.95709 20.0351C11.0682 22.6301 12.6962 26.5934 12.3064 30.657L12.1022 33.4396H12.0391C9.61286 33.4396 7.63965 35.4128 7.63965 37.839V42.2384H5.8799C5.39357 42.2384 5 42.6319 5 43.1183C5 43.6046 5.39353 43.9982 5.8799 43.9982L5.88336 44ZM9.40286 18.955V14.6595C9.40286 11.1029 10.8749 7.70388 13.4496 5.27793H15.562C15.9648 5.27793 16.3175 5.0032 16.4159 4.6134L16.8262 2.97801C19.6644 1.64333 22.9464 1.37788 25.9849 2.31904C26.8685 2.59376 27.7186 2.96689 28.5187 3.43283L27.132 5.7012C26.9483 6.00192 26.9631 6.38432 27.1673 6.67205L29.4561 9.87787C30.7666 11.7082 31.7171 13.7482 32.2814 15.9406C32.2572 16.3731 32.0772 16.7759 31.7672 17.086C31.1008 17.7523 29.9481 17.7523 29.2798 17.086C28.9456 16.7537 28.7637 16.3119 28.7637 15.8422C28.7637 15.3559 28.3702 14.9623 27.8838 14.9623H21.7859C21.4926 14.9623 21.2198 14.8175 21.0564 14.5707L19.8164 12.7144C19.5472 12.3097 19.0015 12.2021 18.5949 12.4712C18.1903 12.7422 18.0826 13.288 18.3536 13.6926L19.5918 15.5452C20.08 16.2822 20.8986 16.724 21.7859 16.724H23.4844V19.3636C23.4844 19.6476 23.6218 19.915 23.8538 20.0801C27.559 22.7272 29.9223 26.8462 30.3324 31.3588L30.466 33.4434H13.8707L14.0638 30.8074C14.4926 26.3245 12.757 21.9267 9.40449 18.9585L9.40286 18.955ZM9.40286 37.8389C9.40286 36.3836 10.5872 35.1993 12.0425 35.1993H31.4035C32.8589 35.1993 34.0432 36.3836 34.0432 37.8389V42.2383L9.40258 42.2402L9.40286 37.8389ZM25.244 7.91939C26.2148 7.91939 27.0037 8.70833 27.0037 9.67914C27.0037 10.6499 26.2148 11.4389 25.244 11.4389C24.2731 11.4389 23.4842 10.6499 23.4842 9.67914C23.4842 8.70833 24.2732 7.91939 25.244 7.91939Z" fill="#F4FD19"/>
</svg>
