<svg width="45" height="45" viewBox="0 0 45 45" fill="none" xmlns="http://www.w3.org/2000/svg">
<g id="Frame 23">
<path id="Vector" d="M29.5178 16.4222C29.9315 16.4222 30.3075 16.1894 30.492 15.8205L33.9767 8.84935C34.145 8.51091 34.1271 8.10978 33.9283 7.78925C33.7296 7.46693 33.3804 7.27174 33.0026 7.27174H16.664V5.32704L19.83 2.16111V2.15932C20.249 1.73313 20.2454 1.04907 19.8228 0.626456C19.4002 0.205641 18.7179 0.202061 18.29 0.619293L14.8052 4.10401H14.807C14.6011 4.30815 14.4865 4.58393 14.4847 4.87402V7.26999H12.0887C11.7109 7.26999 11.3599 7.46517 11.163 7.7875C10.9642 8.10803 10.9463 8.50914 11.1146 8.84759L14.5993 15.8188C14.7838 16.1877 15.1598 16.4204 15.5735 16.4204H16.2271V38.6446H15.5753C14.9736 38.6446 14.4847 39.1317 14.4847 39.7333V43.2181C14.4847 43.5064 14.5993 43.7839 14.8035 43.9881C15.0076 44.194 15.2852 44.3086 15.5753 44.3086H29.5176C29.8077 44.3086 30.0835 44.194 30.2876 43.9898C30.4918 43.7857 30.6082 43.5081 30.6082 43.2198V39.7351C30.6082 39.4468 30.4918 39.1693 30.2876 38.9651C30.0835 38.761 29.8077 38.6464 29.5176 38.6464H28.864V16.4222L29.5178 16.4222ZM13.8509 9.45102H31.2424L28.8644 14.2035V11.8469C28.8644 11.5586 28.7497 11.281 28.5456 11.0769C28.3415 10.8728 28.0639 10.7582 27.7756 10.7582H17.3181C16.7165 10.7582 16.2294 11.2452 16.2294 11.8469V14.2034L13.8509 9.45102ZM28.4291 42.1312L16.6642 42.1295V40.824H28.4291V42.1312ZM18.4067 38.6465L18.4085 12.9356H26.687V38.6429L18.4067 38.6465Z" fill="#F4FD19"/>
</g>
</svg>
