<svg width="44" height="44" viewBox="0 0 44 44" fill="none" xmlns="http://www.w3.org/2000/svg">
<path fill-rule="evenodd" clip-rule="evenodd" d="M22.0168 0C25.8799 0 29.0074 3.19315 29.0074 7.13164C29.0074 11.0701 25.8799 14.2639 22.0168 14.2639C18.1537 14.2639 15.0262 11.0708 15.0262 7.13164C15.0262 3.1925 18.1589 0 22.0168 0ZM5.0814 32.112H38.9567V29.861H5.0814V32.112ZM39.8583 33.9511C40.3516 33.9511 40.7547 33.5392 40.7547 33.0319V28.9417C40.7547 28.4337 40.3516 28.0225 39.8583 28.0225H32.168V23.1915H36.6C36.8922 23.1915 37.1543 23.049 37.3151 22.828L43.1273 15.5892C44.1096 14.5071 44.1852 13.2407 43.7367 12.1777C42.9056 10.1895 40.3017 9.13684 38.4537 10.974L34.1171 15.2786H9.85562L5.54915 10.9995C3.69546 9.16233 1.0921 10.2163 0.261051 12.2038C-0.182347 13.2662 -0.111865 14.5326 0.870403 15.6147L6.67751 22.8535C6.85371 23.0752 7.11065 23.1902 7.37272 23.1909H11.8701V28.0225H4.17987C3.68137 28.0225 3.27834 28.4337 3.27834 28.9417V33.0319C3.27834 33.5392 3.68137 33.9511 4.17987 33.9511H5.63501V43.0808C5.63501 43.5888 6.03804 44 6.53654 44H37.4958C37.9943 44 38.3973 43.5881 38.3973 43.0808V33.9511H39.8583ZM36.5949 33.9511V42.1615H7.43871V33.9511H36.5949ZM13.6687 28.0225H21.1153V25.8218C19.9568 25.4295 19.1463 24.3174 19.1463 23.0405V21.4649C19.1463 19.8532 20.4354 18.5378 22.0117 18.5358C23.5931 18.5358 24.8874 19.8506 24.8874 21.4649V23.0405C24.8874 24.3174 24.0762 25.4295 22.9177 25.8218V28.0225H30.3643V22.2716C30.3643 21.7636 30.7673 21.3524 31.2658 21.3524H36.1714L41.7369 14.4215C42.2957 13.7219 42.402 13.0394 41.7119 12.347C41.1731 11.8004 40.3568 11.6402 39.7025 12.2888L35.1045 16.8556C34.9335 17.0288 34.7066 17.1151 34.4798 17.1151L9.4936 17.1178C9.2264 17.1178 8.98484 16.9981 8.81889 16.8085L4.29648 12.3143C2.99192 11.0204 1.05302 12.9465 2.21662 14.3973L7.80202 21.3531H12.7678C13.2663 21.3531 13.6694 21.765 13.6694 22.2723L13.6687 28.0225ZM22.0162 20.3743C22.6005 20.3743 23.0837 20.8608 23.0837 21.4649V23.0405C23.0837 23.3393 22.9626 23.6119 22.7716 23.81C22.0867 24.5057 20.9487 23.9918 20.9487 23.0405V21.4649C20.9487 20.8679 21.4318 20.375 22.0162 20.3743ZM25.6825 3.38929C23.6578 1.32263 20.3739 1.32263 18.3498 3.38929C16.3199 5.4566 16.3199 8.80863 18.3498 10.8753C20.3746 12.9426 23.6584 12.9426 25.6825 10.8753C27.7124 8.80863 27.7124 5.4566 25.6825 3.38929Z" fill="#F4FD19"/>
</svg>
