<svg width="45" height="44" viewBox="0 0 45 44" fill="none" xmlns="http://www.w3.org/2000/svg">
<path d="M29.3512 8.05639C31.2593 6.16587 34.3629 6.16587 36.271 8.05639C38.179 9.94692 38.179 13.022 36.271 14.9126C35.8885 15.2915 35.2695 15.2916 34.887 14.9126C34.5045 14.5336 34.5045 13.9203 34.887 13.5413C36.0315 12.4073 36.0315 10.5616 34.887 9.42758C33.7425 8.29356 31.8797 8.29357 30.7351 9.42759C30.3527 9.80654 29.7337 9.80657 29.3512 9.42759C28.9687 9.0486 28.9687 8.43538 29.3512 8.05639ZM16.8417 13.6846C34.5935 -2.81645 43.1702 0.152993 43.5443 0.294815C43.5516 0.299155 43.5574 0.30494 43.5633 0.307833C43.6334 0.336761 43.6917 0.383051 43.7531 0.426443C43.7969 0.458264 43.8479 0.47996 43.883 0.517569C43.918 0.552284 43.937 0.597127 43.9677 0.636181C44.0144 0.699826 44.064 0.760576 44.0932 0.832896C44.0961 0.838681 44.102 0.844468 44.1049 0.850253C44.248 1.22055 47.2451 9.7156 30.591 27.3076C31.8655 29.5106 32.0741 34.1579 28.6581 37.5425C28.2756 37.9214 27.6566 37.9215 27.2741 37.5425L23.6741 33.9755C23.3281 34.4977 22.9165 35.0039 22.4303 35.4856C22.0478 35.8646 21.4288 35.8646 21.0463 35.4856L8.58934 23.1431C8.20687 22.7641 8.20684 22.1508 8.58934 21.7718C9.07548 21.2901 9.58644 20.8822 10.1134 20.5394L6.51341 16.9725C6.13094 16.5935 6.13091 15.9802 6.51341 15.6012C9.92948 12.2165 14.6201 12.4232 16.8432 13.6861L16.8417 13.6846ZM14.1263 16.2853C14.5395 15.8759 14.9439 15.4897 15.3483 15.1006C13.8227 14.5264 10.9905 14.5177 8.63421 16.3288L11.9539 19.618C15.1364 18.429 18.4138 19.1624 19.6634 20.4005C20.0459 20.7795 20.0459 21.3928 19.6634 21.7718C19.2809 22.1508 18.662 22.1508 18.2795 21.7718C17.3057 20.807 13.6386 20.2487 10.7102 22.4993L21.697 33.3851C23.9685 30.4835 23.4049 26.8501 22.4312 25.8854C22.0487 25.5064 22.0487 24.8931 22.4312 24.5141C22.8137 24.1351 23.4326 24.1351 23.8151 24.5141C25.0648 25.7523 25.8035 28.9981 24.6049 32.1528L27.9246 35.442C29.7524 33.1074 29.7451 30.2999 29.1642 28.7897C28.77 29.1918 28.3832 29.5895 27.9685 30.0004C27.5861 30.3793 26.9671 30.3793 26.5846 30.0004C26.2021 29.6214 26.2021 29.0081 26.5846 28.6291C42.8607 12.5025 42.722 4.00763 42.389 2.01435C40.3525 1.72071 31.6328 1.68442 15.5115 17.6577C15.129 18.0367 14.51 18.0367 14.1275 17.6577C13.745 17.2787 13.745 16.6654 14.1275 16.2864L14.1263 16.2853ZM12.0503 30.6863L9.28241 33.4288C8.89995 33.8077 8.89992 34.421 9.28242 34.8C9.66489 35.179 10.2839 35.179 10.6664 34.8L13.4343 32.0576C13.8167 31.6786 13.8168 31.0653 13.4343 30.6863C13.0518 30.3074 12.4328 30.3073 12.0503 30.6863ZM9.97441 27.2582L7.89848 29.3151C7.51601 29.694 7.51598 30.3074 7.89848 30.6863C8.28095 31.0653 8.89995 31.0653 9.28245 30.6863L11.3584 28.6295C11.7409 28.2505 11.7409 27.6372 11.3584 27.2582C10.9759 26.8793 10.3569 26.8792 9.97441 27.2582ZM15.5115 32.7445L13.4356 34.8013C13.0531 35.1803 13.0531 35.7936 13.4356 36.1726C13.8181 36.5515 14.4371 36.5516 14.8196 36.1726L16.8955 34.1157C17.278 33.7368 17.278 33.1235 16.8955 32.7445C16.513 32.3655 15.894 32.3655 15.5115 32.7445ZM20.3569 37.5453L16.897 40.9734C16.5145 41.3524 16.5145 41.9657 16.897 42.3447C17.2795 42.7236 17.8985 42.7236 18.281 42.3447L21.7408 38.9166C22.1233 38.5376 22.1233 37.9243 21.7408 37.5453C21.3584 37.1663 20.7394 37.1663 20.3569 37.5453ZM26.5846 38.2309C26.2021 37.852 25.5831 37.852 25.2006 38.2309L21.0489 42.3445C20.6664 42.7235 20.6664 43.3368 21.0489 43.7158C21.4314 44.0947 22.0504 44.0948 22.4329 43.7158L26.5846 39.6022C26.9671 39.2233 26.9671 38.6099 26.5846 38.2309ZM4.43857 17.6596L0.286864 21.7732C-0.0956059 22.1521 -0.0956365 22.7654 0.286863 23.1444C0.669333 23.5234 1.28834 23.5234 1.67084 23.1444L5.82255 19.0309C6.20502 18.6519 6.20505 18.0386 5.82255 17.6596C5.44008 17.2806 4.82107 17.2806 4.43857 17.6596ZM5.13052 22.4589L1.67065 25.887C1.28818 26.2659 1.28815 26.8793 1.67065 27.2583C2.05312 27.6372 2.67213 27.6372 3.05463 27.2583L6.5145 23.8302C6.89697 23.4512 6.897 22.8379 6.5145 22.4589C6.13203 22.0799 5.51302 22.0799 5.13052 22.4589ZM30.7381 13.5445C30.3557 13.1655 29.7367 13.1655 29.3542 13.5445L22.4328 20.4023C22.0503 20.7813 22.0503 21.3946 22.4328 21.7736C22.8153 22.1525 23.4343 22.1526 23.8168 21.7736L30.7381 14.9158C31.1206 14.5368 31.1206 13.9235 30.7381 13.5445Z" fill="#F4FD19"/>
</svg>
