<svg width="44" height="45" viewBox="0 0 44 45" fill="none" xmlns="http://www.w3.org/2000/svg">
<g id="Frame 21">
<path id="Vector" d="M39.6001 32.7803V30.375C39.6001 27.955 37.6201 25.975 35.2001 25.975H23.4667V21.0179H26.4001C28.82 21.0179 30.8001 19.0379 30.8001 16.6179C30.8001 13.6405 29.2161 11.0004 26.7667 9.5633C27.4561 8.60999 27.8667 7.43666 27.8667 6.17527C27.8667 2.93396 25.2414 0.308594 22 0.308594C18.7587 0.308594 16.1334 2.93396 16.1334 6.17527C16.1334 7.43661 16.544 8.60994 17.2334 9.5633C14.784 11.0153 13.2 13.6406 13.2 16.6179C13.2 19.0379 15.1801 21.0179 17.6 21.0179H20.5334V25.975H8.80002C6.38004 25.975 4.40001 27.955 4.40001 30.375V32.7803C1.87734 33.4403 0 35.7137 0 38.4414C0 41.6828 2.62536 44.3081 5.86668 44.3081C9.108 44.3081 11.7334 41.6828 11.7334 38.4414C11.7334 35.7134 9.85602 33.4402 7.33335 32.7803V30.375C7.33335 29.5683 7.99333 28.9083 8.80002 28.9083H20.5334V32.839C18.1134 33.5576 16.324 35.787 16.324 38.4419C16.324 41.6832 18.9494 44.3086 22.1907 44.3086C25.432 44.3086 28.0574 41.6832 28.0574 38.4419C28.0574 35.6406 26.092 33.3083 23.4667 32.7217V28.9083H35.2001C36.0068 28.9083 36.6667 29.5683 36.6667 30.375V32.7803C34.1441 33.4403 32.2667 35.7137 32.2667 38.4414C32.2667 41.6828 34.8921 44.3081 38.1334 44.3081C41.3747 44.3081 44.0001 41.6828 44.0001 38.4414C44.0001 35.7134 42.1228 33.4402 39.6001 32.7803ZM22 3.24137C23.6134 3.24137 24.9334 4.56137 24.9334 6.17471C24.9334 7.78805 23.6134 9.10805 22 9.10805C20.3867 9.10805 19.0667 7.78805 19.0667 6.17471C19.0667 4.56137 20.3867 3.24137 22 3.24137ZM16.1334 16.6174C16.1334 14.3001 17.6294 12.3054 19.8 11.6012C20.4747 11.8798 21.2227 12.0412 22 12.0412C22.7774 12.0412 23.5254 11.8798 24.2001 11.6012C26.3707 12.3052 27.8667 14.2998 27.8667 16.6174C27.8667 17.4241 27.2067 18.0841 26.4001 18.0841H17.6C16.7933 18.0841 16.1334 17.4241 16.1334 16.6174ZM8.80002 38.4414C8.80002 40.0548 7.48002 41.3748 5.86668 41.3748C4.25334 41.3748 2.93334 40.0548 2.93334 38.4414C2.93334 36.8281 4.25334 35.5081 5.86668 35.5081C7.48002 35.5081 8.80002 36.8281 8.80002 38.4414ZM25.1239 38.4414C25.1239 40.0548 23.8039 41.3748 22.1906 41.3748C20.5773 41.3748 19.2573 40.0548 19.2573 38.4414C19.2573 36.8281 20.5773 35.5081 22.1906 35.5081C23.8039 35.5081 25.1239 36.8281 25.1239 38.4414ZM38.1334 41.3748C36.5201 41.3748 35.2001 40.0548 35.2001 38.4414C35.2001 36.8281 36.5201 35.5081 38.1334 35.5081C39.7467 35.5081 41.0668 36.8281 41.0668 38.4414C41.0668 40.0548 39.7467 41.3748 38.1334 41.3748Z" fill="#F4FD19"/>
</g>
</svg>
