<svg width="44" height="45" viewBox="0 0 44 45" fill="none" xmlns="http://www.w3.org/2000/svg">
<g id="Frame 22">
<path id="Vector" d="M11.2551 44.3062C8.56997 44.2951 5.99634 43.2374 4.08097 41.3558C2.16408 39.4742 1.05999 36.919 1.00061 34.2359C0.892983 19.8991 21.4459 19.9437 21.8431 33.8684C22.127 39.387 16.8107 44.434 11.2551 44.3062ZM11.1883 26.353C8.92069 26.4235 6.80894 27.522 5.4488 29.3387C4.08861 31.1554 3.63029 33.4916 4.20181 35.6886C4.77333 37.8838 6.31537 39.6986 8.38812 40.6209C10.4609 41.545 12.8416 41.4727 14.8549 40.428C22.1306 36.4681 18.7407 26.2565 11.1883 26.353ZM33.9233 41.6765L26.4433 41.6747C25.6324 41.6635 24.981 41.0029 24.981 40.1902C24.981 39.3793 25.6324 38.7168 26.4433 38.7057H33.9252C34.7361 38.7168 35.3893 39.3793 35.3893 40.1902C35.3893 41.0029 34.7361 41.6636 33.9252 41.6747L33.9233 41.6765ZM10.6814 37.1841C10.288 37.1841 9.90944 37.0282 9.63111 36.7498L7.32455 34.4433C6.76414 33.8587 6.7734 32.9346 7.34496 32.3631C7.91648 31.7916 8.84058 31.7823 9.42512 32.3427L10.6814 33.599L13.359 30.9213L13.3572 30.9231C13.9417 30.3627 14.8658 30.372 15.4373 30.9436C16.0089 31.5151 16.0182 32.4392 15.4578 33.0219L11.7298 36.7498C11.4514 37.0282 11.0748 37.1841 10.6814 37.1841ZM41.4033 35.321H26.4433C25.6324 35.3099 24.981 34.6474 24.981 33.8365C24.981 33.0256 25.6324 32.3631 26.4433 32.352H41.4033C42.216 32.3631 42.8674 33.0256 42.8674 33.8365C42.8674 34.6474 42.216 35.3099 41.4033 35.321ZM41.4033 28.9654H26.4433C25.6324 28.9543 24.981 28.2918 24.981 27.4809C24.981 26.67 25.6324 26.0075 26.4433 25.9964H41.4033C42.216 26.0075 42.8692 26.6682 42.8692 27.4809C42.8692 28.2937 42.216 28.9543 41.4033 28.9654ZM11.2548 21.1719C8.56968 21.1607 5.99604 20.103 4.08068 18.2214C2.16379 16.3398 1.05969 13.7846 1.00031 11.1015C0.907534 -3.22575 21.3806 -3.21862 21.8428 10.7044C22.1063 16.2785 16.827 21.2849 11.2548 21.1719ZM11.1898 3.21672C9.19131 3.26125 7.2967 4.11298 5.93632 5.57521C4.57613 7.03929 3.86542 8.99142 3.96751 10.9864C4.02503 13.5546 5.41862 15.9074 7.64167 17.1952C9.86473 18.483 12.5983 18.5183 14.8566 17.2917C16.8588 16.2358 18.2747 14.3301 18.7071 12.109C19.1394 9.88788 18.5419 7.58868 17.0797 5.86124C15.6193 4.13365 13.4516 3.16104 11.1898 3.21672ZM33.9248 18.5406H26.4429C25.632 18.5295 24.9807 17.8689 24.9807 17.0561C24.9807 16.2452 25.632 15.5827 26.4429 15.5716H33.9248C34.7357 15.5827 35.3871 16.2452 35.3871 17.0561C35.3871 17.8689 34.7357 18.5295 33.9248 18.5406ZM10.681 14.05C10.2876 14.0444 9.91095 13.8886 9.62892 13.6121C9.58624 13.5712 7.66196 11.647 7.26112 11.2387H7.25926C6.74527 10.6338 6.79536 9.73193 7.37617 9.19009C7.95515 8.64826 8.85882 8.65567 9.42664 9.21051L10.681 10.4668L13.3587 7.78908H13.3568C13.9414 7.22868 14.8655 7.23609 15.437 7.8095C16.0085 8.38102 16.0178 9.30512 15.4574 9.88781L11.7294 13.6139C11.4511 13.8923 11.0744 14.05 10.681 14.05ZM41.4029 12.1851H26.4429C25.632 12.1739 24.9807 11.5133 24.9807 10.7006C24.9807 9.88968 25.632 9.22719 26.4429 9.21607H41.4029C42.2157 9.2272 42.867 9.88968 42.867 10.7006C42.867 11.5133 42.2157 12.174 41.4029 12.1851ZM41.4029 5.8314H26.4429C25.632 5.82026 24.9807 5.15779 24.9807 4.34689C24.9807 3.53414 25.632 2.8735 26.4429 2.86238H41.4029C42.2157 2.87352 42.867 3.53414 42.867 4.34689C42.867 5.15779 42.2157 5.82028 41.4029 5.8314Z" fill="#F4FD19"/>
</g>
</svg>
