<svg width="44" height="44" viewBox="0 0 44 44" fill="none" xmlns="http://www.w3.org/2000/svg">
<path d="M33.3333 29.8955V31.625C33.3333 31.9897 33.1841 32.3394 32.9184 32.5973C32.6527 32.8551 32.2924 33 31.9167 33C31.5409 33 31.1806 32.8551 30.9149 32.5973C30.6493 32.3394 30.5 31.9897 30.5 31.625V29.8955C30.4993 29.4103 30.3669 28.9339 30.116 28.5142C29.8651 28.0946 29.5046 27.7466 29.0709 27.5054L24.8112 25.1434C23.9543 24.6708 22.9856 24.4224 22 24.4224C21.0144 24.4224 20.0457 24.6708 19.1888 25.1434L14.9277 27.5054C14.4944 27.7469 14.1343 28.095 13.8836 28.5146C13.633 28.9342 13.5007 29.4105 13.5 29.8955V31.625C13.5 31.9897 13.3507 32.3394 13.0851 32.5973C12.8194 32.8551 12.4591 33 12.0833 33C11.7076 33 11.3473 32.8551 11.0816 32.5973C10.8159 32.3394 10.6667 31.9897 10.6667 31.625V29.8955C10.6681 28.926 10.9327 27.974 11.4337 27.1353C11.9347 26.2966 12.6546 25.6008 13.5207 25.1179L17.7832 22.756C19.0686 22.0471 20.5216 21.6744 22 21.6744C23.4784 21.6744 24.9314 22.0471 26.2168 22.756L30.4779 25.1179C31.3444 25.6005 32.0646 26.2962 32.5659 27.1349C33.0672 27.9737 33.3319 28.9258 33.3333 29.8955Z" fill="#F4FD19"/>
<path fill-rule="evenodd" clip-rule="evenodd" d="M16.3333 13.75C16.3333 12.6622 16.6657 11.5988 17.2883 10.6944C17.911 9.78988 18.796 9.08493 19.8315 8.66865C20.8669 8.25237 22.0063 8.14345 23.1055 8.35567C24.2047 8.56789 25.2144 9.09171 26.0069 9.8609C26.7994 10.6301 27.3391 11.6101 27.5578 12.677C27.7764 13.7439 27.6642 14.8498 27.2353 15.8548C26.8064 16.8597 26.0801 17.7187 25.1482 18.3231C24.2164 18.9274 23.1208 19.25 22 19.25C20.4976 19.2485 19.0571 18.6686 17.9947 17.6375C16.9323 16.6063 16.3348 15.2082 16.3333 13.75ZM19.1667 13.75C19.1667 14.2939 19.3328 14.8256 19.6442 15.2778C19.9555 15.73 20.398 16.0825 20.9157 16.2907C21.4335 16.4988 22.0031 16.5533 22.5528 16.4472C23.1024 16.341 23.6072 16.0791 24.0035 15.6945C24.3997 15.3099 24.6696 14.8199 24.7789 14.2865C24.8882 13.753 24.8321 13.2001 24.6177 12.6976C24.4032 12.1951 24.0401 11.7656 23.5741 11.4634C23.1082 11.1613 22.5604 11 22 11C21.2489 11.0009 20.5287 11.291 19.9976 11.8065C19.4665 12.322 19.1676 13.0209 19.1667 13.75Z" fill="#F4FD19"/>
<path d="M12.0833 35.75C11.7076 35.75 11.3473 35.8949 11.0816 36.1527C10.8159 36.4106 10.6667 36.7603 10.6667 37.125C10.6667 37.4897 10.8159 37.8394 11.0816 38.0973C11.3473 38.3551 11.7076 38.5 12.0833 38.5H31.9167C32.2924 38.5 32.6527 38.3551 32.9184 38.0973C33.1841 37.8394 33.3333 37.4897 33.3333 37.125C33.3333 36.7603 33.1841 36.4106 32.9184 36.1527C32.6527 35.8949 32.2924 35.75 31.9167 35.75H12.0833Z" fill="#F4FD19"/>
<path fill-rule="evenodd" clip-rule="evenodd" d="M39 9.3125V8.24999C39 6.7913 38.403 5.39235 37.3403 4.3609C36.2776 3.32945 34.8362 2.74999 33.3333 2.74999H26.8807C26.3892 1.91464 25.6789 1.22028 24.8217 0.737326C23.9646 0.254374 22.9911 0 22 0C21.0089 0 20.0354 0.254374 19.1783 0.737326C18.3211 1.22028 17.6108 1.91464 17.1193 2.74999H10.6667C9.16377 2.74999 7.72243 3.32945 6.65973 4.3609C5.59702 5.39235 5 6.7913 5 8.24999V9.3125H4.83333C3.55145 9.3125 2.32208 9.79978 1.41565 10.6671C0.509224 11.5345 0 12.7109 0 13.9375V39.375C0 40.6016 0.509224 41.778 1.41565 42.6454C2.32208 43.5127 3.55145 44 4.83333 44H9.5V43.8822C9.8808 43.96 10.2716 44 10.6667 44H33.3333C33.7284 44 34.1192 43.96 34.5 43.8822V44H39.1667C40.4485 44 41.6779 43.5127 42.5844 42.6454C43.4908 41.778 44 40.6016 44 39.375V13.9375C44 12.7109 43.4908 11.5345 42.5844 10.6671C41.6779 9.79978 40.4485 9.3125 39.1667 9.3125H39ZM39 11.625V38.5C39 39.6499 38.629 40.7626 37.9513 41.6875H39.1667C39.8074 41.6868 40.4216 41.4429 40.8747 41.0094C41.3277 40.5759 41.5826 39.9881 41.5833 39.375V13.9375C41.5826 13.3244 41.3277 12.7366 40.8747 12.3031C40.4216 11.8696 39.8074 11.6257 39.1667 11.625H39ZM4.83333 41.6875H6.04865C5.371 40.7626 5 39.6499 5 38.5V11.625H4.83333C4.19262 11.6257 3.57836 11.8696 3.1253 12.3031C2.67225 12.7366 2.4174 13.3244 2.41667 13.9375V39.375C2.4174 39.9881 2.67225 40.5759 3.1253 41.0094C3.57836 41.4429 4.19262 41.6868 4.83333 41.6875ZM36.1667 8.24999C36.1658 7.5209 35.867 6.82191 35.3358 6.30637C34.8047 5.79083 34.0845 5.50083 33.3333 5.49999H10.6667C9.91548 5.50083 9.19532 5.79083 8.66415 6.30637C8.13298 6.82191 7.8342 7.5209 7.83333 8.24999V38.5C7.8342 39.2291 8.13298 39.9281 8.66415 40.4436C9.19532 40.9592 9.91548 41.2492 10.6667 41.25H33.3333C34.0845 41.2492 34.8047 40.9592 35.3358 40.4436C35.867 39.9281 36.1658 39.2291 36.1667 38.5V8.24999Z" fill="#F4FD19"/>
</svg>
