<svg width="221" height="51" viewBox="0 0 221 51" fill="none" xmlns="http://www.w3.org/2000/svg">
<g id="Vector">
<path d="M32.3192 31.6722C32.3192 31.9234 32.2549 32.1441 32.1291 32.3396C32.0031 32.5349 31.8181 32.6847 31.5766 32.7937C31.335 32.9029 31.042 32.9587 30.6978 32.9587C30.3739 32.9587 30.0784 32.9105 29.8162 32.8116C29.5515 32.7152 29.328 32.5756 29.1405 32.398L29.472 32.0274C29.6261 32.1695 29.8035 32.2837 30.0039 32.3675C30.2043 32.4513 30.4382 32.4944 30.7054 32.4944C30.8853 32.4944 31.0549 32.4664 31.2117 32.408C31.3684 32.3498 31.4944 32.2609 31.5919 32.1417C31.6896 32.0223 31.7358 31.8701 31.7358 31.6848C31.7358 31.5428 31.7075 31.4209 31.6511 31.322C31.5946 31.223 31.4969 31.1342 31.3555 31.0555C31.2142 30.9768 31.0164 30.9033 30.7619 30.8272C30.469 30.7434 30.2172 30.647 30.0039 30.5379C29.7906 30.4313 29.6236 30.2993 29.5079 30.142C29.3897 29.9846 29.3331 29.7919 29.3331 29.5584C29.3331 29.3401 29.3948 29.1448 29.5156 28.9747C29.639 28.8047 29.8086 28.6728 30.0244 28.5764C30.2403 28.4799 30.4895 28.4317 30.7697 28.4317C31.078 28.4317 31.3453 28.4749 31.5714 28.5611C31.7976 28.6474 32.0031 28.7717 32.1881 28.9316L31.8593 29.2919C31.6999 29.1523 31.5303 29.0508 31.3479 28.9875C31.1654 28.924 30.9804 28.8935 30.7902 28.8935C30.6283 28.8935 30.4819 28.9164 30.3482 28.9646C30.2145 29.0128 30.1067 29.0838 30.027 29.1777C29.9473 29.2717 29.9062 29.3934 29.9062 29.5381C29.9062 29.6624 29.9396 29.7716 30.009 29.8629C30.0784 29.9543 30.194 30.0379 30.3559 30.1116C30.5204 30.1877 30.7414 30.2664 31.024 30.3476C31.2528 30.4135 31.4661 30.4948 31.6639 30.5937C31.8618 30.6926 32.0185 30.8272 32.1393 30.9947C32.2601 31.1621 32.3192 31.388 32.3192 31.6671V31.6722Z" fill="white"/>
<path d="M33.9186 29.533V31.9082C33.9186 32.1289 33.9648 32.2888 34.0573 32.3852C34.1499 32.4841 34.2937 32.5325 34.4891 32.5325C34.6844 32.5325 34.854 32.4792 35.0184 32.3751C35.1855 32.2711 35.314 32.1442 35.4064 32.0021V29.5356H35.9487V32.8877H35.4886L35.4425 32.436C35.3087 32.606 35.1444 32.7355 34.9491 32.8267C34.7537 32.9182 34.5559 32.9613 34.3554 32.9613C34.0265 32.9613 33.7823 32.8749 33.618 32.7024C33.4561 32.5299 33.3738 32.2863 33.3738 31.9741V29.5356H33.9159L33.9186 29.533Z" fill="white"/>
<path d="M38.7624 29.4646C39.0631 29.4646 39.3047 29.5356 39.482 29.6803C39.6618 29.8249 39.7903 30.0279 39.87 30.2892C39.9497 30.5506 39.9882 30.8578 39.9882 31.2079C39.9882 31.5581 39.9394 31.8474 39.8443 32.1112C39.7493 32.3751 39.6053 32.5832 39.41 32.733C39.2173 32.8827 38.9732 32.9588 38.6776 32.9588C38.3051 32.9588 38.007 32.8294 37.7808 32.5706V34.1692L37.2386 34.2352V29.533H37.6986L37.7449 30.0001C37.8707 29.8274 38.0172 29.6955 38.192 29.6016C38.3641 29.5077 38.5544 29.462 38.7573 29.462L38.7624 29.4646ZM38.6339 29.8935C38.4464 29.8935 38.2819 29.9492 38.1381 30.0609C37.9941 30.1726 37.8785 30.2969 37.7859 30.4314V32.0935C37.8734 32.2229 37.9863 32.3244 38.12 32.4005C38.2537 32.4766 38.4026 32.5147 38.562 32.5147C38.8447 32.5147 39.0554 32.4082 39.1967 32.1975C39.3381 31.9843 39.41 31.6545 39.41 31.2079C39.41 30.916 39.3818 30.6725 39.3252 30.477C39.2687 30.2817 39.1839 30.137 39.0709 30.0406C38.9578 29.9442 38.8113 29.896 38.6314 29.896L38.6339 29.8935Z" fill="white"/>
<path d="M42.6273 29.4646C42.9279 29.4646 43.1694 29.5356 43.3468 29.6803C43.5267 29.8249 43.6552 30.0279 43.7348 30.2892C43.8144 30.5506 43.8531 30.8578 43.8531 31.2079C43.8531 31.5581 43.8042 31.8474 43.7091 32.1112C43.614 32.3751 43.4701 32.5832 43.2749 32.733C43.0821 32.8827 42.8379 32.9588 42.5425 32.9588C42.1698 32.9588 41.8717 32.8294 41.6456 32.5706V34.1692L41.1034 34.2352V29.533H41.5634L41.6096 30.0001C41.7356 29.8274 41.8821 29.6955 42.0567 29.6016C42.229 29.5077 42.4191 29.462 42.6221 29.462L42.6273 29.4646ZM42.4988 29.8935C42.3112 29.8935 42.1468 29.9492 42.0028 30.0609C41.8589 30.1726 41.7432 30.2969 41.6508 30.4314V32.0935C41.7381 32.2229 41.8512 32.3244 41.9848 32.4005C42.1185 32.4766 42.2675 32.5147 42.4269 32.5147C42.7095 32.5147 42.9202 32.4082 43.0616 32.1975C43.2028 31.9843 43.2749 31.6545 43.2749 31.2079C43.2749 30.916 43.2466 30.6725 43.1901 30.477C43.1335 30.2817 43.0487 30.137 42.9356 30.0406C42.8225 29.9442 42.6761 29.896 42.4962 29.896L42.4988 29.8935Z" fill="white"/>
<path d="M46.2762 29.4646C46.5974 29.4646 46.8646 29.5356 47.0805 29.6802C47.2963 29.8223 47.4582 30.0253 47.5662 30.2867C47.6741 30.5481 47.728 30.8551 47.728 31.2104C47.728 31.5656 47.6715 31.8549 47.561 32.1189C47.4506 32.3828 47.2861 32.5883 47.0703 32.738C46.8544 32.8877 46.587 32.9613 46.2684 32.9613C45.9498 32.9613 45.6826 32.8902 45.4667 32.7457C45.2508 32.6009 45.0864 32.398 44.9758 32.1366C44.8654 31.8752 44.8088 31.5682 44.8088 31.2179C44.8088 30.8678 44.8654 30.5683 44.9758 30.3044C45.0864 30.0406 45.2534 29.8351 45.4718 29.6878C45.6902 29.5407 45.9576 29.4671 46.2762 29.4671V29.4646ZM46.2762 29.901C45.9832 29.901 45.7622 30.0076 45.6132 30.2208C45.4641 30.4338 45.3896 30.7663 45.3896 31.2154C45.3896 31.6646 45.4641 31.9843 45.6106 32.2001C45.757 32.4131 45.9781 32.5223 46.271 32.5223C46.564 32.5223 46.7824 32.4157 46.9314 32.2001C47.0779 31.9869 47.1525 31.6545 47.1525 31.2104C47.1525 30.7663 47.0804 30.4364 46.934 30.2208C46.7876 30.0076 46.5691 29.901 46.2787 29.901H46.2762Z" fill="white"/>
<path d="M48.8855 32.8846V32.4736H49.4148V29.9436H48.8855V29.5325H49.8259L49.9261 30.3243C50.0572 30.0476 50.2165 29.8344 50.4041 29.6848C50.5916 29.5351 50.8383 29.4589 51.1442 29.4589C51.2392 29.4589 51.3241 29.4666 51.396 29.4792C51.4705 29.492 51.5451 29.5097 51.6222 29.5325L51.4654 30.0096C51.3935 29.9892 51.3292 29.9766 51.2726 29.9664C51.2136 29.9563 51.1493 29.9512 51.0722 29.9512C50.8127 29.9512 50.5891 30.0425 50.4015 30.2252C50.214 30.4079 50.0649 30.6846 49.9544 31.0526V32.4736H50.6432V32.8846H48.8828H48.8855ZM51.103 29.9385L51.1571 29.5351H51.6248L51.5476 30.6693H51.103V29.9385Z" fill="white"/>
<path d="M55.4125 32.7175C55.2969 32.7936 55.1556 32.8545 54.9911 32.8951C54.8266 32.9358 54.6647 32.9586 54.5055 32.9586C54.1406 32.9586 53.8579 32.8646 53.66 32.6744C53.4621 32.484 53.3645 32.2429 53.3645 31.9461V29.9465H52.5833V29.5328H53.3645V28.7716L53.9067 28.7081V29.5328H55.081L55.0169 29.9465H53.9067V31.9384C53.9067 32.1263 53.9556 32.2683 54.0558 32.3648C54.156 32.4612 54.3205 32.5119 54.5543 32.5119C54.6801 32.5119 54.7983 32.4968 54.9063 32.4663C55.0142 32.4358 55.1144 32.3977 55.207 32.3521L55.4177 32.7149L55.4125 32.7175Z" fill="white"/>
<path d="M64.8283 29.4646C65.1494 29.4646 65.4167 29.5356 65.6325 29.6802C65.8484 29.8223 66.0103 30.0253 66.1182 30.2867C66.2262 30.5481 66.2801 30.8551 66.2801 31.2104C66.2801 31.5656 66.2236 31.8549 66.1131 32.1189C66.0025 32.3828 65.8381 32.5883 65.6222 32.738C65.4064 32.8877 65.1391 32.9613 64.8205 32.9613C64.5019 32.9613 64.2346 32.8902 64.0188 32.7457C63.8029 32.6009 63.6385 32.398 63.5279 32.1366C63.4175 31.8752 63.3609 31.5682 63.3609 31.2179C63.3609 30.8678 63.4175 30.5683 63.5279 30.3044C63.6385 30.0406 63.8055 29.8351 64.0239 29.6878C64.2423 29.5407 64.5095 29.4671 64.8283 29.4671V29.4646ZM64.8283 29.901C64.5353 29.901 64.3143 30.0076 64.1653 30.2208C64.0162 30.4338 63.9417 30.7663 63.9417 31.2154C63.9417 31.6646 64.0162 31.9843 64.1626 32.2001C64.3091 32.4131 64.5302 32.5223 64.8231 32.5223C65.116 32.5223 65.3344 32.4157 65.4835 32.2001C65.63 31.9869 65.7045 31.6545 65.7045 31.2104C65.7045 30.7663 65.6325 30.4364 65.486 30.2208C65.3395 30.0076 65.1211 29.901 64.8308 29.901H64.8283Z" fill="white"/>
<path d="M69.4059 28.1173C69.5883 28.1173 69.7528 28.1326 69.9018 28.1655C70.0509 28.1985 70.1896 28.2417 70.3232 28.3L70.1486 28.6984C70.038 28.6528 69.9224 28.6172 69.8016 28.5944C69.6782 28.5715 69.5524 28.5588 69.4213 28.5588C69.1849 28.5588 69.0076 28.6046 68.8868 28.6959C68.766 28.7873 68.7069 28.9268 68.7069 29.1171V29.7972H69.8581L69.7991 30.2185H68.7069V32.8879H68.1647V30.2185H67.3552V29.7972H68.1647V29.1297C68.1647 28.9217 68.2186 28.7415 68.3266 28.5918C68.4345 28.4421 68.5835 28.3253 68.7685 28.2441C68.9562 28.163 69.1668 28.1224 69.4008 28.1224L69.4059 28.1173Z" fill="white"/>
<path d="M80.9778 31.4666C80.9778 31.761 80.9162 32.0223 80.7953 32.2456C80.6746 32.469 80.5025 32.6466 80.2839 32.7709C80.063 32.8952 79.8034 32.9587 79.5053 32.9587C79.2072 32.9587 78.9374 32.8952 78.719 32.7683C78.5006 32.6415 78.3336 32.4664 78.2179 32.2406C78.1023 32.0147 78.0431 31.7559 78.0431 31.464V28.5001H78.5983V31.4819C78.5983 31.8143 78.678 32.0654 78.8347 32.2304C78.994 32.3954 79.215 32.479 79.5028 32.479C79.7906 32.479 80.0167 32.3954 80.1761 32.2304C80.3328 32.0654 80.4125 31.8143 80.4125 31.4819V28.5001H80.9778V31.4666Z" fill="white"/>
<path d="M82.6643 28.1173V32.8854H82.1222V28.1833L82.6643 28.1173ZM84.9309 29.5333L83.4019 31.0431L85.1082 32.8854H84.3964L82.726 31.0558L84.2294 29.5333H84.9309Z" fill="white"/>
<path d="M85.9895 32.8846V32.4736H86.5189V29.9436H85.9895V29.5325H86.9301L87.0303 30.3243C87.1613 30.0476 87.3206 29.8344 87.5083 29.6848C87.6958 29.5351 87.9425 29.4589 88.2483 29.4589C88.3434 29.4589 88.4282 29.4666 88.5002 29.4792C88.5747 29.492 88.6493 29.5097 88.7263 29.5325L88.5696 30.0096C88.4975 29.9892 88.4333 29.9766 88.3768 29.9664C88.3178 29.9563 88.2535 29.9512 88.1764 29.9512C87.9168 29.9512 87.6933 30.0425 87.5057 30.2252C87.318 30.4079 87.169 30.6846 87.0586 31.0526V32.4736H87.7472V32.8846H85.987H85.9895ZM88.2072 29.9385L88.2611 29.5351H88.7288L88.6518 30.6693H88.2072V29.9385Z" fill="white"/>
<path d="M92.2566 32.1544C92.2566 32.2889 92.2798 32.3853 92.3235 32.4463C92.3697 32.5071 92.439 32.5527 92.5341 32.5832L92.4031 32.9588C92.2566 32.9386 92.1282 32.8928 92.0202 32.8192C91.9098 32.7457 91.8301 32.634 91.7813 32.4868C91.6578 32.6416 91.5062 32.7584 91.3238 32.8395C91.1413 32.9182 90.9384 32.9588 90.7174 32.9588C90.3781 32.9588 90.1109 32.8649 89.9156 32.6746C89.7204 32.4868 89.6227 32.2356 89.6227 31.9235C89.6227 31.5784 89.7589 31.3119 90.0312 31.1267C90.3037 30.9414 90.6994 30.8501 91.2134 30.8501H91.7119V30.571C91.7119 30.3299 91.6399 30.1574 91.4986 30.0558C91.3572 29.9543 91.1568 29.9035 90.905 29.9035C90.7944 29.9035 90.6608 29.9163 90.5118 29.9442C90.3602 29.9696 90.1982 30.0152 90.021 30.0762L89.8796 29.6726C90.0878 29.5965 90.283 29.5432 90.4655 29.5102C90.6479 29.4773 90.8227 29.462 90.9872 29.462C91.4111 29.462 91.7273 29.5585 91.9405 29.7539C92.1513 29.9492 92.2593 30.2106 92.2593 30.5456V32.1544H92.2566ZM90.8536 32.5527C91.0206 32.5527 91.18 32.5096 91.3341 32.4259C91.4857 32.3422 91.6117 32.2255 91.7119 32.0783V31.2155H91.221C90.8458 31.2155 90.5838 31.2789 90.4295 31.4059C90.2754 31.5327 90.1982 31.7052 90.1982 31.9184C90.1982 32.1316 90.2523 32.2838 90.3602 32.3904C90.4682 32.497 90.6326 32.5503 90.851 32.5503L90.8536 32.5527Z" fill="white"/>
<path d="M95.4092 29.533V32.4613H96.3678V32.8851H93.8211V32.4613H94.8697V29.9568H93.8545V29.533H95.4118H95.4092ZM94.9775 27.9648C95.0983 27.9648 95.1934 28.0003 95.2653 28.0739C95.3373 28.1449 95.3733 28.2338 95.3733 28.3378C95.3733 28.4419 95.3373 28.5357 95.2653 28.6093C95.1934 28.6829 95.0983 28.7184 94.9775 28.7184C94.8644 28.7184 94.7695 28.6829 94.6974 28.6093C94.6255 28.5357 94.5869 28.4444 94.5869 28.3378C94.5869 28.2312 94.623 28.1449 94.6974 28.0739C94.772 28.0029 94.8644 27.9648 94.9775 27.9648Z" fill="white"/>
<path d="M97.5666 32.8853V29.533H98.0265L98.0677 29.9975C98.2039 29.8249 98.3787 29.6929 98.5842 29.6016C98.7923 29.5102 98.9929 29.462 99.1881 29.462C99.5221 29.462 99.7637 29.5483 99.9153 29.7234C100.067 29.8984 100.141 30.1395 100.141 30.4491V32.8853H99.5992V30.845C99.5992 30.6167 99.5864 30.4314 99.5607 30.2892C99.535 30.1472 99.481 30.0457 99.3988 29.9797C99.3166 29.9137 99.1906 29.8833 99.0185 29.8833C98.8849 29.8833 98.7589 29.9112 98.6434 29.9696C98.5251 30.0279 98.4223 30.099 98.3299 30.1852C98.2373 30.2715 98.1628 30.3578 98.1037 30.444V32.8853H97.5614H97.5666Z" fill="white"/>
<path d="M103.149 29.533V32.4613H104.107V32.8851H101.561V32.4613H102.609V29.9568H101.594V29.533H103.151H103.149ZM102.717 27.9648C102.838 27.9648 102.933 28.0003 103.005 28.0739C103.077 28.1449 103.113 28.2338 103.113 28.3378C103.113 28.4419 103.077 28.5357 103.005 28.6093C102.933 28.6829 102.838 28.7184 102.717 28.7184C102.604 28.7184 102.509 28.6829 102.437 28.6093C102.365 28.5357 102.327 28.4444 102.327 28.3378C102.327 28.2312 102.363 28.1449 102.437 28.0739C102.512 28.0029 102.604 27.9648 102.717 27.9648Z" fill="white"/>
<path d="M107.731 32.1544C107.731 32.2889 107.754 32.3853 107.798 32.4463C107.844 32.5071 107.913 32.5527 108.008 32.5832L107.877 32.9588C107.731 32.9386 107.602 32.8928 107.494 32.8192C107.384 32.7457 107.304 32.634 107.255 32.4868C107.132 32.6416 106.98 32.7584 106.798 32.8395C106.615 32.9182 106.413 32.9588 106.192 32.9588C105.852 32.9588 105.585 32.8649 105.39 32.6746C105.195 32.4868 105.097 32.2356 105.097 31.9235C105.097 31.5784 105.233 31.3119 105.505 31.1267C105.778 30.9414 106.174 30.8501 106.688 30.8501H107.186V30.571C107.186 30.3299 107.114 30.1574 106.973 30.0558C106.831 29.9543 106.631 29.9035 106.379 29.9035C106.269 29.9035 106.135 29.9163 105.986 29.9442C105.834 29.9696 105.673 30.0152 105.495 30.0762L105.354 29.6726C105.562 29.5965 105.757 29.5432 105.94 29.5102C106.122 29.4773 106.297 29.462 106.461 29.462C106.885 29.462 107.201 29.5585 107.415 29.7539C107.625 29.9492 107.733 30.2106 107.733 30.5456V32.1544H107.731ZM106.328 32.5527C106.495 32.5527 106.654 32.5096 106.808 32.4259C106.96 32.3422 107.086 32.2255 107.186 32.0783V31.2155H106.695C106.32 31.2155 106.058 31.2789 105.904 31.4059C105.75 31.5327 105.673 31.7052 105.673 31.9184C105.673 32.1316 105.726 32.2838 105.834 32.3904C105.942 32.497 106.107 32.5503 106.325 32.5503L106.328 32.5527Z" fill="white"/>
<path d="M109.171 32.8853V29.533H109.631L109.672 29.9975C109.808 29.8249 109.983 29.6929 110.189 29.6016C110.397 29.5102 110.597 29.462 110.792 29.462C111.127 29.462 111.368 29.5483 111.52 29.7234C111.671 29.8984 111.746 30.1395 111.746 30.4491V32.8853H111.204V30.845C111.204 30.6167 111.191 30.4314 111.165 30.2892C111.139 30.1472 111.085 30.0457 111.003 29.9797C110.921 29.9137 110.795 29.8833 110.623 29.8833C110.489 29.8833 110.363 29.9112 110.248 29.9696C110.129 30.0279 110.027 30.099 109.934 30.1852C109.842 30.2715 109.767 30.3578 109.708 30.444V32.8853H109.166H109.171Z" fill="white"/>
<path d="M122.898 30.6722C122.898 31.0377 122.86 31.3498 122.78 31.6061C122.7 31.8649 122.595 32.0755 122.459 32.2456C122.323 32.4156 122.169 32.5424 121.996 32.6364C121.824 32.7277 121.642 32.7937 121.452 32.8317C121.261 32.8698 121.074 32.8876 120.891 32.8876H119.874V28.5051H120.822C121.081 28.5051 121.336 28.533 121.58 28.5914C121.824 28.6498 122.048 28.7539 122.248 28.9087C122.446 29.0634 122.605 29.2816 122.721 29.5659C122.839 29.8501 122.896 30.2205 122.896 30.6773L122.898 30.6722ZM122.302 30.6722C122.302 30.2891 122.261 29.9845 122.179 29.7562C122.097 29.5278 121.989 29.3553 121.858 29.241C121.724 29.1268 121.58 29.0507 121.421 29.0127C121.264 28.9746 121.107 28.9543 120.956 28.9543H120.434V32.4435H120.963C121.123 32.4435 121.282 32.4181 121.439 32.3674C121.595 32.3166 121.742 32.2277 121.873 32.1009C122.004 31.9715 122.109 31.7939 122.187 31.563C122.266 31.3321 122.305 31.0351 122.305 30.6722H122.302Z" fill="white"/>
<path d="M124.279 31.3982C124.289 31.6571 124.341 31.8677 124.431 32.0325C124.521 32.1975 124.641 32.3169 124.788 32.3954C124.934 32.4741 125.096 32.5122 125.271 32.5122C125.446 32.5122 125.602 32.4868 125.744 32.4361C125.885 32.3853 126.029 32.3092 126.178 32.2103L126.432 32.5629C126.273 32.6847 126.093 32.7838 125.89 32.8522C125.687 32.9233 125.479 32.9563 125.266 32.9563C124.937 32.9563 124.657 32.8827 124.425 32.7355C124.194 32.5883 124.017 32.3853 123.896 32.124C123.775 31.8626 123.714 31.5581 123.714 31.213C123.714 30.8678 123.775 30.571 123.896 30.3096C124.019 30.0457 124.192 29.8402 124.413 29.6879C124.634 29.5381 124.896 29.462 125.196 29.462C125.497 29.462 125.728 29.5281 125.934 29.66C126.14 29.792 126.299 29.9822 126.409 30.2259C126.52 30.4719 126.576 30.7638 126.576 31.1038C126.576 31.1622 126.576 31.2155 126.574 31.2637C126.574 31.3145 126.569 31.3576 126.563 31.3957H124.282L124.279 31.3982ZM125.201 29.901C124.95 29.901 124.739 29.9899 124.572 30.1649C124.405 30.34 124.307 30.6141 124.284 30.9821H126.055C126.047 30.6243 125.967 30.3527 125.816 30.1726C125.664 29.9924 125.459 29.901 125.204 29.901H125.201Z" fill="white"/>
<path d="M128.144 31.3982C128.154 31.6571 128.205 31.8677 128.296 32.0325C128.385 32.1975 128.506 32.3169 128.653 32.3954C128.799 32.4741 128.961 32.5122 129.136 32.5122C129.311 32.5122 129.467 32.4868 129.609 32.4361C129.75 32.3853 129.893 32.3092 130.042 32.2103L130.297 32.5629C130.138 32.6847 129.958 32.7838 129.755 32.8522C129.551 32.9233 129.344 32.9563 129.131 32.9563C128.802 32.9563 128.521 32.8827 128.291 32.7355C128.058 32.5883 127.881 32.3853 127.761 32.124C127.64 31.8626 127.578 31.5581 127.578 31.213C127.578 30.8678 127.64 30.571 127.761 30.3096C127.884 30.0457 128.056 29.8402 128.278 29.6879C128.498 29.5381 128.761 29.462 129.061 29.462C129.362 29.462 129.594 29.5281 129.799 29.66C130.004 29.792 130.163 29.9822 130.274 30.2259C130.384 30.4719 130.441 30.7638 130.441 31.1038C130.441 31.1622 130.441 31.2155 130.439 31.2637C130.439 31.3145 130.434 31.3576 130.429 31.3957H128.146L128.144 31.3982ZM129.066 29.901C128.815 29.901 128.604 29.9899 128.437 30.1649C128.27 30.34 128.172 30.6141 128.149 30.9821H129.92C129.912 30.6243 129.832 30.3527 129.68 30.1726C129.529 29.9924 129.323 29.901 129.068 29.901H129.066Z" fill="white"/>
<path d="M133.106 29.4646C133.407 29.4646 133.649 29.5356 133.827 29.6803C134.006 29.8249 134.135 30.0279 134.214 30.2892C134.293 30.5506 134.333 30.8578 134.333 31.2079C134.333 31.5581 134.283 31.8474 134.189 32.1112C134.093 32.3751 133.949 32.5832 133.754 32.733C133.561 32.8827 133.318 32.9588 133.022 32.9588C132.65 32.9588 132.351 32.8294 132.124 32.5706V34.1692L131.583 34.2352V29.533H132.043L132.089 30.0001C132.215 29.8274 132.362 29.6955 132.536 29.6016C132.708 29.5077 132.898 29.462 133.101 29.462L133.106 29.4646ZM132.979 29.8935C132.79 29.8935 132.625 29.9492 132.483 30.0609C132.339 30.1726 132.223 30.2969 132.13 30.4314V32.0935C132.217 32.2229 132.331 32.3244 132.464 32.4005C132.597 32.4766 132.747 32.5147 132.906 32.5147C133.189 32.5147 133.399 32.4082 133.541 32.1975C133.682 31.9843 133.754 31.6545 133.754 31.2079C133.754 30.916 133.726 30.6725 133.67 30.477C133.612 30.2817 133.528 30.137 133.415 30.0406C133.301 29.9442 133.156 29.896 132.976 29.896L132.979 29.8935Z" fill="white"/>
<path d="M143.959 28.9773V32.8876H143.402V28.9773H142.017V28.5027H145.365L145.307 28.9773H143.959Z" fill="white"/>
<path d="M146.696 31.3982C146.706 31.6571 146.757 31.8677 146.848 32.0325C146.937 32.1975 147.058 32.3169 147.205 32.3954C147.352 32.4741 147.514 32.5122 147.688 32.5122C147.863 32.5122 148.02 32.4868 148.161 32.4361C148.301 32.3853 148.446 32.3092 148.595 32.2103L148.85 32.5629C148.69 32.6847 148.511 32.7838 148.307 32.8522C148.104 32.9233 147.896 32.9563 147.683 32.9563C147.354 32.9563 147.074 32.8827 146.843 32.7355C146.611 32.5883 146.434 32.3853 146.312 32.124C146.193 31.8626 146.13 31.5581 146.13 31.213C146.13 30.8678 146.193 30.571 146.312 30.3096C146.436 30.0457 146.608 29.8402 146.83 29.6879C147.051 29.5381 147.312 29.462 147.613 29.462C147.914 29.462 148.145 29.5281 148.351 29.66C148.556 29.792 148.716 29.9822 148.827 30.2259C148.936 30.4719 148.994 30.7638 148.994 31.1038C148.994 31.1622 148.994 31.2155 148.991 31.2637C148.991 31.3145 148.985 31.3576 148.98 31.3957H146.699L146.696 31.3982ZM147.618 29.901C147.367 29.901 147.155 29.9899 146.988 30.1649C146.821 30.34 146.724 30.6141 146.701 30.9821H148.471C148.463 30.6243 148.384 30.3527 148.233 30.1726C148.081 29.9924 147.876 29.901 147.621 29.901H147.618Z" fill="white"/>
<path d="M151.68 32.497C151.85 32.497 152.009 32.4691 152.156 32.4133C152.302 32.3574 152.439 32.2889 152.565 32.2026L152.829 32.5527C152.68 32.6772 152.503 32.7761 152.295 32.8497C152.087 32.9207 151.882 32.9588 151.683 32.9588C151.346 32.9588 151.059 32.8878 150.82 32.7431C150.584 32.6011 150.401 32.398 150.278 32.1391C150.151 31.8803 150.09 31.5733 150.09 31.2232C150.09 30.8729 150.151 30.5862 150.278 30.3197C150.404 30.0534 150.586 29.8427 150.822 29.6904C151.059 29.5381 151.349 29.462 151.688 29.462C151.905 29.462 152.11 29.495 152.3 29.5585C152.49 29.6244 152.664 29.7208 152.824 29.8502L152.56 30.2081C152.416 30.1091 152.272 30.033 152.125 29.9848C151.981 29.934 151.832 29.9086 151.683 29.9086C151.391 29.9086 151.151 30.0178 150.961 30.2335C150.771 30.4491 150.678 30.7791 150.678 31.2232C150.678 31.52 150.723 31.7636 150.809 31.9515C150.897 32.1391 151.015 32.2762 151.166 32.3651C151.318 32.4538 151.49 32.497 151.683 32.497H151.68Z" fill="white"/>
<path d="M154.549 28.1323V29.9923C154.683 29.8172 154.847 29.6853 155.04 29.5964C155.235 29.5077 155.431 29.4644 155.631 29.4644C155.963 29.4644 156.204 29.5507 156.356 29.7258C156.507 29.901 156.585 30.142 156.585 30.4515V32.8877H156.042V30.4643C156.042 30.2639 155.996 30.1166 155.9 30.0228C155.806 29.9313 155.657 29.8831 155.457 29.8831C155.328 29.8831 155.204 29.9111 155.09 29.9695C154.973 30.0279 154.868 30.0989 154.776 30.1826C154.683 30.2664 154.606 30.3551 154.546 30.444V32.8851H154.004V28.1906L154.546 28.1323H154.549Z" fill="white"/>
<path d="M165.979 32.5172C166.238 32.5172 166.445 32.469 166.595 32.3726C166.747 32.2761 166.822 32.1467 166.822 31.9868C166.822 31.8853 166.804 31.7965 166.765 31.723C166.726 31.6493 166.65 31.5808 166.534 31.5224C166.418 31.4641 166.238 31.4032 166 31.3448C165.765 31.2864 165.562 31.2205 165.388 31.1469C165.213 31.0734 165.079 30.9743 164.985 30.8525C164.889 30.7308 164.841 30.5734 164.841 30.3805C164.841 30.1877 164.894 30.0279 165.003 29.8908C165.111 29.7537 165.261 29.6497 165.455 29.5761C165.648 29.5026 165.873 29.467 166.128 29.467C166.4 29.467 166.64 29.5026 166.842 29.5736C167.045 29.6446 167.217 29.7335 167.359 29.8375L167.12 30.2004C166.992 30.114 166.85 30.043 166.693 29.9846C166.539 29.9289 166.351 29.901 166.133 29.901C165.866 29.901 165.678 29.9415 165.565 30.0228C165.455 30.104 165.398 30.2106 165.398 30.34C165.398 30.4364 165.426 30.5176 165.481 30.5835C165.534 30.6495 165.627 30.7079 165.76 30.7587C165.891 30.812 166.071 30.8677 166.303 30.9286C166.524 30.987 166.716 31.0555 166.881 31.1367C167.045 31.2179 167.174 31.3245 167.267 31.4539C167.359 31.5859 167.405 31.7559 167.405 31.9639C167.405 32.2025 167.336 32.3954 167.199 32.5425C167.063 32.6897 166.883 32.7963 166.665 32.8649C166.447 32.9308 166.215 32.9664 165.974 32.9664C165.666 32.9664 165.405 32.9231 165.19 32.8344C164.974 32.7455 164.792 32.6389 164.648 32.5146L164.957 32.162C165.089 32.271 165.241 32.3573 165.416 32.4259C165.59 32.4943 165.776 32.5274 165.977 32.5274L165.979 32.5172Z" fill="white"/>
<path d="M171.391 32.7175C171.275 32.7936 171.135 32.8545 170.971 32.8951C170.806 32.9358 170.644 32.9586 170.485 32.9586C170.119 32.9586 169.837 32.8646 169.64 32.6744C169.441 32.484 169.344 32.2429 169.344 31.9461V29.9465H168.562V29.5328H169.344V28.7716L169.886 28.7081V29.5328H171.06L170.996 29.9465H169.886V31.9384C169.886 32.1263 169.934 32.2683 170.035 32.3648C170.136 32.4612 170.299 32.5119 170.533 32.5119C170.66 32.5119 170.777 32.4968 170.885 32.4663C170.994 32.4358 171.093 32.3977 171.186 32.3521L171.397 32.7149L171.391 32.7175Z" fill="white"/>
<path d="M174.996 32.1544C174.996 32.2889 175.02 32.3853 175.063 32.4463C175.109 32.5071 175.178 32.5527 175.274 32.5832L175.143 32.9588C174.996 32.9386 174.868 32.8928 174.76 32.8192C174.649 32.7457 174.57 32.634 174.522 32.4868C174.398 32.6416 174.246 32.7584 174.064 32.8395C173.882 32.9182 173.678 32.9588 173.457 32.9588C173.118 32.9588 172.85 32.8649 172.655 32.6746C172.46 32.4868 172.363 32.2356 172.363 31.9235C172.363 31.5784 172.498 31.3119 172.771 31.1267C173.044 30.9414 173.439 30.8501 173.953 30.8501H174.451V30.571C174.451 30.3299 174.38 30.1574 174.239 30.0558C174.097 29.9543 173.897 29.9035 173.644 29.9035C173.535 29.9035 173.401 29.9163 173.252 29.9442C173.1 29.9696 172.938 30.0152 172.761 30.0762L172.619 29.6726C172.827 29.5965 173.022 29.5432 173.206 29.5102C173.388 29.4773 173.563 29.462 173.727 29.462C174.151 29.462 174.467 29.5585 174.68 29.7539C174.891 29.9492 174.998 30.2106 174.998 30.5456V32.1544H174.996ZM173.593 32.5527C173.76 32.5527 173.92 32.5096 174.074 32.4259C174.226 32.3422 174.351 32.2255 174.451 32.0783V31.2155H173.961C173.586 31.2155 173.323 31.2789 173.169 31.4059C173.015 31.5327 172.938 31.7052 172.938 31.9184C172.938 32.1316 172.992 32.2838 173.1 32.3904C173.208 32.497 173.373 32.5503 173.591 32.5503L173.593 32.5527Z" fill="white"/>
<path d="M176.463 32.8846V32.4736H176.994V29.9436H176.463V29.5325H177.404L177.505 30.3243C177.635 30.0476 177.794 29.8344 177.983 29.6848C178.171 29.5351 178.417 29.4589 178.723 29.4589C178.818 29.4589 178.902 29.4666 178.974 29.4792C179.049 29.492 179.123 29.5097 179.201 29.5325L179.044 30.0096C178.971 29.9892 178.908 29.9766 178.851 29.9664C178.792 29.9563 178.728 29.9512 178.651 29.9512C178.391 29.9512 178.168 30.0425 177.979 30.2252C177.792 30.4079 177.643 30.6846 177.533 31.0526V32.4736H178.222V32.8846H176.461H176.463ZM178.682 29.9385L178.735 29.5351H179.203L179.126 30.6693H178.682V29.9385Z" fill="white"/>
<path d="M183.002 32.7175C182.886 32.7936 182.744 32.8545 182.58 32.8951C182.415 32.9358 182.253 32.9586 182.094 32.9586C181.729 32.9586 181.446 32.8646 181.248 32.6744C181.051 32.484 180.953 32.2429 180.953 31.9461V29.9465H180.171V29.5328H180.953V28.7716L181.495 28.7081V29.5328H182.67L182.605 29.9465H181.495V31.9384C181.495 32.1263 181.544 32.2683 181.644 32.3648C181.744 32.4612 181.909 32.5119 182.142 32.5119C182.268 32.5119 182.387 32.4968 182.495 32.4663C182.602 32.4358 182.703 32.3977 182.795 32.3521L183.007 32.7149L183.002 32.7175Z" fill="white"/>
<path d="M184.711 29.533V31.9082C184.711 32.1289 184.757 32.2888 184.849 32.3852C184.942 32.4841 185.086 32.5325 185.281 32.5325C185.476 32.5325 185.646 32.4792 185.81 32.3751C185.977 32.2711 186.106 32.1442 186.199 32.0021V29.5356H186.741V32.8877H186.281L186.235 32.436C186.101 32.606 185.937 32.7355 185.741 32.8267C185.546 32.9182 185.348 32.9613 185.147 32.9613C184.818 32.9613 184.575 32.8749 184.41 32.7024C184.248 32.5299 184.166 32.2863 184.166 31.9741V29.5356H184.709L184.711 29.533Z" fill="white"/>
<path d="M189.55 29.4646C189.851 29.4646 190.092 29.5356 190.269 29.6803C190.449 29.8249 190.578 30.0279 190.658 30.2892C190.737 30.5506 190.775 30.8578 190.775 31.2079C190.775 31.5581 190.727 31.8474 190.631 32.1112C190.537 32.3751 190.393 32.5832 190.198 32.733C190.005 32.8827 189.76 32.9588 189.464 32.9588C189.092 32.9588 188.794 32.8294 188.568 32.5706V34.1692L188.026 34.2352V29.533H188.485L188.532 30.0001C188.657 29.8274 188.804 29.6955 188.979 29.6016C189.151 29.5077 189.342 29.462 189.545 29.462L189.55 29.4646ZM189.421 29.8935C189.234 29.8935 189.069 29.9492 188.925 30.0609C188.781 30.1726 188.666 30.2969 188.573 30.4314V32.0935C188.66 32.2229 188.773 32.3244 188.907 32.4005C189.041 32.4766 189.19 32.5147 189.35 32.5147C189.631 32.5147 189.843 32.4082 189.983 32.1975C190.125 31.9843 190.198 31.6545 190.198 31.2079C190.198 30.916 190.17 30.6725 190.112 30.477C190.056 30.2817 189.971 30.137 189.858 30.0406C189.745 29.9442 189.598 29.896 189.419 29.896L189.421 29.8935Z" fill="white"/>
<path d="M193.062 32.5172C193.321 32.5172 193.528 32.469 193.68 32.3726C193.831 32.2761 193.905 32.1467 193.905 31.9868C193.905 31.8853 193.887 31.7965 193.849 31.723C193.81 31.6493 193.733 31.5808 193.617 31.5224C193.502 31.4641 193.321 31.4032 193.083 31.3448C192.85 31.2864 192.646 31.2205 192.471 31.1469C192.296 31.0734 192.164 30.9743 192.068 30.8525C191.972 30.7308 191.924 30.5734 191.924 30.3805C191.924 30.1877 191.977 30.0279 192.086 29.8908C192.194 29.7537 192.346 29.6497 192.538 29.5761C192.731 29.5026 192.957 29.467 193.212 29.467C193.483 29.467 193.723 29.5026 193.926 29.5736C194.128 29.6446 194.3 29.7335 194.442 29.8375L194.204 30.2004C194.075 30.114 193.933 30.043 193.776 29.9846C193.622 29.9289 193.435 29.901 193.217 29.901C192.949 29.901 192.762 29.9415 192.648 30.0228C192.538 30.104 192.481 30.2106 192.481 30.34C192.481 30.4364 192.51 30.5176 192.564 30.5835C192.617 30.6495 192.711 30.7079 192.844 30.7587C192.974 30.812 193.154 30.8677 193.386 30.9286C193.607 30.987 193.799 31.0555 193.964 31.1367C194.128 31.2179 194.257 31.3245 194.35 31.4539C194.442 31.5859 194.489 31.7559 194.489 31.9639C194.489 32.2025 194.419 32.3954 194.283 32.5425C194.146 32.6897 193.966 32.7963 193.748 32.8649C193.53 32.9308 193.298 32.9664 193.057 32.9664C192.749 32.9664 192.489 32.9231 192.273 32.8344C192.058 32.7455 191.875 32.6389 191.731 32.5146L192.04 32.162C192.174 32.271 192.324 32.3573 192.5 32.4259C192.675 32.4943 192.86 32.5274 193.06 32.5274L193.062 32.5172Z" fill="white"/>
<path d="M34.7836 18.9641C32.7278 18.9032 31.3428 18.6597 30.6257 18.241C30.0116 17.8907 29.7033 17.2614 29.7033 16.3504C29.7033 15.4395 30.0604 14.8431 30.7773 14.4371C31.574 13.993 32.9077 13.7723 34.781 13.7723C36.6544 13.7723 37.9597 14.0286 38.7153 14.5412C39.3937 14.9929 39.7303 15.7261 39.7303 16.7463H36.6595C36.6595 16.4823 36.5335 16.3098 36.2817 16.2337C36.0377 16.1474 35.5365 16.1043 34.781 16.1043C33.9536 16.1043 33.4191 16.1348 33.1749 16.1982C33.0028 16.2439 32.9153 16.3378 32.9153 16.4774C32.9153 16.6093 33.0028 16.6981 33.1749 16.7463C33.3959 16.792 33.9305 16.8326 34.781 16.8631C36.829 16.9417 38.2116 17.1904 38.926 17.6091C39.5478 17.9745 39.8588 18.6115 39.8588 19.5225C39.8588 20.4335 39.5015 21.05 38.7846 21.4713C37.9804 21.9382 36.6466 22.1717 34.781 22.1717C32.9153 22.1717 31.5714 21.9154 30.7773 21.4027C30.0604 20.9435 29.7033 20.2101 29.7033 19.1976H32.7741C32.7741 19.4615 32.8948 19.634 33.139 19.7101C33.3831 19.7965 33.9305 19.8396 34.781 19.8396C35.6316 19.8396 36.143 19.8092 36.3871 19.7457C36.5669 19.7001 36.6595 19.6061 36.6595 19.4666C36.6595 19.3118 36.5721 19.2027 36.3999 19.1392C36.1404 19.0454 35.6007 18.987 34.781 18.9641H34.7836Z" fill="white"/>
<path d="M50.2091 16.2233H44.5404V16.9236H50.091V19.0222H44.5404V19.7225H50.2091V22.0546H41.4669V13.8887H50.2091V16.2233Z" fill="white"/>
<path d="M60.6133 16.2233H54.9445V16.9236H60.4951V19.0222H54.9445V19.7225H60.6133V22.0546H51.8711V13.8887H60.6133V16.2233Z" fill="white"/>
<path d="M67.1625 13.8913C68.8405 13.8913 70.1074 14.2516 70.9657 14.9748C71.7932 15.6676 72.2069 16.6674 72.2069 17.9717C72.2069 19.276 71.7932 20.2783 70.9657 20.9686C70.1074 21.6918 68.8405 22.0521 67.1625 22.0521H62.2852V13.8862H67.1625V13.8913ZM67.1625 19.4892C68.4782 19.4892 69.1361 18.9842 69.1361 17.9717C69.1361 16.9592 68.4782 16.4542 67.1625 16.4542H65.356V19.4866H67.1625V19.4892Z" fill="white"/>
<path d="M78.4171 18.9641C76.3613 18.9032 74.9762 18.6597 74.2592 18.241C73.6451 17.8907 73.3367 17.2614 73.3367 16.3504C73.3367 15.4395 73.6939 14.8431 74.4108 14.4371C75.2074 13.993 76.5411 13.7723 78.4144 13.7723C80.2878 13.7723 81.5932 14.0286 82.3488 14.5412C83.0271 14.9929 83.3638 15.7261 83.3638 16.7463H80.293C80.293 16.4823 80.167 16.3098 79.9152 16.2337C79.6711 16.1474 79.17 16.1043 78.4144 16.1043C77.5871 16.1043 77.0525 16.1348 76.8084 16.1982C76.6362 16.2439 76.5489 16.3378 76.5489 16.4774C76.5489 16.6093 76.6362 16.6981 76.8084 16.7463C77.0294 16.792 77.5639 16.8326 78.4144 16.8631C80.4626 16.9417 81.845 17.1904 82.5594 17.6091C83.1813 17.9745 83.4922 18.6115 83.4922 19.5225C83.4922 20.4335 83.1351 21.05 82.4181 21.4713C81.6138 21.9382 80.2801 22.1717 78.4144 22.1717C76.5489 22.1717 75.2049 21.9154 74.4108 21.4027C73.6939 20.9435 73.3367 20.2101 73.3367 19.1976H76.4075C76.4075 19.4615 76.5283 19.634 76.7724 19.7101C77.0165 19.7965 77.5639 19.8396 78.4144 19.8396C79.2651 19.8396 79.7764 19.8092 80.0205 19.7457C80.2004 19.7001 80.293 19.6061 80.293 19.4666C80.293 19.3118 80.2055 19.2027 80.0334 19.1392C79.7738 19.0454 79.2342 18.987 78.4144 18.9641H78.4171Z" fill="white"/>
<path d="M95.2208 13.7748C96.9604 13.7748 98.2891 14.1453 99.2013 14.8836C100.09 15.6069 100.535 16.6371 100.535 17.9745C100.535 19.3117 100.09 20.342 99.2013 21.0652C98.2864 21.8037 96.9604 22.1741 95.2208 22.1741C93.4811 22.1741 92.1525 21.8037 91.2403 21.0652C90.3511 20.342 89.9065 19.3117 89.9065 17.9745C89.9065 16.6371 90.3511 15.6069 91.2403 14.8836C92.1525 14.1453 93.4811 13.7748 95.2208 13.7748ZM95.2208 19.6061C96.7164 19.6061 97.4641 19.0631 97.4641 17.9719C97.4641 16.8808 96.7164 16.3378 95.2208 16.3378C93.7251 16.3378 92.9773 16.8833 92.9773 17.9719C92.9773 19.0605 93.7251 19.6061 95.2208 19.6061Z" fill="white"/>
<path d="M110.701 13.8913V16.4567H105.269V17.2739H110.586V19.8393H105.269V22.0546H102.198V13.8887H110.704L110.701 13.8913Z" fill="white"/>
<path d="M117.341 22.0546V13.8887H123.778C124.652 13.8887 125.318 14.0764 125.775 14.4495C126.217 14.8073 126.436 15.3199 126.436 15.9898C126.436 16.9236 126.006 17.5479 125.148 17.8676C126.243 18.1391 126.79 18.8166 126.79 19.8977C126.79 20.5828 126.561 21.1106 126.104 21.4837C125.631 21.8643 124.95 22.0546 124.061 22.0546H117.339H117.341ZM120.412 16.9211H122.81C123.18 16.9211 123.365 16.784 123.365 16.5126C123.365 16.241 123.18 16.1041 122.81 16.1041H120.412V16.9211ZM120.412 19.8368H123.164C123.534 19.8368 123.719 19.6997 123.719 19.4282C123.719 19.1567 123.534 19.0196 123.164 19.0196H120.412V19.8368Z" fill="white"/>
<path d="M131.526 22.0546H128.455V13.8887H133.923C135.224 13.8887 136.216 14.1678 136.899 14.7286C137.567 15.2641 137.904 16.0355 137.904 17.0379C137.904 18.3066 137.377 19.1999 136.32 19.7201L137.904 22.0521H134.715L133.45 20.187H131.526V22.0546ZM131.526 17.6214H134.032C134.566 17.6214 134.835 17.4261 134.835 17.0379C134.835 16.6496 134.569 16.4542 134.032 16.4542H131.526V17.6214Z" fill="white"/>
<path d="M147.248 13.8918L150.792 22.0577H147.603L147.001 20.657H143.008L142.407 22.0577H139.217L142.762 13.8918H147.251H147.248ZM143.928 18.5584H146.079L145.004 16.0741L143.931 18.5584H143.928Z" fill="white"/>
<path d="M161.971 13.8918L158.426 22.0577H153.937L150.394 13.8918H153.582L156.181 19.8754L158.779 13.8918H161.971Z" fill="white"/>
<path d="M172.075 16.2233H166.406V16.9236H171.956V19.0222H166.406V19.7225H172.075V22.0546H163.332V13.8887H172.075V16.2233Z" fill="white"/>
<path d="M176.813 22.0546H173.743V13.8887H179.21C180.51 13.8887 181.502 14.1678 182.186 14.7286C182.854 15.2641 183.19 16.0355 183.19 17.0379C183.19 18.3066 182.664 19.1999 181.608 19.7201L183.19 22.0521H180.001L178.738 20.187H176.813V22.0546ZM176.813 17.6214H179.318C179.852 17.6214 180.123 17.4261 180.123 17.0379C180.123 16.6496 179.855 16.4542 179.318 16.4542H176.813V17.6214Z" fill="white"/>
<path d="M195.25 13.8918L191.057 19.4085V22.0551H187.987V19.4085L183.792 13.8918H187.218L189.521 16.9243L191.823 13.8918H195.25Z" fill="white"/>
<path d="M73.8539 10.9014L73.7356 10.3152C73.2732 10.4066 72.8106 10.4979 72.3506 10.5867L72.4688 11.1729C72.9288 11.0815 73.3888 10.9902 73.8512 10.9014H73.8539Z" fill="white"/>
<path d="M76.6228 10.366L76.5097 9.7798C76.0471 9.86861 75.5846 9.95489 75.1247 10.0462L75.2403 10.6324C75.7002 10.5436 76.1602 10.4548 76.6228 10.3685V10.366Z" fill="white"/>
<path d="M1.66781 42.3976L1.20526 42.7832C1.49821 43.1258 1.85026 43.4659 2.24857 43.7882L2.63146 43.3264C2.26142 43.0243 1.93506 42.7122 1.66525 42.3976H1.66781Z" fill="white"/>
<path d="M67.1539 11.9009C67.5547 11.9009 67.9427 11.9187 68.3127 11.9542L68.2023 11.429C67.7397 11.5254 67.2797 11.6218 66.8224 11.7182L66.8609 11.9009H67.1539Z" fill="white"/>
<path d="M0.601315 40.0762L0 40.1344C0.00513945 40.1827 0.0102789 40.2335 0.017988 40.2817C0.0770918 40.7156 0.205578 41.1445 0.400877 41.5581L0.948229 41.3042C0.778626 40.9465 0.668128 40.576 0.616733 40.2005C0.611594 40.1574 0.606454 40.1167 0.601315 40.0736V40.0762Z" fill="white"/>
<path d="M71.0897 11.4498L70.969 10.8662C70.5064 10.9601 70.0464 11.0539 69.5864 11.1453L69.7098 11.7289C70.1697 11.6351 70.6297 11.5412 71.0897 11.4498Z" fill="white"/>
<path d="M0.0996084 38.6725L0.688075 38.807C0.780586 38.4113 0.934769 38.0026 1.14806 37.589L0.608414 37.3176C0.374568 37.7717 0.202398 38.2285 0.0996084 38.6725Z" fill="white"/>
<path d="M82.1634 9.34311L82.0555 8.75693C81.5904 8.84067 81.1279 8.92441 80.6678 9.00815L80.7784 9.59434C81.2384 9.51059 81.701 9.42685 82.1661 9.34311H82.1634Z" fill="white"/>
<path d="M79.392 9.84863L79.2814 9.26245C78.8188 9.34873 78.3563 9.43501 77.8938 9.52128L78.0068 10.1075C78.4668 10.0212 78.9294 9.9349 79.392 9.85117V9.84863Z" fill="white"/>
<path d="M104.433 5.80582L104.348 5.21456C103.883 5.28054 103.415 5.34398 102.95 5.40995L103.035 6.00121C103.5 5.93523 103.965 5.86926 104.43 5.80582H104.433Z" fill="white"/>
<path d="M98.8525 6.61017L98.7626 6.01891C98.2975 6.08743 97.8324 6.15848 97.3672 6.22953L97.4597 6.81825C97.9222 6.74719 98.3874 6.67868 98.8525 6.61017Z" fill="white"/>
<path d="M101.644 6.20177L101.557 5.61051C101.091 5.67649 100.624 5.745 100.161 5.81352L100.249 6.40477C100.714 6.33626 101.179 6.27027 101.644 6.20177Z" fill="white"/>
<path d="M107.219 5.42543L107.137 4.83417C106.67 4.89762 106.204 4.96106 105.739 5.02449L105.822 5.61575C106.287 5.55231 106.752 5.48888 107.217 5.42543H107.219Z" fill="white"/>
<path d="M96.061 7.03159L95.9686 6.44287C95.5035 6.51393 95.0383 6.58752 94.5732 6.65856L94.6683 7.24728C95.1308 7.17369 95.5959 7.10265 96.061 7.03159Z" fill="white"/>
<path d="M90.5005 7.91749L90.4029 7.32878C89.9378 7.4049 89.4726 7.48103 89.0101 7.55716L89.1103 8.14588C89.5729 8.06975 90.0354 7.99362 90.5005 7.91749Z" fill="white"/>
<path d="M84.9425 8.8532L84.8372 8.26448C84.3721 8.34569 83.9095 8.42689 83.4469 8.5081L83.5524 9.0968C84.0148 9.01561 84.4774 8.93441 84.9399 8.8532H84.9425Z" fill="white"/>
<path d="M93.2821 7.46862L93.1869 6.87992C92.7218 6.9535 92.2567 7.02709 91.7941 7.10322L91.8918 7.69193C92.3544 7.61835 92.8195 7.54222 93.2846 7.46862H93.2821Z" fill="white"/>
<path d="M6.74248 31.4866C6.33388 31.7505 5.93815 32.017 5.56811 32.2784L5.92016 32.7655C6.28506 32.5093 6.67309 32.2479 7.07396 31.9865L6.74248 31.4866Z" fill="white"/>
<path d="M18.0839 25.7542L18.3203 26.3048C18.7469 26.1271 19.1786 25.9495 19.6207 25.7693L19.3919 25.2161C18.9499 25.3939 18.5156 25.574 18.0865 25.7516L18.0839 25.7542Z" fill="white"/>
<path d="M16.8961 48.8682C17.3536 48.9469 17.8187 49.023 18.2915 49.0991L18.3866 48.5104C17.9164 48.4369 17.4538 48.3607 16.9989 48.2821L16.8936 48.8707L16.8961 48.8682Z" fill="white"/>
<path d="M16.7866 26.3069C16.3473 26.4972 15.9181 26.6851 15.494 26.8753L15.7433 27.4183C16.1648 27.2306 16.5914 27.0428 17.0282 26.8525L16.7866 26.3069Z" fill="white"/>
<path d="M14.117 48.3383C14.5694 48.4323 15.0318 48.5261 15.5047 48.615L15.6178 48.0287C15.1502 47.94 14.6902 47.8486 14.2405 47.7547L14.1145 48.3383H14.117Z" fill="white"/>
<path d="M14.2037 27.4618C13.7695 27.6648 13.3429 27.8652 12.9291 28.0682L13.1964 28.6037C13.6101 28.4032 14.0316 28.2027 14.4633 28.0023L14.2063 27.4618H14.2037Z" fill="white"/>
<path d="M1.37958 36.105L1.86526 36.4604C2.11965 36.1203 2.41775 35.7726 2.74924 35.4276L2.30982 35.019C1.96291 35.3818 1.6494 35.7473 1.38215 36.105H1.37958Z" fill="white"/>
<path d="M19.6876 49.3128C20.1476 49.3788 20.6153 49.4448 21.088 49.5057L21.1677 48.9144C20.6975 48.851 20.2324 48.7875 19.7749 48.7216L19.6876 49.3128Z" fill="white"/>
<path d="M20.6987 24.6953L20.9222 25.2509C21.3539 25.081 21.7908 24.9134 22.2327 24.7435L22.0143 24.1877C21.5697 24.3577 21.1304 24.5277 20.6987 24.6977V24.6953Z" fill="white"/>
<path d="M22.4891 49.6833C22.9517 49.7392 23.4194 49.7924 23.8923 49.8457L23.9591 49.2518C23.4862 49.1985 23.021 49.1454 22.5612 49.0895L22.4866 49.6833H22.4891Z" fill="white"/>
<path d="M3.42154 44.6184C3.80444 44.8569 4.22331 45.0929 4.66787 45.3187L4.9454 44.7883C4.51625 44.5702 4.1128 44.3418 3.74534 44.1133L3.42154 44.6184Z" fill="white"/>
<path d="M5.96156 45.9222C6.37786 46.0998 6.82242 46.2774 7.28497 46.4475L7.49569 45.8892C7.04341 45.7217 6.60913 45.5491 6.20312 45.374L5.96156 45.9222Z" fill="white"/>
<path d="M110.021 5.05439L109.941 4.46314C109.474 4.52403 109.006 4.58494 108.538 4.64838L108.618 5.23963C109.086 5.17873 109.553 5.11529 110.021 5.05693V5.05439Z" fill="white"/>
<path d="M4.81174 33.5897L4.43656 33.1203C4.04853 33.4222 3.68107 33.7292 3.34186 34.0261L3.74531 34.4702C4.07424 34.1784 4.43142 33.8814 4.80918 33.5872L4.81174 33.5897Z" fill="white"/>
<path d="M9.17194 30.0273C8.75051 30.2633 8.33935 30.5043 7.94876 30.7378L8.26225 31.2479C8.64772 31.017 9.05374 30.7785 9.47002 30.545L9.16937 30.0273H9.17194Z" fill="white"/>
<path d="M11.3504 47.6989C11.7949 47.8131 12.2575 47.9272 12.7278 48.0338L12.8665 47.4528C12.4014 47.3462 11.944 47.2345 11.5046 47.1203L11.3529 47.6989H11.3504Z" fill="white"/>
<path d="M11.6631 28.6951C11.234 28.9132 10.8125 29.1341 10.4091 29.3473L10.6969 29.8724C11.0952 29.6594 11.5141 29.4411 11.9406 29.2254L11.6631 28.6951Z" fill="white"/>
<path d="M8.63107 46.9118C9.06278 47.0513 9.52019 47.1909 9.98788 47.3254L10.1575 46.7519C9.69493 46.62 9.24523 46.4829 8.82123 46.3434L8.63364 46.9093L8.63107 46.9118Z" fill="white"/>
<path d="M140.863 1.87257L140.817 1.27625C140.349 1.31177 139.883 1.3473 139.412 1.38283L139.458 1.97661C139.929 1.94109 140.397 1.90557 140.863 1.87003V1.87257Z" fill="white"/>
<path d="M177.481 0.0383075C177.014 0.0306948 176.544 0.0256197 176.071 0.0205445L176.063 0.616873C176.536 0.621949 177.007 0.629562 177.471 0.634637L177.481 0.0383075Z" fill="white"/>
<path d="M185.951 0.30188C185.484 0.279042 185.013 0.258741 184.54 0.238441L184.515 0.83477C184.988 0.855071 185.457 0.875371 185.923 0.898209L185.951 0.30188Z" fill="white"/>
<path d="M183.129 0.182686C182.662 0.164924 182.192 0.149698 181.719 0.134473L181.701 0.730802C182.174 0.746027 182.643 0.761253 183.109 0.779015L183.132 0.182686H183.129Z" fill="white"/>
<path d="M174.659 0.00507514C174.191 0.00253757 173.722 0 173.249 0V0.596329C173.72 0.596329 174.189 0.598866 174.657 0.601404L174.662 0.00507514H174.659Z" fill="white"/>
<path d="M180.305 0.0964896C179.838 0.0838018 179.368 0.0736514 178.895 0.0635011L178.882 0.659831C179.355 0.669981 179.824 0.680131 180.29 0.692819L180.305 0.0964896Z" fill="white"/>
<path d="M171.838 0.596329V0C171.369 0 170.898 0.00253757 170.425 0.00507514L170.43 0.601404C170.903 0.598866 171.374 0.596329 171.838 0.596329Z" fill="white"/>
<path d="M166.204 0.654227L166.193 0.0578982C165.725 0.0655108 165.255 0.0756611 164.782 0.0858114L164.795 0.682141C165.268 0.67199 165.736 0.66184 166.204 0.654227Z" fill="white"/>
<path d="M169.017 0.613761L169.012 0.0174317C168.544 0.0225069 168.074 0.027582 167.601 0.0351947L167.609 0.631524C168.082 0.623911 168.55 0.618836 169.017 0.613761Z" fill="white"/>
<path d="M197.218 1.17258C196.755 1.12183 196.287 1.07108 195.813 1.02287L195.75 1.61665C196.223 1.66487 196.689 1.71308 197.151 1.76638L197.218 1.17258Z" fill="white"/>
<path d="M205.611 2.41036C205.156 2.32408 204.69 2.2378 204.217 2.15405L204.113 2.74277C204.583 2.82398 205.042 2.91026 205.495 2.99654L205.611 2.41036Z" fill="white"/>
<path d="M196.242 27.1922C195.805 27.3496 195.366 27.5095 194.919 27.6668V27.6743C195.152 27.7022 195.377 27.7479 195.584 27.8165C195.698 27.8545 195.805 27.8977 195.908 27.9459C196.088 27.8799 196.273 27.8165 196.45 27.7504L196.242 27.1897V27.1922Z" fill="white"/>
<path d="M188.772 0.457229C188.308 0.429315 187.838 0.401402 187.362 0.376026L187.329 0.972356C187.802 0.997731 188.269 1.02564 188.734 1.05356L188.772 0.457229Z" fill="white"/>
<path d="M220.637 9.57642C220.452 9.15011 220.189 8.73141 219.863 8.33048L219.392 8.70604C219.685 9.06383 219.916 9.43686 220.081 9.81241L220.637 9.57642Z" fill="white"/>
<path d="M208.385 2.99962C207.94 2.89558 207.475 2.79154 207.003 2.69258L206.877 3.27621C207.345 3.37518 207.804 3.47668 208.246 3.58072L208.385 2.99962Z" fill="white"/>
<path d="M191.592 0.649979C191.127 0.614452 190.657 0.581464 190.184 0.548476L190.143 1.1448C190.616 1.17779 191.082 1.21078 191.548 1.24631L191.595 0.652516L191.592 0.649979Z" fill="white"/>
<path d="M163.385 0.718351L163.369 0.122022C162.901 0.134709 162.431 0.147398 161.958 0.160086L161.976 0.756415C162.449 0.743727 162.917 0.731038 163.385 0.718351Z" fill="white"/>
<path d="M194.406 0.88511C193.941 0.841971 193.473 0.80137 192.997 0.760769L192.946 1.35456C193.419 1.39516 193.887 1.43577 194.349 1.4789L194.406 0.88511Z" fill="white"/>
<path d="M146.487 1.48473L146.448 0.888393C145.98 0.918844 145.511 0.949295 145.04 0.979746L145.081 1.57607C145.551 1.54562 146.019 1.51518 146.487 1.48473Z" fill="white"/>
<path d="M129.625 2.83438L129.567 2.24059C129.099 2.28627 128.631 2.33194 128.162 2.37763L128.22 2.97142C128.688 2.92574 129.156 2.88007 129.623 2.83438H129.625Z" fill="white"/>
<path d="M135.246 2.32513L135.195 1.73134C134.727 1.77194 134.259 1.81254 133.79 1.85314L133.843 2.44694C134.314 2.40634 134.781 2.36573 135.246 2.32513Z" fill="white"/>
<path d="M126.827 3.1108L126.765 2.51701C126.298 2.56523 125.83 2.6109 125.362 2.66166L125.426 3.25544C125.894 3.20723 126.362 3.15901 126.83 3.1108H126.827Z" fill="white"/>
<path d="M132.434 2.57291L132.381 1.97912C131.913 2.02226 131.445 2.06539 130.976 2.10854L131.032 2.70233C131.5 2.65918 131.968 2.61605 132.434 2.57291Z" fill="white"/>
<path d="M124.016 3.40029L123.951 2.8065C123.484 2.85726 123.016 2.90546 122.548 2.95622L122.615 3.55C123.083 3.49926 123.55 3.4485 124.016 3.40029Z" fill="white"/>
<path d="M121.214 3.70535L121.147 3.11156C120.68 3.1623 120.212 3.2156 119.744 3.26888L119.814 3.86267C120.281 3.80939 120.749 3.75863 121.214 3.70535Z" fill="white"/>
<path d="M115.619 4.35467L115.547 3.76089C115.082 3.81671 114.614 3.87508 114.146 3.9309L114.221 4.52216C114.688 4.4638 115.154 4.40797 115.619 4.35213V4.35467Z" fill="white"/>
<path d="M118.42 4.02223L118.351 3.42843C117.886 3.48173 117.418 3.53756 116.95 3.59338L117.022 4.18717C117.49 4.13134 117.958 4.07806 118.423 4.02476L118.42 4.02223Z" fill="white"/>
<path d="M157.744 0.900762L157.721 0.304433C157.253 0.322195 156.784 0.342495 156.311 0.362796L156.336 0.959125C156.807 0.938824 157.276 0.921062 157.744 0.900762Z" fill="white"/>
<path d="M152.116 1.15663L152.086 0.560304C151.618 0.58568 151.149 0.611055 150.678 0.636432L150.711 1.23276C151.182 1.20738 151.652 1.18201 152.119 1.15663H152.116Z" fill="white"/>
<path d="M149.307 1.31227L149.272 0.715944C148.804 0.743857 148.333 0.771771 147.864 0.799685L147.902 1.39601C148.373 1.3681 148.843 1.34018 149.31 1.31227H149.307Z" fill="white"/>
<path d="M154.93 1.02029L154.902 0.423964C154.434 0.444265 153.965 0.467102 153.492 0.48994L153.523 1.08627C153.993 1.06343 154.463 1.04059 154.93 1.02029Z" fill="white"/>
<path d="M160.566 0.799284L160.545 0.202955C160.077 0.21818 159.607 0.233406 159.134 0.251168L159.158 0.847497C159.627 0.829735 160.098 0.814509 160.566 0.799284Z" fill="white"/>
<path d="M143.676 1.66962L143.634 1.07329C143.166 1.10628 142.697 1.13927 142.226 1.17226L142.27 1.76858C142.74 1.7356 143.208 1.70261 143.676 1.66962Z" fill="white"/>
<path d="M112.82 4.69766L112.743 4.1064C112.278 4.16477 111.81 4.22313 111.342 4.28404L111.419 4.87529C111.887 4.81439 112.352 4.75603 112.817 4.69766H112.82Z" fill="white"/>
<path d="M23.3383 23.6882L23.5516 24.2465C23.9858 24.084 24.4252 23.9242 24.8723 23.7617L24.6643 23.201C24.2171 23.3634 23.7751 23.5257 23.3408 23.6882H23.3383Z" fill="white"/>
<path d="M138.052 2.09104L138.003 1.49726C137.535 1.53532 137.069 1.57338 136.598 1.61145L136.649 2.20525C137.12 2.16717 137.588 2.12912 138.054 2.09104H138.052Z" fill="white"/>
<path d="M145.876 40.3425L145.992 40.9287C146.455 40.8399 146.917 40.7486 147.377 40.6597L147.259 40.0736C146.8 40.1649 146.339 40.2538 145.876 40.3425Z" fill="white"/>
<path d="M169.062 35.2649C168.676 35.3613 168.291 35.4553 167.901 35.5517L168.046 36.1303C168.385 36.0465 168.724 35.9627 169.062 35.879V35.2649Z" fill="white"/>
<path d="M154.159 38.6696L154.285 39.2531C154.748 39.1567 155.207 39.0578 155.665 38.9614L155.536 38.3777C155.079 38.4767 154.619 38.5731 154.159 38.6696Z" fill="white"/>
<path d="M151.4 39.2435L151.523 39.827C151.986 39.7332 152.445 39.6367 152.905 39.5428L152.782 38.9593C152.325 39.0556 151.865 39.1495 151.402 39.2435H151.4Z" fill="white"/>
<path d="M148.641 39.8016L148.759 40.3878C149.222 40.2965 149.684 40.2026 150.141 40.1112L150.02 39.5276C149.561 39.6215 149.101 39.7128 148.641 39.8042V39.8016Z" fill="white"/>
<path d="M162.417 36.8528L162.553 37.434C163.012 37.3274 163.47 37.2208 163.928 37.1142L163.789 36.533C163.334 36.6396 162.876 36.7462 162.417 36.8503V36.8528Z" fill="white"/>
<path d="M159.667 37.4771L159.801 38.0582C160.261 37.9542 160.721 37.8526 161.179 37.7485L161.042 37.1675C160.587 37.2715 160.127 37.373 159.667 37.4771Z" fill="white"/>
<path d="M165.156 36.211L165.297 36.7921C165.757 36.683 166.215 36.574 166.669 36.4648L166.525 35.8862C166.071 35.9954 165.613 36.1045 165.156 36.2135V36.211Z" fill="white"/>
<path d="M143.107 40.8697L143.221 41.456C143.683 41.3696 144.145 41.2808 144.608 41.1946L144.493 40.6083C144.033 40.6972 143.57 40.7834 143.107 40.8697Z" fill="white"/>
<path d="M156.918 38.0814L157.049 38.6651C157.512 38.5635 157.97 38.4646 158.426 38.3631L158.296 37.7795C157.838 37.881 157.381 37.9799 156.918 38.0814Z" fill="white"/>
<path d="M126.438 43.7303L126.533 44.319C126.998 44.2454 127.463 44.1718 127.926 44.0982L127.83 43.5095C127.368 43.5831 126.903 43.6566 126.438 43.7303Z" fill="white"/>
<path d="M123.659 44.1591L123.751 44.7478C124.216 44.6767 124.682 44.6057 125.147 44.5346L125.054 43.9459C124.592 44.0169 124.127 44.088 123.661 44.1591H123.659Z" fill="white"/>
<path d="M120.865 44.5747L120.955 45.1661C121.42 45.0975 121.885 45.029 122.35 44.9604L122.26 44.3692C121.795 44.4378 121.333 44.5063 120.865 44.5747Z" fill="white"/>
<path d="M140.333 41.3825L140.444 41.9688C140.907 41.885 141.369 41.7987 141.831 41.715L141.721 41.1288C141.261 41.2151 140.798 41.2989 140.335 41.3825H140.333Z" fill="white"/>
<path d="M129.226 43.2883L129.325 43.8771C129.79 43.8009 130.255 43.7274 130.717 43.6513L130.617 43.0625C130.155 43.1386 129.692 43.2147 129.226 43.2883Z" fill="white"/>
<path d="M137.562 41.8804L137.667 42.4692C138.132 42.388 138.595 42.3042 139.055 42.223L138.947 41.6368C138.484 41.7205 138.021 41.8017 137.56 41.883L137.562 41.8804Z" fill="white"/>
<path d="M134.785 42.3622L134.887 42.9509C135.353 42.8722 135.816 42.7911 136.278 42.7099L136.173 42.1211C135.71 42.2024 135.248 42.281 134.785 42.3622Z" fill="white"/>
<path d="M132.003 42.8316L132.104 43.4202C132.569 43.3416 133.031 43.2654 133.494 43.1868L133.392 42.5981C132.929 42.6768 132.466 42.7529 132.001 42.8316H132.003Z" fill="white"/>
<path d="M217.336 16.4361L217.741 16.8776C218.112 16.5452 218.454 16.2103 218.762 15.8828L218.317 15.4769C218.022 15.7916 217.69 16.1163 217.336 16.4361Z" fill="white"/>
<path d="M213.822 4.60076C213.399 4.44089 212.946 4.28356 212.481 4.1313L212.291 4.69719C212.748 4.8469 213.189 5.0017 213.606 5.15902L213.822 4.60076Z" fill="white"/>
<path d="M216.427 5.74457C216.026 5.53648 215.592 5.33094 215.139 5.13301L214.895 5.67858C215.338 5.87144 215.756 6.06937 216.146 6.27238L216.427 5.74457Z" fill="white"/>
<path d="M212.829 19.6811L213.145 20.1912C213.558 19.9399 213.962 19.6862 214.345 19.4376L214.011 18.9402C213.636 19.1862 213.237 19.435 212.829 19.6811Z" fill="white"/>
<path d="M118.076 44.9782L118.161 45.5694C118.626 45.5033 119.093 45.4374 119.559 45.3689L119.471 44.7776C119.006 44.8436 118.541 44.9121 118.076 44.9782Z" fill="white"/>
<path d="M215.162 18.1563L215.514 18.6409C215.912 18.3567 216.295 18.0725 216.65 17.7909L216.272 17.324C215.926 17.598 215.549 17.8772 215.159 18.1563H215.162Z" fill="white"/>
<path d="M220.959 10.7186L220.36 10.7998C220.383 10.9622 220.393 11.1297 220.393 11.2946C220.393 11.5509 220.368 11.8123 220.314 12.0737L220.907 12.1904C220.969 11.891 221 11.589 221 11.2946C221 11.1018 220.987 10.9089 220.962 10.7186H220.959Z" fill="white"/>
<path d="M197.553 26.706L197.767 27.2642C198.213 27.0992 198.653 26.9318 199.088 26.7642L198.869 26.2086C198.438 26.3734 197.998 26.541 197.553 26.706Z" fill="white"/>
<path d="M219.188 14.4342L219.679 14.7843C219.98 14.3732 220.231 13.9596 220.43 13.5561L219.884 13.2947C219.702 13.6652 219.469 14.0484 219.188 14.4316V14.4342Z" fill="white"/>
<path d="M217.346 6.95772C217.751 7.21656 218.121 7.48553 218.447 7.75959L218.839 7.30536C218.495 7.01609 218.101 6.73188 217.675 6.45781L217.346 6.95772Z" fill="white"/>
<path d="M201.426 1.7083L201.338 2.29956C201.809 2.36808 202.274 2.43912 202.728 2.51271L202.826 1.92399C202.369 1.85041 201.901 1.77936 201.429 1.71084L201.426 1.7083Z" fill="white"/>
<path d="M202.783 24.6425L203.019 25.193C203.459 25.0079 203.893 24.8252 204.317 24.6399L204.076 24.0944C203.651 24.2771 203.223 24.4622 202.783 24.6449V24.6425Z" fill="white"/>
<path d="M210.398 21.0645L210.685 21.5898C211.11 21.3614 211.526 21.1329 211.925 20.9071L211.624 20.3895C211.231 20.6127 210.819 20.8387 210.398 21.0645Z" fill="white"/>
<path d="M198.553 1.92852C199.024 1.98688 199.49 2.04525 199.947 2.10614L200.026 1.5149C199.567 1.45399 199.1 1.39308 198.624 1.33726L198.55 1.93106L198.553 1.92852Z" fill="white"/>
<path d="M200.178 25.7009L200.401 26.2566C200.846 26.0816 201.281 25.9065 201.712 25.7313L201.484 25.1783C201.054 25.3533 200.621 25.5258 200.178 25.7009Z" fill="white"/>
<path d="M211.123 3.7131C210.68 3.58369 210.22 3.45935 209.755 3.33755L209.602 3.91357C210.061 4.03284 210.516 4.15719 210.951 4.28406L211.12 3.71057L211.123 3.7131Z" fill="white"/>
<path d="M207.902 22.3386L208.17 22.8739C208.602 22.6633 209.023 22.4527 209.435 22.2446L209.157 21.7143C208.749 21.9224 208.329 22.1305 207.902 22.3386Z" fill="white"/>
<path d="M205.357 23.5262L205.607 24.0693C206.044 23.8739 206.473 23.6785 206.892 23.4806L206.632 22.9401C206.217 23.1354 205.789 23.3309 205.357 23.5237V23.5262Z" fill="white"/>
<path d="M45.0429 50.9844C45.5106 50.9895 45.9809 50.9921 46.4537 50.9972L46.4589 50.4009C45.986 50.3983 45.5158 50.3932 45.0507 50.3881L45.0454 50.9844H45.0429Z" fill="white"/>
<path d="M53.5046 50.3656L53.5149 50.9619C53.9826 50.9542 54.4529 50.9467 54.9257 50.9391L54.9154 50.3427C54.4426 50.3503 53.9749 50.3605 53.5073 50.3656H53.5046Z" fill="white"/>
<path d="M56.3286 50.3153L56.3415 50.9116C56.8091 50.9014 57.2793 50.8888 57.7522 50.8786L57.7368 50.2823C57.2639 50.2951 56.7962 50.3051 56.3286 50.3153Z" fill="white"/>
<path d="M50.6857 50.3965L50.6908 50.9929C51.1586 50.9903 51.6288 50.9852 52.1016 50.9801L52.094 50.3838C51.6211 50.3889 51.1508 50.394 50.6857 50.3965Z" fill="white"/>
<path d="M70.4058 49.759L70.4392 50.3554C70.9069 50.33 71.3771 50.3021 71.8475 50.2741L71.8114 49.6778C71.3412 49.7057 70.871 49.7311 70.4033 49.7565L70.4058 49.759Z" fill="white"/>
<path d="M59.1425 50.2414L59.1604 50.8377C59.6281 50.8251 60.0985 50.8098 60.5712 50.7946L60.5507 50.1983C60.0805 50.2135 59.6101 50.2288 59.1425 50.2414Z" fill="white"/>
<path d="M67.5893 49.9069L67.6201 50.5033C68.0878 50.4804 68.5581 50.4576 69.0309 50.4322L69 49.8359C68.5298 49.8613 68.0596 49.8841 67.5918 49.9069H67.5893Z" fill="white"/>
<path d="M64.7754 50.0364L64.801 50.6327C65.2688 50.6124 65.739 50.5921 66.2118 50.5692L66.1836 49.9729C65.7132 49.9957 65.243 50.0161 64.7754 50.0364Z" fill="white"/>
<path d="M61.9565 50.1482L61.9796 50.7445C62.4472 50.7268 62.9175 50.709 63.3903 50.6912L63.3673 50.0949C62.8969 50.1127 62.4267 50.1304 61.959 50.1482H61.9565Z" fill="white"/>
<path d="M47.8619 50.4037V51H48.3809C48.4323 51 48.4837 51 48.5351 51C48.7818 51 49.026 51 49.2752 51V50.4037C48.9771 50.4037 48.679 50.4037 48.3835 50.4037H47.8619Z" fill="white"/>
<path d="M28.1195 50.2493C28.5846 50.2873 29.0548 50.3254 29.5277 50.3608L29.574 49.7645C29.1011 49.7291 28.6334 49.691 28.1709 49.653L28.1195 50.2467V50.2493Z" fill="white"/>
<path d="M30.9334 50.4627C31.3985 50.4932 31.8688 50.5237 32.3441 50.5541L32.3801 49.9578C31.9073 49.9299 31.4397 49.8994 30.9746 49.8664L30.9334 50.4627Z" fill="white"/>
<path d="M25.9878 22.7259L26.1908 23.2868C26.6277 23.132 27.0722 22.9771 27.5193 22.8223L27.3189 22.259C26.8692 22.4138 26.4273 22.5686 25.9878 22.7259Z" fill="white"/>
<path d="M33.7524 50.6327C34.2175 50.6582 34.6903 50.681 35.1631 50.7038L35.1913 50.1075C34.7186 50.0847 34.2509 50.0617 33.7858 50.0364L33.7524 50.6327Z" fill="white"/>
<path d="M42.2191 50.9415C42.6867 50.9517 43.1569 50.9593 43.6298 50.9669L43.64 50.3705C43.1673 50.363 42.697 50.3554 42.2319 50.3452L42.2191 50.9415Z" fill="white"/>
<path d="M25.3006 49.9927C25.763 50.0384 26.2334 50.084 26.7061 50.1271L26.7628 49.5334C26.2899 49.4903 25.8222 49.4446 25.3622 49.3988L25.3006 49.9927Z" fill="white"/>
<path d="M39.3951 50.8705C39.8629 50.8858 40.3331 50.8984 40.8059 50.9111L40.8213 50.3148C40.3485 50.3021 39.8783 50.2894 39.4131 50.2767L39.3951 50.873V50.8705Z" fill="white"/>
<path d="M36.5762 50.7697C37.0439 50.79 37.5142 50.8077 37.987 50.8256L38.0101 50.2291C37.5373 50.2114 37.0671 50.1937 36.602 50.1734L36.5762 50.7697Z" fill="white"/>
<path d="M112.493 45.7455L112.572 46.3368L113.973 46.149L113.893 45.5576L112.493 45.7455Z" fill="white"/>
<path d="M98.4928 47.4351L98.5596 48.0289C99.0273 47.9781 99.4949 47.9274 99.9627 47.8741L99.8959 47.2803C99.4281 47.3311 98.9605 47.3843 98.4953 47.4351H98.4928Z" fill="white"/>
<path d="M101.297 47.1227L101.366 47.7165C101.834 47.6632 102.299 47.6099 102.767 47.5566L102.697 46.9628C102.23 47.0161 101.764 47.0694 101.297 47.1227Z" fill="white"/>
<path d="M95.6888 47.7313L95.7531 48.3252C96.2208 48.2768 96.6884 48.2261 97.1561 48.1779L97.0918 47.5841C96.6242 47.6349 96.1565 47.6831 95.6888 47.7313Z" fill="white"/>
<path d="M104.101 46.7985L104.173 47.3923C104.638 47.3364 105.106 47.2806 105.573 47.2248L105.501 46.6309C105.034 46.6868 104.568 46.7426 104.101 46.7985Z" fill="white"/>
<path d="M115.287 45.3664L115.369 45.9577C115.834 45.8942 116.299 45.8283 116.764 45.7648L116.68 45.1736C116.217 45.237 115.752 45.303 115.287 45.3664Z" fill="white"/>
<path d="M92.8874 48.0164L92.9465 48.6101C93.4143 48.5644 93.8819 48.5162 94.3496 48.4705L94.2879 47.8768C93.8202 47.9249 93.3526 47.9706 92.8849 48.0164H92.8874Z" fill="white"/>
<path d="M106.895 46.4606L106.969 47.0518C107.434 46.9934 107.902 46.9376 108.37 46.8768L108.293 46.2854C107.825 46.3438 107.36 46.4022 106.895 46.4606Z" fill="white"/>
<path d="M109.689 46.1101L109.766 46.7015C110.231 46.6431 110.699 46.5821 111.166 46.5213L111.087 45.93C110.619 45.9909 110.154 46.0518 109.689 46.1101Z" fill="white"/>
<path d="M73.2172 49.5966L73.2557 50.1931C73.7234 50.1651 74.1937 50.1347 74.6639 50.1042L74.6254 49.5079C74.1551 49.5383 73.6849 49.5663 73.2197 49.5966H73.2172Z" fill="white"/>
<path d="M78.84 49.2215L78.8837 49.8178C79.3514 49.7849 79.8218 49.7494 80.292 49.7138L80.2457 49.1175C79.7755 49.153 79.3078 49.1886 78.84 49.2215Z" fill="white"/>
<path d="M81.654 49.0082L81.7029 49.602C82.1705 49.5664 82.6382 49.5284 83.1084 49.4903L83.0596 48.8965C82.5894 48.9346 82.1217 48.9726 81.654 49.0082Z" fill="white"/>
<path d="M76.0361 49.4163L76.0772 50.0126C76.5449 49.9822 77.0151 49.9491 77.4855 49.9161L77.4417 49.3198C76.9715 49.3528 76.5037 49.3858 76.0361 49.4163Z" fill="white"/>
<path d="M84.463 48.7823L84.5143 49.3762C84.982 49.338 85.4497 49.2975 85.92 49.2568L85.8686 48.663C85.3983 48.7036 84.9306 48.7443 84.463 48.7823Z" fill="white"/>
<path d="M90.0758 48.2851L90.1325 48.8789C90.6001 48.8358 91.0678 48.7902 91.5381 48.7445L91.479 48.1506C91.0113 48.1964 90.5436 48.2395 90.0758 48.2851Z" fill="white"/>
<path d="M87.2719 48.5415L87.3258 49.1353C87.7936 49.0948 88.2613 49.0515 88.7315 49.0084L88.675 48.4147C88.2047 48.4578 87.737 48.4983 87.2719 48.5415Z" fill="white"/>
<path d="M87.6163 7.79009C87.1511 7.86876 86.6886 7.94743 86.226 8.02609L86.3288 8.6148C86.7914 8.53615 87.2539 8.45748 87.719 8.37881L87.6163 7.79009Z" fill="white"/>
</g>
</svg>
