<svg width="44" height="45" viewBox="0 0 44 45" fill="none" xmlns="http://www.w3.org/2000/svg">
<g id="Vector">
<path d="M40.3331 22.8086H38.1331V21.3419C38.1331 20.5352 37.4731 19.8753 36.6664 19.8753H19.0664C18.2597 19.8753 17.5998 20.5352 17.5998 21.3419V34.5419C17.5998 37.7832 20.2251 40.4086 23.4664 40.4086H32.2664C35.5077 40.4086 38.1331 37.7832 38.1331 34.5419H40.3331C42.3571 34.5419 43.9998 32.8993 43.9998 30.8753V26.4753C43.9998 24.4513 42.3571 22.8086 40.3331 22.8086ZM35.1995 22.8086V27.8394C33.8209 28.162 31.1222 28.514 28.4383 27.3554C25.3876 26.0501 22.3956 26.1527 20.5329 26.4461V22.8087L35.1995 22.8086ZM32.2662 37.4753H23.4662C21.8529 37.4753 20.5329 36.1553 20.5329 34.5419V29.4234C21.9409 29.1594 24.6102 28.9247 27.2941 30.0541C29.1127 30.8314 30.9168 31.0807 32.4713 31.0807C33.5126 31.0807 34.4366 30.9634 35.1993 30.8314V34.542C35.1993 36.1554 33.8795 37.4753 32.2662 37.4753ZM41.0662 30.8755C41.0662 31.2862 40.7435 31.6088 40.3329 31.6088H38.1329V25.7422H40.3329C40.7435 25.7422 41.0662 26.0648 41.0662 26.4755V30.8755Z" fill="#00C8A3"/>
<path d="M20.5333 11.0753C20.5333 5.41416 15.928 0.808594 10.2667 0.808594C4.60533 0.808594 0 5.41393 0 11.0753C0 16.7366 4.60533 21.3419 10.2667 21.3419C15.928 21.3419 20.5333 16.7366 20.5333 11.0753ZM10.2667 18.4086C6.21867 18.4086 2.93333 15.1233 2.93333 11.0753C2.93333 7.02726 6.21867 3.74193 10.2667 3.74193C14.3147 3.74193 17.6 7.02726 17.6 11.0753C17.6 15.1233 14.3147 18.4086 10.2667 18.4086Z" fill="#00C8A3"/>
<path d="M11.7333 10.474V7.30604C11.7333 6.49935 11.0734 5.83938 10.2667 5.83938C9.45998 5.83938 8.8 6.49935 8.8 7.30604V11.0754C8.8 11.4714 8.96133 11.838 9.22533 12.1167L11.7334 14.6247C12.0267 14.9181 12.3933 15.0501 12.7747 15.0501C13.1561 15.0501 13.5227 14.9034 13.8161 14.6247C14.3881 14.0527 14.3881 13.1287 13.8161 12.5568L11.7333 10.474Z" fill="#00C8A3"/>
<path d="M42.5333 41.8753H13.2C12.3933 41.8753 11.7333 42.5352 11.7333 43.3419C11.7333 44.1486 12.3933 44.8086 13.2 44.8086H42.5333C43.34 44.8086 44 44.1486 44 43.3419C44 42.5352 43.34 41.8753 42.5333 41.8753Z" fill="#00C8A3"/>
</g>
</svg>
