<svg width="22" height="23" viewBox="0 0 22 23" fill="none" xmlns="http://www.w3.org/2000/svg">
<path d="M1.34876 11.1671C1.34876 11.1671 11.0788 6.94134 14.4534 5.45339C15.747 4.85821 20.134 2.95364 20.134 2.95364C20.134 2.95364 22.1587 2.12038 21.99 4.144C21.9338 4.97725 21.4838 7.89363 21.0339 11.0481C20.359 15.5119 19.6278 20.3924 19.6278 20.3924C19.6278 20.3924 19.5153 21.7613 18.5592 21.9994C17.603 22.2375 16.0282 21.1662 15.747 20.9281C15.522 20.7495 11.5288 18.0712 10.0665 16.7618C9.67276 16.4047 9.22281 15.6905 10.1227 14.8572C12.1475 12.8931 14.5659 10.4529 16.0282 8.90544C16.7032 8.19122 17.3781 6.52472 14.5659 8.54833C10.5726 11.4647 6.63562 14.2025 6.63562 14.2025C6.63562 14.2025 5.73573 14.7977 4.04844 14.2621C2.36114 13.7264 0.39263 13.0122 0.39263 13.0122C0.39263 13.0122 -0.957206 12.1194 1.34876 11.1671Z" fill="#F4FD19"/>
</svg>
