<svg width="23" height="23" viewBox="0 0 23 23" fill="none" xmlns="http://www.w3.org/2000/svg">
<g id="social/LinkedIn">
<path id="LinkedIn" d="M22.7268 13.3549V21.212H18.0115V13.8811C18.0115 12.0396 17.3295 10.7828 15.6227 10.7828C14.3198 10.7828 13.5444 11.6298 13.2033 12.4491C13.0789 12.742 13.0469 13.1497 13.0469 13.5597V21.212H8.32998C8.32998 21.212 8.39351 8.79595 8.32998 7.50955H13.0464V9.45182C13.0369 9.46634 13.0244 9.48201 13.0154 9.49609H13.0464V9.45182C13.673 8.5195 14.7921 7.18764 17.297 7.18764C20.4004 7.18759 22.7268 9.14607 22.7268 13.3549ZM3.39591 0.904297C1.78226 0.904297 0.726807 1.92674 0.726807 3.27129C0.726807 4.58654 1.75173 5.64002 3.3333 5.64002H3.36481C5.00971 5.64002 6.03268 4.58674 6.03268 3.27129C6.00169 1.92674 5.00971 0.904297 3.39591 0.904297ZM1.00695 21.212H5.72206V7.50955H1.00695V21.212Z" fill="#F4FD19"/>
</g>
</svg>
