<svg width="225" height="35" viewBox="0 0 225 35" fill="none" xmlns="http://www.w3.org/2000/svg">
<g clip-path="url(#clip0_2006_112)">
<path d="M0.260864 13.8531C0.487549 13.8531 0.714233 13.8682 0.937935 13.847C1.17058 13.8259 1.20936 13.9256 1.20936 14.1342C1.20339 16.4075 1.20339 18.6777 1.20936 20.9509C1.20936 21.1595 1.17058 21.2623 0.937935 21.2381C0.714233 21.217 0.487549 21.2321 0.260864 21.2321V13.85V13.8531Z" fill="#164193"/>
<path d="M82.2281 0.449499C90.5527 0.449499 98.8745 0.449499 107.199 0.443453C107.524 0.443453 107.605 0.522049 107.605 0.85155C107.596 11.985 107.596 23.1185 107.605 34.252C107.605 34.5755 107.536 34.6692 107.202 34.6692C90.5557 34.6601 73.9093 34.6601 57.2629 34.6692C56.9378 34.6692 56.8573 34.5846 56.8573 34.2551C56.8662 23.1216 56.8662 11.9881 56.8573 0.854573C56.8573 0.531118 56.9289 0.44043 57.26 0.44043C65.5846 0.449499 73.9064 0.449499 82.231 0.449499H82.2281ZM88.778 28.7624C88.6796 28.4419 88.5931 28.1155 88.4828 27.7981C88.4171 27.6076 88.4559 27.4897 88.6259 27.3809C88.8974 27.2025 89.1509 27.003 89.476 26.7672C89.0853 26.7672 88.787 26.7461 88.4917 26.7733C88.2203 26.7975 88.1129 26.6826 88.0503 26.4347C87.9727 26.1354 87.8653 25.8452 87.755 25.5006C87.6387 25.8634 87.5194 26.1657 87.4448 26.4801C87.3881 26.7189 87.2688 26.7823 87.0421 26.7703C86.7409 26.7521 86.4366 26.7672 86.037 26.7672C86.3829 27.0212 86.6424 27.2237 86.9168 27.4111C87.057 27.5079 87.0958 27.6016 87.0332 27.7709C86.9168 28.0822 86.8274 28.4057 86.7021 28.8017C86.9944 28.587 87.233 28.4329 87.4448 28.2485C87.6595 28.0611 87.8295 28.0369 88.0532 28.2424C88.271 28.4419 88.5335 28.5931 88.778 28.7654V28.7624ZM75.6811 28.7624C75.9525 28.5659 76.2299 28.3815 76.4894 28.1729C76.6385 28.055 76.7489 28.055 76.895 28.1729C77.1545 28.3815 77.4289 28.5719 77.7421 28.7987C77.6347 28.445 77.5602 28.1306 77.4408 27.8343C77.3514 27.6076 77.4021 27.4837 77.5959 27.3597C77.8554 27.1935 78.097 27 78.4162 26.7642C77.9956 26.7642 77.6854 26.7551 77.3752 26.7672C77.1784 26.7763 77.071 26.7189 77.0203 26.5133C76.9397 26.1959 76.8234 25.8876 76.6952 25.4976C76.5699 25.8906 76.4536 26.2019 76.3701 26.5224C76.3194 26.7098 76.2299 26.7733 76.0449 26.7672C75.7198 26.7551 75.3917 26.7642 74.9771 26.7642C75.2963 26.997 75.5349 27.1935 75.7944 27.3567C76.0121 27.4927 76.03 27.6348 75.9435 27.8615C75.8332 28.1517 75.7676 28.4601 75.684 28.7594L75.6751 28.7684L75.684 28.7624H75.6811ZM73.6856 24.6965C73.5663 24.3126 73.4828 24.0012 73.3665 23.6989C73.2919 23.5055 73.3158 23.3967 73.4918 23.2818C73.7602 23.1095 74.0137 22.9069 74.3418 22.6651C73.9451 22.6651 73.626 22.653 73.3068 22.6681C73.104 22.6772 73.0056 22.5986 72.9489 22.4051C72.8594 22.0817 72.7491 21.7643 72.6238 21.3804C72.5015 21.7703 72.3971 22.0877 72.3046 22.4112C72.251 22.6016 72.1525 22.6802 71.9467 22.6711C71.6276 22.653 71.3084 22.6651 70.9117 22.6651C71.204 22.8797 71.4158 23.0581 71.6514 23.1971C71.908 23.3513 71.9766 23.5145 71.8602 23.8078C71.7588 24.0587 71.6485 24.3247 71.6246 24.6542C71.9139 24.4426 72.1704 24.2673 72.409 24.0708C72.5641 23.9438 72.6805 23.9317 72.8415 24.0677C73.0891 24.2733 73.3575 24.4547 73.6797 24.6935L73.6856 24.6965ZM90.1053 22.6681C90.4036 22.8888 90.6213 23.0823 90.8689 23.2213C91.1344 23.3725 91.1553 23.5448 91.0449 23.8108C90.9375 24.0647 90.8779 24.3398 90.7735 24.6814C91.0479 24.4819 91.2716 24.358 91.4476 24.1856C91.719 23.9166 91.9397 23.9529 92.1992 24.1977C92.3782 24.367 92.5959 24.497 92.8614 24.6935C92.7391 24.2975 92.6526 23.9771 92.5362 23.6657C92.4736 23.4994 92.5004 23.4057 92.6496 23.309C92.924 23.1246 93.1865 22.919 93.5235 22.6711C93.1387 22.6711 92.8315 22.656 92.5243 22.6772C92.2887 22.6923 92.1843 22.6016 92.1276 22.3749C92.0471 22.0605 91.9307 21.7552 91.8114 21.3894C91.6951 21.7673 91.5877 22.0877 91.4983 22.4112C91.4446 22.5986 91.3521 22.6893 91.1433 22.6772C90.8272 22.6591 90.508 22.6711 90.1053 22.6711V22.6681ZM92.8614 13.4723C92.7391 13.0794 92.6496 12.7438 92.5303 12.4203C92.4706 12.2601 92.5124 12.1815 92.6377 12.0939C92.9121 11.9034 93.1775 11.7009 93.5205 11.453C93.1119 11.453 92.8017 11.4409 92.4945 11.456C92.2917 11.4651 92.1902 11.3926 92.1366 11.1991C92.0441 10.8696 91.9307 10.5491 91.8114 10.1683C91.6951 10.5401 91.5848 10.8575 91.4983 11.1809C91.4416 11.3925 91.3312 11.4681 91.1165 11.456C90.8093 11.4379 90.502 11.453 90.1113 11.453C90.4364 11.6918 90.684 11.8944 90.9494 12.0667C91.1284 12.1815 91.1463 12.3025 91.0807 12.4869C90.9733 12.7831 90.8868 13.0884 90.7645 13.4784C91.1016 13.2305 91.364 13.0491 91.6146 12.8466C91.7607 12.7287 91.8741 12.7347 92.0202 12.8496C92.2767 13.0552 92.5482 13.2426 92.8643 13.4754L92.8614 13.4723ZM72.6357 10.2348C72.6178 10.268 72.6029 10.2892 72.594 10.3103C72.4389 10.6852 72.4776 11.2323 72.1615 11.4137C71.8572 11.586 71.38 11.45 70.8998 11.45C71.2398 11.6979 71.5113 11.9064 71.7916 12.0999C71.9348 12.1967 71.9676 12.2934 71.908 12.4596C71.7946 12.774 71.7051 13.0945 71.5799 13.4965C71.8453 13.3 72.0601 13.1731 72.236 13.0068C72.5224 12.7317 72.767 12.7408 73.0444 13.0159C73.2174 13.1852 73.4351 13.3091 73.6856 13.4905C73.5693 13.1186 73.4888 12.8043 73.3695 12.505C73.28 12.2904 73.3426 12.1815 73.5186 12.0667C73.7841 11.8913 74.0346 11.6948 74.2911 11.5044C73.8765 11.4228 73.3933 11.5618 73.098 11.3865C72.7759 11.193 72.8236 10.6308 72.6387 10.2378L72.6357 10.2348ZM82.2221 4.57279C82.1058 4.94159 82.0014 5.24691 81.9179 5.55827C81.8642 5.75779 81.7747 5.85754 81.548 5.84243C81.2229 5.82127 80.8948 5.83638 80.4892 5.83638C80.8232 6.08124 81.0827 6.2868 81.3601 6.46818C81.5361 6.58305 81.5569 6.70397 81.4913 6.88837C81.381 7.19066 81.2915 7.499 81.1722 7.88291C81.5063 7.63806 81.7807 7.44761 82.0402 7.24205C82.1744 7.13625 82.2818 7.13927 82.413 7.24205C82.6755 7.44761 82.9469 7.63806 83.272 7.87687C83.1527 7.49598 83.0692 7.17555 82.9529 6.86418C82.8843 6.67978 82.926 6.58003 83.0781 6.47422C83.3585 6.28378 83.6299 6.07519 83.958 5.83638C83.5375 5.83638 83.1945 5.82429 82.8514 5.8394C82.6725 5.84847 82.5979 5.7729 82.5502 5.61268C82.4547 5.28318 82.3444 4.95973 82.2221 4.57279ZM91.5758 17.0485C91.9069 17.2873 92.1515 17.4808 92.411 17.65C92.578 17.7589 92.6257 17.8707 92.5541 18.0672C92.4408 18.3755 92.3543 18.693 92.238 19.0678C92.5512 18.835 92.8166 18.6537 93.0642 18.4511C93.2193 18.3211 93.3386 18.3151 93.4996 18.4481C93.7502 18.6537 94.0157 18.835 94.3348 19.0678C94.2215 18.702 94.1588 18.4058 94.0425 18.1307C93.9321 17.8737 94.0156 17.7377 94.2244 17.6017C94.469 17.4445 94.6987 17.2631 94.994 17.0455C94.5883 17.0455 94.2692 17.0364 93.95 17.0455C93.7681 17.0515 93.6697 16.9971 93.6189 16.8036C93.5325 16.4711 93.4131 16.1507 93.2849 15.7607C93.1626 16.1416 93.0403 16.453 92.9628 16.7764C92.9091 17.0031 92.7927 17.0575 92.584 17.0485C92.2767 17.0334 91.9725 17.0455 91.5788 17.0455L91.5758 17.0485ZM72.1913 19.0799C72.0869 18.7413 72.0273 18.4572 71.9109 18.1972C71.7797 17.904 71.8751 17.7407 72.1227 17.5896C72.3583 17.4445 72.5761 17.2661 72.8624 17.0545C72.4419 17.0545 72.1197 17.0424 71.8006 17.0575C71.6127 17.0666 71.5232 16.9941 71.4725 16.8187C71.377 16.4862 71.2637 16.1628 71.1414 15.7819C71.0221 16.1658 70.9117 16.4832 70.8223 16.8066C70.7686 17.0031 70.6701 17.0696 70.4673 17.0606C70.1422 17.0424 69.8141 17.0545 69.4234 17.0545C69.7276 17.2782 69.9632 17.4777 70.2257 17.6349C70.4613 17.774 70.4822 17.9282 70.3868 18.167C70.2764 18.4421 70.2019 18.7323 70.0885 19.0859C70.4077 18.8532 70.6672 18.6809 70.9028 18.4813C71.0817 18.3302 71.213 18.3362 71.389 18.4874C71.6216 18.6869 71.8811 18.8532 72.1853 19.0769L72.1913 19.0799ZM87.7699 6.09031C87.6416 6.48631 87.5223 6.79768 87.4418 7.12113C87.3941 7.31158 87.3016 7.36901 87.1167 7.36297C86.7916 7.35088 86.4635 7.35994 86.0549 7.35994C86.374 7.59271 86.6156 7.78618 86.8751 7.95244C87.0719 8.0794 87.1137 8.20637 87.0242 8.42704C86.9079 8.71422 86.8393 9.02256 86.7289 9.38229C87.0481 9.1465 87.3165 8.96815 87.5641 8.76259C87.7252 8.62656 87.8385 8.64167 87.9936 8.77166C88.2382 8.97722 88.5066 9.15557 88.8198 9.38229C88.7094 9.02559 88.6319 8.72329 88.5215 8.43914C88.4291 8.20335 88.4828 8.06731 88.6915 7.93733C88.9481 7.77711 89.1837 7.58062 89.4909 7.3539C89.1509 7.3539 88.8884 7.33576 88.6319 7.35994C88.3008 7.39017 88.098 7.30855 88.0383 6.93673C87.9966 6.67978 87.8832 6.43492 87.7729 6.09333L87.7699 6.09031ZM75.6363 9.38532C75.9614 9.1465 76.2358 8.95908 76.4953 8.7505C76.6296 8.64167 76.728 8.63563 76.8652 8.74748C77.1277 8.95606 77.4051 9.1465 77.7331 9.38834C77.6079 8.99233 77.5094 8.6719 77.4021 8.35449C77.3454 8.19125 77.3842 8.08847 77.5273 7.99174C77.8047 7.80432 78.0702 7.59876 78.4072 7.3539C78.0851 7.3539 77.8584 7.35692 77.6317 7.3539C76.9636 7.34181 77.1456 7.45668 76.9159 6.81279C76.8383 6.59816 76.7787 6.38051 76.6862 6.08426C76.552 6.50143 76.4357 6.81581 76.3492 7.13927C76.3015 7.31762 76.215 7.36599 76.0479 7.36297C75.7168 7.3539 75.3858 7.36297 74.9712 7.36297C75.2754 7.58364 75.4842 7.76804 75.7198 7.90105C75.9972 8.05824 76.027 8.24567 75.9137 8.52075C75.8093 8.78073 75.7407 9.05581 75.6363 9.38834V9.38532ZM82.2251 26.997C82.1207 27.3144 81.9924 27.5925 81.9417 27.8827C81.8821 28.2243 81.7061 28.3029 81.3989 28.2757C81.1364 28.2515 80.8709 28.2696 80.519 28.2696C80.8113 28.4843 81.0111 28.6536 81.2348 28.7866C81.5003 28.9468 81.5927 29.1191 81.4496 29.4274C81.3362 29.6753 81.2825 29.9504 81.1782 30.289C81.5152 30.0381 81.7896 29.8476 82.0521 29.6421C82.1774 29.5453 82.2728 29.5453 82.3981 29.6421C82.6695 29.8537 82.9499 30.0532 83.272 30.289C83.1587 29.9202 83.0722 29.5937 82.9558 29.2823C82.8872 29.1009 82.923 28.9982 83.0781 28.8924C83.3466 28.708 83.6001 28.5084 83.9222 28.2696C83.5494 28.2696 83.263 28.2485 82.9827 28.2757C82.6993 28.3029 82.583 28.182 82.5204 27.919C82.4488 27.6197 82.3354 27.3265 82.231 26.997H82.2251Z" fill="#164193"/>
<path d="M192.752 21.6493C192.752 20.818 192.764 19.9866 192.746 19.1553C192.74 18.8954 192.817 18.8289 193.065 18.844C193.396 18.8651 193.733 18.8682 194.064 18.844C194.374 18.8198 194.485 18.8954 194.479 19.243C194.455 20.688 194.47 22.136 194.467 23.5809C194.467 23.8711 194.488 24.1583 194.544 24.4425C194.732 25.3614 195.379 25.9418 196.212 25.9388C197.038 25.9388 197.706 25.3493 197.891 24.4455C197.939 24.2097 197.965 23.9709 197.962 23.729C197.956 22.2236 197.971 20.7152 197.95 19.2097C197.947 18.8984 198.037 18.8228 198.326 18.844C198.693 18.8712 199.066 18.8591 199.433 18.844C199.609 18.8379 199.657 18.9014 199.657 19.0737C199.645 20.8452 199.707 22.6196 199.612 24.388C199.49 26.6462 197.813 27.804 195.591 27.4956C193.864 27.2538 192.844 26.0416 192.767 24.2188C192.731 23.3633 192.761 22.5078 192.761 21.6523H192.749L192.752 21.6493Z" fill="#164193"/>
<path d="M136.233 23.0945C136.233 21.7795 136.239 20.4645 136.227 19.1526C136.227 18.8986 136.295 18.8291 136.546 18.8321C138.153 18.8442 139.764 18.8412 141.375 18.8321C141.598 18.8321 141.697 18.8775 141.679 19.1254C141.658 19.4367 141.658 19.7541 141.679 20.0655C141.697 20.3164 141.598 20.3648 141.372 20.3617C140.334 20.3527 139.299 20.3648 138.261 20.3496C138.001 20.3466 137.906 20.401 137.921 20.6822C137.948 21.1265 137.945 21.5739 137.921 22.0183C137.906 22.3085 137.969 22.4113 138.282 22.4022C139.066 22.375 139.854 22.4022 140.641 22.3871C140.88 22.3811 140.951 22.4566 140.936 22.6894C140.918 22.9766 140.915 23.2698 140.936 23.557C140.954 23.8079 140.874 23.8895 140.62 23.8835C139.821 23.8683 139.021 23.8835 138.225 23.8744C137.995 23.8714 137.912 23.9288 137.921 24.1737C137.939 24.6422 137.939 25.1138 137.921 25.5854C137.912 25.8212 137.983 25.8907 138.216 25.8877C139.338 25.8756 140.456 25.8877 141.578 25.8756C141.849 25.8726 141.971 25.93 141.936 26.2293C141.894 26.6071 142.094 27.118 141.855 27.3357C141.649 27.5261 141.154 27.3991 140.787 27.3991C139.391 27.4022 137.998 27.3931 136.602 27.4082C136.313 27.4112 136.218 27.3478 136.224 27.0364C136.242 25.7214 136.233 24.4095 136.233 23.0945Z" fill="#164193"/>
<path d="M161.275 14.1254C161.23 14.733 161.231 14.736 160.655 14.73C160.371 14.73 159.993 14.8237 159.829 14.6786C159.635 14.5063 159.769 14.1103 159.766 13.814C159.76 11.2687 159.766 8.72337 159.754 6.17806C159.754 5.87274 159.832 5.78205 160.127 5.80926C160.434 5.83646 160.747 5.83042 161.058 5.80926C161.29 5.79414 161.332 5.88483 161.332 6.09946C161.323 7.20888 161.326 8.3183 161.326 9.4247C161.359 9.43376 161.392 9.44888 161.401 9.43981C163.023 8.09762 165.308 8.90475 165.761 10.9906C165.94 11.8128 165.869 12.6139 165.508 13.3878C164.804 14.8992 162.531 15.4434 161.272 14.1223L161.275 14.1254ZM162.746 10.2046C161.881 10.2107 161.254 10.9029 161.257 11.8461C161.257 12.759 161.896 13.424 162.764 13.4271C163.623 13.4271 164.258 12.7499 164.258 11.831C164.258 10.8999 163.605 10.1986 162.746 10.2046Z" fill="#164193"/>
<path d="M139.597 9.51857C139.597 8.37287 139.615 7.30275 139.588 6.23565C139.579 5.8729 139.687 5.77314 140.024 5.81546C140.399 5.86081 140.904 5.65525 141.118 5.89708C141.303 6.10869 141.175 6.60747 141.175 6.98232C141.175 9.44299 141.169 11.9037 141.184 14.3643C141.184 14.6606 141.118 14.7724 140.814 14.7392C140.555 14.712 140.289 14.718 140.027 14.7392C139.758 14.7603 139.618 14.6908 139.669 14.3885C139.681 14.319 139.669 14.2464 139.669 14.1588C139.621 14.1709 139.582 14.1679 139.561 14.186C138.792 14.9599 137.87 15.0264 136.907 14.709C135.91 14.3825 135.368 13.6116 135.156 12.602C134.992 11.8281 135.054 11.0663 135.389 10.3408C136.197 8.5875 138.416 8.31846 139.594 9.51554L139.597 9.51857ZM139.669 11.8341C139.663 10.894 139.036 10.2138 138.165 10.2078C137.306 10.2018 136.671 10.8849 136.662 11.8311C136.653 12.741 137.288 13.4242 138.145 13.4272C139.03 13.4303 139.672 12.7592 139.666 11.8311L139.669 11.8341Z" fill="#164193"/>
<path d="M153.58 14.1253C152.78 14.9415 151.853 15.0352 150.875 14.7148C149.863 14.3823 149.318 13.6054 149.109 12.5806C148.951 11.8158 149.019 11.0691 149.338 10.3527C150.027 8.80798 152.097 8.18526 153.553 9.4821C153.553 8.84728 153.553 8.25176 153.553 7.65624C153.553 7.12421 153.559 6.59519 153.55 6.06315C153.547 5.88178 153.589 5.80318 153.786 5.81225C154.156 5.82736 154.525 5.82736 154.895 5.81225C155.089 5.80318 155.131 5.87875 155.131 6.06013C155.125 8.87147 155.125 11.6828 155.131 14.4911C155.131 14.6846 155.071 14.745 154.886 14.733C154.683 14.7178 154.481 14.7299 154.278 14.7299C153.876 14.7299 153.644 14.5274 153.583 14.1223L153.58 14.1253ZM153.622 11.8521C153.625 10.8968 152.986 10.2016 152.103 10.2076C151.244 10.2106 150.612 10.9089 150.615 11.846C150.618 12.762 151.253 13.4331 152.115 13.427C152.986 13.424 153.616 12.762 153.622 11.8521Z" fill="#164193"/>
<path d="M163.041 22.1603C163.837 21.4257 164.708 21.2867 165.645 21.5829C167.282 22.0998 168.052 24.1766 167.274 25.9299C166.731 27.1542 165.385 27.8011 164.103 27.4625C163.715 27.3598 163.39 27.1451 163.107 26.864C162.969 26.9426 163.026 27.0635 163.026 27.1603C163.02 27.9311 163.017 28.702 163.026 29.4728C163.029 29.6965 162.987 29.8023 162.737 29.7811C162.418 29.757 162.093 29.7539 161.773 29.7811C161.502 29.8023 161.436 29.7116 161.439 29.4426C161.451 27.4293 161.445 25.419 161.445 23.4058C161.445 22.8767 161.457 22.3447 161.439 21.8157C161.43 21.5739 161.511 21.5043 161.744 21.5194C162.051 21.5376 162.364 21.5406 162.671 21.5194C162.943 21.4983 163.077 21.5708 163.026 21.8671C163.014 21.9366 163.032 22.0092 163.041 22.1603ZM162.958 24.5152C162.967 25.4432 163.614 26.1083 164.497 26.0962C165.356 26.0841 165.973 25.4039 165.955 24.4819C165.94 23.5327 165.308 22.8616 164.44 22.8737C163.575 22.8858 162.946 23.5811 162.955 24.5152H162.958Z" fill="#164193"/>
<path d="M120.92 22.1904C121.641 21.5103 122.465 21.3289 123.362 21.5073C124.296 21.6886 124.842 22.3295 124.889 23.4117C124.943 24.6753 124.907 25.9419 124.913 27.2085C124.913 27.3506 124.863 27.396 124.728 27.3929C124.335 27.3869 123.941 27.3808 123.55 27.3929C123.315 27.402 123.35 27.2478 123.35 27.1088C123.347 26.1324 123.359 25.156 123.339 24.1795C123.318 23.2575 122.998 22.8887 122.262 22.8767C121.474 22.8646 120.943 23.3543 120.914 24.1916C120.881 25.1076 120.875 26.0235 120.905 26.9395C120.917 27.3355 120.788 27.4322 120.43 27.396C120.147 27.3657 119.858 27.3808 119.574 27.396C119.398 27.405 119.327 27.3627 119.327 27.1632C119.333 24.3549 119.333 21.5466 119.327 18.7382C119.327 18.5206 119.404 18.4753 119.595 18.4873C120.019 18.5206 120.565 18.312 120.833 18.572C121.066 18.7957 120.89 19.3489 120.893 19.757C120.902 20.5278 120.896 21.2987 120.896 22.0695C120.896 22.0937 120.905 22.1149 120.917 22.1965L120.92 22.1904Z" fill="#164193"/>
<path d="M115.1 10.4129C115.1 9.09797 115.106 7.78299 115.094 6.46801C115.094 6.24129 115.142 6.15967 115.384 6.15967C117.066 6.17176 118.745 6.16874 120.427 6.15967C120.657 6.15967 120.743 6.2171 120.729 6.45894C120.708 6.75821 120.711 7.06353 120.729 7.3628C120.743 7.6137 120.663 7.6923 120.409 7.68928C119.3 7.67718 118.19 7.6923 117.084 7.67718C116.818 7.67416 116.738 7.73764 116.75 8.01273C116.773 8.54175 116.771 9.07378 116.75 9.60582C116.741 9.8658 116.794 9.95648 117.075 9.94741C117.958 9.92625 118.84 9.94741 119.72 9.93532C119.971 9.9323 120.096 9.96857 120.06 10.2618C120.013 10.6518 120.224 11.1778 119.977 11.4014C119.759 11.5949 119.252 11.4589 118.873 11.4619C118.277 11.4649 117.68 11.477 117.084 11.4559C116.827 11.4468 116.738 11.5012 116.744 11.7854C116.765 12.665 116.744 13.5477 116.756 14.4274C116.759 14.6662 116.693 14.7388 116.46 14.7237C116.114 14.7025 115.768 14.6995 115.422 14.7237C115.16 14.7418 115.082 14.6692 115.085 14.3911C115.1 13.0641 115.091 11.737 115.091 10.4099L115.1 10.4129Z" fill="#164193"/>
<path d="M179.646 26.7188C178.966 27.4957 178.166 27.6559 177.286 27.4806C176.054 27.2327 175.264 26.3349 175.112 24.9473C174.975 23.711 175.291 22.6167 176.368 21.8791C177.316 21.2291 178.536 21.3138 179.419 22.0514C179.452 22.0786 179.491 22.1058 179.526 22.133C179.547 22.1027 179.571 22.0876 179.571 22.0695C179.579 21.7088 179.762 21.5284 180.12 21.5284C180.382 21.5284 180.645 21.5375 180.907 21.5254C181.089 21.5163 181.155 21.5707 181.155 21.7672C181.149 23.5659 181.149 25.3615 181.155 27.1601C181.155 27.3476 181.101 27.4171 180.913 27.408C180.615 27.3959 180.317 27.3838 180.018 27.408C179.732 27.4322 179.589 27.3566 179.646 27.0422C179.658 26.9727 179.646 26.8971 179.646 26.7218V26.7188ZM176.69 24.4999C176.69 25.4461 177.292 26.0991 178.16 26.0961C179.001 26.0961 179.661 25.3796 179.643 24.4848C179.628 23.5598 178.995 22.8706 178.163 22.8645C177.289 22.8615 176.69 23.5266 176.69 24.4969V24.4999Z" fill="#164193"/>
<path d="M146.168 12.3329C145.571 12.3329 144.978 12.3419 144.381 12.3268C144.11 12.3208 144.116 12.4145 144.211 12.617C144.635 13.5148 146.007 13.7506 146.794 13.0221C147.039 12.7954 147.155 12.8256 147.346 13.0402C147.522 13.2367 147.722 13.409 147.922 13.5814C148.056 13.6962 148.068 13.7778 147.94 13.9229C147.459 14.458 146.857 14.7391 146.165 14.8298C145.509 14.9175 144.859 14.8873 144.232 14.6364C142.92 14.1104 142.24 12.7107 142.523 11.1177C142.765 9.75733 143.91 8.82626 145.303 8.7779C147.024 8.71744 148.363 10.0203 148.235 12.0699C148.22 12.2906 148.131 12.3419 147.922 12.3389C147.337 12.3238 146.756 12.3329 146.171 12.3329H146.168ZM145.369 11.1872C145.715 11.1872 146.061 11.1781 146.404 11.1902C146.609 11.1963 146.654 11.1328 146.58 10.9393C146.407 10.4798 145.92 10.1564 145.395 10.1624C144.859 10.1715 144.34 10.5191 144.184 10.9695C144.134 11.1207 144.152 11.1932 144.331 11.1872C144.677 11.1781 145.02 11.1872 145.366 11.1872H145.369Z" fill="#164193"/>
<path d="M172.177 24.9986C171.592 24.9986 171.008 25.0077 170.426 24.9926C170.155 24.9866 170.161 25.0803 170.256 25.2828C170.68 26.1806 172.052 26.4164 172.839 25.6879C173.084 25.4612 173.2 25.4914 173.391 25.706C173.567 25.9025 173.767 26.0748 173.967 26.2471C174.101 26.362 174.113 26.4466 173.985 26.5887C173.504 27.1238 172.899 27.3868 172.21 27.5016C170.862 27.7223 169.594 27.2145 168.956 26.1867C168.258 25.0621 168.38 23.3451 169.227 22.4019C170.104 21.4255 171.634 21.1474 172.8 21.752C173.994 22.3717 174.372 23.6806 174.271 24.8052C174.253 24.9986 174.146 24.9986 174.005 24.9986C173.397 24.9956 172.791 24.9986 172.183 24.9986H172.177ZM171.446 23.853C171.78 23.853 172.114 23.8439 172.445 23.856C172.645 23.862 172.699 23.8046 172.624 23.6081C172.451 23.1516 171.965 22.8221 171.443 22.8312C170.903 22.8372 170.387 23.1849 170.232 23.6353C170.182 23.7834 170.194 23.859 170.376 23.856C170.733 23.8499 171.088 23.856 171.446 23.856V23.853Z" fill="#164193"/>
<path d="M129.763 24.9987C129.179 24.9987 128.594 25.0108 128.012 24.9926C127.72 24.9836 127.726 25.0833 127.833 25.301C128.278 26.1958 129.635 26.4134 130.422 25.6789C130.652 25.4642 130.765 25.4975 130.947 25.697C131.114 25.8814 131.305 26.0507 131.496 26.2109C131.669 26.353 131.678 26.4527 131.514 26.6311C130.416 27.8342 128.078 27.8675 126.909 26.6825C125.745 25.5035 125.775 23.3089 127.013 22.1934C127.932 21.3651 129.026 21.2261 130.151 21.6674C131.287 22.1148 131.768 23.067 131.839 24.249C131.884 24.9957 131.863 24.9987 131.12 24.9987C130.667 24.9987 130.214 24.9987 129.763 24.9987ZM129.012 23.853C129.346 23.853 129.68 23.8439 130.011 23.853C130.202 23.859 130.273 23.8137 130.196 23.6112C130.026 23.1547 129.536 22.8252 129.017 22.8282C128.481 22.8343 127.968 23.1789 127.804 23.6293C127.732 23.8228 127.804 23.856 127.977 23.853C128.323 23.847 128.666 23.853 129.012 23.853Z" fill="#164193"/>
<path d="M214.26 27.5412C212.888 27.5412 211.814 26.861 211.358 25.7123C210.889 24.5303 211.152 23.1307 211.999 22.2933C213.111 21.193 215.283 21.1507 216.425 22.2087C217.579 23.2758 217.705 25.2195 216.703 26.4771C216.166 27.1482 215.262 27.5442 214.26 27.5412ZM214.227 26.0962C215.092 26.1083 215.751 25.4342 215.778 24.5091C215.805 23.6053 215.149 22.8919 214.281 22.8737C213.41 22.8556 212.756 23.5206 212.73 24.4517C212.703 25.3495 213.371 26.0811 214.227 26.0932V26.0962Z" fill="#164193"/>
<path d="M157.359 27.5413C155.769 27.5293 154.71 26.8551 154.257 25.7185C153.786 24.5396 154.045 23.1339 154.892 22.2965C156.005 21.1932 158.17 21.1478 159.319 22.2028C160.476 23.2669 160.613 25.2197 159.602 26.4682C158.967 27.2481 158.105 27.5383 157.362 27.5413H157.359ZM157.201 22.88C156.312 22.8497 155.641 23.5299 155.626 24.467C155.611 25.3558 156.261 26.0722 157.103 26.0964C157.982 26.1206 158.662 25.4313 158.677 24.4972C158.692 23.6025 158.06 22.9072 157.204 22.88H157.201Z" fill="#164193"/>
<path d="M146.964 26.7612C146.308 27.4565 145.556 27.6439 144.724 27.4958C143.826 27.3355 143.278 26.734 143.17 25.7606C143.024 24.4154 143.132 23.0641 143.102 21.7129C143.099 21.5375 143.188 21.5194 143.322 21.5224C143.68 21.5285 144.038 21.5375 144.396 21.5194C144.62 21.5073 144.677 21.5799 144.674 21.8005C144.662 22.6802 144.665 23.5599 144.671 24.4396C144.671 24.6784 144.688 24.9202 144.718 25.159C144.763 25.5369 144.897 25.8724 145.291 25.9964C145.729 26.1354 146.138 26.072 146.49 25.7485C146.893 25.3767 146.991 24.89 146.994 24.37C146.997 23.5266 147.003 22.6832 146.988 21.8368C146.985 21.5859 147.048 21.4982 147.301 21.5134C147.656 21.5345 148.017 21.5255 148.375 21.5134C148.548 21.5073 148.599 21.5708 148.599 21.7401C148.593 23.5478 148.593 25.3585 148.599 27.1663C148.599 27.3416 148.542 27.399 148.372 27.393C148.038 27.3839 147.704 27.3718 147.37 27.393C147.084 27.4141 146.937 27.3446 146.991 27.0272C147.003 26.9607 146.982 26.8912 146.967 26.7491L146.964 26.7612Z" fill="#164193"/>
<path d="M125.364 14.0859C124.713 14.7812 123.965 14.9746 123.133 14.8326C122.232 14.6784 121.674 14.0859 121.564 13.1125C121.409 11.7552 121.522 10.3919 121.492 9.02851C121.492 8.90759 121.531 8.84713 121.656 8.8562C121.68 8.8562 121.704 8.8562 121.728 8.8562C122.154 8.86225 122.703 8.70808 122.978 8.91968C123.237 9.1192 123.046 9.70867 123.055 10.1228C123.07 10.8211 123.049 11.5224 123.073 12.2207C123.1 12.9825 123.347 13.2969 123.938 13.3846C124.49 13.4662 125.018 13.1246 125.244 12.5381C125.355 12.254 125.382 11.9547 125.382 11.6524C125.382 10.8211 125.388 9.9898 125.376 9.15547C125.376 8.92875 125.42 8.83202 125.668 8.84713C126.035 8.87132 126.408 8.85922 126.778 8.85016C126.93 8.84713 126.986 8.89852 126.983 9.05572C126.98 10.8755 126.977 12.6984 126.983 14.5182C126.983 14.7116 126.891 14.7328 126.742 14.7298C126.396 14.7237 126.05 14.7086 125.707 14.7358C125.426 14.757 125.343 14.6512 125.379 14.3912C125.388 14.3217 125.373 14.2491 125.367 14.0829L125.364 14.0859Z" fill="#164193"/>
<path d="M220.148 22.2783C220.872 21.5377 221.687 21.3261 222.593 21.5044C223.443 21.6707 223.942 22.2451 224.097 23.1671C224.192 23.7293 224.147 24.2976 224.153 24.8629C224.162 25.6217 224.147 26.3835 224.159 27.1422C224.162 27.3689 224.112 27.4687 223.867 27.4536C223.533 27.4324 223.199 27.4324 222.865 27.4536C222.638 27.4657 222.584 27.3901 222.587 27.1694C222.599 26.2898 222.596 25.4071 222.587 24.5274C222.587 24.3007 222.576 24.0679 222.54 23.8442C222.447 23.2608 222.2 22.9706 221.758 22.898C221.135 22.7983 220.64 23.0038 220.371 23.4814C220.228 23.7384 220.157 24.0165 220.154 24.3097C220.148 25.2499 220.136 26.19 220.148 27.1301C220.151 27.3871 220.073 27.4657 219.825 27.4506C219.491 27.4294 219.157 27.4354 218.823 27.4506C218.644 27.4566 218.573 27.4113 218.573 27.2118C218.579 25.3919 218.579 23.5691 218.573 21.7493C218.573 21.5407 218.659 21.5165 218.826 21.5226C219.16 21.5316 219.494 21.5407 219.828 21.5226C220.079 21.5075 220.18 21.583 220.142 21.84C220.124 21.9579 220.142 22.0788 220.142 22.2813L220.148 22.2783Z" fill="#164193"/>
<path d="M202.782 22.2542C203.34 21.6859 203.97 21.438 204.712 21.4501C205.822 21.4652 206.523 22.0638 206.708 23.1702C206.773 23.5541 206.764 23.938 206.764 24.3249C206.764 25.2651 206.758 26.2052 206.77 27.1484C206.77 27.3781 206.72 27.4718 206.475 27.4567C206.141 27.4356 205.807 27.4356 205.473 27.4567C205.243 27.4718 205.195 27.3872 205.195 27.1695C205.207 26.2899 205.204 25.4072 205.195 24.5275C205.195 24.3008 205.184 24.068 205.148 23.8443C205.058 23.276 204.82 22.9858 204.402 22.9042C203.782 22.7832 203.254 22.9979 202.982 23.4846C202.839 23.7415 202.768 24.0196 202.768 24.3129C202.762 25.253 202.75 26.1931 202.762 27.1333C202.765 27.3932 202.684 27.4658 202.436 27.4507C202.138 27.4295 201.84 27.4265 201.542 27.4507C201.267 27.4718 201.181 27.3932 201.184 27.1C201.199 25.5674 201.187 24.0378 201.196 22.5051C201.196 22.1847 201.055 21.7585 201.261 21.5741C201.44 21.4169 201.852 21.5257 202.159 21.5227C202.72 21.5197 202.72 21.5227 202.779 22.2512L202.782 22.2542Z" fill="#164193"/>
<path d="M184.224 22.2783C184.952 21.5377 185.763 21.3261 186.673 21.5044C187.523 21.6707 188.018 22.2451 188.176 23.1701C188.272 23.7354 188.227 24.3007 188.233 24.8659C188.242 25.6368 188.23 26.4107 188.239 27.1815C188.239 27.378 188.194 27.4627 187.982 27.4536C187.636 27.4385 187.29 27.4354 186.944 27.4536C186.718 27.4657 186.664 27.3841 186.667 27.1664C186.679 26.2867 186.676 25.404 186.667 24.5244C186.667 24.2976 186.655 24.0649 186.619 23.8412C186.53 23.2729 186.291 22.9827 185.873 22.901C185.253 22.7801 184.725 22.9947 184.451 23.4814C184.308 23.7384 184.236 24.0165 184.236 24.3097C184.23 25.2499 184.218 26.19 184.23 27.1301C184.233 27.3901 184.152 27.4627 183.908 27.4475C183.574 27.4264 183.24 27.4324 182.906 27.4475C182.724 27.4536 182.658 27.4052 182.658 27.2087C182.664 25.3889 182.664 23.5661 182.658 21.7463C182.658 21.577 182.7 21.5135 182.876 21.5196C183.222 21.5316 183.568 21.5407 183.914 21.5196C184.164 21.5044 184.263 21.583 184.227 21.84C184.212 21.9579 184.227 22.0788 184.227 22.2783H184.224Z" fill="#164193"/>
<path d="M130.029 9.56072C130.7 8.87754 131.508 8.65988 132.418 8.83219C133.274 8.99543 133.772 9.56677 133.933 10.4857C134.022 11.0027 133.987 11.5196 133.99 12.0365C133.996 12.8557 133.984 13.678 133.996 14.4972C133.999 14.7148 133.942 14.7965 133.715 14.7844C133.369 14.7662 133.023 14.7662 132.677 14.7844C132.465 14.7934 132.421 14.7118 132.424 14.5153C132.433 13.6356 132.43 12.7529 132.424 11.8733C132.424 11.6556 132.421 11.438 132.388 11.2233C132.289 10.5613 132.024 10.2681 131.502 10.2197C130.81 10.1532 130.336 10.4313 130.109 11.0299C129.996 11.3291 129.981 11.6405 129.981 11.9549C129.981 12.7741 129.966 13.5963 129.987 14.4156C129.996 14.7269 129.894 14.8085 129.605 14.7844C129.286 14.7602 128.961 14.7723 128.639 14.7844C128.469 14.7904 128.412 14.736 128.412 14.5607C128.418 12.7288 128.418 10.8938 128.412 9.06193C128.412 8.90474 128.46 8.85335 128.615 8.85638C128.961 8.86544 129.307 8.88056 129.653 8.85335C129.927 8.83219 130.017 8.9259 129.984 9.19494C129.969 9.30377 129.945 9.42771 130.026 9.56374L130.029 9.56072Z" fill="#164193"/>
<path d="M166.143 8.8594C166.629 8.8594 167.115 8.86846 167.599 8.85335C167.801 8.8473 167.825 8.98334 167.876 9.11635C168.27 10.1109 168.66 11.1054 169.054 12.097C169.09 12.1846 169.129 12.2693 169.17 12.369C169.329 12.233 169.343 12.0426 169.406 11.8793C169.752 10.9573 170.092 10.0323 170.423 9.10425C170.489 8.91986 170.569 8.83824 170.775 8.85033C171.094 8.87149 171.419 8.87451 171.742 8.85033C172.055 8.82614 172.129 8.88962 172.004 9.21308C171.315 10.9815 170.65 12.759 169.973 14.5335C169.678 15.3073 169.376 16.0812 169.093 16.8581C169.024 17.0485 168.938 17.1211 168.735 17.109C168.413 17.0909 168.091 17.0848 167.769 17.109C167.461 17.1332 167.372 17.0758 167.506 16.7523C167.786 16.0752 168.019 15.3799 168.3 14.7027C168.401 14.4579 168.38 14.2584 168.282 14.0256C167.599 12.4386 166.927 10.8455 166.253 9.25238C166.203 9.13448 166.113 9.02566 166.143 8.85637V8.8594Z" fill="#164193"/>
<path d="M115.1 24.491C115.1 24.0346 115.088 23.5751 115.106 23.1186C115.115 22.8889 115.035 22.8012 114.82 22.8435C114.438 22.9191 114.343 22.7347 114.393 22.3931C114.405 22.3115 114.393 22.2238 114.393 22.1392C114.399 21.9487 114.343 21.719 114.426 21.5739C114.516 21.4197 114.754 21.5225 114.924 21.5165C115.109 21.5104 115.094 21.3925 115.094 21.2686C115.094 20.8 115.106 20.3285 115.088 19.8599C115.079 19.6392 115.154 19.5697 115.369 19.5606C115.7 19.5455 116.034 19.5123 116.362 19.4488C116.633 19.3944 116.684 19.4971 116.675 19.742C116.657 20.2226 116.681 20.7063 116.666 21.187C116.657 21.4318 116.717 21.5316 116.976 21.5134C117.307 21.4893 117.644 21.5134 117.976 21.5044C118.163 21.4983 118.262 21.5376 118.247 21.7583C118.229 22.0334 118.232 22.3115 118.247 22.5896C118.256 22.7801 118.19 22.8435 118.005 22.8375C117.635 22.8254 117.266 22.8405 116.899 22.8314C116.732 22.8284 116.666 22.8768 116.669 23.0551C116.678 23.8623 116.663 24.6694 116.678 25.4765C116.687 26.0055 116.941 26.1748 117.457 26.0418C117.765 25.9632 117.967 26.0801 118.062 26.3925C118.086 26.4741 118.116 26.5527 118.14 26.6313C118.263 27.0263 118.123 27.2863 117.719 27.4112C117.289 27.5442 116.848 27.5654 116.413 27.5049C115.664 27.4021 115.169 26.8157 115.115 25.9632C115.085 25.4705 115.109 24.9747 115.109 24.482H115.097L115.1 24.491Z" fill="#164193"/>
<path d="M4.75867 6.26586C4.75867 5.15644 4.7706 4.04702 4.7527 2.9376C4.74674 2.62926 4.84218 2.55974 5.1315 2.56578C6.39616 2.5809 7.66082 2.58997 8.9225 2.56578C9.37289 2.55671 9.22077 2.84692 9.24762 3.06759C9.28043 3.32454 9.22674 3.4515 8.91356 3.44244C7.93523 3.41825 6.95691 3.44244 5.98157 3.42732C5.73102 3.4243 5.65646 3.49685 5.66541 3.75078C5.6833 4.35234 5.68032 4.95693 5.66541 5.5585C5.65944 5.80638 5.73102 5.89102 5.98455 5.888C6.76005 5.87288 7.53555 5.89102 8.31105 5.8759C8.55265 5.86986 8.61529 5.95148 8.60932 6.18424C8.59142 6.8372 8.66003 6.72535 8.08437 6.7314C7.38045 6.73744 6.67654 6.74047 5.97262 6.72837C5.74296 6.72535 5.65944 6.78883 5.66541 7.03067C5.68032 7.60805 5.6833 8.18846 5.66541 8.76886C5.65646 9.03488 5.72804 9.12254 6.00245 9.1165C7.04043 9.10138 8.0784 9.13161 9.1134 9.09836C9.53992 9.08627 9.44447 9.33717 9.46834 9.57599C9.49816 9.86619 9.41763 9.96897 9.10445 9.96595C7.78013 9.94781 6.45582 9.94478 5.13449 9.96595C4.80043 9.97199 4.74972 9.86014 4.7527 9.56087C4.7706 8.46354 4.75867 7.36621 4.75867 6.26889V6.26586Z" fill="#164193"/>
<path d="M26.75 9.30696C26.75 10.1352 26.738 10.9182 26.7559 11.7011C26.7619 11.9792 26.6754 12.0488 26.4129 12.0367C25.8522 12.0095 25.9118 12.1092 25.9089 11.5409C25.9089 9.46717 25.9148 7.39344 25.8999 5.32272C25.8999 4.98415 25.9685 4.86928 26.3234 4.8723C26.6605 4.87532 26.8126 4.9509 26.75 5.30761C26.738 5.37713 26.75 5.45271 26.75 5.59781C27.3137 5.03554 27.946 4.76045 28.6977 4.83603C29.4404 4.90858 30.0309 5.25017 30.4575 5.86987C31.1673 6.90372 31.051 8.49076 30.2039 9.34323C29.3091 10.2441 28.0624 10.241 26.75 9.30394V9.30696ZM30.0548 7.42366C30.025 6.33541 29.3181 5.6099 28.3159 5.64013C27.3704 5.66734 26.7052 6.48958 26.738 7.58993C26.7679 8.55424 27.5285 9.26464 28.4978 9.23138C29.4135 9.20115 30.0816 8.42426 30.0518 7.42366H30.0548Z" fill="#164193"/>
<path d="M17.8496 25.0592C19.1709 25.0501 20.0449 25.4461 20.7786 26.1898C20.9725 26.3862 21.047 26.5434 20.7518 26.7037C20.6682 26.749 20.5967 26.8185 20.534 26.8881C20.3968 27.0422 20.3044 27.009 20.1672 26.8699C19.2395 25.9207 18.0733 25.6759 16.9727 26.1837C15.9556 26.6553 15.3799 27.7859 15.4843 29.1069C15.5738 30.2345 16.063 31.1051 17.1457 31.498C18.2463 31.9001 19.2604 31.7066 20.0956 30.83C20.2745 30.6425 20.4117 30.57 20.5996 30.7967C20.6593 30.8693 20.7398 30.9297 20.8174 30.9841C20.9844 31.102 21.0172 31.1957 20.8532 31.3711C19.7645 32.541 18.4372 32.8191 16.9637 32.3838C15.5529 31.9696 14.7655 30.963 14.5686 29.4969C14.3986 28.2212 14.6372 27.0452 15.541 26.0809C16.2419 25.3343 17.1367 25.0682 17.8526 25.0562L17.8496 25.0592Z" fill="#164193"/>
<path d="M29.503 20.558C28.2115 21.5525 26.8514 21.5404 25.9595 20.5338C25.0826 19.5423 25.1124 17.8494 26.0192 16.8549C26.92 15.8664 28.2502 15.8573 29.5119 16.8609C29.5119 16.7279 29.5268 16.6251 29.5119 16.5284C29.4582 16.214 29.5984 16.1475 29.8847 16.1626C30.353 16.1868 30.353 16.1687 30.353 16.6523C30.353 18.0519 30.3441 19.4516 30.362 20.8482C30.365 21.1626 30.2934 21.2714 29.9712 21.2472C29.7058 21.2291 29.4582 21.2684 29.5328 20.8663C29.5507 20.7696 29.5716 20.6547 29.503 20.558ZM29.5268 18.7442C29.5268 17.6983 28.808 16.9032 27.8655 16.9063C26.908 16.9063 26.1892 17.6892 26.1802 18.7321C26.1713 19.7539 26.8812 20.5126 27.8506 20.5126C28.8169 20.5126 29.5298 19.766 29.5298 18.7442H29.5268Z" fill="#164193"/>
<path d="M41.6813 9.26736C40.19 10.2861 38.9342 10.2528 38.0424 9.19179C37.2371 8.23351 37.2729 6.54369 38.12 5.62472C39.0625 4.60296 40.3242 4.57273 41.5948 5.53705C41.6664 5.45543 41.6425 5.34963 41.6276 5.26801C41.568 4.92339 41.735 4.89014 42.0273 4.87503C42.4031 4.85387 42.4956 4.97478 42.4896 5.34963C42.4658 6.78552 42.4687 8.2184 42.4896 9.6543C42.4926 9.97473 42.3435 9.98077 42.1257 9.95659C41.9348 9.93241 41.6306 10.0896 41.6783 9.66941C41.6932 9.54245 41.6783 9.41548 41.6783 9.26736H41.6813ZM38.3317 7.45662C38.3317 8.51163 39.0028 9.23411 39.9842 9.23108C40.9476 9.23108 41.6813 8.46628 41.6813 7.46569C41.6813 6.43789 40.9416 5.63076 40.002 5.63378C39.0297 5.63378 38.3347 6.39557 38.3317 7.45662Z" fill="#164193"/>
<path d="M151.644 22.2508C152.148 21.8034 152.64 21.4951 153.273 21.4527C153.461 21.4406 153.553 21.4769 153.544 21.7006C153.526 22.1087 153.532 22.5198 153.544 22.931C153.547 23.1033 153.52 23.1849 153.311 23.1819C152.172 23.1637 151.671 23.6534 151.65 24.8022C151.635 25.5609 151.635 26.3227 151.653 27.0815C151.659 27.3414 151.578 27.411 151.331 27.3958C150.997 27.3747 150.663 27.3807 150.329 27.3958C150.132 27.4049 150.06 27.3505 150.06 27.1389C150.069 25.3554 150.069 23.5688 150.06 21.7853C150.06 21.5737 150.132 21.5192 150.329 21.5283C150.675 21.5434 151.021 21.5464 151.367 21.5283C151.584 21.5162 151.674 21.5797 151.65 21.8064C151.632 21.9545 151.647 22.1057 151.647 22.2568L151.644 22.2508Z" fill="#164193"/>
<path d="M34.6333 7.7016C34.0845 7.7016 33.5357 7.71672 32.9869 7.69556C32.7065 7.68347 32.7035 7.80438 32.7572 8.01297C33.0704 9.23424 34.5766 9.65443 35.549 8.78986C35.6295 8.71731 35.6922 8.53291 35.8144 8.60849C36.0024 8.72638 36.1694 8.89264 36.3155 9.06193C36.3722 9.12843 36.2559 9.20401 36.1992 9.26144C35.4774 10.0081 34.5915 10.1744 33.6311 9.93254C32.6886 9.69675 32.1219 9.04379 31.9041 8.09761C31.5701 6.65567 32.2949 5.27116 33.5744 4.92654C35.2567 4.47008 36.6824 5.66414 36.5542 7.5293C36.5422 7.7137 36.4348 7.7016 36.3126 7.7016C35.7518 7.7016 35.1911 7.7016 34.6303 7.7016H34.6333ZM34.1978 6.98819C34.6154 6.98819 35.033 6.9761 35.4476 6.99121C35.7041 7.00028 35.716 6.90052 35.6504 6.69194C35.4416 6.00573 34.9077 5.61275 34.2098 5.63996C33.5148 5.66716 32.9242 6.14479 32.7721 6.78565C32.7274 6.96703 32.8019 6.98819 32.9481 6.98819C33.3657 6.98214 33.7803 6.98819 34.1978 6.98819Z" fill="#164193"/>
<path d="M40.1692 21.3079C38.642 21.3079 37.5712 20.2287 37.5742 18.6991C37.5742 17.1785 38.6599 16.1054 40.19 16.1084C41.6754 16.1114 42.7641 17.2178 42.7581 18.7202C42.7522 20.2257 41.6695 21.3109 40.1721 21.3109L40.1692 21.3079ZM40.1781 20.5098C41.1445 20.5068 41.8842 19.7329 41.8932 18.7172C41.9021 17.6954 41.1445 16.9034 40.1602 16.9034C39.164 16.9034 38.4362 17.6713 38.4422 18.7172C38.4452 19.7631 39.1729 20.5128 40.1811 20.5098H40.1781Z" fill="#164193"/>
<path d="M24.4295 27.3872C25.9328 27.3872 27.0066 28.4634 27.0125 29.9748C27.0185 31.4924 25.9209 32.5927 24.4116 32.5897C22.9173 32.5836 21.8405 31.5014 21.8316 29.993C21.8227 28.4724 22.9024 27.3902 24.4325 27.3902L24.4295 27.3872ZM24.4116 31.7916C25.3989 31.7977 26.1535 31.0117 26.1505 29.9869C26.1505 28.9682 25.4138 28.1913 24.4474 28.1853C23.4363 28.1792 22.7055 28.9259 22.6996 29.9688C22.6936 31.0087 23.4244 31.7886 24.4116 31.7916Z" fill="#164193"/>
<path d="M24.6741 7.45995C24.6711 8.98653 23.6212 10.0325 22.094 10.0294C20.5938 10.0264 19.511 8.94421 19.5081 7.44181C19.5081 5.93336 20.6206 4.81185 22.1119 4.8179C23.6242 4.82696 24.6771 5.9122 24.6741 7.45995ZM23.8151 7.43576C23.8151 6.37773 23.1022 5.63409 22.097 5.64014C21.1157 5.64618 20.385 6.40192 20.376 7.41763C20.3671 8.44845 21.1038 9.22534 22.097 9.23139C23.1052 9.23441 23.8151 8.49379 23.818 7.43576H23.8151Z" fill="#164193"/>
<path d="M19.5945 18.7292C19.5885 20.2467 18.5237 21.3138 17.0144 21.3108C15.4933 21.3108 14.4255 20.2256 14.4314 18.6929C14.4374 17.1724 15.5201 16.1053 17.0532 16.1114C18.5416 16.1144 19.6004 17.2057 19.5945 18.7322V18.7292ZM18.7325 18.7443C18.7474 17.7014 18.0196 16.9155 17.0353 16.9064C16.054 16.9003 15.3054 17.6531 15.2875 18.6627C15.2696 19.7056 15.9973 20.5037 16.9727 20.5128C17.9838 20.5218 18.7175 19.7873 18.7325 18.7443Z" fill="#164193"/>
<path d="M9.67703 16.979C10.199 16.4228 10.7359 16.1205 11.401 16.1084C12.5136 16.0873 13.2234 16.7311 13.2712 17.8859C13.3129 18.9349 13.2801 19.9838 13.2891 21.0328C13.2891 21.19 13.2413 21.2323 13.0862 21.2414C12.439 21.2807 12.439 21.2867 12.439 20.6459C12.439 19.9596 12.439 19.2704 12.439 18.5842C12.439 18.4512 12.439 18.3182 12.4271 18.1852C12.3823 17.4748 12.093 17.0637 11.5502 16.9367C10.9238 16.7916 10.2557 17.0667 9.93951 17.6048C9.74563 17.9343 9.67703 18.297 9.67703 18.6779C9.67703 19.4246 9.66808 20.1743 9.68299 20.9209C9.68896 21.1779 9.60843 21.2686 9.36086 21.2353C9.2684 21.2232 9.16997 21.2232 9.07453 21.2353C8.88065 21.2565 8.8031 21.1991 8.8031 20.9814C8.81205 19.4609 8.81205 17.9433 8.8031 16.4228C8.8031 16.2112 8.8717 16.1386 9.07154 16.1659C9.1312 16.1749 9.19085 16.1749 9.2505 16.1659C9.58457 16.1084 9.74563 16.2203 9.68001 16.583C9.66212 16.6767 9.68001 16.7735 9.68001 16.976L9.67703 16.979Z" fill="#164193"/>
<path d="M13.8916 9.27367C13.4949 9.69386 13.0416 9.99615 12.448 10.0234C11.237 10.0838 10.4944 9.42179 10.4437 8.15215C10.4019 7.14249 10.4377 6.12678 10.4317 5.1141C10.4317 4.94481 10.4884 4.8904 10.6584 4.88133C11.2848 4.84808 11.2848 4.83901 11.2848 5.46174C11.2848 6.16004 11.2818 6.86136 11.2848 7.55966C11.2848 7.77429 11.3056 7.99194 11.3355 8.20657C11.3981 8.64489 11.5622 9.02578 12.0275 9.16484C12.5136 9.30994 12.973 9.25553 13.3637 8.90487C13.8022 8.50886 13.9543 7.98589 13.9573 7.41153C13.9632 6.67696 13.9692 5.94238 13.9543 5.20479C13.9483 4.95086 14.0259 4.87226 14.2764 4.88133C14.9207 4.90854 14.8193 4.79971 14.8282 5.43755C14.8342 5.97866 14.8282 6.52279 14.8282 7.0639C14.8282 7.91939 14.8193 8.77488 14.8342 9.63037C14.8372 9.87221 14.7805 9.99615 14.521 9.95685C14.4524 9.94476 14.3778 9.94476 14.3062 9.95685C14.0199 10.0052 13.9215 9.87825 13.9543 9.59712C13.9662 9.50039 13.996 9.38552 13.8916 9.27064V9.27367Z" fill="#164193"/>
<path d="M31.6744 31.6976C31.0987 32.3899 30.4604 32.6861 29.6551 32.5561C28.814 32.4201 28.2741 31.8971 28.1817 31.0326C28.0594 29.905 28.1518 28.7684 28.128 27.6378C28.128 27.4957 28.1876 27.4594 28.3189 27.4474C28.984 27.3778 28.9959 27.3839 28.9959 28.0519C28.9959 28.7744 28.9959 29.4969 28.9959 30.2224C28.9959 30.3554 29.0019 30.4884 29.0138 30.6184C29.0556 31.1142 29.2107 31.5465 29.7237 31.7248C30.2636 31.9153 30.8422 31.746 31.2121 31.3046C31.564 30.8875 31.6655 30.3857 31.6714 29.8566C31.6804 29.1583 31.6863 28.457 31.6684 27.7587C31.6625 27.5018 31.74 27.4081 31.9876 27.4443C32.08 27.4594 32.1785 27.4534 32.2739 27.4443C32.4499 27.4292 32.5304 27.4806 32.5274 27.6801C32.5215 29.2097 32.5215 30.7424 32.5274 32.272C32.5274 32.4654 32.4588 32.535 32.2769 32.5138C32.2172 32.5078 32.1576 32.5047 32.0979 32.5138C31.7609 32.5743 31.6088 32.4564 31.6714 32.0936C31.6893 31.9939 31.6714 31.885 31.6714 31.6916L31.6744 31.6976Z" fill="#164193"/>
<path d="M34.8361 28.2635C35.1702 27.9309 35.4654 27.6679 35.8532 27.5228C37.2431 27.0029 38.4213 27.7828 38.4571 29.2761C38.4809 30.2646 38.4571 31.2532 38.466 32.2417C38.466 32.4774 38.3795 32.5379 38.1737 32.5167C38.0783 32.5077 37.9828 32.5046 37.8874 32.5167C37.6637 32.547 37.604 32.4563 37.607 32.2356C37.619 31.4889 37.613 30.7393 37.613 29.9926C37.613 29.8717 37.613 29.7508 37.613 29.6298C37.5951 28.7471 37.2282 28.2363 36.572 28.1849C35.707 28.1153 35.0538 28.6111 34.8928 29.4575C34.7824 30.0319 34.851 30.6123 34.8361 31.1897C34.8272 31.492 34.8093 31.7943 34.8421 32.0935C34.8808 32.4533 34.7466 32.5228 34.4096 32.5288C34.0367 32.5379 33.9592 32.423 33.9652 32.0663C33.986 30.6304 33.9801 29.1976 33.9681 27.7617C33.9681 27.5047 34.0427 27.4352 34.2903 27.4412C34.8301 27.4533 34.8301 27.4412 34.8361 27.9944C34.8361 28.0609 34.8361 28.1274 34.8361 28.2604V28.2635Z" fill="#164193"/>
<path d="M3.75639 16.9974C4.37679 16.287 5.0807 15.9998 5.92182 16.1358C6.75101 16.2688 7.28789 16.8492 7.32965 17.7561C7.38334 18.8504 7.35053 19.9508 7.35948 21.0481C7.35948 21.1872 7.31176 21.2265 7.17455 21.2385C6.51538 21.302 6.52134 21.3081 6.51538 20.6521C6.5124 19.8208 6.51836 18.9865 6.48853 18.1551C6.46169 17.4659 6.17833 17.085 5.66233 16.949C5.04789 16.7858 4.38872 17.0246 4.05466 17.5354C3.84289 17.8559 3.75341 18.2126 3.75341 18.5965C3.75341 19.3673 3.74446 20.1412 3.75937 20.9121C3.76534 21.16 3.70568 21.2718 3.44619 21.2355C3.3418 21.2204 3.23144 21.2234 3.12406 21.2355C2.9272 21.2597 2.88843 21.166 2.88843 20.9846C2.89439 19.4641 2.89439 17.9466 2.88843 16.426C2.88843 16.2235 2.94212 16.1358 3.14792 16.163C3.19564 16.1691 3.24337 16.1721 3.29109 16.163C3.64603 16.1056 3.82797 16.2205 3.75639 16.6165C3.73849 16.7102 3.75639 16.8069 3.75639 16.9943V16.9974Z" fill="#164193"/>
<path d="M44.8102 5.74259C45.4127 5.04127 46.0778 4.75409 46.8802 4.8478C47.775 4.9536 48.3477 5.52191 48.3984 6.48019C48.458 7.57449 48.4222 8.67182 48.4312 9.76915C48.4312 9.9082 48.3775 9.9475 48.2433 9.95959C47.5811 10.0261 47.5692 10.0201 47.5692 9.35198C47.5692 8.61741 47.5692 7.87981 47.5692 7.14523C47.5692 6.15371 47.2142 5.67608 46.4626 5.63981C45.5708 5.59749 44.9265 6.15068 44.843 7.06059C44.7625 7.91306 44.8012 8.77158 44.8191 9.62707C44.8281 10.0412 44.5865 9.94145 44.3628 9.95959C44.1122 9.97773 43.9542 9.96866 43.9601 9.618C43.981 8.14885 43.981 6.67668 43.9601 5.2045C43.9542 4.85687 44.1272 4.875 44.3538 4.8871C44.5716 4.89919 44.8669 4.79338 44.8132 5.21055C44.7953 5.34961 44.8132 5.49471 44.8132 5.74259H44.8102Z" fill="#164193"/>
<path d="M44.8609 16.9518C45.2367 16.5316 45.6692 16.2445 46.218 16.1417C47.423 15.918 48.3506 16.6012 48.4073 17.8376C48.455 18.8956 48.4222 19.9597 48.4341 21.0207C48.4341 21.2021 48.3626 21.2323 48.2045 21.2414C47.5721 21.2656 47.5721 21.2716 47.5721 20.6338C47.5721 19.8992 47.5721 19.1616 47.5721 18.427C47.5721 17.4446 47.2083 16.9488 46.4656 16.9065C45.6006 16.8581 44.9265 17.4385 44.843 18.3363C44.7624 19.1888 44.7982 20.0473 44.8221 20.9028C44.834 21.3109 44.6073 21.2353 44.3747 21.2384C44.145 21.2414 43.9541 21.2807 43.9601 20.9119C43.984 19.4427 43.984 17.9706 43.9601 16.4984C43.9541 16.1326 44.1361 16.1598 44.3717 16.1689C44.5984 16.178 44.8758 16.0933 44.8161 16.5044C44.7982 16.6374 44.7774 16.7886 44.8609 16.9549V16.9518Z" fill="#164193"/>
<path d="M208.279 24.4365C208.279 23.5568 208.288 22.6772 208.273 21.8005C208.27 21.5738 208.333 21.5103 208.551 21.5224C208.906 21.5405 209.264 21.5345 209.622 21.5224C209.795 21.5164 209.845 21.5798 209.842 21.7491C209.836 23.5568 209.836 25.3615 209.842 27.1693C209.842 27.3476 209.78 27.396 209.616 27.3899C209.258 27.3809 208.9 27.3718 208.545 27.3899C208.315 27.405 208.27 27.3204 208.273 27.1058C208.285 26.214 208.279 25.3222 208.279 24.4335V24.4365Z" fill="#164193"/>
<path d="M42.0542 27.3809C42.8178 27.3899 43.4292 27.6136 43.9482 28.0852C44.0974 28.2212 44.1421 28.3029 43.9601 28.4721C43.7066 28.7079 43.5515 28.8107 43.2145 28.5296C42.5165 27.9522 41.4517 28.0852 40.885 28.7442C40.3034 29.4153 40.3243 30.6154 40.9238 31.2744C41.4994 31.9062 42.5583 31.9636 43.3129 31.4195C43.4083 31.35 43.474 31.1505 43.6261 31.2502C43.8021 31.3681 43.9601 31.5223 44.1033 31.6825C44.1749 31.7641 44.0586 31.8337 44.0019 31.882C43.1489 32.5833 42.1884 32.7859 41.1564 32.411C40.1662 32.0513 39.683 31.2653 39.6174 30.2254C39.5219 28.7321 40.2885 27.6771 41.6247 27.4202C41.7887 27.3899 41.9558 27.3899 42.0542 27.3809Z" fill="#164193"/>
<path d="M31.9727 18.6233C31.9727 18.0943 31.9578 17.659 31.9787 17.2267C31.9906 16.9789 31.919 16.861 31.6625 16.9093C31.3106 16.9758 31.3315 16.7552 31.3195 16.5043C31.3076 16.2322 31.3851 16.1173 31.6566 16.1717C31.9459 16.2292 31.9906 16.0811 31.9787 15.8271C31.9608 15.4795 31.9906 15.1258 31.9697 14.7782C31.9519 14.5182 32.0294 14.4275 32.2978 14.4094C32.8258 14.3701 32.8258 14.3489 32.8258 14.8809C32.8258 15.2316 32.8347 15.5792 32.8228 15.9299C32.8168 16.1204 32.8735 16.1808 33.0614 16.1748C33.4551 16.1596 33.8488 16.1899 34.2396 16.1657C34.5468 16.1476 34.4901 16.3501 34.4782 16.5164C34.4663 16.6766 34.5945 16.9275 34.2455 16.9124C33.8518 16.8942 33.4581 16.9184 33.0674 16.9033C32.8825 16.8972 32.8198 16.9547 32.8228 17.1482C32.8317 17.9795 32.8168 18.8108 32.8317 19.6421C32.8496 20.4432 33.1956 20.6669 33.9473 20.3948C34.0934 20.3404 34.2903 20.1288 34.3678 20.4885C34.4245 20.7515 34.6422 21.0357 34.1799 21.1626C33.8787 21.2442 33.5834 21.3168 33.2672 21.3107C32.5663 21.2987 32.1547 20.951 32.0264 20.2588C31.919 19.6844 32.0026 19.104 31.9727 18.6233Z" fill="#164193"/>
<path d="M20.0181 16.1871C20.6147 16.1448 21.0153 16.3866 21.2201 16.9126C21.6318 17.9767 22.0404 19.0408 22.4759 20.1653C22.9083 19.0226 23.32 17.9404 23.7286 16.8582C23.7465 16.8129 23.7644 16.7675 23.7793 16.7222C24 16.1388 24.1342 16.0632 24.7427 16.1629C25.0082 16.2083 24.8352 16.3594 24.7994 16.4471C24.4265 17.3963 24.0418 18.3425 23.66 19.2917C23.4273 19.8721 23.1768 20.4465 22.965 21.0329C22.8845 21.2596 22.7324 21.2596 22.5743 21.2294C22.3774 21.1901 22.115 21.3805 21.9867 21.0662C21.3365 19.4519 20.6833 17.8377 20.0151 16.1871H20.0181Z" fill="#164193"/>
<path d="M48.4312 28.841C48.4312 29.9474 48.4222 31.0568 48.4371 32.1632C48.4401 32.4444 48.3685 32.5381 48.0822 32.5229C47.4827 32.4927 47.5722 32.5895 47.5722 32.003C47.5692 29.8476 47.5811 27.6923 47.5602 25.5369C47.5572 25.153 47.7004 25.1288 48.0106 25.1198C48.3506 25.1107 48.4491 25.1984 48.4401 25.552C48.4133 26.6463 48.4312 27.7437 48.4312 28.838V28.841Z" fill="#164193"/>
<path d="M17.1487 5.72772C17.5722 5.18359 18.0375 4.88735 18.64 4.82689C18.8965 4.79968 19.0069 4.84805 19.0039 5.14127C18.992 5.73377 19.0069 5.73377 18.4461 5.79423C17.7094 5.87282 17.1666 6.51973 17.1517 7.36313C17.1397 8.12189 17.1397 8.88065 17.1546 9.64243C17.1606 9.89334 17.092 9.99914 16.8415 9.95984C16.749 9.94473 16.6506 9.94775 16.5551 9.95984C16.3642 9.981 16.2837 9.92659 16.2837 9.70894C16.2926 8.19142 16.2926 6.67088 16.2837 5.15336C16.2837 4.95083 16.3374 4.86014 16.5432 4.89037C16.5909 4.89641 16.6386 4.89944 16.6864 4.89037C17.0443 4.82991 17.2203 4.95083 17.1487 5.34381C17.1308 5.43752 17.1487 5.53426 17.1487 5.73075V5.72772Z" fill="#164193"/>
<path d="M35.4982 18.7023C35.4982 17.9799 35.5161 17.2543 35.4893 16.5319C35.4803 16.2205 35.5847 16.1207 35.8711 16.1691C35.9069 16.1752 35.9427 16.1752 35.9785 16.1691C36.2857 16.1147 36.3811 16.2235 36.3752 16.553C36.3543 17.9889 36.3543 19.4218 36.3752 20.8577C36.3811 21.1902 36.2767 21.29 35.9755 21.2386C35.9278 21.2295 35.88 21.2295 35.8323 21.2386C35.5698 21.2839 35.4833 21.1872 35.4893 20.9091C35.5102 20.1745 35.4953 19.4369 35.4953 18.7023H35.4982Z" fill="#164193"/>
<path d="M45.1889 29.9593C45.1889 29.2248 45.1979 28.4872 45.183 27.7526C45.18 27.5228 45.2337 27.414 45.4753 27.4473C45.5797 27.4624 45.69 27.4563 45.7974 27.4473C45.9644 27.4352 46.0301 27.4956 46.0301 27.671C46.0241 29.2157 46.0271 30.7604 46.0301 32.3021C46.0301 32.4502 45.9853 32.5288 45.8243 32.5168C45.7169 32.5077 45.6095 32.5047 45.5021 32.5168C45.2546 32.55 45.174 32.4563 45.18 32.1993C45.1949 31.4527 45.186 30.703 45.186 29.9563L45.1889 29.9593Z" fill="#164193"/>
<path d="M210.069 19.7754C210.057 20.3165 209.616 20.7337 209.064 20.7307C208.5 20.7246 208.062 20.2772 208.077 19.718C208.092 19.1527 208.527 18.7597 209.121 18.7748C209.681 18.79 210.084 19.2162 210.069 19.7754Z" fill="#164193"/>
<path d="M46.2031 25.921C46.2061 26.2777 45.9555 26.5256 45.5916 26.5196C45.2516 26.5165 45.0011 26.2717 44.9951 25.9331C44.9891 25.5976 45.2755 25.3134 45.6125 25.3225C45.9406 25.3285 46.2001 25.5915 46.2031 25.921Z" fill="#164193"/>
<path d="M35.9366 15.2406C35.5936 15.2406 35.3371 14.9988 35.3311 14.6693C35.3222 14.3246 35.5906 14.0556 35.9396 14.0586C36.2916 14.0586 36.5541 14.3246 36.5421 14.6723C36.5332 15.0108 36.2886 15.2406 35.9366 15.2406Z" fill="#164193"/>
<path d="M73.6855 24.6964C73.3634 24.4576 73.092 24.2793 72.8474 24.0707C72.6863 23.9347 72.57 23.9498 72.4149 24.0737C72.1763 24.2702 71.9198 24.4425 71.6305 24.6571C71.6543 24.3246 71.7647 24.0616 71.8661 23.8107C71.9854 23.5175 71.9138 23.3512 71.6573 23.2001C71.4247 23.061 71.2129 22.8827 70.9176 22.6681C71.3143 22.6681 71.6334 22.656 71.9526 22.6741C72.1584 22.6862 72.2568 22.6046 72.3105 22.4141C72.403 22.0907 72.5074 21.7733 72.6297 21.3833C72.752 21.7672 72.8623 22.0846 72.9548 22.4081C73.0085 22.6015 73.1069 22.6801 73.3127 22.6711C73.6289 22.656 73.948 22.6681 74.3477 22.6681C74.0196 22.9069 73.7661 23.1094 73.4976 23.2847C73.3216 23.3966 73.2978 23.5084 73.3724 23.7019C73.4887 24.0012 73.5692 24.3156 73.6915 24.6995L73.6855 24.6964Z" fill="#F4FD19"/>
<path d="M90.1053 22.668C90.505 22.668 90.8242 22.6559 91.1433 22.674C91.3521 22.6861 91.4446 22.5954 91.4983 22.408C91.5907 22.0845 91.6951 21.7671 91.8114 21.3862C91.9308 21.752 92.0471 22.0573 92.1276 22.3717C92.1843 22.5984 92.2917 22.6891 92.5243 22.674C92.8285 22.6559 93.1387 22.668 93.5235 22.668C93.1895 22.9158 92.927 23.1214 92.6496 23.3058C92.5034 23.4056 92.4766 23.4962 92.5362 23.6625C92.6496 23.9739 92.7391 24.2943 92.8614 24.6903C92.5959 24.4938 92.3782 24.3669 92.1992 24.1945C91.9397 23.9497 91.719 23.9134 91.4476 24.1825C91.2716 24.3578 91.0479 24.4817 90.7735 24.6782C90.8779 24.3366 90.9375 24.0615 91.0449 23.8076C91.1553 23.5446 91.1344 23.3693 90.8689 23.2181C90.6243 23.0791 90.4066 22.8856 90.1053 22.6649V22.668Z" fill="#F4FD19"/>
<path d="M92.8613 13.4692C92.5451 13.2364 92.2737 13.049 92.0172 12.8435C91.871 12.7256 91.7607 12.7225 91.6116 12.8404C91.361 13.0399 91.0955 13.2243 90.7615 13.4722C90.8838 13.0853 90.9703 12.78 91.0777 12.4807C91.1433 12.2963 91.1254 12.1754 90.9464 12.0605C90.678 11.8882 90.4304 11.6887 90.1083 11.4469C90.499 11.4469 90.8062 11.4348 91.1134 11.4499C91.3282 11.462 91.4386 11.3864 91.4952 11.1748C91.5817 10.8513 91.6921 10.5339 91.8084 10.1621C91.9307 10.54 92.0411 10.8634 92.1335 11.1929C92.1872 11.3864 92.2886 11.462 92.4914 11.4499C92.7987 11.4348 93.1089 11.4469 93.5175 11.4469C93.1745 11.6978 92.909 11.9003 92.6346 12.0877C92.5093 12.1754 92.4676 12.254 92.5272 12.4142C92.6465 12.7377 92.736 13.0732 92.8583 13.4662L92.8613 13.4692Z" fill="#F4FD19"/>
<path d="M72.6358 10.232C72.8207 10.625 72.773 11.1873 73.0951 11.3807C73.3904 11.5591 73.8736 11.417 74.2882 11.4986C74.0317 11.6861 73.7811 11.8856 73.5157 12.0609C73.3397 12.1758 73.277 12.2846 73.3665 12.4992C73.4888 12.7955 73.5664 13.1129 73.6827 13.4847C73.4321 13.3033 73.2144 13.1794 73.0414 13.0101C72.761 12.735 72.5165 12.726 72.2331 13.001C72.0571 13.1703 71.8424 13.2973 71.5769 13.4908C71.7022 13.0887 71.7917 12.7683 71.905 12.4539C71.9647 12.2876 71.9318 12.1909 71.7887 12.0942C71.5083 11.9037 71.2369 11.6951 70.8969 11.4442C71.3771 11.4442 71.8543 11.5803 72.1585 11.408C72.4747 11.2266 72.4359 10.6794 72.591 10.3046C72.6 10.2834 72.6149 10.2623 72.6328 10.229L72.6358 10.232Z" fill="#F4FD19"/>
<path d="M75.6781 28.7622C75.7616 28.463 75.8302 28.1546 75.9376 27.8644C76.0241 27.6377 76.0062 27.4926 75.7885 27.3596C75.529 27.1994 75.2903 27.0029 74.9712 26.7671C75.3828 26.7671 75.7109 26.758 76.039 26.7701C76.2239 26.7762 76.3164 26.7127 76.3641 26.5253C76.4506 26.2048 76.564 25.8935 76.6892 25.5005C76.8145 25.8904 76.9308 26.1988 77.0143 26.5162C77.068 26.7218 77.1754 26.7792 77.3693 26.7701C77.6795 26.758 77.9897 26.7671 78.4102 26.7671C78.0911 26.9999 77.8495 27.1964 77.59 27.3626C77.3961 27.4866 77.3454 27.6105 77.4349 27.8372C77.5542 28.1335 77.6288 28.4448 77.7361 28.8015C77.4259 28.5718 77.1515 28.3814 76.8891 28.1758C76.7429 28.0579 76.6326 28.0609 76.4834 28.1758C76.2239 28.3844 75.9435 28.5718 75.6751 28.7653L75.6781 28.7622Z" fill="#F4FD19"/>
<path d="M88.778 28.7623C88.5334 28.59 88.2739 28.4389 88.0532 28.2394C87.8265 28.0338 87.6565 28.058 87.4447 28.2454C87.2329 28.4328 86.9943 28.584 86.702 28.7986C86.8273 28.3996 86.9168 28.0792 87.0331 27.7678C87.0957 27.5985 87.0569 27.5048 86.9168 27.4081C86.6453 27.2206 86.3829 27.0181 86.0369 26.7642C86.4336 26.7642 86.7378 26.7521 87.042 26.7672C87.2657 26.7793 87.388 26.7158 87.4447 26.477C87.5193 26.1626 87.6386 25.8603 87.7549 25.4976C87.8652 25.8422 87.9756 26.1324 88.0502 26.4316C88.1128 26.6765 88.2202 26.7944 88.4916 26.7702C88.7869 26.743 89.0852 26.7642 89.4759 26.7642C89.1508 27 88.8973 27.2025 88.6258 27.3778C88.4588 27.4897 88.417 27.6046 88.4827 27.795C88.593 28.1124 88.6795 28.4359 88.778 28.7563V28.7623Z" fill="#F4FD19"/>
<path d="M82.2221 4.56982C82.3474 4.95978 82.4547 5.28324 82.5502 5.60972C82.5979 5.76993 82.6725 5.84248 82.8514 5.83644C83.1944 5.82132 83.5374 5.83341 83.958 5.83341C83.6269 6.07525 83.3585 6.28081 83.0781 6.47125C82.926 6.57403 82.8842 6.67681 82.9528 6.86121C83.0692 7.16955 83.1557 7.49301 83.272 7.8739C82.9499 7.63509 82.6755 7.44464 82.413 7.23908C82.2788 7.13328 82.1744 7.13026 82.0401 7.23908C81.7777 7.44464 81.5062 7.63509 81.1722 7.87995C81.2945 7.49603 81.3839 7.18769 81.4913 6.8854C81.5569 6.701 81.539 6.58008 81.3601 6.46521C81.0827 6.28686 80.8232 6.07827 80.4891 5.83341C80.8948 5.83341 81.2229 5.8183 81.548 5.83946C81.7747 5.85457 81.8642 5.75482 81.9178 5.5553C82.0043 5.24394 82.1087 4.93862 82.2221 4.56982Z" fill="#F4FD19"/>
<path d="M91.5757 17.0455C91.9695 17.0455 92.2767 17.0364 92.5809 17.0485C92.7897 17.0576 92.906 17.0062 92.9597 16.7765C93.0373 16.456 93.1566 16.1447 93.2818 15.7607C93.4071 16.1507 93.5264 16.4742 93.6159 16.8037C93.6666 16.9941 93.765 17.0515 93.947 17.0455C94.2661 17.0334 94.5853 17.0455 94.9909 17.0455C94.6926 17.2631 94.466 17.4445 94.2214 17.6017C94.0126 17.7347 93.9291 17.8708 94.0394 18.1307C94.1558 18.4028 94.2214 18.7021 94.3317 19.0678C94.0156 18.8351 93.7471 18.6507 93.4966 18.4481C93.3385 18.3182 93.2192 18.3242 93.0611 18.4512C92.8135 18.6567 92.5451 18.8381 92.2349 19.0678C92.3512 18.693 92.4348 18.3756 92.5511 18.0672C92.6256 17.8708 92.5749 17.7589 92.4079 17.6501C92.1484 17.4808 91.9038 17.2873 91.5728 17.0485L91.5757 17.0455Z" fill="#F4FD19"/>
<path d="M72.1913 19.0767C71.8871 18.8561 71.6276 18.6868 71.3949 18.4873C71.2189 18.3361 71.0877 18.3271 70.9087 18.4812C70.6731 18.6807 70.4136 18.853 70.0945 19.0858C70.2078 18.7321 70.2824 18.4419 70.3927 18.1668C70.4882 17.928 70.4673 17.7739 70.2317 17.6348C69.9692 17.4776 69.7336 17.2781 69.4293 17.0544C69.8201 17.0544 70.1481 17.0423 70.4733 17.0604C70.6761 17.0725 70.7745 17.006 70.8282 16.8065C70.9147 16.4831 71.0251 16.1657 71.1473 15.7817C71.2696 16.1596 71.383 16.4861 71.4784 16.8186C71.5291 16.997 71.6186 17.0665 71.8065 17.0574C72.1257 17.0423 72.4478 17.0544 72.8684 17.0544C72.582 17.263 72.3643 17.4444 72.1287 17.5895C71.8811 17.7406 71.7856 17.9008 71.9169 18.1971C72.0332 18.454 72.0929 18.7382 72.1973 19.0798L72.1913 19.0767Z" fill="#F4FD19"/>
<path d="M87.7699 6.08457C87.8803 6.42616 87.9966 6.67102 88.0354 6.92797C88.095 7.29979 88.2978 7.38443 88.6289 7.35118C88.8854 7.327 89.1449 7.34513 89.4879 7.34513C89.1807 7.57185 88.9451 7.76834 88.6886 7.92856C88.4798 8.05855 88.4261 8.1976 88.5186 8.43037C88.6319 8.71755 88.7065 9.01682 88.8168 9.37353C88.5037 9.14378 88.2352 8.96543 87.9906 8.76289C87.8355 8.63291 87.7252 8.61779 87.5611 8.75382C87.3165 8.95938 87.0451 9.13774 86.726 9.37353C86.8333 9.0138 86.9049 8.70546 87.0213 8.41828C87.1107 8.19458 87.069 8.06762 86.8721 7.94368C86.6126 7.77741 86.374 7.58395 86.0519 7.35118C86.4605 7.35118 86.7886 7.34211 87.1137 7.3542C87.2986 7.36025 87.3911 7.30281 87.4388 7.11237C87.5194 6.79193 87.6387 6.48057 87.7669 6.08154L87.7699 6.08457Z" fill="#F4FD19"/>
<path d="M75.6363 9.37927C75.7407 9.04977 75.8093 8.77468 75.9137 8.51169C76.0241 8.2366 75.9972 8.04918 75.7198 7.89198C75.4812 7.75897 75.2724 7.57457 74.9712 7.3539C75.3858 7.3539 75.7169 7.34785 76.0479 7.3539C76.218 7.35995 76.3045 7.30856 76.3492 7.1302C76.4357 6.80675 76.552 6.48934 76.6862 6.0752C76.7787 6.37144 76.8413 6.5891 76.9159 6.80372C77.1456 7.44761 76.9636 7.32972 77.6318 7.34483C77.8584 7.35088 78.0851 7.34483 78.4072 7.34483C78.0732 7.58969 77.8047 7.79525 77.5274 7.98267C77.3842 8.07941 77.3454 8.18219 77.4021 8.34542C77.5095 8.66283 77.6079 8.98327 77.7332 9.37927C77.4051 9.13744 77.1247 8.95001 76.8652 8.73841C76.725 8.62656 76.6296 8.6326 76.4953 8.74143C76.2359 8.95001 75.9614 9.13744 75.6363 9.37625V9.37927Z" fill="#F4FD19"/>
<path d="M82.225 26.9912C82.3324 27.3207 82.4427 27.6139 82.5143 27.9132C82.577 28.1762 82.6933 28.2971 82.9766 28.2699C83.257 28.2427 83.5434 28.2639 83.9162 28.2639C83.5941 28.5027 83.3405 28.7022 83.0721 28.8866C82.92 28.9924 82.8842 29.0952 82.9498 29.2766C83.0661 29.5879 83.1526 29.9114 83.266 30.2832C82.9438 30.0474 82.6635 29.8479 82.392 29.6363C82.2668 29.5396 82.1713 29.5365 82.046 29.6363C81.7836 29.8418 81.5121 30.0353 81.1721 30.2832C81.2765 29.9446 81.3272 29.6695 81.4435 29.4217C81.5867 29.1133 81.4913 28.941 81.2288 28.7808C81.0051 28.6478 80.8052 28.4755 80.5129 28.2639C80.8649 28.2639 81.1304 28.2457 81.3928 28.2699C81.7001 28.3001 81.876 28.2185 81.9357 27.8769C81.9864 27.5867 82.1146 27.3086 82.219 26.9912H82.225Z" fill="#F4FD19"/>
</g>
<defs>
<clipPath id="clip0_2006_112">
<rect width="224" height="34.4615" fill="white" transform="translate(0.254761 0.216797)"/>
</clipPath>
</defs>
</svg>
