<svg width="90" height="51" viewBox="0 0 90 51" fill="none" xmlns="http://www.w3.org/2000/svg">
<g clip-path="url(#clip0_665_193)">
<path d="M0.768384 0.225123H6.79321C9.56987 0.225123 11.194 1.48927 11.194 3.44611C11.194 4.64099 10.443 5.52416 9.48256 5.85319V6.00904C10.6526 6.32075 11.5083 7.34246 11.5083 8.72783C11.5083 10.7193 9.81436 11.8622 7.09009 11.8622H0.768384V0.225123ZM6.11215 4.90075C7.00277 4.90075 7.61399 4.4505 7.61399 3.79245C7.61399 3.1344 6.98531 2.70147 6.11215 2.70147H4.22611V4.90075H6.11215ZM6.33917 9.4032C7.26472 9.4032 7.94579 8.901 7.94579 8.20832C7.94579 7.51563 7.26472 7.01344 6.33917 7.01344H4.22611V9.4032H6.33917Z" fill="#222222"/>
<path d="M13.6563 0.225123H22.6848V2.9266H16.9918V4.88343H22.3705V7.11734H16.9918V9.17808H22.842V11.8796H13.6563V0.225123Z" fill="#222222"/>
<path d="M24.6232 6.04368C24.6232 2.44172 27.3126 0 31.0148 0C34.1582 0 36.638 1.85293 36.9872 4.58904L33.774 4.93538C33.512 3.70587 32.3944 2.80538 31.1021 2.80538C29.3034 2.80538 28.0635 4.10416 28.0635 6.061C28.0635 8.01783 29.3034 9.31662 31.0846 9.31662C32.3594 9.31662 33.512 8.43344 33.7914 7.22124L37.0047 7.60222C36.7078 10.3037 34.2106 12.1393 31.0148 12.1393C27.3126 12.1393 24.6232 9.68028 24.6232 6.07831V6.04368Z" fill="#222222"/>
<path d="M41.5102 0.225123H46.592L50.2593 11.8622H46.6968L46.138 10.0959H41.9293L41.3705 11.8622H37.808L41.5102 0.225123ZM45.4744 7.65417L44.1297 3.1344H43.9725L42.6278 7.65417H45.4744Z" fill="#222222"/>
<path d="M51.2722 7.08271V0.225123H54.7299V6.96149C54.7299 8.38149 55.5332 9.28198 56.7731 9.28198C58.013 9.28198 58.8163 8.34686 58.8163 6.96149V0.225123H62.274V7.08271C62.274 10.1478 60.0387 12.1047 56.7731 12.1047C53.5075 12.1047 51.2722 10.1478 51.2722 7.08271Z" fill="#222222"/>
<path d="M64.4744 8.03515H67.7226C67.7226 9.00491 68.5434 9.64564 69.9579 9.64564C71.0755 9.64564 71.7915 9.24735 71.7915 8.52003C71.7915 7.67149 70.831 7.481 69.6261 7.32515C67.6178 7.04807 64.5617 6.80563 64.5617 3.80977C64.5617 1.50659 66.57 0 69.661 0C72.752 0 74.8476 1.66244 74.8476 4.06953H71.7217C71.7217 3.04781 70.9533 2.45903 69.7658 2.45903C68.6656 2.45903 68.0195 2.90928 68.0195 3.56733C68.0195 4.4505 69.1895 4.58904 70.5516 4.77953C72.5599 5.07392 75.2493 5.48953 75.2493 8.31222C75.2493 10.6154 73.1013 12.122 69.8182 12.122C66.5351 12.122 64.4744 10.4422 64.4744 8.03515Z" fill="#222222"/>
<path d="M77.5369 0.225123H86.5654V2.9266H80.8724V4.88343H86.2511V7.11734H80.8724V9.17808H86.7226V11.8796H77.5369V0.225123Z" fill="#222222"/>
<path d="M3.66729 22.5469H0V19.7415H10.7923V22.5469H7.12502V31.3786H3.66729V22.5469Z" fill="#222222"/>
<path d="M20.3273 19.7415L23.9945 31.3786H20.432L19.8732 29.6123H15.6646L15.1057 31.3786H11.5432L15.228 19.7415H20.3273ZM19.2096 27.1706L17.8649 22.6508H17.7078L16.3631 27.1706H19.2096Z" fill="#222222"/>
<path d="M26.6839 19.7415H30.1416V28.452H35.206V31.3786H26.6839V19.7415Z" fill="#222222"/>
<path d="M38.1223 19.7415H47.1508V22.443H41.4578V24.3998H46.8365V26.6337H41.4578V28.6945H47.308V31.396H38.1223V19.7415Z" fill="#222222"/>
<path d="M50.3117 19.7415H54.0139L57.8733 26.9628H58.0305V19.7415H61.2612V31.3786H57.5589L53.6996 24.1747H53.5424V31.3786H50.3117V19.7415Z" fill="#222222"/>
<path d="M67.6353 22.5469H63.968V19.7415H74.7603V22.5469H71.093V31.3786H67.6353V22.5469Z" fill="#222222"/>
<path d="M76.9432 27.5342H80.1914C80.1914 28.504 81.0121 29.1447 82.4267 29.1447C83.5443 29.1447 84.2603 28.7464 84.2603 28.0191C84.2603 27.1706 83.2998 26.9801 82.0948 26.8242C80.0866 26.5472 77.0305 26.3047 77.0305 23.3089C77.0305 21.0057 79.0388 19.4991 82.1298 19.4991C85.2208 19.4991 87.3164 21.1615 87.3164 23.5686H84.1904C84.1904 22.5469 83.4221 21.9581 82.2346 21.9581C81.1344 21.9581 80.4882 22.4084 80.4882 23.0664C80.4882 23.9496 81.6583 24.0881 83.0204 24.2786C85.0287 24.573 87.718 24.9886 87.718 27.8113C87.718 30.1145 85.57 31.6211 82.2869 31.6211C79.0039 31.6211 76.9432 29.9413 76.9432 27.5342Z" fill="#222222"/>
<path d="M0.768384 39.2406H5.34376L8.01564 46.7736H8.17281L10.7748 39.2406H15.4375V50.8777H12.102V43.8816H11.9449L9.44763 50.8777H6.77575L4.2785 43.8989H4.12133V50.8777H0.768384V39.2406Z" fill="#222222"/>
<path d="M28.535 39.2406L32.2023 50.8777H28.6398L28.0809 49.1114H23.8723L23.3135 50.8777H19.751L23.4357 39.2406H28.535ZM27.4173 46.6697L26.0727 42.1499H25.9155L24.5708 46.6697H27.4173Z" fill="#222222"/>
<path d="M38.262 42.0633H34.5947V39.2579H45.3871V42.0633H41.7198V50.895H38.262V42.0633Z" fill="#222222"/>
<path d="M52.9312 42.0633H49.2639V39.2579H60.0562V42.0633H56.3889V50.895H52.9312V42.0633Z" fill="#222222"/>
<path d="M64.3871 39.2406H73.4156V41.9421H67.7226V43.8989H73.1013V46.1328H67.7226V48.1936H73.5728V50.8951H64.3871V39.2406Z" fill="#222222"/>
<path d="M78.2005 39.2406H84.1206C86.9846 39.2406 88.8881 40.8338 88.8881 43.2062C88.8881 45.1111 87.6482 46.4445 85.9368 46.7563L85.7971 46.7909L89.2548 50.8951H85.3954L82.479 47.068H81.6408V50.8951H78.1831V39.2579L78.2005 39.2406ZM83.5094 44.8167C84.6096 44.8167 85.4303 44.228 85.4303 43.2582C85.4303 42.2884 84.6096 41.717 83.5094 41.717H81.6583V44.8167H83.5094Z" fill="#222222"/>
</g>
<defs>
<clipPath id="clip0_665_193">
<rect width="89.2548" height="50.8951" fill="white"/>
</clipPath>
</defs>
</svg>
