<svg width="46" height="30" viewBox="0 0 46 30" fill="none" xmlns="http://www.w3.org/2000/svg">
<g id="Group 30543">
<circle id="Ellipse 132" cx="14.1361" cy="14.9999" r="14.1361" fill="#EC0014"/>
<circle id="Ellipse 133" cx="31.3454" cy="14.9999" r="14.1361" fill="#F79F14"/>
<g id="Vector">
<path fill-rule="evenodd" clip-rule="evenodd" d="M22.7408 3.78271C19.3773 6.36684 17.2093 10.4299 17.2093 14.9993C17.2093 19.5687 19.3773 23.6317 22.7408 26.2158C26.1043 23.6317 28.2724 19.5687 28.2724 14.9993C28.2724 10.4299 26.1043 6.36684 22.7408 3.78271Z" fill="#BB0010"/>
<path fill-rule="evenodd" clip-rule="evenodd" d="M22.7408 26.2158C26.1043 23.6317 28.2724 19.5687 28.2724 14.9993C28.2724 10.4299 26.1043 6.36684 22.7408 3.78271C19.3773 6.36684 17.2093 10.4299 17.2093 14.9993C17.2093 19.5687 19.3773 23.6317 22.7408 26.2158Z" fill="#BB0010"/>
</g>
</g>
</svg>
