<svg width="17" height="17" viewBox="0 0 17 17" fill="none" xmlns="http://www.w3.org/2000/svg">
<path d="M15.1604 8.55029C15.1604 12.4163 12.0264 15.5503 8.1604 15.5503M15.1604 8.55029C15.1604 4.6843 12.0264 1.55029 8.1604 1.55029M15.1604 8.55029C15.1604 7.04499 12.0264 5.8247 8.1604 5.8247C4.29441 5.8247 1.1604 7.04499 1.1604 8.55029M15.1604 8.55029C15.1604 10.0556 12.0264 11.2759 8.1604 11.2759C4.29441 11.2759 1.1604 10.0556 1.1604 8.55029M8.1604 15.5503C4.29441 15.5503 1.1604 12.4163 1.1604 8.55029M8.1604 15.5503C9.6657 15.5503 10.886 12.4163 10.886 8.55029C10.886 4.6843 9.6657 1.55029 8.1604 1.55029M8.1604 15.5503C6.6551 15.5503 5.43482 12.4163 5.43482 8.55029C5.43482 4.6843 6.6551 1.55029 8.1604 1.55029M1.1604 8.55029C1.1604 4.6843 4.29441 1.55029 8.1604 1.55029" stroke="#222222" stroke-width="2"/>
</svg>
