<svg width="44" height="44" viewBox="0 0 44 44" fill="none" xmlns="http://www.w3.org/2000/svg">
<path d="M40.6259 16.3113C39.4331 15.669 38.8826 14.2927 39.3414 13.0082L39.4331 12.6412C40.5342 9.24629 38.6991 5.66791 35.3042 4.56687C34.0197 4.1081 32.6434 4.1081 31.3588 4.56687L30.9918 4.65862C29.7073 5.11739 28.331 4.47512 27.6887 3.37408C25.9454 0.254463 22 -0.93833 18.8804 0.804983C17.7793 1.3555 16.9536 2.27304 16.3113 3.37408C15.669 4.56687 14.2927 5.11739 13.0082 4.65862L12.6412 4.56687C9.24629 3.46583 5.66791 5.3009 4.56687 8.69577C4.1081 9.98032 4.1081 11.3566 4.56687 12.6412L4.65862 13.0082C5.11739 14.2927 4.47512 15.669 3.37408 16.3113C0.254462 18.0546 -0.93833 22 0.804983 25.1196C1.3555 26.2207 2.27304 27.0464 3.37408 27.6887C4.56687 28.331 5.11739 29.7073 4.65862 30.9918L4.56687 31.3588C3.46583 34.7537 5.3009 38.3321 8.69577 39.4331C9.98032 39.8919 11.3566 39.8919 12.6412 39.4331L13.0082 39.3414C14.2927 38.8826 15.669 39.5249 16.3113 40.6259C18.0546 43.7455 22 44.9383 25.1196 43.195C26.2207 42.6445 27.0464 41.727 27.6887 40.6259C28.331 39.4331 29.7073 38.8826 30.9918 39.3414L31.3588 39.4331C34.7537 40.5342 38.3321 38.6991 39.4331 35.3042C39.8919 34.0197 39.8919 32.6434 39.4331 31.3588L39.3414 30.9918C38.8826 29.7073 39.5249 28.331 40.6259 27.6887C43.7455 25.9454 44.9383 22 43.195 18.8804C42.6445 17.7793 41.727 16.9536 40.6259 16.3113ZM38.8826 24.4773C36.13 25.9454 34.8455 29.1568 35.8548 32.0929L35.9465 32.4599C36.4053 33.9279 35.5795 35.4877 34.1114 35.9465C33.5609 36.13 33.0104 36.13 32.4599 35.9465L32.0929 35.8548C29.1568 34.9372 25.9454 36.2218 24.4773 38.8826C23.7433 40.2589 22 40.7177 20.7155 39.9837C20.2567 39.7084 19.8897 39.3414 19.6144 38.8826C18.5134 36.7723 16.3113 35.4877 13.9257 35.4877C13.2834 35.4877 12.6412 35.5795 11.9989 35.763L11.6319 35.8548C10.1638 36.3135 8.60402 35.4877 8.14525 34.0197C7.96174 33.4692 7.96174 32.9186 8.14525 32.3681L8.237 32.0929C9.15454 29.1568 7.86999 25.9454 5.20914 24.4773C3.83284 23.7433 3.37408 22 4.1081 20.7155C4.38336 20.2567 4.75038 19.8897 5.20914 19.6144C7.86999 18.1464 9.15454 14.935 8.237 11.9989L8.14525 11.6319C7.68648 10.1638 8.51226 8.60402 9.98032 8.14525C10.5308 7.96174 11.0814 7.96174 11.6319 8.14525L11.9989 8.237C14.935 9.15454 18.1464 7.86999 19.6144 5.20914C20.3484 3.83284 22.0918 3.37408 23.3763 4.1081C23.8351 4.38336 24.2021 4.75038 24.4773 5.20914C25.9454 7.96174 29.1568 9.24629 32.0929 8.32876L32.4599 8.237C33.9279 7.77824 35.4877 8.60402 35.9465 10.0721C36.13 10.6226 36.13 11.1731 35.9465 11.7236L35.8548 11.9071C34.9372 14.8432 36.2218 18.0546 38.8826 19.5227C40.2589 20.2567 40.7177 22 39.9837 23.2845C39.8001 23.8351 39.4331 24.2021 38.8826 24.4773Z" fill="#222222"/>
<path d="M28.7897 15.2103C28.0557 14.4762 26.9547 14.4762 26.2207 15.2103L15.2103 26.2207C14.4762 26.8629 14.3845 28.0557 15.0267 28.7897C15.669 29.5238 16.8618 29.6155 17.5958 28.9733C17.6876 28.8815 17.7793 28.8815 17.7793 28.7897L28.7897 17.7793C29.5238 17.0453 29.5238 15.9443 28.7897 15.2103Z" fill="#222222"/>
<path d="M18.3299 17.4123C18.3299 15.8525 17.1371 14.6597 15.5773 14.6597C14.0175 14.6597 12.8247 15.8525 12.8247 17.4123C12.8247 18.9721 14.0175 20.1649 15.5773 20.1649C17.1371 20.1649 18.3299 18.9721 18.3299 17.4123Z" fill="#222222"/>
<path d="M28.4227 23.8351C26.8629 23.8351 25.6701 25.0279 25.6701 26.5877C25.6701 28.1475 26.8629 29.3403 28.4227 29.3403C29.9825 29.3403 31.1753 28.1475 31.1753 26.5877C31.1753 25.0279 29.9825 23.8351 28.4227 23.8351Z" fill="#222222"/>
</svg>
