<svg width="44" height="44" viewBox="0 0 44 44" fill="none" xmlns="http://www.w3.org/2000/svg">
<path d="M39.5973 11.5565H38.033V7.30596C38.054 5.70851 37.098 4.26135 35.6211 3.65311C34.4676 3.19172 33.162 3.32977 32.1308 4.02014C31.5558 2.95227 30.5316 2.19723 29.3396 1.96475C28.1493 1.73229 26.9154 2.04514 25.9804 2.81942C25.2184 1.68336 23.9407 1 22.5722 1C21.1985 1 19.9156 1.67812 19.1413 2.8107C18.2465 2.08188 17.086 1.76381 15.943 1.93508C13.9033 2.28289 12.4229 4.0656 12.4544 6.13496V11.5529H5.80605C5.64002 11.5546 5.47747 11.5948 5.32717 11.67H5.30096L1.46112 13.5943C0.564521 14.0417 0 14.9575 0 15.959C0 16.9605 0.564521 17.8763 1.46112 18.3238L5.30096 20.2428C5.31319 20.2463 5.32717 20.2498 5.33941 20.2516C5.48447 20.3232 5.64352 20.3599 5.80607 20.3617H7.5748C7.84221 20.9122 8.18653 21.4226 8.59727 21.877L14.2443 27.9365C15.0098 28.7615 15.4345 29.8451 15.4363 30.9706V32.0717C13.9454 32.7236 12.9806 34.197 12.9789 35.8241V38.5454C12.9806 40.8105 14.8158 42.6457 17.0809 42.6474H31.9351C34.1985 42.6457 36.0336 40.8105 36.0371 38.5454V35.8189C36.0336 34.1917 35.0688 32.7183 33.5763 32.0664V31.6644C33.6112 30.5983 34.1286 29.6055 34.985 28.9676C36.9145 27.4314 38.0366 25.0981 38.0296 22.6321V20.3617H39.5973C42.0285 20.3582 43.9964 18.3885 43.9999 15.9591C44.0069 14.7898 43.5385 13.6695 42.7031 12.8533C41.8834 12.0231 40.7648 11.5565 39.5973 11.5565ZM4.68395 17.4344L2.46076 16.3228C2.32094 16.2564 2.23181 16.1148 2.2353 15.9593C2.23355 15.8055 2.32094 15.6622 2.45902 15.5957L4.68041 14.4842L4.68395 17.4344ZM6.92109 13.7886L12.4544 13.7903V17.7508C12.4544 17.8504 12.4142 17.9448 12.3443 18.0147C12.2744 18.0846 12.18 18.1248 12.0804 18.1248H6.9247L6.92109 13.7886ZM33.7981 38.5474C33.7964 39.5769 32.9627 40.4106 31.9332 40.4123H17.0773C16.0478 40.4106 15.2141 39.5769 15.2124 38.5474V35.8192C15.2124 34.7897 16.0478 33.956 17.0773 33.956H31.9315C32.9609 33.956 33.7946 34.7897 33.7963 35.8192L33.7981 38.5474ZM35.7923 22.6409C35.7958 24.4271 34.9831 26.1172 33.5866 27.2288C32.1989 28.2897 31.3705 29.9256 31.339 31.6734V31.7241H17.6732V30.9778C17.6715 29.2895 17.0318 27.6623 15.8835 26.423L10.2419 20.3617H12.0753C13.5155 20.3599 14.6829 19.1924 14.6847 17.7523V6.13459C14.6602 5.17857 15.3244 4.34138 16.2594 4.14738C16.8012 4.05999 17.3535 4.21379 17.7712 4.57034C18.1889 4.92688 18.4284 5.4477 18.4266 5.99651V11.4023C18.4266 12.0193 18.9282 12.5209 19.5452 12.5209C20.1639 12.5209 20.6638 12.0193 20.6638 11.4023V5.10703C20.6935 4.08456 21.5307 3.27011 22.5531 3.27011C23.5756 3.27011 24.4127 4.08456 24.4425 5.10703V11.4023C24.4425 12.0193 24.9424 12.5209 25.5611 12.5209C26.178 12.5209 26.6796 12.0193 26.6796 11.4023V5.99651C26.6814 4.96358 27.5186 4.12814 28.5515 4.1264C29.5792 4.13863 30.4093 4.96882 30.4234 5.99651V11.4023C30.4234 12.0193 30.9232 12.5209 31.5419 12.5209C32.1589 12.5209 32.6605 12.0193 32.6605 11.4023V7.20421C32.6605 6.67813 32.9192 6.18354 33.3544 5.8864C33.7861 5.59453 34.3349 5.53685 34.8155 5.73784C35.4324 6.01049 35.8205 6.63095 35.796 7.30559L35.7923 22.6409ZM39.5972 18.1246H38.033V13.7989H39.5972C40.1757 13.8024 40.728 14.0366 41.1318 14.4508C41.539 14.8475 41.7662 15.3946 41.7627 15.9626C41.7592 17.1563 40.7909 18.1229 39.5972 18.1246Z" fill="#222222"/>
</svg>
