<svg width="44" height="44" viewBox="0 0 44 44" fill="none" xmlns="http://www.w3.org/2000/svg">
<path d="M43.9969 21.8163V33.9961C43.9969 36.0162 42.3533 37.6597 40.3332 37.6597H38.2913V42.0624C38.2913 42.5608 37.9788 43.0045 37.5117 43.1748C37.3805 43.2216 37.2445 43.2451 37.1102 43.2451C36.7649 43.2451 36.4306 43.0935 36.2009 42.8186L31.9154 37.6612H25.0179C22.9978 37.6612 21.3542 36.0176 21.3542 33.9975V32.607C21.3542 31.954 21.8838 31.4244 22.5369 31.4244C23.1899 31.4244 23.7195 31.954 23.7195 32.607V33.9975C23.7195 34.7131 24.3023 35.2958 25.0178 35.2958H32.4717C32.8232 35.2958 33.156 35.452 33.381 35.7223L35.9291 38.7892V36.4785C35.9291 35.8255 36.4587 35.2959 37.1118 35.2959H40.3364C41.0519 35.2959 41.6347 34.7131 41.6347 33.9976V21.8178C41.6347 21.1023 41.0519 20.5195 40.3364 20.5195H35.2762C34.6231 20.5195 34.0935 19.9899 34.0935 19.3369C34.0935 18.6838 34.6231 18.1542 35.2762 18.1542H40.3364C42.3565 18.1542 44 19.7978 44 21.8179L43.9969 21.8163ZM14.0815 26.536L7.79598 33.6934C7.56632 33.9684 7.23197 34.1199 6.88673 34.1199C6.75237 34.1199 6.61645 34.0965 6.48522 34.0496C6.01652 33.8809 5.70563 33.4356 5.70563 32.9372V26.5346H3.66367C1.64359 26.5346 3.05176e-05 24.891 3.05176e-05 22.8709V3.6634C3.05176e-05 1.64332 1.64359 -0.000244141 3.66367 -0.000244141H26.01C28.0301 -0.000244141 29.6737 1.64332 29.6737 3.6634V22.8709C29.6737 24.891 28.0301 26.5346 26.01 26.5346H14.0847L14.0815 26.536ZM13.5269 24.1722H26.0086C26.7241 24.1722 27.3068 23.5895 27.3068 22.8739V3.66639C27.3068 2.95084 26.7241 2.36811 26.0086 2.36811L3.6622 2.36498C2.94664 2.36498 2.36391 2.94771 2.36391 3.66327V22.8708C2.36391 23.5863 2.94664 24.1691 3.6622 24.1691H6.88681C7.53985 24.1691 8.06947 24.6987 8.06947 25.3517V29.6624L12.6176 24.5955C12.8426 24.3253 13.1753 24.169 13.5269 24.169V24.1722ZM9.66179 11.889C8.8994 11.889 8.28227 12.5076 8.28227 13.2685C8.28227 14.0309 8.90096 14.648 9.66179 14.648C10.4242 14.648 11.0413 14.0309 11.0413 13.2685C11.0413 12.5061 10.4242 11.889 9.66179 11.889ZM20.0074 11.889C19.245 11.889 18.6278 12.5076 18.6278 13.2685C18.6278 14.0309 19.245 14.648 20.0074 14.648C20.7697 14.648 21.3869 14.0309 21.3869 13.2685C21.3869 12.5061 20.7682 11.889 20.0074 11.889ZM14.8344 11.889C14.072 11.889 13.4549 12.5076 13.4549 13.2685C13.4549 14.0309 14.072 14.648 14.8344 14.648C15.5968 14.648 16.2139 14.0309 16.2139 13.2685C16.2139 12.5061 15.5968 11.889 14.8344 11.889Z" fill="#222222"/>
</svg>
