<svg width="44" height="44" viewBox="0 0 44 44" fill="none" xmlns="http://www.w3.org/2000/svg">
<path d="M39.597 7.74929H38.9552C38.3585 6.189 36.8459 5.15734 35.1563 5.15564H29.6955C26.816 5.1505 24.0301 6.1565 21.8341 7.99224C20.8662 7.19328 19.7785 6.54656 18.6094 6.07609V5.55599C18.6077 4.14452 17.4489 3.00171 16.0196 3H11.4332C10.1634 3.00513 9.08444 3.91874 8.88496 5.15568H8.51201C6.82418 5.1591 5.31331 6.19075 4.71657 7.74934H4.07129C1.8249 7.75105 0.00349428 9.54745 3.05176e-05 11.763V36.5823C0.00176551 38.7978 1.82317 40.596 4.07129 40.5977H39.5971C41.8452 40.596 43.6666 38.7978 43.6683 36.5823V11.763C43.6649 9.54745 41.8434 7.751 39.597 7.74929ZM29.7009 7.34553H35.1563C36.178 7.34724 37.0055 8.16332 37.0072 9.17102V33.7047C37.0054 33.9066 36.8407 34.0692 36.636 34.0692H29.6956C27.293 34.0623 24.9444 34.7586 22.9443 36.0708V9.93237C24.7848 8.26258 27.196 7.33871 29.6956 7.34559L29.7009 7.34553ZM11.433 5.18985H16.0141C16.1112 5.18985 16.2066 5.2292 16.276 5.29763C16.3454 5.36606 16.3836 5.45845 16.3836 5.55597V12.5824L14.9143 11.3609C14.2309 10.7912 13.2334 10.7877 12.5448 11.3523L11.0148 12.6013L11.0582 6.25059V5.556C11.0582 5.45848 11.0981 5.36438 11.1675 5.29595C11.2386 5.22752 11.3342 5.18985 11.433 5.18985ZM8.5119 7.34553H8.82934L8.78944 13.3625C8.78077 14.0742 9.19188 14.7226 9.84238 15.0288C10.4929 15.3334 11.2631 15.2376 11.8164 14.7842L13.7228 13.2324L15.565 14.7619L15.5633 14.7636C16.1149 15.2187 16.8834 15.3197 17.5356 15.0203C18.1878 14.7209 18.6041 14.0759 18.6041 13.3659V8.48158C19.3708 8.87165 20.0838 9.35753 20.7238 9.92896V36.0758C18.7238 34.7652 16.375 34.0689 13.9744 34.0758H7.0322C6.82751 34.0741 6.66272 33.9115 6.66098 33.7097V9.16936C6.66445 8.16166 7.49191 7.34724 8.5119 7.34553ZM2.22028 36.5823V11.763C2.22201 10.7553 3.04945 9.93919 4.07117 9.93919H4.44065V33.7095C4.44239 35.121 5.60115 36.2638 7.03222 36.2655H13.9744C16.2329 36.2604 18.4271 37.0148 20.1914 38.4075H4.07114C3.04942 38.4058 2.22201 37.59 2.22028 36.5823ZM41.4461 36.5823H41.4478C41.4461 37.59 40.6186 38.406 39.5969 38.4077H23.4718C25.2359 37.0134 27.4285 36.2555 29.6888 36.2589H36.6363C38.0674 36.2572 39.2261 35.1144 39.2279 33.7047V9.93914H39.5973C40.6191 9.93914 41.4465 10.7552 41.4482 11.7629L41.4461 36.5823Z" fill="#222222"/>
<path d="M26.3512 16.0297H33.6038C34.2161 16.0297 34.714 15.5404 34.714 14.9347C34.714 14.3308 34.2161 13.8398 33.6038 13.8398H26.3512C25.7372 13.8398 25.241 14.3308 25.241 14.9347C25.241 15.5404 25.7372 16.0297 26.3512 16.0297Z" fill="#222222"/>
<path d="M26.3512 22.153H33.6038C34.2161 22.153 34.714 21.6637 34.714 21.0581C34.714 20.4542 34.2161 19.9632 33.6038 19.9632H26.3512C25.7372 19.9632 25.241 20.4542 25.241 21.0581C25.241 21.6637 25.7372 22.153 26.3512 22.153Z" fill="#222222"/>
<path d="M26.3512 28.276H33.6038C34.2161 28.276 34.714 27.7867 34.714 27.181C34.714 26.5771 34.2161 26.0861 33.6038 26.0861H26.3512C25.7372 26.0861 25.241 26.5771 25.241 27.181C25.241 27.7867 25.7372 28.276 26.3512 28.276Z" fill="#222222"/>
<path d="M10.0626 22.153H17.317C17.9293 22.153 18.4272 21.6637 18.4272 21.0581C18.4272 20.4542 17.9293 19.9632 17.317 19.9632H10.0626C9.45031 19.9632 8.95246 20.4542 8.95246 21.0581C8.95246 21.6637 9.45031 22.153 10.0626 22.153Z" fill="#222222"/>
<path d="M10.0626 28.276H17.317C17.9293 28.276 18.4272 27.7867 18.4272 27.181C18.4272 26.5771 17.9293 26.0861 17.317 26.0861H10.0626C9.45031 26.0861 8.95246 26.5771 8.95246 27.181C8.95246 27.7867 9.45031 28.276 10.0626 28.276Z" fill="#222222"/>
</svg>
