<svg width="16" height="17" viewBox="0 0 16 17" fill="none" xmlns="http://www.w3.org/2000/svg">
<path fill-rule="evenodd" clip-rule="evenodd" d="M9.48038 2.042H10.4676V5.12601C10.4676 5.53476 10.4405 5.95632 10.9612 5.95632C11.2882 5.95632 11.3314 5.65029 11.3314 5.00739V2.042H12.3187V6.5494H11.3314V6.31217L10.9612 6.19355C10.9105 6.32982 10.8258 6.45202 10.7144 6.5494C10.6074 6.62603 10.4776 6.66761 10.3442 6.66801C10.1719 6.66917 10.0021 6.62836 9.85059 6.5494C9.74613 6.49499 9.66038 6.41257 9.60378 6.31217C9.54448 6.2001 9.50289 6.08017 9.48038 5.95632C9.46557 5.81208 9.48038 5.4522 9.48038 5.00739V2.042ZM6.14849 3.93985C6.14849 3.47393 6.06951 3.12828 6.14849 2.87231C6.24842 2.63207 6.4202 2.42569 6.6421 2.27923C6.85178 2.11817 7.11424 2.03408 7.38252 2.042C7.63546 2.02761 7.88853 2.06815 8.12294 2.16062C8.27884 2.24323 8.4072 2.36661 8.49315 2.51647C8.60105 2.66106 8.68435 2.82121 8.73996 2.99093C8.81468 3.26212 8.8561 3.54079 8.86336 3.82124V4.65155C8.85688 4.97113 8.81552 5.28918 8.73996 5.60047C8.69595 5.81096 8.61231 6.01195 8.49315 6.19355C8.41112 6.34619 8.28175 6.47055 8.12294 6.5494C7.92939 6.63372 7.71832 6.67429 7.50592 6.66801C7.25366 6.67211 7.00274 6.63191 6.7655 6.5494C6.61787 6.51255 6.48746 6.42898 6.39529 6.31217C6.28031 6.12855 6.19697 5.92827 6.14849 5.71909C6.14478 5.73036 6.14849 5.20121 6.14849 4.77016V3.93985ZM3.80382 0.5L4.54424 2.87231C4.68492 2.22728 4.94654 1.43006 5.16126 0.5H5.90168L5.03785 4.05847V6.5494H4.17403V4.05847L3.0634 0.5H3.80382ZM15.4037 14.378C15.3418 14.9125 15.0845 15.4085 14.6778 15.7777C14.271 16.147 13.7412 16.3655 13.1825 16.3945C9.76544 16.5352 6.35128 16.5352 2.94 16.3945C1.77877 16.3221 0.723669 15.489 0.595329 14.378C0.468224 12.6009 0.468224 10.8175 0.595329 9.04032C0.722435 7.92973 1.77877 6.98317 2.94 6.90524C6.3558 6.76634 9.64204 6.76634 13.0591 6.90524C14.2191 6.98317 15.2754 7.92973 15.4037 9.04032C15.5321 10.8174 15.5321 12.6009 15.4037 14.378ZM7.50592 6.19355C7.99954 6.19355 7.87613 5.52135 7.87613 5.36324V3.46539C7.87613 2.99093 7.79716 2.64042 7.50592 2.63508C7.20852 2.62962 7.13571 2.99093 7.13571 3.46539V5.36324C7.13571 5.65017 7.12831 6.19355 7.50592 6.19355ZM1.82936 9.39617H2.81659V14.6153H3.92722V9.39617H4.91445V8.44725H1.82936V9.39617ZM6.7655 12.836C6.7655 13.3935 6.65444 13.4884 6.6421 13.5477C6.6159 13.6207 6.5655 13.6835 6.49863 13.7264C6.43176 13.7692 6.3521 13.7898 6.27189 13.7849C6.11023 13.7849 6.06334 13.6857 6.02508 13.5477C6.00904 13.49 6.02508 13.3669 6.02508 12.836V9.87063H5.03785V13.7849C5.05853 13.9861 5.09986 14.1847 5.16126 14.378C5.21687 14.4791 5.30287 14.5618 5.40806 14.6153C5.51516 14.6917 5.64487 14.7333 5.77827 14.7339C5.91113 14.7302 6.03991 14.6889 6.14849 14.6153C6.25893 14.5171 6.34352 14.3951 6.39529 14.2594L6.7655 14.378V14.6153H7.62933V9.87063H6.7655V12.836ZM10.9612 10.1079C10.9041 10.0078 10.8185 9.92554 10.7144 9.87063C10.5597 9.80003 10.3919 9.75971 10.2208 9.75202C10.0986 9.75202 10.0801 9.80812 9.97399 9.87063C9.93697 9.89364 9.35698 10.5823 9.35698 10.5823V8.44725H8.36975V14.6153H9.35698V14.378L9.48038 14.0222L9.72719 14.2594C9.82097 14.4078 9.86416 14.5441 9.97399 14.6153C10.0841 14.686 10.212 14.727 10.3442 14.7339C10.6552 14.7339 10.8551 14.5314 10.9612 14.2594C11.0265 14.0671 11.0679 13.868 11.0846 13.6663V11.1754C11.0846 11.1849 11.0834 10.5783 11.0846 10.4637C11.0646 10.3393 11.0229 10.219 10.9612 10.1079ZM10.0974 12.9546C10.0974 13.3928 10.0999 13.5459 10.0974 13.5477C10.0701 13.6185 10.0198 13.6789 9.95406 13.7202C9.88831 13.7615 9.81052 13.7814 9.73213 13.777C9.65285 13.7795 9.57461 13.759 9.50768 13.7181C9.44074 13.6772 9.3882 13.6178 9.35698 13.5477C9.33476 13.4831 9.35698 13.3558 9.35698 12.9546V11.7685C9.35698 11.3508 9.33723 11.1151 9.35698 11.0568C9.38774 10.9867 9.43923 10.9269 9.50504 10.8848C9.57085 10.8426 9.64809 10.8199 9.72719 10.8196C9.80668 10.8182 9.8847 10.8402 9.95085 10.8826C10.017 10.925 10.0681 10.9857 10.0974 11.0568C10.1184 11.1213 10.0974 11.3735 10.0974 11.7685V12.9546ZM12.6889 12.3616H14.4165V11.8871C14.4165 11.4256 14.382 10.8287 14.2931 10.5823C14.2104 10.3436 14.0093 10.2502 13.7995 10.1079C13.5873 9.9513 13.3266 9.86776 13.0591 9.87063C12.7987 9.87063 12.5173 9.87336 12.3187 9.98925C12.0966 10.1355 11.9248 10.342 11.825 10.5823C11.7325 10.8108 11.7016 11.1888 11.7016 11.7685V13.1919C11.6955 13.5765 11.8075 13.9543 12.0237 14.278C12.1469 14.4178 12.3048 14.5255 12.4828 14.5912C12.7037 14.6832 12.9417 14.7318 13.1825 14.7339C13.3557 14.7433 13.5279 14.7019 13.6761 14.6153C13.8353 14.5341 14.0624 14.4206 14.1697 14.2594C14.3869 13.7203 14.4165 13.9027 14.4165 13.0733V12.836H13.4293V13.3105C13.4293 13.5783 13.4688 13.7987 13.4293 13.9036C13.3993 13.9741 13.348 14.0344 13.282 14.0767C13.216 14.119 13.1384 14.1413 13.0591 14.1408C12.7493 14.1445 12.6889 13.8491 12.6889 13.4291V12.3616ZM12.6889 11.1754C12.6889 10.7872 12.6704 10.8725 12.6889 10.8196C12.7193 10.7493 12.7707 10.6893 12.8366 10.6471C12.9025 10.6049 12.9799 10.5823 13.0591 10.5823C13.1383 10.5823 13.2157 10.6049 13.2815 10.6471C13.3474 10.6893 13.3988 10.7493 13.4293 10.8196C13.4466 10.874 13.4293 10.8137 13.4293 11.1754V11.8871H12.6889V11.1754Z" fill="#222222"/>
</svg>
