<svg width="16" height="16" viewBox="0 0 16 16" fill="none" xmlns="http://www.w3.org/2000/svg">
<g id="social/insta">
<g id="Instagram">
<path fill-rule="evenodd" clip-rule="evenodd" d="M11.4286 16H4.57143C3.35901 16 2.19625 15.5252 1.33894 14.6799C0.481628 13.8347 0 12.6883 0 11.493V4.50704C0 3.3117 0.481628 2.16532 1.33894 1.32008C2.19625 0.474848 3.35901 0 4.57143 0H11.4286C12.641 0 13.8038 0.474848 14.6611 1.32008C15.5184 2.16532 16 3.3117 16 4.50704V11.493C16 12.0848 15.8818 12.6709 15.652 13.2177C15.4223 13.7645 15.0856 14.2614 14.6611 14.6799C14.2366 15.0984 13.7326 15.4304 13.178 15.6569C12.6234 15.8834 12.0289 16 11.4286 16ZM14.5143 4.16901C14.5143 3.42193 14.2133 2.70544 13.6774 2.17716C13.1416 1.64889 12.4149 1.35211 11.6571 1.35211H4.22857C3.47081 1.35211 2.74409 1.64889 2.20827 2.17716C1.67245 2.70544 1.37143 3.42193 1.37143 4.16901V11.493C1.37143 12.24 1.67245 12.9565 2.20827 13.4848C2.74409 14.0131 3.47081 14.3099 4.22857 14.3099H11.6571C12.4149 14.3099 13.1416 14.0131 13.6774 13.4848C14.2133 12.9565 14.5143 12.24 14.5143 11.493V4.16901ZM12.2286 4.61972C12.0251 4.61972 11.8263 4.56024 11.6571 4.44881C11.488 4.33738 11.3561 4.17901 11.2783 3.99371C11.2004 3.80841 11.1801 3.60451 11.2198 3.4078C11.2595 3.21108 11.3574 3.03039 11.5013 2.88857C11.6451 2.74675 11.8284 2.65016 12.0279 2.61103C12.2274 2.57191 12.4342 2.59199 12.6222 2.66874C12.8101 2.7455 12.9708 2.87547 13.0838 3.04224C13.1968 3.209 13.2571 3.40507 13.2571 3.60563C13.2571 3.87459 13.1488 4.13252 12.9559 4.3227C12.763 4.51288 12.5014 4.61972 12.2286 4.61972ZM7.94286 12.0563C7.11783 12.0563 6.31132 11.8151 5.62533 11.3632C4.93935 10.9113 4.40469 10.269 4.08896 9.51752C3.77324 8.76602 3.69062 7.9391 3.85158 7.14132C4.01253 6.34354 4.40982 5.61073 4.99321 5.03556C5.57659 4.46039 6.31987 4.0687 7.12905 3.91001C7.93822 3.75132 8.77696 3.83277 9.53919 4.14404C10.3014 4.45532 10.9529 4.98246 11.4113 5.65878C11.8696 6.33511 12.1143 7.13025 12.1143 7.94366C12.1143 9.03441 11.6748 10.0805 10.8925 10.8518C10.1102 11.623 9.04919 12.0563 7.94286 12.0563ZM7.94286 5.29577C7.41167 5.29577 6.89242 5.45107 6.45075 5.74202C6.00909 6.03298 5.66485 6.44652 5.46158 6.93036C5.2583 7.4142 5.20512 7.9466 5.30875 8.46024C5.41238 8.97388 5.66816 9.44569 6.04376 9.816C6.41937 10.1863 6.89793 10.4385 7.4189 10.5407C7.93988 10.6428 8.47988 10.5904 8.97063 10.39C9.46138 10.1896 9.88084 9.85019 10.1759 9.41475C10.4711 8.97931 10.6286 8.46736 10.6286 7.94366C10.6286 7.2414 10.3456 6.5679 9.84195 6.07132C9.33828 5.57475 8.65515 5.29577 7.94286 5.29577Z" fill="#FF20A7"/>
<path fill-rule="evenodd" clip-rule="evenodd" d="M11.4286 16H4.57143C3.35901 16 2.19625 15.5252 1.33894 14.6799C0.481628 13.8347 0 12.6883 0 11.493V4.50704C0 3.3117 0.481628 2.16532 1.33894 1.32008C2.19625 0.474848 3.35901 0 4.57143 0H11.4286C12.641 0 13.8038 0.474848 14.6611 1.32008C15.5184 2.16532 16 3.3117 16 4.50704V11.493C16 12.0848 15.8818 12.6709 15.652 13.2177C15.4223 13.7645 15.0856 14.2614 14.6611 14.6799C14.2366 15.0984 13.7326 15.4304 13.178 15.6569C12.6234 15.8834 12.0289 16 11.4286 16ZM14.5143 4.16901C14.5143 3.42193 14.2133 2.70544 13.6774 2.17716C13.1416 1.64889 12.4149 1.35211 11.6571 1.35211H4.22857C3.47081 1.35211 2.74409 1.64889 2.20827 2.17716C1.67245 2.70544 1.37143 3.42193 1.37143 4.16901V11.493C1.37143 12.24 1.67245 12.9565 2.20827 13.4848C2.74409 14.0131 3.47081 14.3099 4.22857 14.3099H11.6571C12.4149 14.3099 13.1416 14.0131 13.6774 13.4848C14.2133 12.9565 14.5143 12.24 14.5143 11.493V4.16901ZM12.2286 4.61972C12.0251 4.61972 11.8263 4.56024 11.6571 4.44881C11.488 4.33738 11.3561 4.17901 11.2783 3.99371C11.2004 3.80841 11.1801 3.60451 11.2198 3.4078C11.2595 3.21108 11.3574 3.03039 11.5013 2.88857C11.6451 2.74675 11.8284 2.65016 12.0279 2.61103C12.2274 2.57191 12.4342 2.59199 12.6222 2.66874C12.8101 2.7455 12.9708 2.87547 13.0838 3.04224C13.1968 3.209 13.2571 3.40507 13.2571 3.60563C13.2571 3.87459 13.1488 4.13252 12.9559 4.3227C12.763 4.51288 12.5014 4.61972 12.2286 4.61972ZM7.94286 12.0563C7.11783 12.0563 6.31132 11.8151 5.62533 11.3632C4.93935 10.9113 4.40469 10.269 4.08896 9.51752C3.77324 8.76602 3.69062 7.9391 3.85158 7.14132C4.01253 6.34354 4.40982 5.61073 4.99321 5.03556C5.57659 4.46039 6.31987 4.0687 7.12905 3.91001C7.93822 3.75132 8.77696 3.83277 9.53919 4.14404C10.3014 4.45532 10.9529 4.98246 11.4113 5.65878C11.8696 6.33511 12.1143 7.13025 12.1143 7.94366C12.1143 9.03441 11.6748 10.0805 10.8925 10.8518C10.1102 11.623 9.04919 12.0563 7.94286 12.0563ZM7.94286 5.29577C7.41167 5.29577 6.89242 5.45107 6.45075 5.74202C6.00909 6.03298 5.66485 6.44652 5.46158 6.93036C5.2583 7.4142 5.20512 7.9466 5.30875 8.46024C5.41238 8.97388 5.66816 9.44569 6.04376 9.816C6.41937 10.1863 6.89793 10.4385 7.4189 10.5407C7.93988 10.6428 8.47988 10.5904 8.97063 10.39C9.46138 10.1896 9.88084 9.85019 10.1759 9.41475C10.4711 8.97931 10.6286 8.46736 10.6286 7.94366C10.6286 7.2414 10.3456 6.5679 9.84195 6.07132C9.33828 5.57475 8.65515 5.29577 7.94286 5.29577Z" fill="url(#paint0_radial_1_1238)"/>
<path fill-rule="evenodd" clip-rule="evenodd" d="M11.4286 16H4.57143C3.35901 16 2.19625 15.5252 1.33894 14.6799C0.481628 13.8347 0 12.6883 0 11.493V4.50704C0 3.3117 0.481628 2.16532 1.33894 1.32008C2.19625 0.474848 3.35901 0 4.57143 0H11.4286C12.641 0 13.8038 0.474848 14.6611 1.32008C15.5184 2.16532 16 3.3117 16 4.50704V11.493C16 12.0848 15.8818 12.6709 15.652 13.2177C15.4223 13.7645 15.0856 14.2614 14.6611 14.6799C14.2366 15.0984 13.7326 15.4304 13.178 15.6569C12.6234 15.8834 12.0289 16 11.4286 16ZM14.5143 4.16901C14.5143 3.42193 14.2133 2.70544 13.6774 2.17716C13.1416 1.64889 12.4149 1.35211 11.6571 1.35211H4.22857C3.47081 1.35211 2.74409 1.64889 2.20827 2.17716C1.67245 2.70544 1.37143 3.42193 1.37143 4.16901V11.493C1.37143 12.24 1.67245 12.9565 2.20827 13.4848C2.74409 14.0131 3.47081 14.3099 4.22857 14.3099H11.6571C12.4149 14.3099 13.1416 14.0131 13.6774 13.4848C14.2133 12.9565 14.5143 12.24 14.5143 11.493V4.16901ZM12.2286 4.61972C12.0251 4.61972 11.8263 4.56024 11.6571 4.44881C11.488 4.33738 11.3561 4.17901 11.2783 3.99371C11.2004 3.80841 11.1801 3.60451 11.2198 3.4078C11.2595 3.21108 11.3574 3.03039 11.5013 2.88857C11.6451 2.74675 11.8284 2.65016 12.0279 2.61103C12.2274 2.57191 12.4342 2.59199 12.6222 2.66874C12.8101 2.7455 12.9708 2.87547 13.0838 3.04224C13.1968 3.209 13.2571 3.40507 13.2571 3.60563C13.2571 3.87459 13.1488 4.13252 12.9559 4.3227C12.763 4.51288 12.5014 4.61972 12.2286 4.61972ZM7.94286 12.0563C7.11783 12.0563 6.31132 11.8151 5.62533 11.3632C4.93935 10.9113 4.40469 10.269 4.08896 9.51752C3.77324 8.76602 3.69062 7.9391 3.85158 7.14132C4.01253 6.34354 4.40982 5.61073 4.99321 5.03556C5.57659 4.46039 6.31987 4.0687 7.12905 3.91001C7.93822 3.75132 8.77696 3.83277 9.53919 4.14404C10.3014 4.45532 10.9529 4.98246 11.4113 5.65878C11.8696 6.33511 12.1143 7.13025 12.1143 7.94366C12.1143 9.03441 11.6748 10.0805 10.8925 10.8518C10.1102 11.623 9.04919 12.0563 7.94286 12.0563ZM7.94286 5.29577C7.41167 5.29577 6.89242 5.45107 6.45075 5.74202C6.00909 6.03298 5.66485 6.44652 5.46158 6.93036C5.2583 7.4142 5.20512 7.9466 5.30875 8.46024C5.41238 8.97388 5.66816 9.44569 6.04376 9.816C6.41937 10.1863 6.89793 10.4385 7.4189 10.5407C7.93988 10.6428 8.47988 10.5904 8.97063 10.39C9.46138 10.1896 9.88084 9.85019 10.1759 9.41475C10.4711 8.97931 10.6286 8.46736 10.6286 7.94366C10.6286 7.2414 10.3456 6.5679 9.84195 6.07132C9.33828 5.57475 8.65515 5.29577 7.94286 5.29577Z" fill="url(#paint1_radial_1_1238)"/>
<path fill-rule="evenodd" clip-rule="evenodd" d="M11.4286 16H4.57143C3.35901 16 2.19625 15.5252 1.33894 14.6799C0.481628 13.8347 0 12.6883 0 11.493V4.50704C0 3.3117 0.481628 2.16532 1.33894 1.32008C2.19625 0.474848 3.35901 0 4.57143 0H11.4286C12.641 0 13.8038 0.474848 14.6611 1.32008C15.5184 2.16532 16 3.3117 16 4.50704V11.493C16 12.0848 15.8818 12.6709 15.652 13.2177C15.4223 13.7645 15.0856 14.2614 14.6611 14.6799C14.2366 15.0984 13.7326 15.4304 13.178 15.6569C12.6234 15.8834 12.0289 16 11.4286 16ZM14.5143 4.16901C14.5143 3.42193 14.2133 2.70544 13.6774 2.17716C13.1416 1.64889 12.4149 1.35211 11.6571 1.35211H4.22857C3.47081 1.35211 2.74409 1.64889 2.20827 2.17716C1.67245 2.70544 1.37143 3.42193 1.37143 4.16901V11.493C1.37143 12.24 1.67245 12.9565 2.20827 13.4848C2.74409 14.0131 3.47081 14.3099 4.22857 14.3099H11.6571C12.4149 14.3099 13.1416 14.0131 13.6774 13.4848C14.2133 12.9565 14.5143 12.24 14.5143 11.493V4.16901ZM12.2286 4.61972C12.0251 4.61972 11.8263 4.56024 11.6571 4.44881C11.488 4.33738 11.3561 4.17901 11.2783 3.99371C11.2004 3.80841 11.1801 3.60451 11.2198 3.4078C11.2595 3.21108 11.3574 3.03039 11.5013 2.88857C11.6451 2.74675 11.8284 2.65016 12.0279 2.61103C12.2274 2.57191 12.4342 2.59199 12.6222 2.66874C12.8101 2.7455 12.9708 2.87547 13.0838 3.04224C13.1968 3.209 13.2571 3.40507 13.2571 3.60563C13.2571 3.87459 13.1488 4.13252 12.9559 4.3227C12.763 4.51288 12.5014 4.61972 12.2286 4.61972ZM7.94286 12.0563C7.11783 12.0563 6.31132 11.8151 5.62533 11.3632C4.93935 10.9113 4.40469 10.269 4.08896 9.51752C3.77324 8.76602 3.69062 7.9391 3.85158 7.14132C4.01253 6.34354 4.40982 5.61073 4.99321 5.03556C5.57659 4.46039 6.31987 4.0687 7.12905 3.91001C7.93822 3.75132 8.77696 3.83277 9.53919 4.14404C10.3014 4.45532 10.9529 4.98246 11.4113 5.65878C11.8696 6.33511 12.1143 7.13025 12.1143 7.94366C12.1143 9.03441 11.6748 10.0805 10.8925 10.8518C10.1102 11.623 9.04919 12.0563 7.94286 12.0563ZM7.94286 5.29577C7.41167 5.29577 6.89242 5.45107 6.45075 5.74202C6.00909 6.03298 5.66485 6.44652 5.46158 6.93036C5.2583 7.4142 5.20512 7.9466 5.30875 8.46024C5.41238 8.97388 5.66816 9.44569 6.04376 9.816C6.41937 10.1863 6.89793 10.4385 7.4189 10.5407C7.93988 10.6428 8.47988 10.5904 8.97063 10.39C9.46138 10.1896 9.88084 9.85019 10.1759 9.41475C10.4711 8.97931 10.6286 8.46736 10.6286 7.94366C10.6286 7.2414 10.3456 6.5679 9.84195 6.07132C9.33828 5.57475 8.65515 5.29577 7.94286 5.29577Z" fill="black"/>
</g>
</g>
<defs>
<radialGradient id="paint0_radial_1_1238" cx="0" cy="0" r="1" gradientUnits="userSpaceOnUse" gradientTransform="translate(4 15.5) rotate(106.302) scale(11.044)">
<stop stop-color="#FFFCB2"/>
<stop offset="0.233898" stop-color="#FFB21C" stop-opacity="0.81768"/>
<stop offset="1" stop-color="#FF24BE" stop-opacity="0"/>
</radialGradient>
<radialGradient id="paint1_radial_1_1238" cx="0" cy="0" r="1" gradientUnits="userSpaceOnUse" gradientTransform="translate(3.8) rotate(75.3027) scale(6.30635 14.7887)">
<stop stop-color="#2E62DF"/>
<stop offset="1" stop-color="#6E48D8" stop-opacity="0"/>
</radialGradient>
</defs>
</svg>
