<svg width="16" height="16" viewBox="0 0 16 16" fill="none" xmlns="http://www.w3.org/2000/svg">
<g id="social/telega">
<g id="Telega">
<path d="M0.980919 7.57605C0.980919 7.57605 8.05733 4.50275 10.5116 3.42061C11.4524 2.98775 14.6429 1.6026 14.6429 1.6026C14.6429 1.6026 16.1154 0.996599 15.9927 2.46832C15.9518 3.07432 15.6246 5.19532 15.2974 7.48947C14.8065 10.7359 14.2748 14.2853 14.2748 14.2853C14.2748 14.2853 14.193 15.2809 13.4976 15.4541C12.8022 15.6272 11.6569 14.8481 11.4524 14.6749C11.2888 14.5451 8.38457 12.5972 7.32106 11.6449C7.03473 11.3852 6.7075 10.8658 7.36196 10.2598C8.83451 8.83133 10.5934 7.05662 11.6569 5.93118C12.1477 5.41175 12.6386 4.19975 10.5934 5.67147C7.6892 7.79247 4.82591 9.78362 4.82591 9.78362C4.82591 9.78362 4.17144 10.2165 2.94432 9.82691C1.71719 9.43734 0.285549 8.91791 0.285549 8.91791C0.285549 8.91791 -0.69615 8.26862 0.980919 7.57605Z" fill="#35AEE2"/>
<path d="M0.980919 7.57605C0.980919 7.57605 8.05733 4.50275 10.5116 3.42061C11.4524 2.98775 14.6429 1.6026 14.6429 1.6026C14.6429 1.6026 16.1154 0.996599 15.9927 2.46832C15.9518 3.07432 15.6246 5.19532 15.2974 7.48947C14.8065 10.7359 14.2748 14.2853 14.2748 14.2853C14.2748 14.2853 14.193 15.2809 13.4976 15.4541C12.8022 15.6272 11.6569 14.8481 11.4524 14.6749C11.2888 14.5451 8.38457 12.5972 7.32106 11.6449C7.03473 11.3852 6.7075 10.8658 7.36196 10.2598C8.83451 8.83133 10.5934 7.05662 11.6569 5.93118C12.1477 5.41175 12.6386 4.19975 10.5934 5.67147C7.6892 7.79247 4.82591 9.78362 4.82591 9.78362C4.82591 9.78362 4.17144 10.2165 2.94432 9.82691C1.71719 9.43734 0.285549 8.91791 0.285549 8.91791C0.285549 8.91791 -0.69615 8.26862 0.980919 7.57605Z" fill="black"/>
</g>
</g>
</svg>
