<svg width="23" height="23" viewBox="0 0 23 23" fill="none" xmlns="http://www.w3.org/2000/svg">
<path d="M22.7266 14.0468V21.9039H18.0112V14.573C18.0112 12.7315 17.3292 11.4747 15.6224 11.4747C14.3195 11.4747 13.5442 12.3217 13.2031 13.141C13.0787 13.4339 13.0466 13.8416 13.0466 14.2516V21.9039H8.32974C8.32974 21.9039 8.39327 9.48784 8.32974 8.20145H13.0462V10.1437C13.0366 10.1582 13.0242 10.1739 13.0152 10.188H13.0462V10.1437C13.6728 9.21139 14.7919 7.87954 17.2968 7.87954C20.4001 7.87949 22.7266 9.83796 22.7266 14.0468ZM3.39566 1.59619C1.78202 1.59619 0.726562 2.61864 0.726562 3.96319C0.726562 5.27844 1.75148 6.33191 3.33306 6.33191H3.36457C5.00946 6.33191 6.03244 5.27864 6.03244 3.96319C6.00144 2.61864 5.00946 1.59619 3.39566 1.59619ZM1.0067 21.9039H5.72181V8.20145H1.0067V21.9039Z" fill="#F4FD19"/>
</svg>
