<svg width="16" height="16" viewBox="0 0 16 16" fill="none" xmlns="http://www.w3.org/2000/svg">
<g id="social/facebook">
<g id="Fb">
<path fill-rule="evenodd" clip-rule="evenodd" d="M4 5.28926H5.71429V3.70248C5.71429 2.99583 5.752 1.86962 6.28571 1.19008C6.84486 0.474446 7.53457 0 8.85714 0C11.0143 0 12 0.264463 12 0.264463L11.5714 2.77686C11.1123 2.62266 10.6307 2.5335 10.1429 2.5124C9.474 2.5124 8.85714 2.66274 8.85714 3.30579V5.28926H11.7143V7.66942H8.85714V16H5.71429V7.66942H4V5.28926Z" fill="#1D52A1"/>
<path fill-rule="evenodd" clip-rule="evenodd" d="M4 5.28926H5.71429V3.70248C5.71429 2.99583 5.752 1.86962 6.28571 1.19008C6.84486 0.474446 7.53457 0 8.85714 0C11.0143 0 12 0.264463 12 0.264463L11.5714 2.77686C11.1123 2.62266 10.6307 2.5335 10.1429 2.5124C9.474 2.5124 8.85714 2.66274 8.85714 3.30579V5.28926H11.7143V7.66942H8.85714V16H5.71429V7.66942H4V5.28926Z" fill="white"/>
<path fill-rule="evenodd" clip-rule="evenodd" d="M4 5.28926H5.71429V3.70248C5.71429 2.99583 5.752 1.86962 6.28571 1.19008C6.84486 0.474446 7.53457 0 8.85714 0C11.0143 0 12 0.264463 12 0.264463L11.5714 2.77686C11.1123 2.62266 10.6307 2.5335 10.1429 2.5124C9.474 2.5124 8.85714 2.66274 8.85714 3.30579V5.28926H11.7143V7.66942H8.85714V16H5.71429V7.66942H4V5.28926Z" fill="black"/>
</g>
</g>
</svg>
