<svg width="17" height="17" viewBox="0 0 17 17" fill="none" xmlns="http://www.w3.org/2000/svg">
<path d="M16.8013 10.1704V15.8846H13.372V10.5531C13.372 9.21374 12.8759 8.29971 11.6346 8.29971C10.6871 8.29971 10.1232 8.9157 9.87508 9.51157C9.78461 9.72459 9.76132 10.0211 9.76132 10.3193V15.8846H6.33085C6.33085 15.8846 6.37705 6.85474 6.33085 5.91918H9.76099V7.33174C9.75403 7.3423 9.74499 7.35369 9.73845 7.36393H9.76099V7.33174C10.2167 6.65368 11.0306 5.68506 12.8523 5.68506C15.1093 5.68503 16.8013 7.10937 16.8013 10.1704ZM2.74243 1.11536C1.56887 1.11536 0.80127 1.85895 0.80127 2.83681C0.80127 3.79335 1.54667 4.55952 2.6969 4.55952H2.71982C3.91611 4.55952 4.66009 3.7935 4.66009 2.83681C4.63755 1.85895 3.91611 1.11536 2.74243 1.11536ZM1.00501 15.8846H4.43418V5.91918H1.00501V15.8846Z" fill="#1870B1"/>
<path d="M16.8013 10.1704V15.8846H13.372V10.5531C13.372 9.21374 12.8759 8.29971 11.6346 8.29971C10.6871 8.29971 10.1232 8.9157 9.87508 9.51157C9.78461 9.72459 9.76132 10.0211 9.76132 10.3193V15.8846H6.33085C6.33085 15.8846 6.37705 6.85474 6.33085 5.91918H9.76099V7.33174C9.75403 7.3423 9.74499 7.35369 9.73845 7.36393H9.76099V7.33174C10.2167 6.65368 11.0306 5.68506 12.8523 5.68506C15.1093 5.68503 16.8013 7.10937 16.8013 10.1704ZM2.74243 1.11536C1.56887 1.11536 0.80127 1.85895 0.80127 2.83681C0.80127 3.79335 1.54667 4.55952 2.6969 4.55952H2.71982C3.91611 4.55952 4.66009 3.7935 4.66009 2.83681C4.63755 1.85895 3.91611 1.11536 2.74243 1.11536ZM1.00501 15.8846H4.43418V5.91918H1.00501V15.8846Z" fill="black"/>
</svg>
