<svg width="44" height="44" viewBox="0 0 44 44" fill="none" xmlns="http://www.w3.org/2000/svg">
<path d="M35.0192 0.64376C34.0319 -0.214587 32.5642 -0.214587 31.5786 0.64376L29.3179 2.58128C26.0116 0.495412 22.0642 -0.327622 18.1997 0.265814H18.175C18.1132 0.274646 18.0531 0.287009 17.9931 0.304671C12.9259 1.09063 8.50354 4.16556 6.00093 8.64262C3.49823 13.1181 3.19625 18.4962 5.17966 23.2242L2.93486 25.1388H2.9331C1.92989 25.9848 1.70562 27.4419 2.40676 28.5493C6.00269 34.116 11.9619 37.7192 18.5618 38.3164L16.7073 41.7393H11.8219C11.1984 41.7393 10.6915 42.2444 10.6915 42.8696C10.6915 43.4931 11.1984 44 11.8219 44H31.9793C32.6045 44 33.1097 43.4931 33.1097 42.8696C33.1097 42.2444 32.6045 41.7393 31.9793 41.7393H27.0921L25.0522 37.9703C29.351 37.036 33.2667 34.8265 36.2902 31.6331C39.3139 28.438 41.3044 24.406 42.0003 20.0627C43.0971 12.8267 40.4712 5.52554 35.0192 0.64376ZM35.0192 16.7708V16.769C35.0156 18.4257 34.726 20.0682 34.1608 21.6259H30.7556C29.0654 21.6241 27.6984 20.2554 27.6949 18.5669V14.978C27.6913 12.0409 25.3105 9.65992 22.3731 9.65811C20.6829 9.65458 19.3141 8.28577 19.3106 6.59558V2.40268C19.7292 2.36736 20.1496 2.3391 20.577 2.3391C24.4043 2.34263 28.0726 3.86508 30.78 6.57088C33.4858 9.27844 35.0083 12.947 35.0118 16.7739L35.0192 16.7708ZM17.0501 2.79324V6.59585C17.0537 9.53477 19.4362 11.9158 22.3732 11.9189C24.0634 11.9189 25.4322 13.2877 25.434 14.9779V18.5703C25.4393 21.5075 27.8183 23.8866 30.7557 23.8902H33.1206C31.2873 27.1435 28.2619 29.5542 24.6836 30.6159C21.1053 31.6791 17.2549 31.3082 13.9453 29.5844L13.9718 29.5138C14.0548 29.3142 14.1678 29.0369 14.1925 28.9981H14.1908C14.5157 28.9398 14.8495 28.9539 15.1675 29.0387C15.4677 29.0758 15.7715 29.0793 16.0718 29.0493C17.1209 28.9415 18.0852 28.4223 18.7511 27.6046C19.4169 26.7868 19.7313 25.7377 19.6236 24.6886C19.6165 24.6197 19.6041 24.5508 19.5847 24.4837C19.1944 23.145 18.3166 22.0005 17.1244 21.2799C16.6652 20.9867 16.1742 20.7447 15.662 20.5593C15.1958 20.418 14.7613 20.1813 14.3904 19.8634C14.0636 19.3159 13.9064 18.6818 13.9382 18.0442C13.9135 17.4896 13.834 16.9404 13.698 16.4035C13.2406 14.5649 11.8771 13.0866 10.0809 12.4843C8.99113 12.154 7.82194 12.2052 6.76401 12.6291C8.23171 7.77401 12.1349 4.04206 17.0501 2.79324ZM6.144 16.7744C6.144 16.4724 6.17049 16.1809 6.18992 15.886C6.30825 15.7359 6.41952 15.584 6.55552 15.4339H6.55375C7.26375 14.6461 8.36408 14.3353 9.3814 14.632C10.45 15.0047 11.2518 15.8966 11.5096 16.9952C11.605 17.3997 11.6615 17.8112 11.6792 18.2245C11.6492 19.3831 12.0289 20.5152 12.7513 21.423C13.3394 21.9847 14.0476 22.4086 14.823 22.6594C15.2027 22.7954 15.5665 22.9702 15.9074 23.1839C16.6051 23.5972 17.1278 24.249 17.3804 25.019C17.421 25.9268 16.7463 26.7075 15.8421 26.7993C15.722 26.8117 15.6019 26.8117 15.4835 26.7993C13.244 26.4443 12.5287 27.2338 12.0165 28.3641C8.32874 25.6531 6.14897 21.3505 6.144 16.7744ZM19.2792 41.7394L21.0878 38.4243C21.6159 38.4119 22.1421 38.3854 22.6755 38.3342L24.5212 41.7394L19.2792 41.7394ZM39.7653 19.7346C39.0959 23.9222 37.0825 27.7777 34.0303 30.7221C30.9784 33.6645 27.052 35.5365 22.8434 36.0542C19.2457 36.4798 15.6001 35.8864 12.3221 34.3427C9.0458 32.7973 6.26744 30.3653 4.30559 27.3205C4.22788 27.1651 4.2685 26.9779 4.40273 26.8684L6.24308 25.2982C7.64545 27.6455 9.59884 29.6165 11.9337 31.0382C11.9691 31.0593 11.9903 31.0911 12.0274 31.1088C12.0397 31.1088 12.0538 31.1088 12.0627 31.1176H12.0644C16.2114 33.5974 21.2325 34.1537 25.8231 32.6383C30.4115 31.1247 34.1172 27.6914 35.9769 23.2297C35.9857 23.2067 35.9928 23.1855 35.9998 23.1608C37.3704 19.8651 37.6441 16.2182 36.784 12.7525C35.9239 9.28901 33.9741 6.19283 31.2204 3.92172L33.0502 2.35514V2.35337C33.1774 2.23504 33.3716 2.22444 33.5112 2.32864C38.3997 6.70348 40.751 13.249 39.7653 19.7346Z" fill="#222222"/>
</svg>
