<svg width="17" height="16" viewBox="0 0 17 16" fill="none" xmlns="http://www.w3.org/2000/svg">
<g id="social/LinkedIn">
<g id="LinkedIn">
<path d="M16.8013 9.67024V15.3845H13.372V10.0529C13.372 8.71362 12.8759 7.79959 11.6346 7.79959C10.6871 7.79959 10.1232 8.41558 9.87508 9.01145C9.78461 9.22447 9.76132 9.52097 9.76132 9.81915V15.3845H6.33085C6.33085 15.3845 6.37705 6.35462 6.33085 5.41906H9.76099V6.83161C9.75403 6.84218 9.74499 6.85357 9.73845 6.86381H9.76099V6.83161C10.2167 6.15356 11.0306 5.18494 12.8523 5.18494C15.1093 5.18491 16.8013 6.60925 16.8013 9.67024ZM2.74243 0.615234C1.56887 0.615234 0.80127 1.35883 0.80127 2.33669C0.80127 3.29323 1.54667 4.0594 2.6969 4.0594H2.71982C3.91611 4.0594 4.66009 3.29338 4.66009 2.33669C4.63755 1.35883 3.91611 0.615234 2.74243 0.615234ZM1.00501 15.3845H4.43418V5.41906H1.00501V15.3845Z" fill="#1870B1"/>
<path d="M16.8013 9.67024V15.3845H13.372V10.0529C13.372 8.71362 12.8759 7.79959 11.6346 7.79959C10.6871 7.79959 10.1232 8.41558 9.87508 9.01145C9.78461 9.22447 9.76132 9.52097 9.76132 9.81915V15.3845H6.33085C6.33085 15.3845 6.37705 6.35462 6.33085 5.41906H9.76099V6.83161C9.75403 6.84218 9.74499 6.85357 9.73845 6.86381H9.76099V6.83161C10.2167 6.15356 11.0306 5.18494 12.8523 5.18494C15.1093 5.18491 16.8013 6.60925 16.8013 9.67024ZM2.74243 0.615234C1.56887 0.615234 0.80127 1.35883 0.80127 2.33669C0.80127 3.29323 1.54667 4.0594 2.6969 4.0594H2.71982C3.91611 4.0594 4.66009 3.29338 4.66009 2.33669C4.63755 1.35883 3.91611 0.615234 2.74243 0.615234ZM1.00501 15.3845H4.43418V5.41906H1.00501V15.3845Z" fill="black"/>
</g>
</g>
</svg>
