<svg width="44" height="44" viewBox="0 0 44 44" fill="none" xmlns="http://www.w3.org/2000/svg">
<g clip-path="url(#clip0_2003_2064)">
<path d="M43.9518 22.7561V18.2864C43.9448 15.2047 41.448 12.7095 38.3682 12.7028H36.5803V9.66821C36.5768 8.31682 35.9081 7.05269 34.7924 6.29145L33.1948 5.18621C33.3572 4.76368 33.441 4.31671 33.4445 3.86451C33.4514 2.08533 32.2397 0.534908 30.5147 0.11064C28.7879 -0.311889 26.9947 0.50349 26.1794 2.08363C25.364 3.66199 25.7376 5.59484 27.082 6.75764C28.4265 7.92049 30.3942 8.00953 31.8383 6.97415L33.5302 8.137L33.5319 8.13874C34.0383 8.48619 34.3403 9.05888 34.3403 9.67347V12.7028H9.61192V9.6682C9.61192 9.05535 9.91397 8.48095 10.4203 8.13347L12.1104 6.9741C13.5456 7.99374 15.4907 7.89948 16.8175 6.74538C18.1462 5.59303 18.5146 3.68115 17.7062 2.11696C16.8996 0.554292 15.1274 -0.254106 13.418 0.161446C11.7087 0.576993 10.5057 2.10824 10.5057 3.86646C10.5092 4.31867 10.5948 4.76738 10.7572 5.18991L9.15082 6.29161C8.03861 7.05634 7.37687 8.31873 7.37687 9.66837V12.7029H5.58897C2.50207 12.7064 0 15.2102 0 18.299V22.9941C0.00523809 23.0342 0.013968 23.0761 0.0244437 23.1163C0.0436497 23.4795 0.109999 23.8391 0.223486 24.1848L2.02886 29.6777C2.57363 31.3486 3.63341 32.8048 5.05291 33.8367C6.47415 34.8703 8.18522 35.429 9.94326 35.4325H13.966L14.6278 39.4221C15.1149 42.0725 17.4231 43.9964 20.1153 44H23.8412C26.5423 43.9965 28.8558 42.0637 29.3377 39.4064L29.9889 35.4326H34.0221H34.0204C35.7803 35.4308 37.4932 34.8721 38.9161 33.8385C40.3391 32.8049 41.3972 31.347 41.9436 29.676L43.7315 24.1814C43.8485 23.8357 43.9166 23.4743 43.9341 23.1094C43.948 23.0151 43.955 22.919 43.9533 22.8213C43.9568 22.8003 43.9515 22.7794 43.9515 22.7567L43.9518 22.7561ZM28.0372 3.86607C28.0372 3.22529 28.4248 2.64735 29.0167 2.40121C29.6104 2.15677 30.2931 2.29295 30.7453 2.74691C31.1992 3.20086 31.3354 3.88357 31.0892 4.47545C30.8431 5.06908 30.2651 5.45495 29.6226 5.45495C28.7461 5.45321 28.0372 4.74255 28.0372 3.86607ZM14.3258 2.2807C14.9684 2.2807 15.5481 2.66657 15.7942 3.2602C16.0387 3.85383 15.9042 4.53654 15.4503 4.99048C14.9963 5.44443 14.3136 5.57888 13.72 5.33444C13.1264 5.08826 12.7405 4.50857 12.7405 3.86604C12.7422 2.99131 13.4511 2.28244 14.3258 2.2807ZM5.58884 14.9372H38.3682C40.2172 14.9407 41.717 16.4405 41.7205 18.2895V19.1224C41.1163 18.7854 40.4354 18.6056 39.744 18.6003H4.22337C3.76768 18.6021 3.31369 18.6754 2.88245 18.8203C2.65722 18.8954 2.43897 18.9914 2.23121 19.1032V18.2983C2.22946 17.406 2.5839 16.5523 3.21419 15.922C3.84452 15.2916 4.69837 14.9372 5.58884 14.9372ZM23.8325 41.7646H20.1084C18.4985 41.7664 17.1157 40.6227 16.8171 39.0409L15.3278 30.075V30.0733C15.2388 29.5338 15.3907 28.9838 15.7451 28.5665C16.0978 28.1492 16.6181 27.9082 17.1646 27.9082H26.7607C27.309 27.9047 27.8293 28.1439 28.1854 28.5594C28.5416 28.975 28.697 29.5267 28.6097 30.068L27.1309 39.0075C26.841 40.6016 25.4546 41.7629 23.8325 41.7646ZM41.6136 23.4807L39.8118 28.9771C38.9964 31.4861 36.6603 33.1885 34.0203 33.1972H30.3573L30.8147 30.435C31.012 29.2478 30.6768 28.0326 29.898 27.1142C29.1193 26.1958 27.9774 25.6667 26.7727 25.6667H17.1766C15.9719 25.6667 14.8282 26.1958 14.0495 27.1142C13.2708 28.0326 12.9356 29.2477 13.1329 30.435L13.5903 33.1972H9.9429C7.30298 33.1885 4.96674 31.4861 4.15146 28.9754L2.3531 23.4928V23.4911C2.29548 23.3252 2.26231 23.1523 2.25532 22.976C2.25532 22.9167 2.25008 22.8555 2.24135 22.7962C2.24659 21.9511 2.78787 21.2038 3.58925 20.9367C3.79353 20.8686 4.00654 20.8319 4.22306 20.8302H39.7401C40.8156 20.8337 41.6921 21.6927 41.7166 22.7682V22.976V22.9742C41.7096 23.1488 41.6747 23.3201 41.6136 23.4807Z" fill="#222222"/>
</g>
<defs>
<clipPath id="clip0_2003_2064">
<rect width="44" height="44" fill="white"/>
</clipPath>
</defs>
</svg>
