<svg width="44" height="44" viewBox="0 0 44 44" fill="none" xmlns="http://www.w3.org/2000/svg">
<path d="M27.2236 27.2967L24.5938 26.9158L23.4195 24.5305C23.0927 23.8665 22.4182 23.4471 21.6791 23.4471C20.9417 23.4471 20.2672 23.8665 19.9404 24.5305L18.7661 26.9158L16.138 27.2967H16.1362C15.4058 27.4033 14.7977 27.9153 14.5688 28.6177C14.3399 29.3202 14.5321 30.0908 15.0616 30.6063L16.9645 32.4603L16.5172 35.078V35.0762C16.3914 35.8049 16.6884 36.5405 17.2861 36.9757C17.8837 37.4108 18.677 37.4667 19.3306 37.1225L21.6791 35.887L24.0311 37.1225C24.6847 37.4667 25.4763 37.4108 26.0739 36.9757C26.6715 36.5406 26.9703 35.8049 26.8445 35.0762L26.3972 32.4586L28.2984 30.6046V30.6063C28.8278 30.0908 29.0201 29.3202 28.7912 28.6177C28.564 27.9153 27.9559 27.4033 27.2255 27.2967H27.2236ZM24.7231 30.9663V30.968C24.2653 31.4119 24.0573 32.0549 24.1657 32.684L24.5396 34.863L22.5825 33.8355V33.8338C22.0181 33.5367 21.3418 33.5367 20.7774 33.8338L18.8203 34.863L19.1942 32.6822V32.684C19.3008 32.0549 19.0929 31.4154 18.6368 30.968L17.0571 29.4233L19.2414 29.1053V29.107C19.874 29.0162 20.4209 28.6195 20.704 28.0463L21.6791 26.0648L22.6559 28.0446C22.9372 28.6177 23.4842 29.0144 24.115 29.107L26.3027 29.4251L24.7231 30.9663Z" fill="#222222"/>
<path d="M38.3982 0.767125C38.379 0.72344 38.358 0.6815 38.3335 0.639562V0.599371C38.3335 0.587139 38.2986 0.567917 38.2881 0.548696C38.2602 0.503264 38.2304 0.461326 38.1972 0.421132C38.1675 0.380941 38.1326 0.344243 38.0959 0.309297C38.0609 0.277843 38.0225 0.249886 37.9823 0.223672C37.9404 0.19047 37.8967 0.160767 37.8495 0.134552C37.7586 0.0891205 37.6608 0.0541698 37.5612 0.0314539C37.5385 0.0314539 37.5175 0.0157271 37.4948 0.0122321C37.4703 0.008737 37.4441 0.0122321 37.4179 0.0122321C37.3917 0.0122321 37.3637 0 37.3358 0H6.02192C5.99571 0.00349507 5.9695 0.00698969 5.94329 0.0122321C5.91533 0.0104848 5.88737 0.0104848 5.86116 0.0122321C5.8367 0.0122321 5.81573 0.0279588 5.79302 0.0332012C5.74234 0.0436859 5.69167 0.0594127 5.64274 0.0768867C5.59555 0.0926134 5.55012 0.113583 5.50469 0.136298C5.461 0.159014 5.42081 0.185228 5.38063 0.213187C5.33694 0.24464 5.295 0.277841 5.25656 0.314536C5.22511 0.344242 5.19365 0.377441 5.1657 0.414141C5.129 0.457827 5.09405 0.50501 5.06435 0.555684C5.05561 0.571411 5.03988 0.583643 5.03289 0.601116C5.0259 0.616843 5.03289 0.62558 5.0259 0.636065V0.634317C4.99969 0.676256 4.97872 0.721687 4.9595 0.767124L2.36457 8.57456C1.70053 10.5596 1.95217 12.7369 3.04953 14.5175L9.35077 24.7732V24.775C8.80556 25.6504 8.5155 26.6604 8.51376 27.6931V33.9698V33.968C8.51026 35.4516 9.10089 36.8757 10.1546 37.9207L14.5931 42.3591H14.5913C15.638 43.4111 17.0604 44.0017 18.544 44H24.8103C26.2939 44.0017 27.718 43.4111 28.7647 42.3591L33.2015 37.9207C34.2534 36.8757 34.844 35.4516 34.8406 33.968V27.6842C34.8388 26.6532 34.547 25.6432 34.0018 24.7678L40.303 14.5121C41.4004 12.7332 41.6538 10.5577 40.9933 8.57452L38.3982 0.767125ZM18.8217 17.6578L15.3915 12.6758H27.9801L24.5499 17.6578H18.8217ZM35.2002 2.23664L29.523 10.4373L13.8347 10.439L8.15752 2.2366L35.2002 2.23664ZM4.48575 9.27197L6.37648 3.59611L16.396 18.0823C15.7198 18.3637 15.1047 18.7761 14.5874 19.295L10.8864 22.9961L4.95555 13.3469C4.20241 12.1255 4.02969 10.6332 4.48575 9.27197ZM32.6087 33.9611C32.6052 34.8506 32.2522 35.7033 31.6267 36.3341L27.1952 40.7691C26.5679 41.4017 25.7134 41.7547 24.824 41.7529H18.5473C17.6561 41.7547 16.8034 41.4017 16.1743 40.7691L11.7324 36.3341C11.1051 35.7033 10.7521 34.8506 10.7503 33.9611V27.6845C10.7521 26.7968 11.105 25.9441 11.7324 25.315L16.1691 20.8765C16.7964 20.2457 17.6509 19.891 18.5421 19.8945H24.8102C25.6997 19.891 26.5541 20.2457 27.1832 20.8765L31.6217 25.315H31.62C32.2473 25.944 32.6003 26.7968 32.6037 27.6845L32.6087 33.9611ZM38.4013 13.3468L32.4687 23.0013L28.7694 19.3003C28.2522 18.7813 27.6371 18.3706 26.9608 18.0876L36.9751 3.59423L38.8641 9.27143L38.8658 9.27318C39.3237 10.6327 39.1524 12.125 38.401 13.3464L38.4013 13.3468Z" fill="#222222"/>
</svg>
