<svg width="44" height="44" viewBox="0 0 44 44" fill="none" xmlns="http://www.w3.org/2000/svg">
<path d="M0.908527 16.333L21.3116 22.6884L27.667 43.0902C27.8353 43.6273 28.3283 43.9935 28.89 44C28.8939 44 28.899 44 28.9029 44C29.4594 44 29.955 43.6441 30.1297 43.1148L43.9328 1.70299C44.0881 1.2384 43.9665 0.724639 43.6209 0.379109C43.2741 0.0322849 42.7604 -0.0880681 42.2971 0.0659322L0.885233 13.8703C0.352056 14.0463 -0.00512095 14.5484 5.55304e-05 15.1101C0.00523201 15.6717 0.372762 16.1661 0.908527 16.333ZM40.66 3.33876L28.9443 38.487L23.5802 21.2688C23.4534 20.8624 23.135 20.5441 22.73 20.4186L5.51171 15.0557L40.66 3.33876Z" fill="#222222"/>
</svg>
