<svg width="44" height="44" viewBox="0 0 44 44" fill="none" xmlns="http://www.w3.org/2000/svg">
<path d="M8.53227 37.669C8.1604 37.2446 8.19863 36.5957 8.6209 36.2204C9.04142 35.8451 9.6861 35.8837 10.058 36.3099C11.5976 38.0671 13.5039 39.4964 15.6569 40.475C17.7231 41.415 20.0186 41.9376 22.4374 41.9376C26.999 41.9376 31.1277 40.0716 34.1184 37.0552C37.1073 34.0387 38.9562 29.8701 38.9562 25.2665C38.9562 20.6628 37.1073 16.4961 34.1184 13.4777C31.1295 10.4613 26.999 8.59534 22.4374 8.59534C20.0185 8.59534 17.7228 9.11972 15.6569 10.0579C13.5039 11.0365 11.5976 12.4658 10.058 14.2231C9.68613 14.6492 9.0432 14.6878 8.6209 14.3125C8.20037 13.9372 8.16038 13.2883 8.53227 12.8639C10.2665 10.8857 12.4074 9.27924 14.8176 8.18127C17.1444 7.122 19.723 6.53275 22.4375 6.53275C27.5636 6.53275 32.2034 8.63023 35.5625 12.0203C38.9215 15.4103 41 20.0926 41 25.2664C41 30.4384 38.9217 35.1223 35.5625 38.5124C32.2034 41.9025 27.5641 44 22.4375 44C19.725 44 17.146 43.4107 14.8176 42.3515C12.4057 41.2536 10.2668 39.6491 8.53227 37.669ZM3.50497 33.0021C2.94196 33.0021 2.48318 32.5409 2.48318 31.9709C2.48318 31.4009 2.94018 30.9397 3.50497 30.9397H10.6938C11.2586 30.9397 11.7156 31.4009 11.7156 31.9709C11.7156 32.5408 11.2586 33.0021 10.6938 33.0021H3.50497ZM1.02179 26.2974C0.457044 26.2974 0 25.8362 0 25.2662C0 24.6962 0.456999 24.235 1.02179 24.235H8.21064C8.77538 24.235 9.23243 24.6962 9.23243 25.2662C9.23243 25.8361 8.77543 26.2974 8.21064 26.2974H1.02179ZM4.4086 19.5927C3.84386 19.5927 3.38681 19.1314 3.38681 18.5615C3.38681 17.9915 3.84381 17.5302 4.4086 17.5302H11.5975C12.1622 17.5302 12.6192 17.9915 12.6192 18.5615C12.6192 19.1314 12.1622 19.5927 11.5975 19.5927H4.4086ZM24.5521 23.1422L24.5416 23.1317C24.003 22.5898 23.2592 22.2566 22.439 22.2566C21.6153 22.2566 20.8699 22.5933 20.3311 23.1369C19.7925 23.6806 19.4588 24.4347 19.4588 25.2642C19.4588 26.0955 19.7925 26.8478 20.3311 27.3915C20.8698 27.9352 21.617 28.2719 22.439 28.2719C23.2627 28.2719 24.0081 27.9352 24.5469 27.3915C25.0855 26.8479 25.4192 26.0938 25.4192 25.2642C25.4192 24.4364 25.0873 23.6859 24.5521 23.1422ZM25.195 21.0255L28.3594 17.8319C28.7591 17.4285 29.4038 17.4285 29.8034 17.8319C30.2031 18.2353 30.2031 18.8877 29.8034 19.291L26.6408 22.4828C27.1621 23.2808 27.4645 24.2383 27.4645 25.266C27.4645 26.6655 26.9015 27.9334 25.9926 28.8506C25.0838 29.7679 23.8274 30.3361 22.439 30.3361C21.0506 30.3361 19.7959 29.7679 18.8854 28.8506C17.9765 27.9334 17.4135 26.6655 17.4135 25.266C17.4135 23.8648 17.9765 22.5986 18.8854 21.6796C19.7942 20.7624 21.0506 20.1942 22.439 20.1942C23.4573 20.1942 24.4044 20.4993 25.1968 21.0255H25.195ZM16.9599 2.06242C16.3951 2.06242 15.9381 1.6012 15.9381 1.03121C15.9381 0.461213 16.3951 0 16.9599 0H27.9162C28.4809 0 28.938 0.461213 28.938 1.03121C28.938 1.6012 28.481 2.06242 27.9162 2.06242H16.9599Z" fill="#222222"/>
</svg>
