<svg width="44" height="44" viewBox="0 0 44 44" fill="none" xmlns="http://www.w3.org/2000/svg">
<path fill-rule="evenodd" clip-rule="evenodd" d="M41.2871 36.8789L40.6292 33.7011C33.127 45.624 16.4611 47.5742 6.44413 37.5567C2.46229 33.5758 0 28.0752 0 22.0001H1.83968C1.83968 37.9111 19.4273 47.4588 32.7356 39.0714C35.4076 37.3873 37.6569 35.0932 39.2868 32.3863L35.603 33.1491L35.2365 31.3529L41.7364 30.0072L43.0832 36.5129L41.2871 36.8789ZM3.37082 10.299L2.71288 7.12125L0.916805 7.48777L2.26359 13.9935L8.76346 12.6477L8.39696 10.8516L4.71318 11.6144C6.34312 8.90748 8.59235 6.61342 11.2644 4.92931C24.5738 -3.45979 42.1603 6.08738 42.1603 22.0001H44C44 15.9249 41.5372 10.4243 37.5559 6.44341C27.5395 -3.5735 10.8736 -1.62499 3.37082 10.299Z" fill="#222222"/>
</svg>
