<svg width="25" height="25" viewBox="0 0 25 25" fill="none" xmlns="http://www.w3.org/2000/svg">
<g id="phone">
<path id="Vector" d="M22.9471 18.8646L19.5688 15.4783C18.8959 14.8066 17.7816 14.827 17.0853 15.5252L15.3833 17.2306C15.2758 17.1712 15.1645 17.1092 15.0475 17.0433C13.9727 16.4465 12.5017 15.6284 10.9537 14.0758C9.40121 12.5199 8.58422 11.0433 7.98688 9.96541C7.92384 9.85121 7.86345 9.74111 7.80381 9.63655L8.94609 8.49338L9.50767 7.92983C10.2051 7.23067 10.2243 6.11415 9.55298 5.44049L6.17474 2.05383C5.50342 1.38112 4.38861 1.40153 3.69122 2.10069L2.73911 3.06044L2.76513 3.08633C2.44587 3.49461 2.1791 3.96551 1.98057 4.47332C1.79756 4.95668 1.68362 5.41794 1.63153 5.88015C1.18545 9.5866 2.87536 12.974 7.46155 17.5707C13.8011 23.9241 18.9099 23.4442 19.1303 23.4207C19.6103 23.3632 20.0703 23.2483 20.5378 23.0663C21.0401 22.8697 21.5096 22.6026 21.9167 22.2834L21.9375 22.3019L22.9021 21.3552C23.598 20.6562 23.6181 19.5393 22.9471 18.8646Z" stroke="#F4FD19" stroke-width="2"/>
</g>
</svg>
