<svg width="60" height="60" viewBox="0 0 60 60" fill="none" xmlns="http://www.w3.org/2000/svg">
<path fill-rule="evenodd" clip-rule="evenodd" d="M46.1666 32.4751C46.9747 31.0219 48.5909 30.2214 50.2315 30.443C51.3456 30.5908 52.1292 31.6253 51.9823 32.746C51.9578 32.9061 51.9211 33.0663 51.8599 33.2263L48.6643 41.3177C48.4317 41.8965 48.0888 42.4262 47.6481 42.8695L40.853 49.5939C40.1429 50.2958 39.2245 50.7392 38.2451 50.8501L23.9079 52.6235L23.5541 52.9659L24.6187 54.0509C24.9737 54.4204 24.986 54.9992 24.6309 55.3687L20.5906 59.6915C20.4069 59.8885 20.162 60 19.9049 60C19.3785 60 18.9623 59.5689 18.9622 59.0394C18.9622 58.8054 19.0479 58.5714 19.2193 58.399L22.6352 54.7412L13.6975 45.6393L9.06942 50.1838C8.68987 50.5533 8.08994 50.541 7.73488 50.1715C7.3676 49.7897 7.37982 49.1862 7.74712 48.8291L13.0608 43.6195C13.4281 43.2502 14.0281 43.2625 14.3953 43.6319L15.5162 44.7741C17.1282 43.1964 19.4989 40.9034 20.6763 39.9384C22.9413 38.0787 27.7901 39.0763 29.161 39.4088L36.5922 36.4038L36.6657 36.3792C39.5919 35.4678 41.8202 37.8077 42.4446 38.5467C42.4936 38.6083 42.5548 38.6822 42.5915 38.7438L46.1666 32.4751ZM49.975 32.339C49.1058 32.2283 48.2486 32.6593 47.8079 33.4228L43.9634 40.1601C43.8655 40.3324 43.7307 40.4557 43.5471 40.5419L42.0779 41.2562C42.0045 41.3054 41.9309 41.3547 41.8453 41.3916L41.833 41.404L33.6789 45.308C33.2014 45.5296 32.6381 45.3325 32.4178 44.8523C32.1974 44.3721 32.3934 43.8055 32.8708 43.5838L40.9393 39.7044C40.3516 39.0147 38.9436 37.6846 37.2662 38.1896L29.5895 41.3054C29.3937 41.3793 29.1855 41.3916 28.9896 41.3424C26.945 40.8005 23.1986 40.3449 21.8761 41.4286C21.0244 42.1255 19.2037 43.8296 16.8532 46.1369L22.2385 51.6253L22.8317 51.0465C22.9786 50.8988 23.1746 50.8125 23.3704 50.7879L38.0259 48.9652C38.5891 48.9035 39.1279 48.6449 39.5319 48.2385L46.3142 41.5142C46.5713 41.2555 46.7672 40.96 46.9019 40.6151L50.0974 32.5237C50.1218 32.4499 50.0729 32.3636 49.9995 32.339H49.975Z" fill="#00C8A3"/>
<path fill-rule="evenodd" clip-rule="evenodd" d="M25.6226 3.82822C26.798 0.490655 29.7365 -0.137421 31.2057 0.0226792C31.683 0.0720736 32.0505 0.478463 32.0505 0.970986V4.33316L37.0703 9.03775C37.2661 9.22246 37.3764 9.46891 37.3764 9.73974V13.065C37.3763 13.5943 36.9477 14.0132 36.4337 14.0133H30.6425L35.3685 18.139C35.5765 18.3238 35.699 18.5825 35.699 18.8533V24.3215C35.6991 26.8952 36.9112 27.5852 37.2172 27.7206L39.1884 27.8561C40.18 27.9301 40.9393 28.7552 40.9393 29.7527V32.9548C40.9269 34.0014 40.082 34.8513 39.0415 34.8514H20.4192C19.3785 34.8514 18.5338 34.0014 18.5337 32.9548V29.802C18.5337 28.7551 19.3785 27.9054 20.4192 27.9054H21.117C21.5822 27.6468 21.9619 27.2402 22.2067 26.76C22.7576 25.7379 22.7943 24.4569 22.3291 23.2624L20.4559 18.4962C20.4069 18.3854 20.3947 18.2621 20.3824 18.139V9.0008C20.3824 8.95159 20.3825 8.90227 20.3947 8.86533C20.9211 5.24452 23.7249 4.03763 25.6226 3.82822ZM30.1644 1.96856C29.2338 2.14103 27.8258 2.76919 27.2749 4.9859C27.1646 5.4168 26.7728 5.7125 26.3322 5.7002C25.671 5.71254 25.0221 5.86033 24.4222 6.13125C23.2347 6.67316 22.5244 7.67077 22.304 9.0747V17.9666L24.1038 22.5604C24.7772 24.2846 24.7038 26.1442 23.8957 27.659C23.8478 27.7476 23.7977 27.8336 23.7463 27.9177H30.1283C30.6546 27.9423 31.0587 28.3735 31.0465 28.9029C31.022 29.4078 30.618 29.802 30.116 29.8266H21.3374C21.2487 29.8308 21.1625 29.8214 21.0803 29.802H20.4308V32.9548H39.0415V29.765L36.9601 29.6172C36.899 29.6172 36.8377 29.6049 36.7887 29.5926C36.6663 29.5557 33.8014 28.7425 33.8013 24.3338V19.2967L27.4953 13.7916H27.483L25.169 11.7718C24.7773 11.4271 24.7285 10.8235 25.0711 10.4294C25.4139 10.0353 26.0138 9.98606 26.4056 10.3309L28.4625 12.129H35.4903V10.1585L30.4705 5.45389C30.2746 5.26921 30.1644 5.02276 30.1644 4.7519V1.96856Z" fill="#00C8A3"/>
<path d="M15.6448 21.4396C16.0733 21.1443 16.6733 21.255 16.9671 21.6983C17.2608 22.1292 17.1505 22.7327 16.71 23.0284L11.2371 26.7723C11.078 26.8832 10.8815 26.9324 10.6978 26.9324C10.1715 26.9323 9.75506 26.5013 9.75506 25.9718C9.75509 25.6517 9.91434 25.3683 10.1713 25.1836L15.6448 21.4396Z" fill="#00C8A3"/>
<path d="M41.6004 21.6859C41.8943 21.2796 42.4453 21.181 42.8737 21.4396L48.3466 25.1959C48.775 25.4915 48.8852 26.0827 48.5915 26.526C48.4201 26.7846 48.1262 26.9324 47.8201 26.9324C47.6243 26.9324 47.4406 26.8708 47.2814 26.76L41.8086 23.016C41.38 22.7081 41.2943 22.1047 41.6004 21.6859Z" fill="#00C8A3"/>
<path d="M15.2891 15.368C15.8156 15.3926 16.2197 15.8237 16.2074 16.3533C16.1828 16.8581 15.791 17.2646 15.2891 17.2769H7.91853C7.39216 17.2523 6.98811 16.8211 7.00027 16.2917C7.01251 15.7868 7.4166 15.3926 7.91853 15.368H15.2891Z" fill="#00C8A3"/>
<path d="M50.6116 15.368C51.1381 15.3926 51.5422 15.8237 51.5299 16.3533C51.4931 16.8581 51.0891 17.2646 50.5994 17.2769H43.2288C42.7024 17.3016 42.2617 16.8827 42.2493 16.3533C42.2248 15.8237 42.6411 15.3803 43.1676 15.368H50.6116Z" fill="#00C8A3"/>
<path d="M9.90198 6.11894C10.1958 5.68789 10.7835 5.56473 11.2243 5.86031L16.6971 9.60427C17.1256 9.89987 17.2481 10.491 16.942 10.9344C16.7706 11.2052 16.4767 11.3654 16.1707 11.3654C15.987 11.3654 15.7911 11.3038 15.6442 11.2053L10.1591 7.44903C9.73063 7.15349 9.60828 6.56233 9.90198 6.11894Z" fill="#00C8A3"/>
<path d="M47.2937 5.88494C47.7467 5.61399 48.3221 5.7741 48.5915 6.22978C48.8362 6.64849 48.7261 7.17808 48.3588 7.47366L42.886 11.2176C42.7146 11.3038 42.5309 11.3531 42.3473 11.3654C41.8209 11.3653 41.4047 10.9342 41.4045 10.4171C41.4045 10.097 41.5638 9.80134 41.8208 9.6289L47.2937 5.88494Z" fill="#00C8A3"/>
</svg>
