<svg width="60" height="60" viewBox="0 0 60 60" fill="none" xmlns="http://www.w3.org/2000/svg">
<path fill-rule="evenodd" clip-rule="evenodd" d="M18.8086 27.0301C20.5082 26.7601 22.2457 26.7851 23.9453 27.0674C25.9196 27.4355 27.082 28.1718 27.3069 29.2272C27.6025 30.6323 27.472 33.2126 26.8855 34.6714C26.9869 35.2989 27.072 35.9263 27.1319 36.5539C27.4365 39.7178 27.2467 43.7876 24.7506 45.7908L24.9827 45.9056L25.1698 46.004L25.3576 46.0897L25.5078 46.1634C25.5668 46.1946 25.6206 46.2328 25.6716 46.2737C26.677 46.7567 27.5323 47.1832 28.294 47.5869C29.4062 48.1759 30.3059 48.7035 30.9683 49.1453C33.3926 50.7529 33.5058 52.9617 33.6058 54.7289C33.6183 54.9988 33.6304 55.2693 33.6553 55.527C33.7053 56.0914 33.7428 56.6558 33.7553 57.1957C33.7678 57.7233 33.3558 58.1655 32.8185 58.178C32.2812 58.1903 31.8313 57.7852 31.8187 57.2576C31.8062 56.7544 31.7808 56.2265 31.7308 55.6865C31.7058 55.392 31.6937 55.1095 31.6812 54.8272C31.5937 53.1338 31.5184 51.7963 29.8941 50.7163C29.2943 50.3113 28.4438 49.8198 27.3941 49.2675C26.6819 48.8872 25.8821 48.4825 24.97 48.0408C24.3201 49.4029 23.1704 50.4584 21.7458 51.0107C18.8091 52.1398 15.1724 50.8753 13.1979 48.1876C13.1104 48.2367 13.0224 48.2861 12.9349 48.3352H12.9229C12.9104 48.3352 12.9099 48.3471 12.8974 48.3471C11.7227 49.022 9.98591 50.0531 8.34886 51.1821C6.27427 52.6058 6.07374 56.4599 6.08624 58.0431C6.08607 58.5706 5.66123 59 5.12395 59C4.5868 58.9999 4.16205 58.5828 4.13687 58.0677C4.12433 55.7236 4.49914 51.5011 7.22356 49.6357C8.91061 48.4699 10.6979 47.4022 11.8975 46.7149H11.9103L11.9351 46.703C12.1725 46.5681 12.4472 46.4083 12.7096 46.2611L13.0349 46.077C13.0349 46.0712 13.0379 46.0682 13.0409 46.0666L13.0476 46.0651L13.735 45.6842L14.36 45.3287L14.5095 44.3897C14.3277 44.1394 14.2044 43.8912 14.1346 43.6474C14.0753 43.4455 14.0233 43.2421 13.9769 43.0378C13.8813 43.0287 13.7893 43.0132 13.6974 42.9968C12.4353 42.6409 11.7724 40.8495 11.6474 40.4934C11.5741 40.2754 11.5135 40.0341 11.4678 39.7817C11.4198 39.6116 10.8566 38.0142 10.3974 36.2223C9.48509 32.6142 9.79738 31.4726 10.1848 30.8712C11.4851 28.834 16.0592 27.4596 18.8086 27.0301ZM16.1967 46.0651C16.1466 46.3472 15.9717 46.5923 15.7219 46.7395L14.8776 47.2232C16.3655 49.1023 18.9974 50.013 21.0329 49.231C21.9985 48.8617 22.7571 48.1349 23.2287 47.1569L22.7952 46.949C22.7413 46.9225 22.692 46.8897 22.645 46.8551C22.0093 47.0403 21.3487 47.133 20.6828 47.133C19.0223 47.133 17.4289 46.5792 16.2297 45.8586L16.1967 46.0651ZM24.9181 34.57C22.3933 35.4558 18.7952 35.295 16.5054 35.0604L15.6092 34.9583C15.7217 36.1119 15.7594 37.7808 15.2471 38.9589C15.181 39.1172 15.0729 39.2466 14.9414 39.3427C14.8529 39.4139 14.7504 39.4729 14.6342 39.5119C14.122 39.6712 13.5847 39.4134 13.4097 38.9105C13.3909 38.8736 13.375 38.8334 13.3594 38.7935L13.3098 38.6772C13.3011 38.8218 13.303 38.9649 13.3143 39.1065C13.3546 39.2182 13.3849 39.3445 13.3849 39.462C13.3849 39.4895 13.3827 39.517 13.3804 39.5439C13.4056 39.6609 13.4355 39.7771 13.4721 39.892C13.597 40.2479 13.7722 40.5917 13.9971 40.9108C14.2345 40.6163 14.6342 40.4811 15.009 40.5791C15.5053 40.7068 15.8 41.1856 15.7144 41.6628C15.7547 42.1606 15.852 42.6584 15.9968 43.1444C16.0478 43.236 16.1116 43.3266 16.1816 43.4067C16.2394 43.4524 16.2901 43.5044 16.3349 43.5602C17.384 44.5573 20.19 45.8913 22.6157 44.8622C22.7343 44.7631 22.8783 44.6926 23.0371 44.6602C23.099 44.626 23.16 44.5908 23.2204 44.5552C25.4821 43.1682 25.445 39.0697 25.2201 36.738C25.1576 36.0262 25.0446 35.3022 24.9196 34.5782C24.9192 34.5755 24.9186 34.5727 24.9181 34.57ZM23.3579 28.9082C21.9582 28.6995 20.5208 28.7115 19.1211 28.9201C15.8843 29.4233 12.5478 30.7855 11.8352 31.89C11.8102 31.9146 11.4603 32.5773 12.2852 35.8049C12.3587 36.0886 12.435 36.3675 12.5113 36.6359C12.519 36.6332 12.5267 36.6303 12.5346 36.6277C12.9301 36.4896 13.3569 36.485 13.7447 36.6098C13.7721 35.585 13.6294 34.4952 13.5352 34.0014C13.5102 33.8909 13.5102 33.7802 13.5352 33.6697C13.6351 33.142 14.1348 32.7979 14.6597 32.8961C14.7275 32.9093 21.4094 34.0743 24.6575 32.639C24.9073 32.5286 25.1696 32.4916 25.4319 32.5406C25.5569 31.5466 25.5698 30.3931 25.4199 29.6445C25.3449 29.534 24.8199 29.1414 23.3579 28.9082Z" fill="#00C8A3"/>
<path d="M34.7679 45.1447C34.9803 44.6661 35.5553 44.4569 36.0427 44.6655C36.53 44.874 36.7426 45.4389 36.5302 45.9175L36.2673 46.507C36.2551 46.556 36.2926 46.6174 36.3424 46.6419L39.6672 48.3598C39.6796 48.3719 39.6795 48.3724 39.692 48.3724C39.7669 48.3969 39.8421 48.3596 39.867 48.286C39.8795 48.2493 39.8918 48.2004 39.9166 48.1638L40.1795 47.6726C40.417 47.2063 41.0042 47.0225 41.4791 47.2679C41.9538 47.5011 42.1413 48.0776 41.8915 48.5438L41.6662 48.9858C41.3538 49.7711 40.5918 50.2862 39.7296 50.2863C39.3922 50.2863 39.0547 50.201 38.7673 50.0538L35.4425 48.3352C34.5429 47.881 34.1183 46.8504 34.4306 45.9056C34.4431 45.8688 34.4557 45.844 34.4681 45.8072L34.7679 45.1447Z" fill="#00C8A3"/>
<path d="M47.2904 40.211C47.4154 39.6956 47.9277 39.3766 48.4525 39.4992C49.4648 39.7324 50.1523 40.6777 50.0398 41.6963L49.9527 42.4691C49.8402 43.5123 48.9522 44.298 47.8899 44.298C47.8525 44.298 47.815 44.2976 47.7652 44.2854C47.2404 44.2485 46.8279 43.7946 46.8652 43.2792C46.9027 42.764 47.3527 42.3587 47.8899 42.3954C47.9647 42.3954 48.0275 42.3466 48.0401 42.2731L48.128 41.4995C48.128 41.4382 48.0903 41.3643 48.0153 41.352C47.4904 41.2293 47.1655 40.7264 47.2904 40.211Z" fill="#00C8A3"/>
<path fill-rule="evenodd" clip-rule="evenodd" d="M47.7201 34.1415C48.1786 33.9355 48.6559 33.8492 49.1399 33.8903C50.5895 34.013 51.777 35.2649 52.4144 37.3022C52.8518 38.7012 53.0015 40.3702 52.8516 42.1129C52.4767 46.4451 50.4145 49.5991 48.0026 49.5991C47.9277 49.5991 47.8404 49.5994 47.7532 49.5872C47.4783 49.5641 47.2141 49.4987 46.9606 49.3987C46.9038 49.3833 46.8471 49.3658 46.7909 49.3428L33.8416 42.8164L30.3816 43.7212C30.2941 43.7457 30.2189 43.7577 30.1315 43.7577C29.7566 43.7577 29.4188 43.5497 29.2563 43.2062C28.3315 41.267 28.4316 37.9655 29.9437 36.4436C30.2311 36.1614 30.6686 36.0752 31.0434 36.2469L34.399 37.7821L47.7201 34.1415ZM48.9776 35.7922C48.4653 35.7554 47.8403 36.2585 47.2904 37.1665C46.6156 38.2711 46.1408 39.8667 45.9908 41.548C45.8408 43.2293 46.0283 44.8862 46.5032 46.0889C46.7703 46.7795 47.1208 47.2821 47.485 47.5325L47.6901 47.6361C47.709 47.6454 47.7268 47.657 47.7449 47.6674C47.8062 47.6885 47.8673 47.7033 47.9282 47.7091H47.9905C49.0028 47.7089 50.6146 45.5365 50.927 41.9653C51.0519 40.4804 50.9273 39.0322 50.5649 37.8663C50.1775 36.6391 49.5775 35.8413 48.9776 35.7922ZM34.9685 39.5976C34.7685 40.0885 34.7182 40.629 34.8182 41.1567L44.4208 45.9898C44.0296 44.6383 43.8952 43.0274 44.0415 41.3646C44.1908 39.667 44.6231 38.0767 45.2674 36.7924L34.9685 39.5976ZM30.9691 38.309C30.5567 39.1803 30.4688 40.5423 30.7437 41.659L32.8486 41.1053C32.7806 40.4526 32.8427 39.8337 33.0334 39.2496L30.9691 38.309Z" fill="#00C8A3"/>
<path d="M53.4014 45.2304C53.7889 44.8745 54.401 44.8995 54.7634 45.2922L57.0883 47.8075C57.2508 47.9793 57.3377 48.213 57.3377 48.4462C57.3376 48.9738 56.9127 49.4031 56.3755 49.4031C56.1007 49.403 55.851 49.2926 55.6761 49.0842L53.3391 46.5681C52.9767 46.1877 53.0015 45.5863 53.4014 45.2304Z" fill="#00C8A3"/>
<path d="M54.064 41.7328C54.1265 41.2175 54.6135 40.8489 55.1382 40.91L59.1504 41.4258C59.6377 41.4872 60 41.8922 60 42.3708C59.9999 42.8984 59.5623 43.3158 59.0249 43.3158C58.9875 43.3157 58.9376 43.3031 58.9002 43.3031L54.8888 42.7881C54.364 42.7267 54.0017 42.2481 54.064 41.7328Z" fill="#00C8A3"/>
<path d="M57.213 35.0559C57.6629 34.7739 58.2628 34.8967 58.5502 35.3384C58.8376 35.7802 58.7124 36.3693 58.2625 36.6515L55.4635 38.4432C55.3135 38.5536 55.1258 38.6027 54.9384 38.6027C54.6135 38.6027 54.3009 38.4436 54.1384 38.1615C53.8385 37.7198 53.9636 37.1306 54.4133 36.8483L57.213 35.0559Z" fill="#00C8A3"/>
<path d="M9.13612 17.5063C9.54851 17.1752 10.1607 17.2244 10.498 17.6292L15.1217 23.0906C15.2716 23.2624 15.347 23.4831 15.3471 23.7039C15.3471 24.2317 14.9094 24.649 14.372 24.649C14.0847 24.6489 13.81 24.5262 13.6351 24.3054L9.01067 18.844C8.67339 18.4391 8.72376 17.8376 9.13612 17.5063Z" fill="#00C8A3"/>
<path d="M30.4943 17.6412C30.8317 17.2242 31.4314 17.1751 31.8562 17.5063C32.2811 17.8376 32.331 18.439 31.9937 18.844L27.37 24.3054C27.1826 24.5263 26.907 24.649 26.6196 24.649C26.3948 24.6489 26.1702 24.5752 25.9953 24.4403C25.5829 24.1089 25.5325 23.5075 25.8699 23.1025L30.4943 17.6412Z" fill="#00C8A3"/>
<path d="M20.471 15.1385C21.0082 15.1264 21.4451 15.5314 21.4701 16.059V23.4103C21.4575 23.9256 21.033 24.3553 20.4958 24.3553C19.9585 24.3553 19.5211 23.9257 19.5335 23.4103V16.059C19.5585 15.5558 19.9586 15.1508 20.471 15.1385Z" fill="#00C8A3"/>
<path fill-rule="evenodd" clip-rule="evenodd" d="M6.53621 1C8.69818 1 10.4484 2.71807 10.4485 4.84113C10.4485 5.86767 10.0381 6.79882 9.37124 7.48759C11.5329 8.51067 13.0369 10.6686 13.0724 13.1867V13.2605C13.0599 13.7881 12.6099 14.1931 12.0726 14.1809C11.5354 14.1686 11.1103 13.7269 11.1351 13.1993C11.0976 10.7694 9.09829 8.79286 6.61133 8.75604C4.07433 8.70697 1.97484 10.7081 1.93735 13.1993C1.93716 13.7269 1.49956 14.1563 0.96229 14.1563C0.425026 14.1561 0 13.7266 0 13.1867C0.0360701 10.6787 1.53863 8.51639 3.70267 7.48982C3.03481 6.80089 2.6247 5.86852 2.6247 4.84113C2.6248 2.71813 4.37432 1.0001 6.53621 1ZM6.53621 2.90193C5.43663 2.90204 4.56215 3.77358 4.56205 4.84113C4.56205 5.90876 5.44904 6.78022 6.53621 6.78032C7.62347 6.78032 8.51112 5.90883 8.51112 4.84113C8.51101 3.77352 7.6234 2.90193 6.53621 2.90193Z" fill="#00C8A3"/>
<path fill-rule="evenodd" clip-rule="evenodd" d="M21.1719 1.00522C23.2401 1.10798 24.882 2.7844 24.8821 4.84113C24.8821 5.8676 24.4724 6.79883 23.8056 7.48759C25.9674 8.51061 27.472 10.6684 27.5075 13.1867V13.2605C27.495 13.788 27.0449 14.193 26.5077 14.1809C25.9704 14.1686 25.5454 13.7269 25.5702 13.1993C25.5338 10.8453 23.6561 8.91743 21.2778 8.76573L21.0464 8.75604C18.5094 8.70696 16.4092 10.708 16.3717 13.1993C16.3715 13.7268 15.9346 14.1562 15.3974 14.1563C14.8725 14.1563 14.4343 13.7267 14.4343 13.1867C14.4704 10.6788 15.9731 8.51645 18.137 7.48982C17.4691 6.80088 17.059 5.86858 17.059 4.84113C17.0591 2.71807 18.8086 1 20.9706 1L21.1719 1.00522ZM20.9706 2.90193C19.8833 2.90193 18.9956 3.77378 18.9956 4.8538C19.0083 5.92143 19.8961 6.79299 20.9833 6.79299C22.0704 6.78052 22.97 5.90873 22.9575 4.84113C22.9448 3.77354 22.0577 2.90197 20.9706 2.90193Z" fill="#00C8A3"/>
<path fill-rule="evenodd" clip-rule="evenodd" d="M35.4049 1C37.5669 1 39.3171 2.71807 39.3172 4.84113C39.3172 5.86542 38.9087 6.79479 38.2444 7.48312C40.4107 8.50454 41.9183 10.6652 41.9539 13.1867V13.2605C41.9414 13.7881 41.4914 14.1931 40.954 14.1809C40.4169 14.1685 39.9925 13.7269 40.0173 13.1993C39.9798 10.7694 37.9798 8.79286 35.4928 8.75604C32.9558 8.70704 30.8563 10.7081 30.8188 13.1993C30.8186 13.7268 30.3816 14.1561 29.8445 14.1563C29.3071 14.1563 28.869 13.7267 28.8815 13.1867C28.9175 10.6821 30.4159 8.52182 32.5751 7.49355C31.9051 6.80425 31.4934 5.87038 31.4934 4.84113C31.4935 2.71817 33.2431 1.00016 35.4049 1ZM35.4049 2.90193C34.3178 2.90209 33.4308 3.77361 33.4307 4.84113C33.4307 5.90873 34.3178 6.78017 35.4049 6.78032C36.4922 6.78032 37.3798 5.90883 37.3798 4.84113C37.3797 3.77352 36.4921 2.90193 35.4049 2.90193Z" fill="#00C8A3"/>
</svg>
