<svg width="60" height="60" viewBox="0 0 60 60" fill="none" xmlns="http://www.w3.org/2000/svg">
<path fill-rule="evenodd" clip-rule="evenodd" d="M50.1228 31.6523C54.9988 31.1014 59.3994 34.608 59.9499 39.492C59.9874 39.8175 59.9999 40.1557 59.9999 40.4812C60.0124 42.8479 59.0622 45.127 57.3743 46.7925C56.4242 47.7316 55.874 49.1092 55.874 50.5367V52.5903C55.8863 53.5625 55.1376 54.3394 54.1862 54.3779V57.0358C54.1987 57.5617 53.7611 58 53.2235 58H49.0351C48.4976 57.9999 48.0724 57.5616 48.0724 57.0358V54.3767C47.1316 54.3375 46.3722 53.5665 46.3721 52.6029V50.5492C46.3846 49.1343 45.8218 47.7693 44.8343 46.7549C42.8463 44.7513 41.9211 41.9209 42.3587 39.1282C42.9339 35.2338 46.2095 32.0902 50.1228 31.6523ZM50.0109 56.059H52.2608V54.381H50.0109V56.059ZM56.0616 35.5843C54.5613 34.0692 52.4608 33.3304 50.3479 33.5808C47.2848 33.9189 44.7344 36.3733 44.2841 39.4162C43.9466 41.6076 44.6592 43.8241 46.222 45.3894C47.5847 46.7542 48.335 48.6202 48.3225 50.5486L48.31 52.4401H50.1729V44.7733L47.8974 42.0841C47.5474 41.6709 47.5974 41.0572 48.0099 40.7191C48.4225 40.3685 49.0351 40.4187 49.3727 40.8318L51.1105 42.8855L52.7609 40.8444C53.0734 40.4061 53.6736 40.306 54.1112 40.619C54.5488 40.932 54.6488 41.5331 54.3362 41.9714C54.3112 42.0089 54.2862 42.034 54.2612 42.0716L52.0982 44.762V52.4401H53.9736V50.5492C53.9736 48.6083 54.7238 46.7299 56.0366 45.4276C58.7621 42.7227 58.7621 38.3143 56.0616 35.5843Z" fill="#00C8A3"/>
<path d="M35.1948 5.18005C41.7208 5.26774 46.7472 7.05843 49.7353 10.3768C51.2856 11.003 52.6984 11.9422 53.8486 13.1568C55.7115 15.1103 57.7369 18.6669 56.7617 24.477C56.4867 26.1299 56.1116 27.7579 55.6365 29.3607C55.4864 29.874 54.9487 30.1621 54.4362 30.0119C53.9237 29.8616 53.6362 29.3231 53.7861 28.8098C54.2362 27.2821 54.5987 25.7292 54.8488 24.164C56.4241 14.6596 49.1851 12.23 48.8726 12.1293C48.6976 12.0792 48.5475 11.9791 48.435 11.8413C42.6338 5.11712 29.2563 7.39585 26.8805 7.87174C26.0129 9.35849 26.4132 11.8519 26.8087 13.3027L36.195 12.4937C36.545 12.4687 36.8701 12.6191 37.0701 12.907L40.9334 18.5295C41.2335 18.9678 41.121 19.5689 40.6834 19.8819C40.5334 20.0071 40.3458 20.0572 40.1458 20.0698C39.8333 20.0697 39.5331 19.9195 39.3456 19.644L35.7949 14.4848L26.6761 15.2693C26.1773 16.0518 24.9725 18.0312 23.6799 20.8699C22.0796 24.3887 22.5296 27.6446 22.5296 27.6696C22.5671 27.945 22.4921 28.2206 22.3046 28.4335L16.816 34.8944C16.741 34.9694 16.7286 35.0823 16.766 35.1824C16.8035 35.2826 16.891 35.3577 16.991 35.3827L20.3417 35.9588C20.7167 36.0214 21.0293 36.3095 21.1169 36.6851L21.7314 39.1413H25.2552C25.7927 39.1414 26.2178 39.5797 26.2179 40.1055C26.2179 40.6315 25.7928 41.0697 25.2552 41.0698H22.2133L22.6922 42.9838C22.7422 43.1841 22.7296 43.3971 22.6422 43.5974C22.0546 45.0249 21.5546 47.4291 22.3546 48.0679C23.1548 48.7065 26.9678 48.143 30.0187 47.2038C30.5062 47.0536 31.0313 47.3042 31.2064 47.7799L34.082 55.3058C34.2696 55.8067 34.0195 56.3703 33.5194 56.5581C33.4194 56.5831 33.3068 56.5956 33.1818 56.5956V56.5975C32.7818 56.5975 32.4192 56.3469 32.2817 55.9714L29.7311 49.2838C29.031 49.4716 27.9933 49.7346 26.868 49.935C23.0297 50.6363 21.767 50.0602 21.1544 49.5593C19.1542 47.9565 20.3167 44.2878 20.7418 43.1353L19.3915 37.7507L16.6659 37.2874C15.4532 37.0745 14.6406 35.9224 14.8406 34.7078C14.9031 34.3071 15.0781 33.9439 15.3407 33.6309L20.5667 27.4949C20.4042 24.9403 20.8668 22.3854 21.917 20.056C22.8172 18.0274 23.8675 16.0738 25.0552 14.1955C24.6425 12.8179 23.6675 8.81114 25.5303 6.40725C25.6678 6.23194 25.8678 6.10671 26.0804 6.05662C29.081 5.44302 32.1318 5.14248 35.1948 5.18005Z" fill="#00C8A3"/>
<path d="M48.1224 19.9445C48.3849 19.8694 48.6601 19.907 48.8976 20.0572C49.1351 20.195 49.2852 20.4329 49.3352 20.6959L50.0478 24.4526C50.1478 24.9785 49.7978 25.492 49.2852 25.5921C49.2227 25.5797 49.1726 25.5921 49.1101 25.5921C48.6476 25.5921 48.2474 25.2665 48.1599 24.8032L47.9049 23.484L42.0462 31.7657C41.7336 32.2038 41.1335 32.3041 40.6959 31.9911C40.6709 31.9785 40.6584 31.966 40.6334 31.941L36.8826 28.8479L30.9939 36.3864C30.8064 36.6243 30.5188 36.7621 30.2312 36.7621C29.6938 36.7619 29.2685 36.3362 29.2685 35.7979C29.2686 35.585 29.3436 35.3721 29.4811 35.1968L35.9956 26.8569C36.3206 26.4312 36.9332 26.356 37.3583 26.6941C37.3706 26.6942 37.3709 26.7066 37.3833 26.7066L41.0716 29.7871L46.2408 22.4816L44.8593 22.8748C44.3467 23.0249 43.809 22.737 43.659 22.2236C43.509 21.7103 43.7967 21.1718 44.3091 21.0215H44.3341L48.1224 19.9445Z" fill="#00C8A3"/>
<path d="M10.0646 5.14311C10.6021 5.14311 11.0271 5.58152 11.0273 6.10733V6.46422C11.7026 6.74467 12.2446 7.31001 12.4776 8.03578C12.6275 8.54916 12.3275 9.08765 11.8149 9.23793C11.3274 9.37548 10.8023 9.11254 10.6272 8.62433C10.5272 8.31127 10.1771 8.13596 9.86454 8.23614C9.55214 8.33643 9.37696 8.68703 9.47696 9C9.55199 9.25031 9.78965 9.42566 10.0521 9.42576C11.4524 9.42576 12.5901 10.5653 12.5901 11.9678C12.59 13.0283 11.9465 13.9303 11.0273 14.3076V14.6476C11.0273 15.1735 10.5897 15.6118 10.0646 15.6118C9.52707 15.6117 9.10188 15.1735 9.10188 14.6476V14.3064C8.4887 14.0555 7.98266 13.5708 7.71409 12.932C7.50159 12.4437 7.73927 11.8677 8.2267 11.6673C8.7143 11.4544 9.28942 11.6923 9.48946 12.1807C9.61448 12.4936 9.96465 12.6438 10.2771 12.5188C10.5896 12.3936 10.7396 12.0429 10.6147 11.7299C10.5272 11.5045 10.3021 11.3542 10.0521 11.3542C8.65197 11.3541 7.51417 10.2145 7.51405 8.81216C7.51405 7.74618 8.17164 6.8321 9.10188 6.45483V6.10733C9.10203 5.56908 9.53966 5.14323 10.0646 5.14311Z" fill="#00C8A3"/>
<path fill-rule="evenodd" clip-rule="evenodd" d="M17.2035 2C18.8163 2.00003 20.1165 3.30241 20.1167 4.91771V20.5838C20.1291 21.1222 19.6915 21.5599 19.154 21.5599C18.9664 21.5599 18.7914 21.5098 18.6413 21.4097L14.5155 18.8175C14.0904 18.5546 13.6027 18.4043 13.1027 18.4043H2.9006C1.30027 18.4043 0 17.102 0 15.4866V4.91771C0.000132763 3.31496 1.30035 2.01257 2.9006 2H17.2035ZM2.9006 3.94159C2.36299 3.94159 1.9254 4.3799 1.9254 4.91834V15.4866C1.9254 16.025 2.36301 16.4633 2.9006 16.4633H13.0902C13.9529 16.4634 14.8031 16.7138 15.5407 17.1771L18.1788 18.8426V4.91771C18.1788 4.37929 17.7411 3.94104 17.2035 3.94097L2.9006 3.94159Z" fill="#00C8A3"/>
</svg>
