<svg width="60" height="60" viewBox="0 0 60 60" fill="none" xmlns="http://www.w3.org/2000/svg">
<path fill-rule="evenodd" clip-rule="evenodd" d="M39.3086 27.4935C41.0002 27.206 42.7294 27.1811 44.421 27.456C47.1576 27.8934 51.7102 29.2932 53.0165 31.3678C53.4021 31.9801 53.7131 33.1424 52.805 36.8168C52.3323 38.7039 51.7477 40.3786 51.7228 40.4536C51.7086 40.4946 51.6908 40.534 51.6712 40.5723C51.6315 40.7633 51.5831 40.9534 51.5232 41.141C51.3986 41.5037 50.7393 43.3281 49.4831 43.6905C49.3953 43.7145 49.3074 43.7268 49.2163 43.7336C49.1704 43.9419 49.1188 44.1487 49.0602 44.3529C48.9879 44.6113 48.8573 44.8741 48.664 45.1396L48.8114 46.0776L49.4334 46.44C49.471 46.4527 49.7446 46.6151 50.1175 46.8274L50.13 46.8399C50.1599 46.86 50.1816 46.8724 50.2084 46.8893L50.454 47.0274C50.7152 47.1773 51.0014 47.3399 51.2377 47.4773L51.2626 47.4898H51.275C52.4692 48.1897 54.2481 49.2771 55.9272 50.4642C58.6387 52.364 59.0122 56.6632 58.9997 59.0502C58.9747 59.575 58.5512 60 58.0288 60C57.4941 59.9999 57.0587 59.5624 57.0586 59.0252C57.071 57.4005 56.872 53.4887 54.8071 52.039C53.1776 50.8892 51.4486 49.8269 50.2793 49.152L50.2544 49.1395H50.2419L49.9807 48.9895C48.5005 51.0516 46.0872 52.2889 43.7363 52.2889C42.9526 52.2889 42.1813 52.1514 41.4599 51.864C40.0419 51.3016 38.8975 50.2267 38.2506 48.8395C37.3302 49.2894 36.5464 49.702 35.8374 50.0893C34.9792 50.5392 34.1581 51.0392 33.3496 51.564C31.7327 52.6639 31.6579 54.0262 31.5708 55.7508C31.5584 56.0382 31.5459 56.3382 31.521 56.6256C31.4713 57.1755 31.4464 57.713 31.4215 58.2378C31.409 58.7751 30.9612 59.1877 30.4264 59.1751C29.8917 59.1626 29.4811 58.7126 29.4935 58.1753C29.5059 57.6255 29.5432 57.0504 29.593 56.4756C29.6178 56.2133 29.6303 55.9382 29.6427 55.6633C29.7422 53.8637 29.8544 51.614 32.2674 49.9768C32.9266 49.5269 33.8224 48.9895 34.9294 48.3896C35.6944 47.9748 36.5546 47.5363 37.5671 47.0274C37.6138 46.9904 37.6626 46.9555 37.7157 46.9268L38.0391 46.7643L38.2257 46.6643L38.2755 46.6393L38.4801 46.5343C35.997 44.494 35.808 40.3501 36.1111 37.1173C36.1713 36.4717 36.2563 35.8258 36.3586 35.1802C35.7938 33.6838 35.6719 31.094 35.9624 29.6931C36.1863 28.6183 37.3433 27.8684 39.3086 27.4935ZM46.9499 46.6212C45.754 47.3503 44.1748 47.9022 42.5297 47.9022C41.8619 47.9022 41.1996 47.807 40.5624 47.6154C40.5096 47.6576 40.4523 47.6954 40.3901 47.7266L39.9604 47.9422C40.4293 48.9495 41.1905 49.6979 42.1689 50.0768C44.2114 50.8754 46.8404 49.94 48.3108 48.0159L47.4556 47.5148C47.2068 47.3648 47.0327 47.1148 46.9829 46.8274L46.9499 46.6212ZM38.2886 35.267C38.2869 35.2747 38.2841 35.282 38.2823 35.2895C38.1706 35.9584 38.0712 36.6526 38.0143 37.3048C37.7904 39.6793 37.7533 43.8658 40.0045 45.2652C40.1058 45.3262 40.2082 45.3853 40.3161 45.4395C40.3535 45.4554 40.3897 45.4731 40.4243 45.4933C42.8613 46.6857 45.746 45.3244 46.8467 44.2748C46.8906 44.219 46.9402 44.1669 46.9966 44.121C47.0773 44.0305 47.1497 43.9332 47.2068 43.828C47.3459 43.3503 47.441 42.8618 47.4836 42.3726C47.3746 41.8735 47.6814 41.3622 48.177 41.2284C48.5502 41.1285 48.9358 41.266 49.1722 41.5659C49.396 41.241 49.5702 40.8909 49.6946 40.5286C49.7357 40.3965 49.7688 40.2628 49.7954 40.128C49.7952 40.1199 49.7947 40.1118 49.7947 40.1037C49.7947 40.001 49.8123 39.9043 49.8433 39.8093C49.8608 39.6387 49.8666 39.4662 49.8563 39.2913C49.8277 39.3489 49.7997 39.4141 49.7767 39.475C49.7025 39.755 49.5055 39.9995 49.2225 40.1162C49.1241 40.1567 49.022 40.1786 48.9203 40.1855C48.9178 40.1857 48.9153 40.186 48.9128 40.1861C48.8862 40.1877 48.8597 40.1886 48.8332 40.188C48.8111 40.1878 48.789 40.186 48.7667 40.1843C48.7625 40.1839 48.7583 40.1841 48.7542 40.1836C48.6824 40.1771 48.6097 40.1641 48.5378 40.1411C48.2117 40.0292 47.988 39.7689 47.9108 39.4619C47.4606 38.2728 47.4978 36.6589 47.6055 35.5295C45.4784 35.8044 41.1988 36.1669 38.3259 35.1296C38.3134 35.1796 38.301 35.2296 38.2886 35.267ZM44.0976 29.3681C42.7045 29.1557 41.2739 29.1432 39.8808 29.3556C38.4258 29.593 37.9032 29.9929 37.8283 30.1055C37.679 30.8678 37.6915 32.0426 37.8159 33.0549C38.077 33.005 38.3508 33.0425 38.5871 33.1549C41.8201 34.6165 48.4836 33.4308 48.5508 33.4299C49.0733 33.3299 49.5709 33.6799 49.6704 34.2047C49.6952 34.3172 49.6952 34.4422 49.6704 34.5547C49.5777 35.0513 49.4367 36.1453 49.4595 37.1786C49.8652 37.0564 50.2806 37.0838 50.64 37.2042C50.6519 37.2081 50.6643 37.2122 50.6767 37.2167C50.7523 36.9453 50.8284 36.6643 50.9012 36.3793C51.7222 33.0925 51.3739 32.4176 51.3615 32.3926C50.6522 31.2678 47.3315 29.8805 44.0976 29.3681Z" fill="#00C8A3"/>
<path d="M9.83963 48.4271C10.3745 48.4271 10.7974 48.8645 10.7974 49.3894C10.7974 49.9268 10.3745 50.3518 9.83963 50.3518H8.68279C8.14805 50.3516 7.72502 49.9142 7.72498 49.3894C7.72498 48.8521 8.16046 48.4273 8.68279 48.4271H9.83963Z" fill="#00C8A3"/>
<path d="M14.3675 48.4271C14.9024 48.4271 15.3253 48.8645 15.3253 49.3894C15.3377 49.9268 14.9023 50.3518 14.3675 50.3518H13.2106C12.6758 50.3518 12.2529 49.9143 12.2528 49.3894C12.2528 48.852 12.6882 48.4271 13.2106 48.4271H14.3675Z" fill="#00C8A3"/>
<path d="M18.9078 48.4271C19.4426 48.4271 19.8656 48.8645 19.8656 49.3894C19.8655 49.9268 19.4426 50.3518 18.9078 50.3518H17.7509C17.2161 50.3517 16.7931 49.9143 16.7931 49.3894C16.7931 48.8521 17.2285 48.4272 17.7509 48.4271H18.9078Z" fill="#00C8A3"/>
<path fill-rule="evenodd" clip-rule="evenodd" d="M20.6244 36.5662C20.6865 36.5662 20.7488 36.5787 20.8234 36.5912C25.4383 37.566 26.6947 41.2655 26.7071 43.09V54.9128C26.6947 56.6624 25.2764 58.087 23.5102 58.0997H4.70227C2.93594 58.0997 1.51783 56.6625 1.50541 54.9003V43.0775C1.50543 41.3028 2.93594 39.8781 4.70227 39.8781H19.6541V37.5285C19.6541 36.9911 20.0896 36.5538 20.6244 36.5662ZM21.5822 40.841C21.5821 41.3783 21.1466 41.8032 20.6244 41.8158H4.70227V41.8027C4.0057 41.8027 3.43356 42.3777 3.43348 43.0775V54.9009C3.43358 55.6008 4.00573 56.1757 4.70227 56.1757H23.5102C24.2067 56.1755 24.7789 55.6006 24.779 54.9009V43.0906C24.779 42.9031 24.6419 40.0413 21.5822 38.8164V40.841Z" fill="#00C8A3"/>
<path fill-rule="evenodd" clip-rule="evenodd" d="M11.295 1.12269C14.6287 -0.764259 19.8409 -0.214445 22.6768 2.33497C24.6546 4.10953 25.5254 5.94678 25.911 7.17158C26.3206 8.45613 25.6148 9.82723 24.3387 10.2304C24.8414 13.5397 25.2347 19.5959 21.9311 22.1819L23.0873 22.7568C23.1346 22.7817 23.1789 22.8112 23.2217 22.8424C24.1709 23.3098 25.0625 23.7751 25.8737 24.2066C27.0429 24.8439 28.0132 25.4189 28.7347 25.9063C31.2969 27.6559 31.434 30.0556 31.5335 31.9801C31.5459 32.2925 31.5708 32.5801 31.5957 32.8675C31.6454 33.4798 31.6828 34.0674 31.6952 34.7046C31.7075 35.2419 31.297 35.692 30.7623 35.7045L30.7374 35.7038C30.215 35.7038 29.7921 35.2919 29.7796 34.7671C29.7671 34.1673 29.7298 33.6047 29.68 33.03C29.6552 32.7176 29.6303 32.3925 29.6179 32.0801C29.5183 30.268 29.4311 28.7057 27.6649 27.506C26.9932 27.0561 26.0851 26.5061 24.9656 25.9063C24.5386 25.6752 24.0766 25.4305 23.593 25.1826C23.2713 27.0417 22.1709 29.0389 21.5822 29.7805C21.3085 30.118 20.9104 30.3304 20.4751 30.3554H20.388C19.99 30.3554 19.6168 30.2054 19.3182 29.9305L18.0868 28.8007V34.1791C18.0868 34.7165 17.6514 35.1414 17.129 35.1414C16.5941 35.1414 16.1711 34.704 16.1587 34.1791V29.6406L15.8353 30.3554C15.8104 30.3929 15.7855 30.443 15.7607 30.4804C15.5243 30.8428 15.1511 31.0803 14.7282 31.1553C14.666 31.1678 14.5913 31.1678 14.5043 31.1803C14.1312 31.1803 13.7579 31.0428 13.4719 30.8054C11.2764 29.0319 9.90628 26.386 9.26805 24.9177L9.24255 24.9308C7.35182 26.0431 5.72227 27.0929 4.37885 28.0427C2.12742 29.6174 1.91594 33.8791 1.92834 35.6413C1.92834 36.1787 1.50539 36.6168 0.958089 36.6168C0.423267 36.6168 0.00036832 36.1918 0.000275802 35.6545C-0.0121632 33.0924 0.385921 28.4804 3.28421 26.443C4.67737 25.4557 6.3692 24.3808 8.30962 23.2311C8.32209 23.2187 8.34697 23.2061 8.35937 23.2061L8.45889 23.1561C8.70081 23.0188 8.9687 22.8623 9.22638 22.7118L10.9735 21.2215L11.1252 20.5591C10.9294 20.2869 10.7911 20.0162 10.7228 19.7568C10.5856 19.226 10.4799 18.7216 10.4137 18.2902C8.91348 17.8888 7.95954 16.3122 7.51351 13.4954C7.42644 13.033 7.30203 12.5705 7.15278 12.1207C6.63034 10.421 5.90891 8.09625 7.15278 5.48439C7.50112 4.74727 8.18531 4.40958 8.89426 4.3346C9.0809 3.38478 9.64081 2.05989 11.295 1.12269ZM10.9094 23.8316C11.3696 24.9439 12.5141 27.356 14.3426 29.0057L15.3502 26.7811C13.3351 25.9688 12.1409 24.419 11.5065 23.3192L10.9094 23.8316ZM20.8483 23.7941C20.3756 24.594 19.5546 25.7313 18.4102 26.4687L20.3258 28.2183C20.9602 27.2435 21.7439 25.4313 21.7688 24.2441L20.8483 23.7941ZM13.0894 22.2394C13.6016 23.1702 14.7004 24.6585 16.6799 25.192C17.5334 24.9078 18.2408 24.164 18.7392 23.4805C18.4089 23.5252 18.0745 23.5468 17.7385 23.5436C16.5941 23.5311 15.4621 23.3061 14.4048 22.8812C13.9387 22.6963 13.4961 22.4786 13.0894 22.2394ZM13.521 9.05873C13.322 9.64607 13.4215 10.746 13.5334 11.8957C13.6329 12.858 13.6951 13.8334 13.6951 14.8083C13.695 15.183 13.4841 15.5082 13.1484 15.6706L12.2528 16.0956L12.315 17.3703C12.3205 17.4886 12.3034 17.6022 12.2709 17.7084C12.3086 18.0528 12.4068 18.6074 12.5762 19.2694C12.5995 19.3429 12.6849 19.4669 12.8288 19.6218C12.8757 19.6612 12.9189 19.7049 12.9575 19.7524C13.3913 20.1717 14.1825 20.7436 15.3004 21.1565C16.3951 21.5564 18.5221 22.0563 20.4627 20.8566C23.3199 19.0789 22.8658 13.3799 22.4554 10.6197C18.6713 11.0691 15.0227 9.71621 13.521 9.05873ZM21.3583 3.79782C19.169 1.79821 14.8156 1.33579 12.2279 2.79801C10.6482 3.69781 10.7104 5.06013 10.7228 5.24756C10.7725 5.57239 10.6481 5.88501 10.3994 6.0974C10.1507 6.30979 9.81465 6.38472 9.50377 6.28486C9.26746 6.23488 8.94405 6.24738 8.88182 6.29736C7.96142 8.23442 8.49621 9.98421 8.96889 11.5339C9.15542 12.0712 9.29233 12.6213 9.39182 13.1836C9.6406 14.7206 10.0014 15.5207 10.2874 15.9331L10.2626 15.5582C10.2377 15.1707 10.4492 14.7958 10.8099 14.6333L11.7304 14.1959C11.7055 13.4711 11.6427 12.7586 11.5805 12.0713C11.3815 9.98435 11.2077 8.02212 12.7 7.05972C12.9861 6.87228 13.3593 6.85983 13.6578 7.02223C13.7076 7.04722 19.032 9.7592 23.6968 8.42197C23.8336 8.38448 23.9456 8.29689 24.0078 8.17202C24.07 8.04713 24.0823 7.90947 24.0451 7.77209C23.7342 6.77232 23.0125 5.2725 21.3583 3.79782Z" fill="#00C8A3"/>
<path d="M44.1841 5.03509C44.7188 5.03523 45.1418 5.47265 45.1419 5.99742V6.46483C45.91 6.75674 46.529 7.38601 46.7963 8.20951C46.958 8.72186 46.6842 9.25926 46.1743 9.42179C45.6643 9.58426 45.1295 9.3093 44.9677 8.7969C44.8709 8.48737 44.6057 8.27226 44.3047 8.22576C44.2651 8.2306 44.225 8.2345 44.1841 8.23451C44.1426 8.23451 44.1016 8.23087 44.0616 8.22576C44.0152 8.23292 43.9688 8.24369 43.9229 8.2595C43.4875 8.39697 43.2387 8.8719 43.388 9.30931C43.4999 9.65923 43.8233 9.8842 44.1841 9.8967C45.7016 9.89677 46.9456 11.134 46.9456 12.6712C46.9456 13.8695 46.1967 14.885 45.1419 15.2807V15.7706C45.1543 16.2954 44.7188 16.7328 44.1841 16.7329C43.6492 16.7329 43.2263 16.2955 43.2263 15.7706V15.2851C42.5165 15.0222 41.931 14.4743 41.6341 13.746C41.4226 13.2586 41.6589 12.6837 42.1441 12.4837C42.6291 12.2839 43.2014 12.5088 43.4004 12.9961C43.5746 13.421 44.0597 13.621 44.4951 13.446C44.9178 13.271 45.1169 12.7836 44.9429 12.3463C44.8185 12.0339 44.5074 11.8339 44.1716 11.8338C42.6541 11.8338 41.4102 10.5965 41.4102 9.05935C41.4102 7.86583 42.1646 6.84069 43.2263 6.45171V5.99742C43.2263 5.46007 43.6617 5.03509 44.1841 5.03509Z" fill="#00C8A3"/>
<path fill-rule="evenodd" clip-rule="evenodd" d="M53.5881 1.79819C55.3544 1.79819 56.7725 3.23543 56.7725 4.9976V16.8204C56.7725 18.5951 55.342 20.0198 53.5881 20.0198H38.6362V22.3819C38.6362 22.9193 38.2133 23.3442 37.6784 23.3442C37.6163 23.3442 37.5415 23.3317 37.4794 23.3192C32.8647 22.3444 31.6081 18.6449 31.5957 16.8204V4.9976C31.5957 3.22304 33.0263 1.79833 34.7801 1.79819H53.5881ZM34.7801 3.72284C34.0835 3.72291 33.5113 4.29777 33.5113 4.9976V16.8079H33.5237C33.5238 17.0092 33.6616 19.8576 36.7206 21.0821V19.0575C36.7206 18.5202 37.1561 18.0953 37.6784 18.0827H53.5881C54.2846 18.0827 54.8568 17.5077 54.8569 16.8079V4.9976C54.8569 4.2977 54.2847 3.72285 53.5881 3.72284H34.7801Z" fill="#00C8A3"/>
</svg>
