<svg width="60" height="60" viewBox="0 0 60 60" fill="none" xmlns="http://www.w3.org/2000/svg">
<path d="M44.2751 38.3152C45.3998 37.8166 46.7244 38.2778 47.2742 39.3874L47.6991 40.2351C48.2114 41.2698 47.874 42.529 46.9243 43.1647L46.0746 43.7257C45.8997 43.8503 45.7121 43.9003 45.5247 43.9003C44.9875 43.9002 44.5626 43.4638 44.5625 42.9279C44.5625 42.6038 44.7251 42.3046 44.9874 42.13L45.8371 41.569C45.9871 41.4693 46.0495 41.2698 45.9621 41.0953L45.5372 40.2476C45.4497 40.073 45.2373 39.9982 45.0624 40.073L44.0876 40.5093C43.6003 40.7211 43.0254 40.5092 42.813 40.0232C42.6006 39.537 42.8131 38.9635 43.3003 38.7516L44.2751 38.3152Z" fill="#00C8A3"/>
<path fill-rule="evenodd" clip-rule="evenodd" d="M41.4009 31.2336C43.0129 30.3985 45.15 30.9595 47.2742 32.767C48.7863 34.051 50.1609 35.8338 51.2606 37.9281C52.5102 40.3092 53.2225 42.8027 53.285 44.9468C53.3475 47.3279 52.5851 49.0608 51.1357 49.8213C50.8111 49.9792 50.4711 50.0919 50.1228 50.1535C50.0788 50.1661 50.0335 50.1769 49.9866 50.1834L28.1052 53.3456L23.6684 57.7133C23.5059 57.9003 23.2554 58 23.0054 58C22.8181 57.9999 22.6429 57.9501 22.4931 57.8504C20.1063 56.3419 17.8569 52.6141 18.4192 49.8842C18.4942 49.5103 18.7947 49.211 19.1696 49.1362L25.3404 47.8191L40.2281 32.2446C40.4132 31.9952 40.6239 31.776 40.8585 31.5882C40.9126 31.5377 40.9706 31.4938 41.0322 31.458C41.1496 31.3759 41.2727 31.3008 41.4009 31.2336ZM20.2568 50.8691C20.2818 52.4898 21.544 54.5841 22.9061 55.7685L26.3307 52.3931C25.6708 51.6172 25.2326 50.7683 25.023 49.8543L20.2568 50.8691ZM26.8306 49.049C26.9306 49.9092 27.3305 50.6697 28.0053 51.3927L45.9046 48.8121C45.8989 48.8079 45.8929 48.8039 45.8871 48.7996C44.1627 47.5281 42.5131 45.5084 41.2759 43.1398C40.0388 40.7712 39.314 38.2525 39.2515 36.108C39.2511 36.093 39.2512 36.0781 39.2509 36.0631L26.8306 49.049ZM46.0121 34.2262C44.5375 32.9795 43.1498 32.5058 42.3 32.9421C40.7506 33.7527 40.6506 37.7543 42.9873 42.2297C45.3241 46.7052 48.6736 48.912 50.2234 48.1015C51.7728 47.2911 51.8727 43.2893 49.5361 38.8139C48.5739 36.969 47.3241 35.3357 46.0121 34.2262Z" fill="#00C8A3"/>
<path d="M40.4636 52.4773C40.9885 52.4274 41.4509 52.8139 41.5134 53.325L41.6383 54.5093C41.9132 55.8432 41.0635 57.1398 39.7264 57.4265C39.6264 57.4515 39.5264 57.4639 39.4264 57.4764L34.3529 57.9003H34.1404C33.0158 57.9002 32.0285 57.1398 31.7536 56.0552C31.7411 56.0178 31.7411 55.9929 31.7286 55.9555L31.5411 54.6963C31.4662 54.1728 31.8286 53.6741 32.3534 53.5993C32.8783 53.5245 33.3781 53.886 33.4531 54.4096L33.6406 55.6064C33.7155 55.8432 33.9405 55.9804 34.1904 55.9679L39.264 55.5441C39.5514 55.5191 39.7763 55.2573 39.7513 54.9706C39.7513 54.9457 39.7389 54.9207 39.7388 54.8833C39.7264 54.8459 39.7264 54.7961 39.7139 54.7587L39.5889 53.5245C39.5389 52.9885 39.9388 52.5272 40.4636 52.4773Z" fill="#00C8A3"/>
<path d="M55.8218 40.3598L59.1209 40.6714C59.6582 40.7213 60.0456 41.1826 59.9957 41.7186C59.9581 42.2297 59.5332 42.6162 59.0334 42.6037H58.9335L55.6344 42.2796C55.0971 42.2297 54.7097 41.756 54.7596 41.2199C54.8096 40.6839 55.2845 40.2975 55.8218 40.3598Z" fill="#00C8A3"/>
<path d="M11.4093 24.6518C11.8967 23.6919 13.0213 23.2306 14.0336 23.5922C14.5457 23.7668 14.8083 24.3278 14.6334 24.8264C14.4584 25.3373 13.896 25.599 13.3962 25.4248C13.2963 25.3874 13.1963 25.4372 13.1463 25.5245L12.7714 26.26C12.7215 26.3597 12.759 26.472 12.8589 26.5218C13.321 26.7837 13.4961 27.3696 13.2338 27.8308C13.0464 28.1423 12.7213 28.3418 12.3715 28.3419C12.2092 28.3419 12.0466 28.292 11.9092 28.2173C10.9095 27.6688 10.5221 26.4221 11.0344 25.3998L11.4093 24.6518Z" fill="#00C8A3"/>
<path fill-rule="evenodd" clip-rule="evenodd" d="M11.8092 19.3541C13.5337 17.8831 15.2957 17.4343 16.6203 18.1324C16.6817 18.1643 16.7413 18.1986 16.7997 18.2346C16.9062 18.2809 17.0067 18.3461 17.0952 18.4316C17.1077 18.4441 17.1327 18.469 17.1452 18.4815L17.1714 18.5089C17.3001 18.6213 17.4194 18.7459 17.5288 18.8823L29.1943 31.079L33.928 32.0819C34.3028 32.1567 34.6028 32.4559 34.6778 32.8299C35.1401 35.0489 33.3281 38.0532 31.4037 39.2752C31.2413 39.3624 31.0662 39.4123 30.8788 39.4123C30.6289 39.4123 30.379 39.3125 30.1915 39.138L26.7469 35.749L9.77226 33.3043C9.73161 33.2985 9.69225 33.2887 9.65354 33.2781C9.37191 33.226 9.10026 33.1343 8.84752 33.0045C6.52325 31.7952 6.43582 27.6815 8.66007 23.4432C9.52233 21.7852 10.622 20.3764 11.8092 19.3541ZM29.4524 33.1042C29.2792 33.7141 28.9803 34.2863 28.5557 34.8177L30.9538 37.1808C31.916 36.2956 32.6908 34.8868 32.7908 33.8148L29.4524 33.1042ZM18.3811 22.5842C18.2548 24.1831 17.7093 25.9763 16.8078 27.7068C15.8788 29.4836 14.7352 30.915 13.5493 31.8893L26.8806 33.8148C27.2803 33.391 27.5554 32.8547 27.6554 32.2814L18.3811 22.5842ZM15.2707 19.74C14.6834 19.74 13.8836 20.1265 13.0713 20.8246C12.0716 21.6723 11.1219 22.919 10.3721 24.3402C8.52262 27.8931 8.74752 30.7859 9.74726 31.2965C9.83213 31.3399 9.92812 31.3676 10.0334 31.3825C10.038 31.3831 10.0426 31.3832 10.0472 31.3838L10.0853 31.3888C11.2362 31.4979 13.4412 29.9997 15.1083 26.8085C15.9455 25.2004 16.4579 23.4799 16.4954 22.0837C16.5204 20.9493 16.2454 20.114 15.7456 19.8522C15.5956 19.7774 15.4332 19.74 15.2707 19.74Z" fill="#00C8A3"/>
<path d="M17.745 35.0365C18.2823 35.0865 18.6697 35.5602 18.6198 36.0837L18.5698 36.6696C18.5698 36.7195 18.5573 36.7569 18.5448 36.8068C18.5198 36.919 18.5823 37.0187 18.6948 37.0561H18.7322L22.6811 37.3927C22.7686 37.4051 22.8561 37.3552 22.8811 37.268L22.9811 36.5824C23.0561 36.0588 23.5559 35.6972 24.0807 35.772C24.6055 35.8469 24.9679 36.3456 24.893 36.8691L24.7805 37.6296C24.7805 37.6669 24.768 37.692 24.7556 37.7293C24.5181 38.6767 23.6683 39.3374 22.6936 39.3375C22.6312 39.3375 22.5686 39.3375 22.5062 39.325L18.5573 38.9884C17.3826 38.8887 16.5079 37.854 16.6078 36.6821C16.6203 36.5949 16.6203 36.52 16.6453 36.4328L16.6953 35.9092C16.7453 35.3731 17.2202 34.9867 17.745 35.0365Z" fill="#00C8A3"/>
<path d="M57.7463 32.8549C58.2212 32.618 58.8086 32.8175 59.0459 33.2912C59.2833 33.7649 59.0834 34.3509 58.6086 34.5877L54.2348 36.7569C54.0975 36.8191 53.9478 36.8566 53.798 36.8566C53.2607 36.8442 52.8353 36.4078 52.8477 35.8718C52.8477 35.5103 53.0603 35.1862 53.3725 35.024L57.7463 32.8549Z" fill="#00C8A3"/>
<path d="M51.4856 27.8557C51.7854 27.4071 52.3853 27.295 52.8227 27.5815C53.2475 27.8557 53.385 28.4168 53.1351 28.8655L51.4481 31.6082C51.2731 31.8825 50.9607 32.057 50.6233 32.057C50.0861 32.0568 49.6611 31.6206 49.6611 31.0971C49.6611 30.9226 49.7111 30.7479 49.7985 30.5984L51.4856 27.8557Z" fill="#00C8A3"/>
<path fill-rule="evenodd" clip-rule="evenodd" d="M51.9729 2C53.7848 2.00005 55.2594 3.4712 55.2595 5.27872V19.7032C55.2594 21.5107 53.7848 22.9819 51.9729 22.9819H41.5508L38.8016 28.3924C38.6391 28.7165 38.3142 28.916 37.9519 28.916L37.9394 28.9154C37.5894 28.9154 37.2645 28.7284 37.0896 28.4167L34.028 22.9688H28.4545C26.6425 22.9688 25.1804 21.4978 25.1679 19.6901V5.27872C25.168 3.47117 26.6426 2.01245 28.4545 2H51.9729ZM28.4545 3.93232C27.7047 3.93232 27.1049 4.53071 27.1049 5.27872V19.7026C27.1049 20.4506 27.7047 21.049 28.4545 21.049H34.5903C34.9401 21.049 35.2651 21.236 35.4401 21.5476L37.8894 25.911L40.0888 21.585C40.2512 21.261 40.5886 21.049 40.951 21.0614H51.9729C52.7227 21.0614 53.3225 20.4631 53.3225 19.715V5.27872C53.3224 4.53083 52.7226 3.93232 51.9729 3.93232H28.4545Z" fill="#00C8A3"/>
<path d="M5.26102 25.2378C5.79836 25.2004 6.26071 25.5993 6.28574 26.1354C6.32323 26.6465 5.94834 27.0953 5.44847 27.1576L1.0747 27.5815H0.974726C0.43738 27.5815 0 27.1576 0 26.6215C2.30915e-05 26.1229 0.387421 25.699 0.887251 25.6616L5.26102 25.2378Z" fill="#00C8A3"/>
<path d="M1.27464 19.179C1.51207 18.7053 2.09949 18.5059 2.57428 18.7427L7.28546 21.0864C7.76032 21.3232 7.96028 21.8967 7.72283 22.3829C7.56033 22.7069 7.2229 22.919 6.84808 22.919C6.6982 22.9189 6.54809 22.8815 6.4232 22.8192L1.71202 20.4755C1.23732 20.2386 1.03739 19.6526 1.27464 19.179Z" fill="#00C8A3"/>
<path d="M6.53567 13.6438C6.99803 13.3696 7.58538 13.5067 7.86029 13.9679L10.1596 17.7079C10.4343 18.1567 10.297 18.7551 9.84724 19.0294C9.68484 19.1166 9.50977 19.1665 9.33488 19.1665C8.99758 19.1665 8.68513 18.9918 8.51011 18.7053L6.21076 14.9653C5.93583 14.5165 6.0733 13.9181 6.53567 13.6438Z" fill="#00C8A3"/>
</svg>
