<svg width="60" height="60" viewBox="0 0 60 60" fill="none" xmlns="http://www.w3.org/2000/svg">
<path d="M30.3062 39.0084C31.1563 39.0084 31.994 39.2472 32.7192 39.6872L38.9454 43.4959C40.4707 44.426 40.9458 46.4246 40.0207 47.9456C39.108 49.454 37.1575 49.9442 35.6448 49.0643L29.8686 45.6704C29.206 45.2808 28.3558 45.4443 27.8807 46.0601L22.142 53.5272C21.8046 53.9923 21.9045 54.6334 22.3671 54.9727C22.5421 55.0984 22.7547 55.1738 22.9672 55.1738C23.2922 55.1738 23.6048 55.0103 23.7924 54.7465L24.8226 53.343C24.8377 53.3206 24.8518 53.2973 24.8676 53.2752L25.8178 51.9679C25.8449 51.9322 25.8744 51.8993 25.9053 51.8686L27.5306 49.6557C27.8432 49.2157 28.4433 49.1152 28.8809 49.4169C29.3184 49.7311 29.4185 50.3345 29.1184 50.7744C29.1061 50.7869 29.1059 50.7996 29.0934 50.8121L26.3479 54.5629C26.0888 55.0389 26.2098 55.6434 26.6554 55.9651C26.8429 56.1033 27.0681 56.1788 27.3056 56.1788C27.6556 56.1787 27.9808 56.0153 28.1932 55.7263L30.9188 51.9679C31.2314 51.528 31.844 51.44 32.2816 51.7542C32.719 52.0685 32.8066 52.6844 32.4941 53.1243L32.064 53.7138C32.0409 53.7659 32.0143 53.8172 31.9815 53.8659L31.0313 55.1732C30.6688 55.6634 30.7813 56.3547 31.2689 56.7067C31.4564 56.8449 31.6815 56.9204 31.9065 56.9204C32.2565 56.9203 32.5817 56.7569 32.7942 56.4679L35.5197 52.7095C35.8323 52.2697 36.445 52.1816 36.87 52.4958C37.295 52.8101 37.395 53.426 37.0826 53.8534L36.0336 55.2989C36.0061 55.3775 35.9691 55.454 35.9198 55.5252L35.0697 56.6816C34.7821 57.0587 34.8696 57.5992 35.2447 57.8883C35.3947 58.0014 35.5823 58.0643 35.7698 58.0643C36.0448 58.0642 36.295 57.9385 36.4574 57.7123L38.4828 54.8715C39.7831 53.0616 41.8586 51.9805 44.084 51.9805H55.0106C55.5482 51.9553 55.9983 52.3828 56.0108 52.9232C56.0233 53.4637 55.6107 53.9162 55.0731 53.9288H44.0715C42.4712 53.9288 40.9834 54.7082 40.0457 56.0028L38.0077 58.8436C37.4827 59.56 36.6449 59.9873 35.7573 60C34.6932 60 33.767 59.4042 33.293 58.5249C32.8669 58.7477 32.3904 58.8687 31.894 58.8687C30.7891 58.8687 29.8259 58.2726 29.2978 57.3836C28.7486 57.8663 28.0422 58.1396 27.3056 58.1397C26.1726 58.1397 25.1886 57.5127 24.67 56.586C24.1813 56.9296 23.5966 57.1215 22.9797 57.1215C21.3419 57.1215 20.0166 55.7891 20.0166 54.1425C20.0166 53.5014 20.2166 52.8855 20.5917 52.3701L20.6042 52.3576L26.3554 44.8785C27.4181 43.496 29.3436 43.1188 30.8438 43.9986L36.62 47.3925C37.2326 47.7568 38.0203 47.5558 38.3828 46.94C38.7452 46.3242 38.5451 45.5322 37.9327 45.1676L31.7058 41.359C31.2809 41.0952 30.7936 40.9568 30.2937 40.9568H0.962696C0.425089 40.9316 0.0124585 40.4917 0.0250051 39.9512C0.0375125 39.4358 0.450121 39.0335 0.962696 39.0084H30.3062Z" fill="#00C8A3"/>
<path d="M18.0912 51.9673C18.6287 51.9924 19.0413 52.4325 19.0289 52.9729C19.0164 53.4882 18.6038 53.903 18.0912 53.9156H7.41401C6.8764 53.8904 6.46377 53.4505 6.47632 52.91C6.48896 52.3948 6.90152 51.9924 7.41401 51.9673H18.0912Z" fill="#00C8A3"/>
<path d="M59.0495 39.021C59.5871 39.0462 59.9998 39.4861 59.9872 40.0266C59.9621 40.5418 59.562 40.9567 59.0495 40.9693H37.3326C36.7951 40.9442 36.3825 40.5041 36.3949 39.9637C36.4074 39.4484 36.82 39.0461 37.3326 39.021H59.0495Z" fill="#00C8A3"/>
<path d="M30.0936 5.64818C30.3062 5.23338 30.7688 5.01969 31.2189 5.14539C31.6564 5.27113 31.9565 5.68591 31.919 6.1384C31.919 6.52803 32.0816 6.90515 32.3566 7.16913C32.7817 7.55874 33.5694 7.70962 34.6071 7.58393C35.1446 7.52112 35.6197 7.91078 35.6823 8.43868C35.6948 8.51407 35.6948 8.60212 35.6823 8.6775L35.3822 10.8898C35.3197 11.3674 34.9196 11.732 34.432 11.7445C34.3945 11.7445 34.3445 11.7445 34.307 11.732C33.7819 11.6565 33.4069 11.1663 33.4818 10.6384L33.6194 9.56996C32.5317 9.51968 31.6689 9.18024 31.0313 8.57694C30.8938 8.43872 30.7563 8.30034 30.6437 8.137C29.5686 9.1677 28.1307 9.72073 26.6554 9.69566V10.7641C26.6304 11.3045 26.1927 11.7194 25.6552 11.7068C25.1427 11.6943 24.7426 11.2794 24.7175 10.7641V8.60208C24.7175 8.06158 25.1551 7.63421 25.6802 7.63421C25.7677 7.63422 25.8428 7.64679 25.9303 7.67192C26.4679 7.77246 27.0181 7.77247 27.5431 7.67192C28.6558 7.44565 29.5185 6.76685 30.0936 5.64818Z" fill="#00C8A3"/>
<path fill-rule="evenodd" clip-rule="evenodd" d="M26.5429 0.469422C28.7557 -0.372612 31.0309 -0.0708917 33.0186 1.28646C34.3937 0.720881 35.394 1.03513 36.0067 1.42473C38.5321 3.02104 38.4822 8.36264 38.3947 9.95962C38.3572 10.5504 38.2697 11.1287 38.1321 11.6943C38.4322 12.3353 38.5072 13.2278 38.3197 14.1956C38.0446 15.6537 37.282 16.697 36.4068 16.9233C36.0221 17.8073 35.5168 18.5886 34.9196 19.2443V20.7546L36.0524 22.3516L39.5087 23.5099C39.9726 23.6486 44.6467 25.1703 45.5968 31.1146C45.6093 31.1649 45.6093 31.2152 45.6093 31.2654V37.1481C45.5967 37.6886 45.1717 38.116 44.6341 38.116C44.0966 38.1158 43.6714 37.6759 43.6714 37.1481V31.3409C42.8712 26.5017 39.008 25.3827 38.9704 25.3702L38.9204 25.3576L36.3855 24.5136L36.2699 28.9903C36.2449 29.5182 35.8198 29.933 35.2947 29.933C35.1197 29.933 34.9446 29.8827 34.7946 29.7948L32.9661 28.6823L32.3191 30.461L33.5193 36.9966C33.6193 37.5245 33.2692 38.0273 32.7442 38.1279C32.6817 38.1154 32.6191 38.1285 32.5566 38.1285C32.0941 38.1285 31.6941 37.7891 31.6064 37.3366L30.3562 30.549C30.3187 30.373 30.3437 30.1969 30.4062 30.0336L31.2814 27.6573L30.0161 26.8874L28.7602 27.651L29.7061 30.033C29.7686 30.2089 29.7935 30.3975 29.7561 30.5735L28.4558 37.3234C28.3683 37.7885 27.9682 38.1285 27.5056 38.1285C27.4431 38.1285 27.3805 38.1285 27.3181 38.116C26.7931 38.0154 26.4555 37.4999 26.5554 36.9721L27.7932 30.498L27.0755 28.6767L25.2176 29.8073C25.0677 29.8827 24.8925 29.933 24.7175 29.933C24.1924 29.933 23.7673 29.5182 23.7548 28.9903L23.6379 24.4884L21.1043 25.3325L21.0543 25.3451C20.9043 25.3953 17.1411 26.5393 16.3533 31.3283V37.1481C16.3408 37.6885 15.9156 38.1158 15.3781 38.116C14.8405 38.116 14.4154 37.676 14.4029 37.1481V31.2529C14.4029 31.2026 14.4029 31.1523 14.4154 31.102C15.3532 25.1566 20.0416 23.6231 20.5042 23.4847L23.9786 22.3239L25.0926 20.7546V19.2726C24.4925 18.62 23.9831 17.842 23.5923 16.961C22.6421 16.8353 21.7919 15.7668 21.4919 14.1956C21.2543 12.9764 21.4419 11.9079 21.942 11.2795C21.6419 9.6328 21.4419 7.74731 21.7919 5.79902C22.1921 3.5616 24.1425 1.3744 26.5429 0.469422ZM25.5427 23.4596L25.6427 27.2557L28.5308 25.5085L26.1053 22.6803L25.5427 23.4596ZM31.4814 25.5085L34.3695 27.2557L34.4695 23.4596L33.9069 22.6677L31.4814 25.5085ZM32.9942 20.7527C32.0736 21.2433 31.0556 21.5112 29.9936 21.5113C28.9385 21.5113 27.9302 21.2487 27.018 20.7678V20.7722L30.0005 24.2515L32.9942 20.7596V20.7527ZM32.3185 3.22221C30.3306 1.63862 28.4427 1.85211 27.2174 2.32975C25.4547 2.99603 23.9792 4.61753 23.6917 6.18868C23.3541 8.04896 23.6292 9.92198 23.9543 11.5183C24.0418 11.9456 23.8292 12.3856 23.4292 12.5867C23.3666 12.7501 23.2792 13.2153 23.4041 13.8688C23.4666 14.2459 23.6042 14.6105 23.8042 14.9247C23.9168 14.8493 24.0549 14.8241 24.1799 14.8116C24.2423 14.8116 24.305 14.8242 24.3675 14.8367C24.7049 14.8996 24.9801 15.151 25.0926 15.4778C25.9178 17.9539 27.8302 19.5628 29.993 19.5629C32.1059 19.5629 34.0194 18.0043 34.8571 15.5909C35.0197 15.1259 35.5073 14.8493 35.9823 14.9624C36.2073 14.6231 36.3699 14.2458 36.4324 13.8437C36.5699 13.0898 36.4324 12.5994 36.3699 12.5113C36.1699 12.2725 36.0949 11.9582 36.1699 11.6565C36.3199 11.0784 36.4199 10.4875 36.4699 9.8842C36.6324 6.55345 36.0197 3.763 34.9821 3.09651C34.8446 3.00852 34.4439 2.75713 33.5187 3.22221C33.4563 3.27242 33.3936 3.31023 33.3187 3.34791C32.9937 3.49861 32.6059 3.44841 32.3185 3.22221Z" fill="#00C8A3"/>
<path fill-rule="evenodd" clip-rule="evenodd" d="M8.98996 3.9764C10.6402 3.34798 12.3407 3.54906 13.8409 4.5169C14.8786 4.1399 15.6414 4.37865 16.1289 4.69287C18.0415 5.8998 18.0793 9.60779 17.9918 11.1538C17.9668 11.5685 17.9043 11.9708 17.8168 12.3856C18.0292 12.9009 18.0793 13.5673 17.9418 14.2836C17.8542 14.8115 17.6542 15.3018 17.3542 15.7417C17.1417 16.0559 16.829 16.3074 16.479 16.4331C16.2117 17.0165 15.8727 17.5391 15.4782 17.9892V19.7138L15.8532 19.8143L15.9032 19.8269L18.6538 20.7445C19.1662 20.9205 19.4288 21.4611 19.2664 21.9764C19.1289 22.3785 18.7662 22.6425 18.3412 22.6425C18.2413 22.6425 18.1287 22.6299 18.0412 22.5923L16.9128 22.2177C15.8452 24.986 13.6492 25.9987 11.8399 25.9987C8.64107 25.9987 7.16859 23.8294 6.64948 22.1152L5.21356 22.5923L5.16355 22.6048C5.06353 22.63 2.488 23.4345 1.92539 26.7277V30.9386C1.93788 31.4791 1.50029 31.9191 0.962696 31.9191C0.425089 31.9191 0 31.4791 0 30.9512V26.6523C3.77836e-09 26.6021 7.02763e-06 26.5517 0.0125025 26.5015C0.712706 22.0393 4.23841 20.8576 4.62594 20.7445L7.364 19.8269L7.41401 19.8143L7.78909 19.7138V18.0345C7.38661 17.5845 7.03957 17.0597 6.7645 16.4708C6.01438 16.2948 5.38929 15.4776 5.16418 14.2711C4.98914 13.3661 5.11417 12.5616 5.46424 12.0336C5.2517 10.8395 5.1142 9.46934 5.36422 8.06158C5.67678 6.32696 7.13953 4.68034 8.98996 3.9764ZM13.5403 19.4153C12.9369 19.6743 12.2872 19.8143 11.6149 19.8143C10.9562 19.8143 10.3198 19.6809 9.72698 19.4329V20.4554C9.72698 20.8953 9.42688 21.285 9.00184 21.3981L8.49798 21.5345C8.77039 22.4689 9.56475 24.0504 11.8274 24.0504C12.3844 24.0504 14.1392 23.8631 15.0643 21.6187L14.2529 21.3981C13.8278 21.285 13.5403 20.8953 13.5403 20.4554V19.4153ZM13.1402 6.3898C11.7899 5.30883 10.5146 5.45964 9.67697 5.77388C8.47683 6.22644 7.46403 7.3326 7.27648 8.37583C7.03899 9.68299 7.23899 11.0281 7.46402 12.1593C7.53898 12.549 7.37647 12.9513 7.05144 13.1649C7.01396 13.4037 7.01394 13.6426 7.06394 13.8814C7.10145 14.0573 7.15147 14.2208 7.22647 14.3842C7.27639 14.4093 7.32659 14.4093 7.3765 14.4093C7.43892 14.4093 7.50163 14.4219 7.56404 14.4219C7.90161 14.4973 8.17667 14.7361 8.28919 15.063C8.85178 16.7597 10.1522 17.8533 11.6024 17.8535C13.0276 17.8535 14.3279 16.7849 14.903 15.1384C15.0405 14.7362 15.4158 14.4722 15.8407 14.4848C15.9407 14.2963 16.0033 14.1076 16.0408 13.894C16.1033 13.6426 16.1033 13.366 16.0408 13.1146C15.8533 12.8759 15.7908 12.5741 15.8532 12.285C15.9657 11.8829 16.0283 11.4679 16.0658 11.0406C16.1908 8.46382 15.6657 6.69147 15.1031 6.32695C14.928 6.21389 14.6655 6.25156 14.3154 6.41494C14.2654 6.45259 14.2028 6.4904 14.1404 6.5155C13.8154 6.66619 13.4277 6.61599 13.1402 6.3898Z" fill="#00C8A3"/>
<path fill-rule="evenodd" clip-rule="evenodd" d="M45.7718 3.9764C47.4222 3.34791 49.1225 3.54903 50.6228 4.5169C51.6605 4.1398 52.4232 4.37863 52.9108 4.69287C54.8236 5.89957 54.8487 9.6073 54.7612 11.1412C54.7362 11.5559 54.6736 11.9582 54.5861 12.373C54.7987 12.8884 54.8487 13.5546 54.7112 14.2711C54.6236 14.799 54.4111 15.2892 54.1235 15.7292C53.911 16.0434 53.5984 16.2948 53.2484 16.4205C52.9737 17.0157 52.6263 17.5469 52.2231 18.003V19.7264L52.5982 19.8269L52.6482 19.8395L55.3738 20.7445C55.7742 20.8578 59.2871 22.0395 59.9872 26.5015C59.9997 26.5517 59.9997 26.6021 59.9997 26.6523V30.9386C60.0122 31.4791 59.5871 31.919 59.0495 31.9191C58.5119 31.9191 58.0868 31.4791 58.0743 30.9512V26.7403C57.5117 23.3968 54.8612 22.63 54.8362 22.6174L54.7862 22.6048L53.6609 22.2309C52.5897 24.98 50.4011 25.9872 48.5974 25.9987C45.3322 25.9987 43.8922 23.8005 43.4257 22.1134L41.9836 22.5923C41.8711 22.6299 41.771 22.6425 41.671 22.6425C41.1335 22.6424 40.7083 22.2025 40.7083 21.6621C40.7084 21.2474 40.971 20.8702 41.3709 20.7445L44.1215 19.8269L44.1715 19.8143L44.5466 19.7138V18.0219C44.149 17.5748 43.8063 17.0541 43.5339 16.4708C43.1213 16.3577 42.7587 16.0936 42.5212 15.7292C42.2211 15.2893 42.0211 14.7864 41.9336 14.2711C41.7585 13.3661 41.8836 12.5616 42.2336 12.0336C42.0211 10.8395 41.8836 9.46934 42.1461 8.06158C42.4586 6.327 43.9215 4.68037 45.7718 3.9764ZM50.2853 19.4222C49.688 19.677 49.047 19.8143 48.3849 19.8143C47.7215 19.8143 47.0809 19.6786 46.4845 19.4272V20.4554C46.4845 20.8953 46.1969 21.2851 45.7718 21.3981L45.273 21.5333C45.4922 22.3995 46.2246 24.0503 48.5849 24.0504C49.1407 24.0504 50.8896 23.8641 51.8162 21.6332L50.9979 21.4107C50.5728 21.2976 50.2853 20.9079 50.2853 20.468V19.4222ZM49.9102 6.3898C48.5599 5.30879 47.2846 5.45964 46.447 5.77388C45.2467 6.22639 44.234 7.33253 44.0465 8.37583C43.809 9.68301 44.009 11.0281 44.234 12.1593C44.309 12.5489 44.1465 12.9513 43.8214 13.1649C43.784 13.4037 43.7839 13.6426 43.8339 13.8814C43.8714 14.0573 43.9215 14.2208 43.9965 14.3842C44.0464 14.4093 44.0965 14.4093 44.1465 14.4093C44.209 14.4093 44.2715 14.4219 44.334 14.4219C44.6716 14.4973 44.9467 14.7361 45.0592 15.063C45.6218 16.7598 46.9221 17.8534 48.3724 17.8535C49.7976 17.8535 51.0979 16.7849 51.673 15.1384C51.8106 14.7361 52.1857 14.4721 52.6107 14.4848C52.7107 14.2963 52.7733 14.1076 52.8108 13.894C52.8733 13.6426 52.8732 13.366 52.8108 13.1146C52.6233 12.8759 52.5608 12.5741 52.6232 12.285C52.7357 11.8829 52.7983 11.468 52.8358 11.0406C52.9608 8.46397 52.4357 6.69161 51.8731 6.32695C51.698 6.21382 51.4355 6.25153 51.0854 6.41494C51.0354 6.45263 50.9729 6.49037 50.9104 6.5155C50.5854 6.6663 50.1977 6.61597 49.9102 6.3898Z" fill="#00C8A3"/>
</svg>
