<svg width="60" height="60" viewBox="0 0 60 60" fill="none" xmlns="http://www.w3.org/2000/svg">
<path fill-rule="evenodd" clip-rule="evenodd" d="M16.2004 0.237821C21.6703 -0.36798 24.9771 0.176065 26.631 1.9563C27.6379 3.0444 27.9743 4.54082 27.6263 6.4202C27.4466 7.36085 27.1578 8.10804 26.7567 8.64597C27.4108 12.1459 28.3186 19.9606 24.1356 22.9605L25.4669 23.6143C25.5197 23.6286 25.5725 23.6462 25.6239 23.6698C26.6434 24.1644 27.7378 24.7209 28.72 25.2402C30.0377 25.945 31.1066 26.5882 31.9146 27.1199C34.7368 29.0241 34.8738 31.5965 34.9857 33.6615C35.0105 34.1931 34.6125 34.6383 34.0779 34.663L34.0037 34.6877C33.4939 34.6877 33.0715 34.2918 33.0466 33.7849C32.9472 31.8806 32.8474 30.0999 30.8208 28.7273C30.0749 28.2327 29.0553 27.6272 27.7997 26.9472C27.3886 26.7295 26.9568 26.5048 26.5192 26.2803C26.3145 28.0735 25.4456 29.9568 24.6661 30.9169C24.3802 31.263 23.9697 31.4858 23.5098 31.5105L23.4106 31.5097C23.2251 31.5097 23.0429 31.4775 22.8715 31.4172L22.3169 33.1665C22.7022 34.032 23.0254 34.9099 23.2864 35.8125C23.4356 36.3194 23.1373 36.8512 22.6278 36.9998C22.5409 37.0245 22.4537 37.0368 22.3544 37.0368C21.9316 37.0368 21.5584 36.7525 21.434 36.3568C21.1605 35.4296 20.8123 34.5146 20.4145 33.6368C20.315 33.4143 20.2899 33.1787 20.3645 32.9437L21.1942 30.3356L19.0903 28.9162L17.5942 30.7434L19.1465 33.2043C19.2087 33.3156 19.2584 33.4268 19.2832 33.5505C19.6811 35.7886 19.0849 38.6082 18.5254 41.3411C18.2063 42.8665 17.9059 44.3241 17.7903 45.5876L19.0473 45.7919C19.5694 45.8784 19.9302 46.3728 19.8309 46.892C19.7563 47.3496 19.3581 47.6962 18.8981 47.6962C18.8484 47.6962 18.7861 47.6962 18.7364 47.6838L9.41206 46.1627C8.93971 46.0884 8.60424 45.6804 8.60424 45.2106V39.9927C8.6291 39.461 9.06417 39.0528 9.59878 39.0652L9.69331 39.0721C10.1569 39.1292 10.5075 39.5175 10.5308 39.9927V44.4072L15.8871 45.2776C16.0226 43.9408 16.3202 42.4737 16.6356 40.9448C17.1453 38.4718 17.6794 35.9118 17.4184 34.057L16.3098 32.3092L16.1754 32.4742C15.9019 32.8451 15.4915 33.0923 15.0316 33.1419C14.9695 33.1419 14.9071 33.1542 14.8574 33.1542C14.4348 33.1542 14.0245 32.9813 13.7262 32.6847C13.1203 32.0821 11.4799 28.4498 10.3355 25.7892C10.3091 25.8045 10.283 25.8196 10.2574 25.8347L10.2449 25.847L10.2199 25.8593C8.10633 27.0958 6.26636 28.2583 4.74951 29.3217C2.18848 31.1023 1.93937 35.8624 1.95183 37.8162V46.3485C1.9394 48.9081 3.71773 51.1341 6.21671 51.7029L9.07143 52.0529C9.08983 52.0544 9.10804 52.0565 9.12612 52.0591L15.9012 52.8902C16.4233 52.952 16.8094 53.4216 16.7473 53.9533C16.6851 54.4232 16.2742 54.7937 15.777 54.7937C15.7397 54.7937 15.69 54.7937 15.6527 54.7813L9.94643 54.0774V59.0479C9.94627 59.5671 9.52312 60 8.98861 60C8.45424 59.9999 8.03174 59.567 8.03157 59.0479V53.8415L5.91827 53.5817C5.89341 53.5817 5.85557 53.5694 5.81827 53.5694C2.4118 52.8274 -0.0122231 49.8101 0.00025311 46.3354V37.8162C-0.0121801 35.0093 0.423039 29.9646 3.61825 27.7513C5.17232 26.6631 7.06202 25.476 9.21284 24.2149L9.22534 24.2025L9.25034 24.1902C9.47402 24.0666 9.72213 23.9175 9.97065 23.7692L10.3941 23.5341C10.3985 23.5297 10.4039 23.5288 10.4089 23.5264L12.2402 21.9706L12.4144 21.2096C12.1572 20.8564 11.9829 20.4867 11.9355 20.1095C11.9289 20.0485 11.92 19.9877 11.9129 19.9267C10.9883 19.6319 10.051 18.8518 9.26284 17.6855C8.2683 16.2018 7.67148 14.4832 7.5347 12.7028C7.43523 11.256 7.42281 8.42371 8.54174 5.77721C9.90935 2.56244 12.5579 0.645842 16.2004 0.237821ZM11.9605 24.7083C13.0795 27.305 14.3229 30.0132 14.8824 31.0024L17.2067 28.1583C14.9192 27.1567 13.502 25.2401 12.7933 24.0036L11.9605 24.7083ZM23.4606 24.7707C23.1001 26.0814 22.2292 27.2191 21.0481 27.924L23.3364 29.4698C23.9953 28.4929 24.704 26.6874 24.6294 25.3397L23.4606 24.7707ZM14.348 22.8564C14.9673 23.98 16.4324 26.1059 18.9012 26.7359C20.851 26.2686 21.4627 24.9423 21.6551 24.093C20.9799 24.2659 20.2823 24.3499 19.5817 24.3382C18.0526 24.3258 16.5608 23.9673 15.1809 23.2997C14.905 23.1695 14.6238 23.0204 14.348 22.8564ZM14.3355 7.90508C14.0993 8.1029 13.6512 8.86931 13.9246 10.3406C14.0489 10.9959 14.5214 11.7507 14.9441 12.4183C15.3668 13.0859 15.7031 13.6051 15.7777 14.1491C15.902 14.9775 15.3301 15.7446 14.4973 15.8684C14.4102 15.8807 14.3351 15.8807 14.248 15.8807H14.1613L13.316 15.7936C13.2911 16.3006 13.3282 16.7954 13.4152 17.29C13.5291 17.811 13.6265 18.337 13.7098 18.8644C13.7223 18.9151 13.7307 18.9672 13.7348 19.0209C13.7778 19.3051 13.8177 19.5896 13.8504 19.8743C13.9126 20.1341 14.7456 21.0615 16.4363 21.7663C17.4365 22.1779 19.892 22.9679 22.2223 21.8727C22.273 21.8417 22.327 21.8156 22.3833 21.794C22.519 21.7249 22.6552 21.6509 22.7895 21.5681C26.5438 19.2559 25.3011 11.2192 24.8411 8.80788C24.8359 8.77973 24.8277 8.75199 24.82 8.72461C24.8082 8.69462 24.7974 8.66442 24.7888 8.63364C24.6887 8.37774 24.4843 8.16901 24.2192 8.07777C23.9209 7.97888 23.9206 7.9792 23.5973 8.26357C22.7893 8.93123 21.7947 9.58653 19.3582 9.56188C16.6479 9.53715 15.2675 8.5601 14.534 8.04077C14.472 8.00371 14.3976 7.94215 14.3355 7.90508ZM25.2263 3.25538C24.0576 2.00646 21.0987 1.62277 16.4113 2.14211C9.31297 2.92116 9.28753 10.3028 9.46128 12.5532C9.60829 14.6003 10.5607 16.3805 11.4714 17.354C11.3122 16.3765 11.2293 14.9242 11.923 14.2231C12.2463 13.9017 12.6942 13.7534 13.1418 13.8276L13.5769 13.877C13.4775 13.7287 13.378 13.5558 13.291 13.4198C12.8061 12.6532 12.197 11.6883 12.0105 10.6744C11.7122 9.07936 11.9858 7.64511 12.7566 6.73012C13.2166 6.19855 13.8006 5.91362 14.4098 5.92601C14.8822 5.93837 15.2431 6.18594 15.616 6.45797C16.2625 6.91549 17.2447 7.60817 19.3457 7.63292C21.2851 7.65763 21.8694 7.16281 22.3419 6.77947C22.8143 6.39616 23.4858 5.82718 24.7911 6.2475C25.0825 6.34169 25.3518 6.48193 25.5927 6.65688C25.6429 6.48653 25.694 6.28981 25.7364 6.0617C25.9725 4.80064 25.8105 3.88596 25.2263 3.25538Z" fill="#00C8A3"/>
<path fill-rule="evenodd" clip-rule="evenodd" d="M40.9287 36.7523C41.7119 36.7525 42.3584 37.3834 42.3584 38.1747C42.3584 38.3107 42.3332 38.4466 42.2959 38.5826L41.6561 40.6889C41.9104 40.7381 42.1245 40.7803 42.2717 40.8091C42.4332 40.8462 42.5826 40.92 42.7069 41.0312C43.4031 41.637 43.5522 42.3176 43.5522 42.7751C43.5397 43.492 43.1792 44.1102 42.8436 44.5306C42.9928 45.186 42.8429 45.8662 42.4327 46.3979C42.5446 47.1521 42.3711 47.9066 41.9608 48.5496C42.0229 48.9575 41.9606 49.3654 41.7991 49.7361C41.5007 50.4286 40.9285 50.9232 40.3069 51.0221C39.8469 51.0839 39.3871 51.1092 38.9147 51.1092C38.7797 51.1092 38.6384 51.1052 38.4928 51.0992L37.1857 55.4737C36.8376 56.6483 35.7564 57.452 34.5381 57.452H19.8176C19.0346 57.4518 18.388 56.8215 18.3879 56.0426C18.3879 55.9066 18.4131 55.7577 18.4504 55.634L23.5481 38.756C23.8962 37.5566 25.0151 36.74 26.2708 36.7523H40.9287ZM26.27 38.6689C25.8723 38.669 25.5242 38.9288 25.4122 39.2996L20.5012 55.5477H34.5381C34.911 55.5476 35.234 55.3002 35.3459 54.954L36.5904 50.77C36.3237 50.6748 36.0702 50.5559 35.8435 50.4046C35.3587 50.1078 35.0479 49.6002 34.9857 49.0438C34.9361 48.4505 35.1849 47.9191 35.4459 47.5235C35.2097 46.831 35.4209 46.0393 35.8435 45.3717C35.7441 44.5185 36.0801 43.7516 36.4779 43.2199C36.3039 42.6636 36.341 42.0578 36.5771 41.5261C36.9128 40.7349 37.5592 40.2157 38.2553 40.1908C38.5463 40.1761 39.1195 40.2471 39.7522 40.3473L40.2569 38.6689H26.27ZM38.4795 42.1074C38.3926 42.2187 38.3427 42.3423 38.3303 42.4783C38.3055 42.5648 38.3307 42.6639 38.3928 42.7381C38.7406 43.1338 38.7155 43.7396 38.3178 44.0981C38.3054 44.0981 38.3052 44.1104 38.2928 44.1104C38.2807 44.1211 37.6238 44.7097 37.8209 45.31C37.9202 45.6189 37.8577 45.9649 37.6342 46.2244C37.4601 46.4346 37.2982 46.7568 37.2982 46.9052C37.696 47.2638 37.7212 47.8695 37.3607 48.2651C37.3483 48.2775 37.3357 48.2898 37.3232 48.3021C37.1492 48.4382 37.0126 48.624 36.9256 48.8094C37.5971 49.2297 39.1634 49.2422 39.9217 49.1309C39.9962 49.0568 40.0336 48.9576 40.0584 48.8464C39.7973 48.4631 39.8596 47.9436 40.2201 47.6345C40.531 47.3006 40.6302 46.8182 40.4686 46.3979C40.3194 46.0022 40.4564 45.5573 40.8045 45.3224C41.078 45.0998 40.9659 44.914 40.9037 44.8151C40.6551 44.407 40.73 43.8876 41.103 43.5784C41.3266 43.393 41.6247 42.9977 41.6373 42.7504C41.6373 42.701 41.6247 42.6634 41.5998 42.6263C41.2333 42.5534 40.8535 42.4815 40.4881 42.4143C40.3756 42.4223 40.2598 42.4122 40.1451 42.3788C40.0999 42.3656 40.057 42.3484 40.0155 42.3295C39.4849 42.2363 39.0151 42.1613 38.7022 42.1267L38.4795 42.1074Z" fill="#00C8A3"/>
<path fill-rule="evenodd" clip-rule="evenodd" d="M45.8022 7.64449C47.8784 7.64453 49.5569 9.31409 49.5569 11.379C49.5629 12.3706 49.1749 13.2698 48.5413 13.9379C50.1014 14.8679 51.1484 16.5662 51.1484 18.502C51.1607 19.0459 50.7258 19.4787 50.1913 19.4788C49.6568 19.4788 49.2336 19.0459 49.2335 18.5143C49.2335 16.6348 47.6919 15.1136 45.8022 15.1136C43.9125 15.1136 42.3834 16.6348 42.3834 18.5143C42.4082 19.0458 41.9857 19.4909 41.4514 19.5035C40.9168 19.5282 40.4685 19.1077 40.4561 18.576V18.502C40.4561 16.5579 41.5037 14.862 43.0639 13.9348C42.4337 13.2671 42.0475 12.3688 42.0475 11.379C42.0475 9.31406 43.726 7.64449 45.8022 7.64449ZM45.8022 9.54877C44.7827 9.54877 43.9624 10.3651 43.9624 11.379C43.9624 12.3096 44.6536 13.0715 45.5553 13.1908C45.6372 13.1871 45.7195 13.1847 45.8022 13.1846C45.8844 13.1846 45.9663 13.1871 46.0475 13.1908C46.95 13.0721 47.6421 12.3101 47.6421 11.379C47.6421 10.3651 46.8216 9.54882 45.8022 9.54877Z" fill="#00C8A3"/>
<path fill-rule="evenodd" clip-rule="evenodd" d="M56.7554 3.44118C58.5457 3.44127 59.9875 4.8879 60 6.66845V20.3808C60 22.1614 58.5457 23.5964 56.7554 23.6089H42.7561L37.3107 30.2484C37.1243 30.471 36.8505 30.5953 36.5646 30.5954C36.4528 30.5954 36.3406 30.5831 36.2412 30.5337C35.8558 30.3977 35.6069 30.0389 35.6068 29.6309V23.5965H34.7123C32.922 23.5965 31.4795 22.1498 31.4669 20.3693V6.66845C31.4669 4.88785 32.922 3.45359 34.7123 3.44118H56.7554ZM34.6998 5.3578C33.9787 5.3578 33.3819 5.93897 33.3818 6.66845V20.3816C33.3818 21.0988 33.9663 21.6923 34.6998 21.6923H36.5646L36.6631 21.6977C37.1501 21.747 37.5217 22.1575 37.5217 22.6444V26.9479L41.5498 22.0384C41.7363 21.8159 42.01 21.6923 42.2959 21.6923H56.7304C57.4515 21.6923 58.0484 21.1112 58.0484 20.3816V6.66845C58.0483 5.99624 57.5348 5.43268 56.8664 5.36474L56.7304 5.3578H34.6998Z" fill="#00C8A3"/>
</svg>
