<svg width="56" height="18" viewBox="0 0 56 18" fill="none" xmlns="http://www.w3.org/2000/svg">
<g id="Group 30666">
<g id="Vector">
<path d="M51.5931 0.869408H48.1658C47.1296 0.869408 46.3325 1.18823 45.8543 2.22439L39.3185 17.1292H43.9414C43.9414 17.1292 44.7385 15.1366 44.8979 14.6583C45.3761 14.6583 49.9193 14.6583 50.5569 14.6583C50.7163 15.2163 51.1148 17.0495 51.1148 17.0495H55.2595L51.5931 0.869408ZM46.1731 11.3107C46.5717 10.3543 47.9266 6.76756 47.9266 6.76756C47.9266 6.84727 48.3252 5.81111 48.4846 5.25317L48.8034 6.68786C48.8034 6.68786 49.6801 10.5934 49.8396 11.3904H46.1731V11.3107Z" fill="#002FBF"/>
<path d="M39.6379 11.7895C39.6379 15.1371 36.6091 17.3689 31.9065 17.3689C29.9139 17.3689 28.001 16.9703 26.9648 16.4921L27.6025 12.8257L28.1604 13.0648C29.5951 13.7024 30.5516 13.9416 32.3051 13.9416C33.5803 13.9416 34.9353 13.4633 34.9353 12.3475C34.9353 11.6301 34.3774 11.1519 32.6239 10.3548C30.9501 9.5578 28.7183 8.28252 28.7183 5.97108C28.7183 2.78289 31.8268 0.630859 36.2106 0.630859C37.8844 0.630859 39.3191 0.949679 40.1958 1.3482L39.5582 4.85521L39.2394 4.5364C38.4423 4.21758 37.4062 3.89876 35.8918 3.89876C34.218 3.97846 33.4209 4.69581 33.4209 5.33344C33.4209 6.05079 34.3774 6.60872 35.8918 7.32606C38.4423 8.52164 39.6379 9.87662 39.6379 11.7895Z" fill="#002FBF"/>
<path d="M20.7483 0.869145L13.814 17.0492H9.1114L5.12616 3.4994C7.99553 5.33261 10.3867 8.20199 11.2634 10.1946L11.7417 11.8684L16.0457 0.78944H20.7483V0.869145Z" fill="#002FBF"/>
<path d="M22.5804 0.78944H26.9642L24.1745 17.0492H19.7908L22.5804 0.78944Z" fill="#002FBF"/>
</g>
<path id="Vector_2" d="M0.740479 1.02976L0.820183 0.710938H7.6748C8.63125 0.710938 9.3486 1.02976 9.58771 2.06592L11.1021 9.23935C9.58771 5.41352 6.0807 2.30503 0.740479 1.02976Z" fill="#FFCF27"/>
</g>
</svg>
