<svg width="228" height="23" viewBox="0 0 228 23" fill="none" xmlns="http://www.w3.org/2000/svg">
<path d="M1.97217 18.1381C1.1521 18.2554 0.582419 19.0153 0.69976 19.8354C0.8171 20.6555 1.57703 21.2252 2.3971 21.1078L1.97217 18.1381ZM227.119 13.0866C227.746 12.5444 227.814 11.5972 227.272 10.9707L218.438 0.762477C217.896 0.136047 216.949 0.0676884 216.322 0.609794C215.696 1.1519 215.627 2.09918 216.17 2.72561L224.022 11.7996L214.948 19.6522C214.322 20.1943 214.253 21.1415 214.795 21.768C215.337 22.3944 216.285 22.4628 216.911 21.9207L227.119 13.0866ZM2.3971 21.1078C80.0107 10.0025 144.463 7.56229 226.03 13.4484L226.246 10.4562C144.465 4.55464 79.7979 7.00235 1.97217 18.1381L2.3971 21.1078Z" fill="#CCFE8D"/>
</svg>
